<?xml version="1.0" encoding="UTF-8" standalone="no"?>
<svg xmlns:xlink="http://www.w3.org/1999/xlink" height="236.0px" width="556.0px" xmlns="http://www.w3.org/2000/svg">
  <g transform="matrix(1.0, 0.0, 0.0, 1.0, 0.0, 0.0)">
    <use height="124.05" transform="matrix(1.6876, 0.0, 0.0, 1.6876, 73.452, 106.9203)" width="194.3" xlink:href="#shape0"/>
    <use height="157.95" transform="matrix(1.6876, 0.0, 0.0, 1.6876, 164.5521, 50.3159)" width="191.15" xlink:href="#shape1"/>
    <use height="97.35" transform="matrix(1.7857, 0.0, 0.0, 2.4138, -0.997, 0.017)" width="311.35" xlink:href="#sprite0"/>
    <use height="236.0" transform="matrix(1.0, 0.0, 0.0, 1.0, 0.0, 0.0)" width="556.0" xlink:href="#shape3"/>
  </g>
  <defs>
    <g id="shape0" transform="matrix(1.0, 0.0, 0.0, 1.0, 97.15, 62.0)">
      <path d="M19.5 -46.75 Q25.9 -41.55 25.7 -40.45 25.4 -38.8 23.6 -34.8 21.5 -30.15 20.35 -29.75 L1.8 -21.85 Q23.5 -8.75 62.5 28.0 82.0 46.35 97.15 62.05 L46.6 59.4 13.15 34.3 Q-13.7 14.15 -18.6 13.0 L-32.15 10.15 Q-40.3 8.15 -44.65 5.6 -45.6 9.7 -45.6 20.5 -45.6 30.6 -46.45 32.8 -47.65 36.15 -51.7 38.1 -55.65 40.05 -58.3 38.7 -61.75 36.95 -81.05 24.0 -83.6 24.25 -84.05 23.7 L-92.0 16.55 Q-91.95 15.1 -90.7 15.0 -93.85 10.0 -95.8 1.95 -97.55 -5.0 -97.0 -5.9 -96.6 -6.6 -92.4 -9.5 -87.85 -12.6 -86.65 -12.6 -85.55 -12.65 -84.05 -12.0 L-74.3 -6.6 -72.1 -4.4 -71.6 -1.35 Q-71.15 1.8 -71.4 2.2 -71.8 2.9 -74.5 4.2 L-70.15 8.3 Q-69.25 9.3 -68.55 11.95 L-61.4 17.1 -63.75 -8.55 Q-66.15 -10.25 -66.45 -13.8 -65.85 -14.2 -63.8 -16.9 L-61.0 -20.45 Q-63.25 -23.55 -73.0 -33.45 L-85.3 -45.85 Q-86.05 -48.2 -86.3 -56.9 -80.7 -60.2 -73.1 -62.0 -69.95 -61.85 -67.2 -60.45 -64.2 -56.95 -48.0 -40.65 L-29.15 -52.4 Q-28.7 -52.5 -26.9 -51.2 L-25.2 -49.9 Q-22.8 -57.95 -20.1 -58.85 -18.4 -59.4 -10.2 -57.05 L-2.25 -54.55 11.25 -52.2 Q13.1 -52.0 19.5 -46.75" fill="#000000" fill-rule="evenodd" stroke="none"/>
      <path d="M-67.75 -52.9 L-67.65 -52.8 Q-65.25 -51.2 -61.2 -45.8 L-54.0 -35.15 Q-48.0 -26.0 -48.0 -25.05 -47.85 -23.65 -57.0 -17.65 -76.15 -38.6 -84.4 -46.85 -84.8 -48.4 -84.6 -51.15 -84.6 -51.45 -83.0 -51.95 L-81.4 -52.4 Q-78.55 -58.3 -75.75 -60.35 L-72.95 -59.5 Q-70.0 -58.5 -69.4 -57.6 L-67.75 -52.9" fill="#f9cedd" fill-rule="evenodd" stroke="none"/>
      <path d="M-19.15 -57.35 Q-19.75 -53.75 -11.35 -54.4 -18.65 -43.65 -19.4 -43.0 -19.9 -42.55 -22.2 -44.6 -24.6 -46.6 -24.4 -47.35 -24.2 -48.35 -19.15 -57.35" fill="#f9cedd" fill-rule="evenodd" stroke="none"/>
      <path d="M-7.7 -49.0 L-4.15 -47.25 Q-4.35 -46.8 -13.45 -37.15 -14.25 -36.55 -16.2 -38.05 -18.1 -39.6 -17.8 -40.6 -17.4 -41.9 -10.95 -52.55 -11.35 -50.75 -7.7 -49.0" fill="#f9cedd" fill-rule="evenodd" stroke="none"/>
      <path d="M-3.0 -45.5 Q-4.0 -42.85 1.15 -38.4 -8.1 -32.6 -10.15 -32.4 -11.45 -32.25 -12.35 -33.7 -13.1 -35.0 -12.85 -35.6 L-3.0 -45.5" fill="#f9cedd" fill-rule="evenodd" stroke="none"/>
      <path d="M10.25 -51.05 L15.6 -48.0 22.2 -43.35 Q20.85 -44.15 13.85 -44.6 7.2 -45.0 6.95 -45.5 L-0.1 -53.0 10.25 -51.05" fill="url(#gradient0)" fill-rule="evenodd" stroke="none"/>
      <path d="M-27.4 -38.7 Q-27.85 -39.45 -27.0 -42.7 L-26.0 -45.75 Q-25.4 -44.25 -23.0 -42.45 -20.55 -40.65 -19.2 -40.8 -19.5 -37.95 -15.6 -34.4 -17.0 -31.4 -17.6 -31.95 -26.6 -37.5 -27.4 -38.7" fill="#f9cedd" fill-rule="evenodd" stroke="none"/>
      <path d="M-27.25 -47.3 L-28.25 -43.5 Q-29.2 -39.5 -29.05 -38.6 -28.8 -37.1 -20.2 -31.6 -19.6 -31.2 -18.35 -26.8 -16.85 -21.75 -16.55 -17.25 -15.55 -3.85 -25.4 -5.7 L-31.85 -9.5 Q-34.95 -11.55 -35.5 -13.3 -36.3 -18.45 -36.2 -24.05 -36.1 -30.15 -34.9 -31.0 L-36.4 -34.3 -39.05 -34.95 Q-36.6 -40.55 -35.7 -41.2 L-39.75 -44.1 -29.45 -50.45 -27.25 -47.3" fill="url(#gradient1)" fill-rule="evenodd" stroke="none"/>
      <path d="M-38.2 -41.0 L-40.25 -37.0 -41.9 -32.6 -38.8 -32.9 -39.25 -23.65 Q-39.35 -13.9 -37.45 -11.4 -29.95 -6.6 -6.5 6.45 L-3.75 12.0 Q-22.2 1.0 -40.75 -10.05 -43.4 -11.4 -44.2 -15.8 L-44.8 -25.15 -44.9 -34.45 Q-44.9 -38.8 -45.6 -39.35 L-45.3 -41.4 -42.0 -41.45 -38.2 -41.0" fill="url(#gradient2)" fill-rule="evenodd" stroke="none"/>
      <path d="M-65.0 -14.2 L-59.4 -17.8 -56.35 -11.9 Q-55.4 -10.6 -50.5 -10.2 L-43.6 -10.55 -29.35 -1.85 Q-31.15 -0.15 -37.6 1.4 -43.85 2.8 -45.95 2.2 L-50.4 -1.85 Q-53.75 -5.15 -56.75 -4.5 L-59.3 -9.85 -56.75 20.8 -53.8 24.35 Q-51.6 27.7 -52.55 30.55 -52.35 28.6 -53.65 27.15 L-56.95 24.55 -70.4 17.05 Q-69.45 16.0 -69.05 14.7 L-68.85 13.6 -60.0 19.3 -62.55 -9.35 Q-63.55 -9.75 -65.0 -14.2" fill="url(#gradient3)" fill-rule="evenodd" stroke="none"/>
      <path d="M-48.75 -21.1 Q-46.8 -22.4 -46.6 -23.85 L-46.15 -32.1 -45.8 -20.1 -48.75 -21.1" fill="#f9cedd" fill-rule="evenodd" stroke="none"/>
      <path d="M-50.15 -20.2 L-45.7 -18.25 Q-44.6 -12.8 -44.2 -12.1 L-46.0 -11.85 -51.4 -19.6 -50.15 -20.2" fill="#f9cedd" fill-rule="evenodd" stroke="none"/>
      <path d="M-53.6 -18.35 L-52.35 -17.1 -52.65 -11.35 Q-54.5 -11.45 -55.15 -12.0 -55.8 -12.55 -57.9 -17.05 -56.95 -16.5 -56.4 -16.45 -55.95 -16.4 -53.6 -18.35" fill="#f9cedd" fill-rule="evenodd" stroke="none"/>
      <path d="M-84.6 -10.85 Q-85.35 -9.75 -91.9 -3.65 L-94.95 -6.7 -87.4 -11.7 -85.95 -11.65 Q-84.95 -11.4 -84.6 -10.85" fill="#f9cedd" fill-rule="evenodd" stroke="none"/>
      <path d="M-83.45 -10.0 Q-82.6 -10.4 -81.35 -9.6 -80.25 -8.9 -79.8 -8.1 L-85.9 1.05 -90.4 -3.05 -83.45 -10.0" fill="#f9cedd" fill-rule="evenodd" stroke="none"/>
      <path d="M-82.4 4.0 Q-84.8 2.8 -84.75 1.45 L-78.85 -7.2 Q-74.1 -5.7 -73.4 -2.65 -72.8 -0.3 -74.8 1.8 L-76.25 0.55 Q-75.95 -2.3 -76.5 -4.2 -76.4 -2.5 -77.25 1.05 -78.2 4.9 -79.0 4.95 -80.2 5.05 -82.4 4.0" fill="#f9cedd" fill-rule="evenodd" stroke="none"/>
      <path d="M-82.65 5.4 L-79.2 16.45 Q-81.7 17.55 -84.45 17.0 -87.55 16.4 -89.6 13.85 -92.6 10.2 -94.4 2.4 L-95.55 -4.7 Q-90.1 0.8 -82.65 5.4" fill="#f9cedd" fill-rule="evenodd" stroke="none"/>
      <path d="M-73.7 6.4 L-71.65 8.35 Q-69.55 10.4 -69.4 11.4 -69.1 13.2 -69.95 15.25 -71.2 18.2 -74.2 19.6 -71.75 16.4 -71.6 14.65 L-75.45 11.4 Q-74.0 8.95 -73.7 6.4" fill="url(#gradient4)" fill-rule="evenodd" stroke="none"/>
      <path d="M-75.95 -52.45 L-74.6 -56.4 -75.75 -60.35 Q-74.85 -61.0 -74.05 -61.0 L-70.15 -60.35 -68.6 -59.65 -65.6 -53.8 -62.8 -53.15 -59.4 -49.4 -59.05 -49.6 -58.2 -49.4 Q-54.8 -46.4 -55.5 -46.6 L-57.8 -47.4 -48.0 -37.65 Q-47.45 -37.2 -47.6 -32.6 L-47.8 -28.05 -59.85 -45.4 Q-60.45 -46.6 -63.15 -49.4 -66.25 -52.7 -67.75 -52.9 L-70.5 -56.6 -74.0 -55.4 -74.85 -52.65 -75.95 -52.45" fill="#ac59b2" fill-rule="evenodd" stroke="none"/>
      <path d="M-78.45 -52.4 L-78.95 -53.45 Q-77.55 -51.2 -76.8 -52.2 -75.6 -56.15 -75.05 -56.8 -74.7 -57.2 -72.6 -57.85 L-70.6 -58.4 -74.4 -56.1 -75.4 -52.95 Q-73.35 -53.65 -72.65 -54.0 -72.2 -54.15 -71.95 -54.9 L-71.75 -55.6 -71.0 -52.7 -76.05 -50.7 -75.45 -49.0 -77.4 -50.35 -79.0 -48.9 Q-77.25 -46.8 -76.1 -43.7 L-73.15 -45.05 Q-72.5 -45.2 -73.0 -46.6 L-73.65 -47.95 -71.05 -45.6 -74.0 -42.2 -74.65 -41.6 Q-75.5 -40.95 -76.2 -41.0 -77.4 -41.05 -78.0 -42.2 L-79.6 -46.6 -81.2 -45.15 Q-81.75 -45.0 -82.55 -46.2 L-81.5 -46.2 -81.15 -47.35 Q-82.95 -47.95 -83.4 -48.3 L-82.2 -48.4 -81.4 -48.2 -80.0 -49.6 Q-79.65 -50.0 -80.1 -50.7 L-80.6 -51.35 Q-78.9 -50.6 -78.4 -51.05 -78.05 -51.35 -78.45 -52.4" fill="#000000" fill-rule="evenodd" stroke="none"/>
      <path d="M-71.8 -45.15 Q-67.4 -44.9 -66.2 -45.7 -64.95 -46.45 -65.2 -47.9 -65.6 -49.6 -68.5 -49.85 -66.0 -50.0 -64.8 -48.25 -63.55 -46.55 -65.2 -45.45 -67.25 -44.05 -72.85 -44.2 L-71.8 -45.15" fill="#000000" fill-rule="evenodd" stroke="none"/>
      <path d="M-74.1 -42.9 Q-73.9 -37.0 -75.25 -37.05 -76.6 -37.15 -78.0 -39.75 -75.75 -37.25 -75.35 -38.4 L-75.0 -41.95 -74.1 -42.9" fill="#000000" fill-rule="evenodd" stroke="none"/>
      <path d="M-74.1 -36.5 Q-72.9 -40.0 -72.1 -41.0 -69.75 -43.9 -64.0 -44.75 -62.4 -45.0 -63.1 -46.7 -59.25 -41.85 -50.75 -28.3 -51.85 -27.7 -54.7 -26.8 L-57.6 -25.65 Q-58.5 -24.85 -59.4 -21.0 L-65.55 -27.85 Q-72.05 -35.0 -74.1 -36.5" fill="#000000" fill-rule="evenodd" stroke="none"/>
      <path d="M-72.6 -36.2 L-72.1 -38.2 -71.1 -40.35 Q-69.25 -42.9 -63.6 -43.7 L-62.4 -43.8 Q-59.65 -40.35 -52.55 -29.25 -54.8 -28.0 -58.25 -26.5 -59.15 -25.75 -59.8 -23.05 -69.35 -33.85 -72.6 -36.2" fill="#ffffff" fill-rule="evenodd" stroke="none"/>
      <path d="M-60.8 -35.4 L-62.4 -33.8 -59.5 -29.4 -63.15 -33.1 -64.0 -32.0 -62.35 -29.6 -64.4 -31.5 -64.85 -29.8 -64.85 -32.2 -67.25 -34.8 -64.65 -32.5 -63.55 -33.85 -66.35 -38.2 -62.8 -34.4 -61.4 -35.85 -64.75 -41.0 -60.45 -36.5 -57.25 -37.55 -57.0 -36.9 -59.8 -35.8 -57.35 -31.65 -60.8 -35.4" fill="#000000" fill-rule="evenodd" stroke="none"/>
    </g>
    <linearGradient gradientTransform="matrix(0.0245, 0.0203, -0.0203, 0.0245, 9.25, -39.2)" gradientUnits="userSpaceOnUse" id="gradient0" spreadMethod="pad" x1="-819.2" x2="819.2">
      <stop offset="0.0" stop-color="#9185cc"/>
      <stop offset="0.5843137254901961" stop-color="#111977"/>
      <stop offset="1.0" stop-color="#00002a"/>
    </linearGradient>
    <linearGradient gradientTransform="matrix(0.0245, 0.0203, -0.0203, 0.0245, -16.15, -8.4)" gradientUnits="userSpaceOnUse" id="gradient1" spreadMethod="pad" x1="-819.2" x2="819.2">
      <stop offset="0.0" stop-color="#9185cc"/>
      <stop offset="0.5843137254901961" stop-color="#111977"/>
      <stop offset="1.0" stop-color="#00002a"/>
    </linearGradient>
    <linearGradient gradientTransform="matrix(0.0245, 0.0203, -0.0203, 0.0245, -22.0, -1.4)" gradientUnits="userSpaceOnUse" id="gradient2" spreadMethod="pad" x1="-819.2" x2="819.2">
      <stop offset="0.0" stop-color="#9185cc"/>
      <stop offset="0.5843137254901961" stop-color="#111977"/>
      <stop offset="1.0" stop-color="#00002a"/>
    </linearGradient>
    <linearGradient gradientTransform="matrix(0.0245, 0.0203, -0.0203, 0.0245, -42.4, 23.35)" gradientUnits="userSpaceOnUse" id="gradient3" spreadMethod="pad" x1="-819.2" x2="819.2">
      <stop offset="0.0" stop-color="#9185cc"/>
      <stop offset="0.5843137254901961" stop-color="#111977"/>
      <stop offset="1.0" stop-color="#00002a"/>
    </linearGradient>
    <linearGradient gradientTransform="matrix(0.0245, 0.0203, -0.0203, 0.0245, -54.85, 38.4)" gradientUnits="userSpaceOnUse" id="gradient4" spreadMethod="pad" x1="-819.2" x2="819.2">
      <stop offset="0.0" stop-color="#9185cc"/>
      <stop offset="0.5843137254901961" stop-color="#111977"/>
      <stop offset="1.0" stop-color="#00002a"/>
    </linearGradient>
    <g id="shape1" transform="matrix(1.0, 0.0, 0.0, 1.0, 95.55, 78.95)">
      <path d="M79.8 52.1 Q89.75 68.2 95.6 79.0 L35.35 73.7 Q14.15 49.7 4.0 39.2 -2.35 32.65 -26.9 24.9 -34.6 22.5 -43.2 20.2 L-50.25 18.45 -44.9 27.6 Q-39.45 37.85 -38.9 43.55 -38.6 46.65 -41.25 50.6 -44.05 54.75 -47.3 55.35 -74.7 56.6 -76.45 54.25 -86.75 48.7 -92.25 33.8 -94.1 28.7 -95.05 23.6 -95.75 19.35 -95.45 18.4 -95.05 17.2 -88.55 15.0 L-82.2 12.95 -82.35 -4.55 -83.75 -8.2 Q-85.05 -12.0 -84.6 -12.6 -80.55 -18.35 -78.1 -20.05 -76.9 -20.9 -73.7 -21.45 -77.6 -24.75 -80.65 -33.4 L-82.95 -41.45 -85.1 -42.15 Q-86.2 -47.15 -86.1 -48.15 L-83.25 -53.6 -81.45 -58.75 Q-79.15 -64.15 -77.2 -65.5 -75.25 -66.85 -64.55 -67.05 L-54.25 -66.95 Q-50.3 -66.6 -39.2 -59.2 L-20.85 -66.7 -21.05 -68.15 Q-21.05 -69.7 -20.25 -70.1 L-10.85 -71.25 -2.4 -71.95 -0.4 -69.6 7.6 -68.6 10.9 -73.2 Q14.3 -77.9 15.15 -78.25 20.5 -80.5 33.1 -75.7 59.45 -62.55 61.1 -58.75 62.55 -55.35 57.75 -46.05 52.55 -35.95 45.5 -32.35 L27.55 -31.7 13.6 -30.7 23.9 -21.95 Q35.05 -12.0 39.5 -6.3 59.95 19.95 79.8 52.1" fill="#000000" fill-rule="evenodd" stroke="none"/>
      <path d="M15.4 -76.0 L21.0 -75.85 Q25.0 -73.95 26.45 -70.15 20.9 -60.05 17.15 -57.2 14.9 -55.4 11.05 -58.0 L7.7 -61.0 10.75 -67.75 Q14.05 -74.8 15.4 -76.0" fill="#d7f0bb" fill-rule="evenodd" stroke="none"/>
      <path d="M33.4 -65.7 Q36.2 -62.15 35.0 -58.8 30.3 -54.0 25.95 -50.25 24.95 -49.45 21.85 -51.85 18.75 -54.3 19.25 -55.55 19.8 -57.0 23.15 -62.15 26.7 -67.55 27.75 -68.3 30.65 -69.2 33.4 -65.7" fill="#d7f0bb" fill-rule="evenodd" stroke="none"/>
      <path d="M36.35 -57.0 Q38.4 -57.45 40.95 -53.5 43.45 -49.6 42.5 -48.8 41.35 -47.85 38.1 -46.2 34.05 -44.2 31.25 -43.65 28.55 -44.2 27.75 -46.85 L27.55 -49.4 36.35 -57.0" fill="#d7f0bb" fill-rule="evenodd" stroke="none"/>
      <path d="M5.35 -62.2 Q6.35 -57.95 11.9 -55.9 14.65 -54.9 17.2 -54.75 L18.35 -51.2 Q17.3 -50.8 16.6 -48.15 L16.15 -45.5 Q9.15 -50.0 5.35 -53.8 2.75 -56.35 3.25 -59.2 3.65 -61.6 5.35 -62.2" fill="#d7f0bb" fill-rule="evenodd" stroke="none"/>
      <path d="M-8.2 -67.55 L-4.65 -62.4 Q-1.05 -56.6 1.55 -49.65 -1.05 -55.6 -8.6 -62.55 L-17.15 -69.35 -4.8 -69.95 Q-3.85 -69.4 -3.0 -68.05 L-8.2 -67.55" fill="url(#gradient5)" fill-rule="evenodd" stroke="none"/>
      <path d="M-23.85 -54.2 L-32.45 -59.8 -26.5 -62.7 Q-20.25 -65.6 -18.7 -65.6 -8.75 -59.8 0.0 -45.1 4.4 -37.8 6.8 -31.6 L11.55 -28.2 Q17.25 -24.0 22.2 -19.9 38.0 -6.8 40.1 0.6 37.95 -3.3 24.85 -13.8 12.25 -24.0 10.35 -24.15 12.05 -19.8 10.05 -9.9 9.6 -23.8 1.6 -38.25 -0.9 -42.85 -3.8 -46.7 -6.25 -50.0 -6.1 -49.4 L-1.35 -39.4 -4.15 -41.15 -1.85 -35.3 Q0.55 -28.2 1.0 -21.85 2.35 -1.6 -16.65 3.5 -27.25 0.65 -29.35 -2.45 -30.1 -3.55 -30.0 -5.05 -29.7 -6.7 -29.7 -7.5 -29.65 -9.15 -23.35 -29.0 -17.15 -48.3 -17.45 -48.7 -17.9 -49.2 -20.35 -50.1 L-22.7 -50.9 -26.5 -49.5 -23.85 -54.2" fill="url(#gradient6)" fill-rule="evenodd" stroke="none"/>
      <path d="M-53.55 0.45 Q-45.65 0.2 -41.5 -2.15 L-41.4 -1.05 -40.4 1.4 Q-38.15 5.2 -32.45 6.5 -44.25 8.95 -47.95 9.45 -61.45 11.3 -67.85 9.05 -74.6 6.6 -75.45 -5.0 -75.8 -9.6 -75.05 -13.8 -74.25 -18.0 -72.9 -19.65 L-73.55 -13.6 Q-73.9 -8.5 -73.45 -7.65 L-62.05 -9.4 -62.05 -5.7 -61.2 -13.3 -71.9 -12.15 Q-71.65 -17.35 -70.9 -19.9 L-64.1 -17.0 Q-54.85 -13.8 -42.55 -12.6 L-41.9 -6.1 Q-48.25 -3.5 -59.4 -5.45 -57.25 -2.3 -53.55 0.45" fill="url(#gradient7)" fill-rule="evenodd" stroke="none"/>
      <path d="M-6.45 30.15 Q-31.35 20.2 -51.7 15.85 L-42.75 16.25 Q-37.15 17.05 -34.0 18.4 L-6.45 30.15" fill="url(#gradient8)" fill-rule="evenodd" stroke="none"/>
      <path d="M-93.1 18.15 Q-80.85 13.55 -76.8 13.2 -76.05 13.25 -74.8 16.7 -73.45 20.4 -73.85 22.6 L-80.1 26.55 Q-85.75 29.7 -88.15 30.55 -92.35 29.3 -93.4 23.75 -93.7 21.8 -93.6 19.95 -93.45 18.25 -93.1 18.15" fill="#d7f0bb" fill-rule="evenodd" stroke="none"/>
      <path d="M-73.65 25.6 Q-72.05 25.3 -70.55 28.45 -69.85 30.05 -69.4 31.7 -76.2 38.0 -82.05 41.55 -84.45 41.2 -86.4 38.3 -88.25 35.4 -88.2 32.65 -87.5 32.0 -80.5 28.7 L-73.65 25.6" fill="#d7f0bb" fill-rule="evenodd" stroke="none"/>
      <path d="M-72.75 51.05 Q-75.25 52.9 -78.9 50.45 -82.65 48.0 -82.2 44.8 L-70.25 35.4 Q-69.25 35.05 -67.5 37.75 L-65.9 40.5 -68.05 44.85 Q-70.65 49.5 -72.75 51.05" fill="#d7f0bb" fill-rule="evenodd" stroke="none"/>
      <path d="M-93.05 28.3 L-89.65 31.2 -88.85 35.6 Q-87.4 40.4 -84.65 42.45 L-84.1 45.55 Q-83.85 47.0 -84.6 45.9 L-88.35 40.2 Q-91.5 34.55 -93.05 28.3" fill="#f2f9ee" fill-rule="evenodd" stroke="none"/>
      <path d="M-72.15 23.75 Q-72.1 17.7 -73.25 15.45 -72.9 14.1 -70.8 13.45 -68.45 12.7 -66.9 14.55 -63.7 18.4 -61.15 25.55 -62.25 25.45 -64.35 26.9 -66.4 28.3 -67.8 30.0 L-72.15 23.75" fill="#d7f0bb" fill-rule="evenodd" stroke="none"/>
      <path d="M-68.8 11.75 Q-69.8 11.35 -71.6 12.3 L-73.2 13.35 Q-73.95 12.45 -75.2 11.8 L-78.4 11.95 -80.65 12.5 -80.5 -2.2 Q-76.3 10.0 -57.85 16.3 L-51.15 25.25 -52.65 25.2 Q-54.4 25.35 -55.8 26.0 -52.1 27.2 -47.45 33.35 -43.15 39.05 -43.75 40.0 -44.1 40.6 -51.25 38.9 -57.85 37.25 -59.65 36.45 -60.85 36.0 -60.65 34.0 L-60.25 32.1 Q-58.05 30.15 -59.0 25.8 -59.65 22.8 -63.65 17.4 -67.4 12.3 -68.8 11.75" fill="url(#gradient9)" fill-rule="evenodd" stroke="none"/>
      <path d="M-78.05 -18.9 L-78.5 -15.9 Q-78.9 -12.15 -78.65 -8.55 -77.9 1.6 -72.15 7.5 -82.35 -2.2 -83.5 -12.5 L-78.05 -18.9" fill="url(#gradient10)" fill-rule="evenodd" stroke="none"/>
      <path d="M-66.55 51.4 L-44.95 51.85 -71.2 53.65 Q-70.1 53.0 -67.95 50.8 -65.75 48.55 -65.05 47.3 -59.3 44.8 -60.9 41.15 -58.85 45.5 -61.45 48.5 -63.3 50.6 -66.55 51.4" fill="url(#gradient11)" fill-rule="evenodd" stroke="none"/>
      <path d="M-43.35 -46.3 Q-42.8 -47.8 -41.95 -35.95 L-41.25 -23.8 -51.8 -24.95 -43.35 -46.3" fill="#b6edbc" fill-rule="evenodd" stroke="none"/>
      <path d="M-54.6 -22.75 L-54.45 -20.65 Q-53.85 -18.1 -51.95 -15.45 L-62.35 -17.55 Q-68.8 -19.0 -70.65 -21.0 -66.85 -19.2 -54.6 -22.75" fill="#b6edbc" fill-rule="evenodd" stroke="none"/>
      <path d="M-51.55 -18.35 L-46.1 -14.8 -50.45 -15.5 Q-51.25 -16.4 -51.55 -18.35" fill="#b6edbc" fill-rule="evenodd" stroke="none"/>
      <path d="M-42.45 -17.9 L-46.85 -22.85 -41.35 -22.55 -42.45 -17.9" fill="#b6edbc" fill-rule="evenodd" stroke="none"/>
      <path d="M-70.45 -59.75 Q-69.55 -62.75 -66.45 -62.15 L-69.25 -55.1 Q-71.45 -56.8 -70.45 -59.75" fill="#ffffff" fill-rule="evenodd" stroke="none"/>
      <path d="M-55.85 -49.9 L-54.1 -47.9 Q-59.5 -48.2 -65.45 -46.8 L-72.2 -46.6 Q-69.05 -45.25 -65.1 -46.1 L-53.3 -46.8 -51.95 -45.45 Q-58.85 -46.0 -65.8 -42.6 -70.95 -40.0 -73.35 -41.0 -74.65 -41.5 -76.75 -44.8 -73.45 -48.35 -74.0 -50.2 -72.1 -51.0 -70.25 -51.9 -65.7 -53.55 -62.05 -53.2 -59.4 -52.95 -56.85 -50.85 -60.95 -51.35 -65.5 -49.75 L-69.55 -48.45 -64.95 -49.2 -60.9 -49.8 -55.85 -49.9" fill="#396e4a" fill-rule="evenodd" stroke="none"/>
      <path d="M-78.1 -44.0 Q-75.55 -38.3 -77.35 -35.85 -78.65 -34.15 -78.35 -30.55 L-79.6 -33.2 -78.75 -38.8 Q-78.9 -37.95 -80.15 -34.75 L-80.6 -36.05 -79.45 -39.55 Q-79.55 -39.2 -80.95 -37.4 L-81.95 -41.4 Q-80.55 -41.05 -78.1 -44.0" fill="#396e4a" fill-rule="evenodd" stroke="none"/>
      <path d="M24.35 -75.25 L21.7 -77.45 Q51.2 -69.65 44.95 -49.1 45.0 -51.35 42.15 -54.9 39.55 -58.2 36.85 -59.9 37.3 -62.6 35.15 -66.0 32.55 -70.0 27.95 -70.75 27.2 -72.65 24.35 -75.25" fill="#d7f0bb" fill-rule="evenodd" stroke="none"/>
      <path d="M41.15 -69.6 Q60.8 -60.35 58.9 -55.95 58.25 -54.45 55.3 -53.9 52.7 -53.45 51.35 -53.95 51.2 -56.2 46.15 -63.15 L41.15 -69.6" fill="url(#gradient12)" fill-rule="evenodd" stroke="none"/>
      <path d="M-79.4 -51.8 L-78.7 -50.25 Q-79.45 -50.05 -81.65 -47.35 -83.85 -44.6 -84.05 -43.6 -85.35 -47.45 -84.95 -48.5 -82.95 -53.25 -80.2 -55.4 L-79.4 -51.8" fill="#d7f0bb" fill-rule="evenodd" stroke="none"/>
      <path d="M-70.05 -64.4 L-74.25 -65.5 -69.65 -65.7 -70.05 -64.4" fill="#579c5a" fill-rule="evenodd" stroke="none"/>
      <path d="M-74.5 -65.5 L-70.25 -63.9 Q-72.65 -56.85 -75.7 -54.6 L-76.7 -56.15 -78.15 -56.5 Q-79.45 -56.75 -80.0 -56.5 -80.95 -56.15 -79.35 -60.6 -77.8 -65.0 -76.3 -65.3 L-74.5 -65.5" fill="#d7f0bb" fill-rule="evenodd" stroke="none"/>
      <path d="M-49.1 -58.95 Q-47.45 -58.4 -45.4 -56.75 -43.25 -55.0 -42.85 -53.65 L-44.85 -47.2 Q-45.65 -46.8 -46.45 -47.95 -49.45 -53.4 -50.65 -54.35 -56.25 -58.55 -62.2 -61.3 L-61.9 -62.4 Q-61.45 -64.9 -60.25 -65.65 L-59.15 -65.9 -54.95 -65.2 Q-54.15 -65.0 -54.35 -62.55 L-52.95 -63.5 -50.05 -63.6 Q-47.8 -62.35 -46.8 -60.65 -45.6 -58.6 -49.1 -58.95" fill="#579c5a" fill-rule="evenodd" stroke="none"/>
      <path d="M-51.85 -53.7 Q-49.85 -52.25 -46.9 -41.0 -51.25 -28.3 -54.25 -23.8 -58.65 -22.2 -63.85 -21.4 L-70.65 -21.0 Q-76.4 -24.65 -77.5 -30.5 -77.5 -32.85 -75.05 -36.0 -73.95 -37.4 -75.65 -41.1 L-74.1 -39.65 Q-72.0 -38.45 -69.25 -39.6 L-60.55 -43.65 Q-54.45 -45.9 -50.35 -44.0 -52.65 -48.4 -56.05 -51.1 -59.5 -53.8 -63.0 -53.95 L-67.1 -53.8 Q-64.0 -56.95 -62.55 -60.3 -57.15 -57.45 -51.85 -53.7" fill="#d7f0bb" fill-rule="evenodd" stroke="none"/>
      <path d="M-78.7 -50.25 L-79.4 -51.8 Q-79.4 -54.9 -78.6 -56.05 L-76.7 -56.15 -75.7 -54.6 -74.45 -50.7 -78.7 -50.25" fill="#579c5a" fill-rule="evenodd" stroke="none"/>
      <path d="M-82.15 -54.8 L-80.45 -59.2 Q-78.4 -63.8 -76.9 -65.0 -78.0 -60.8 -78.15 -56.5 -79.45 -56.75 -80.0 -56.5 L-82.15 -54.8" fill="#396e4a" fill-rule="evenodd" stroke="none"/>
      <path d="M-51.8 -42.9 Q-50.25 -42.85 -49.2 -41.8 -48.15 -40.75 -48.85 -40.3 -50.15 -39.4 -57.1 -36.65 -64.25 -33.85 -65.25 -33.25 -67.5 -31.8 -69.35 -28.45 -71.65 -24.35 -70.65 -21.0 -70.35 -20.15 -72.05 -22.05 L-74.25 -24.8 Q-74.8 -25.55 -75.3 -27.4 -75.85 -29.3 -75.75 -30.4 -75.65 -31.55 -74.1 -33.8 -72.5 -36.15 -70.85 -37.4 -69.1 -38.7 -61.55 -40.85 -54.05 -43.0 -51.8 -42.9" fill="#000000" fill-rule="evenodd" stroke="none"/>
      <path d="M-56.6 -34.2 L-61.7 -30.2 Q-63.15 -29.15 -64.75 -26.8 L-66.25 -24.35 Q-66.95 -22.7 -66.1 -20.75 -70.25 -20.65 -70.95 -20.85 -71.45 -21.0 -71.55 -22.95 -71.6 -24.95 -71.2 -25.2 -71.05 -24.85 -69.75 -24.55 L-68.3 -24.4 Q-65.8 -29.4 -63.4 -31.15 -61.9 -32.2 -56.6 -34.2" fill="#000000" fill-rule="evenodd" stroke="none"/>
      <path d="M-53.0 -41.75 Q-51.4 -42.0 -50.45 -41.4 -49.55 -40.8 -50.4 -40.65 -56.25 -38.1 -63.65 -35.2 -68.45 -33.35 -70.6 -29.05 -72.0 -26.25 -71.95 -23.65 -71.85 -21.2 -73.25 -24.25 -74.85 -27.95 -74.85 -30.05 -74.8 -31.3 -72.45 -34.0 L-69.65 -37.1 Q-69.2 -37.6 -61.45 -39.65 L-53.0 -41.75" fill="#ffffff" fill-rule="evenodd" stroke="none"/>
      <path d="M-56.45 -41.35 L-55.6 -41.6 -51.65 -39.3 -52.85 -39.05 -56.45 -41.35" fill="#000000" fill-rule="evenodd" stroke="none"/>
      <path d="M-61.45 -40.55 L-60.6 -40.8 -56.05 -37.75 -57.3 -37.45 -61.45 -40.55" fill="#000000" fill-rule="evenodd" stroke="none"/>
      <path d="M-67.65 -38.6 L-66.8 -38.9 -62.05 -35.3 -63.3 -35.05 -67.65 -38.6" fill="#000000" fill-rule="evenodd" stroke="none"/>
      <path d="M-66.6 -32.5 L-67.15 -32.05 -71.45 -35.65 -71.3 -36.15 -66.6 -32.5" fill="#000000" fill-rule="evenodd" stroke="none"/>
      <path d="M-74.9 -31.8 L-74.75 -32.25 -70.05 -28.6 -70.55 -28.2 -74.9 -31.8" fill="#000000" fill-rule="evenodd" stroke="none"/>
      <path d="M-75.25 -28.1 L-75.05 -28.6 -71.2 -25.2 -71.7 -24.75 -75.25 -28.1" fill="#000000" fill-rule="evenodd" stroke="none"/>
      <path d="M-30.8 -54.05 L-36.0 -58.2 -33.7 -59.05 -27.55 -54.5 -30.7 -46.65 -22.85 -48.95 -29.7 -27.95 Q-34.6 -11.9 -33.95 -6.9 -33.25 -1.6 -31.1 0.15 -30.7 0.45 -24.05 3.35 -4.85 11.65 11.75 23.7 L13.65 27.3 Q7.95 23.05 -2.95 17.1 -15.7 10.15 -25.8 6.4 -33.95 3.35 -36.0 2.05 -38.6 0.45 -39.05 -2.4 -39.65 -6.4 -38.8 -57.2 L-37.2 -57.8 -30.8 -54.05" fill="url(#gradient13)" fill-rule="evenodd" stroke="none"/>
      <path d="M-29.6 -42.65 L-36.8 -14.0 Q-36.05 -20.4 -35.6 -30.45 L-35.25 -39.2 -36.3 -52.6 -34.8 -48.6 Q-33.3 -43.75 -33.55 -39.3 -31.8 -39.65 -31.5 -42.8 L-29.6 -42.65" fill="#000000" fill-rule="evenodd" stroke="none"/>
      <path d="M-57.35 -12.15 L-55.45 -11.5 -55.7 -8.35 -47.0 -7.05 -57.7 -7.8 -57.35 -12.15" fill="#000000" fill-rule="evenodd" stroke="none"/>
    </g>
    <linearGradient gradientTransform="matrix(0.0284, 0.023, -0.023, 0.0284, 8.85, -41.05)" gradientUnits="userSpaceOnUse" id="gradient5" spreadMethod="pad" x1="-819.2" x2="819.2">
      <stop offset="0.0" stop-color="#70d2a1"/>
      <stop offset="0.5843137254901961" stop-color="#00773b"/>
      <stop offset="1.0" stop-color="#000000"/>
    </linearGradient>
    <linearGradient gradientTransform="matrix(0.0284, 0.023, -0.023, 0.0284, -12.25, -15.1)" gradientUnits="userSpaceOnUse" id="gradient6" spreadMethod="pad" x1="-819.2" x2="819.2">
      <stop offset="0.0" stop-color="#70d2a1"/>
      <stop offset="0.5843137254901961" stop-color="#00773b"/>
      <stop offset="1.0" stop-color="#000000"/>
    </linearGradient>
    <linearGradient gradientTransform="matrix(0.0284, 0.023, -0.023, 0.0284, -40.55, 19.85)" gradientUnits="userSpaceOnUse" id="gradient7" spreadMethod="pad" x1="-819.2" x2="819.2">
      <stop offset="0.0" stop-color="#70d2a1"/>
      <stop offset="0.5843137254901961" stop-color="#00773b"/>
      <stop offset="1.0" stop-color="#000000"/>
    </linearGradient>
    <linearGradient gradientTransform="matrix(0.0284, 0.023, -0.023, 0.0284, -41.75, 21.4)" gradientUnits="userSpaceOnUse" id="gradient8" spreadMethod="pad" x1="-819.2" x2="819.2">
      <stop offset="0.0" stop-color="#70d2a1"/>
      <stop offset="0.5843137254901961" stop-color="#00773b"/>
      <stop offset="1.0" stop-color="#000000"/>
    </linearGradient>
    <linearGradient gradientTransform="matrix(0.0284, 0.023, -0.023, 0.0284, -55.6, 38.4)" gradientUnits="userSpaceOnUse" id="gradient9" spreadMethod="pad" x1="-819.2" x2="819.2">
      <stop offset="0.0" stop-color="#70d2a1"/>
      <stop offset="0.5843137254901961" stop-color="#00773b"/>
      <stop offset="1.0" stop-color="#000000"/>
    </linearGradient>
    <linearGradient gradientTransform="matrix(0.0284, 0.023, -0.023, 0.0284, -46.45, 27.15)" gradientUnits="userSpaceOnUse" id="gradient10" spreadMethod="pad" x1="-819.2" x2="819.2">
      <stop offset="0.0" stop-color="#70d2a1"/>
      <stop offset="0.5843137254901961" stop-color="#00773b"/>
      <stop offset="1.0" stop-color="#000000"/>
    </linearGradient>
    <linearGradient gradientTransform="matrix(0.0284, 0.023, -0.023, 0.0284, -68.25, 54.0)" gradientUnits="userSpaceOnUse" id="gradient11" spreadMethod="pad" x1="-819.2" x2="819.2">
      <stop offset="0.0" stop-color="#70d2a1"/>
      <stop offset="0.5843137254901961" stop-color="#00773b"/>
      <stop offset="1.0" stop-color="#000000"/>
    </linearGradient>
    <linearGradient gradientTransform="matrix(0.0284, 0.023, -0.023, 0.0284, 30.05, -67.15)" gradientUnits="userSpaceOnUse" id="gradient12" spreadMethod="pad" x1="-819.2" x2="819.2">
      <stop offset="0.0" stop-color="#70d2a1"/>
      <stop offset="0.5843137254901961" stop-color="#00773b"/>
      <stop offset="1.0" stop-color="#000000"/>
    </linearGradient>
    <linearGradient gradientTransform="matrix(0.0284, 0.023, -0.023, 0.0284, -19.2, -6.5)" gradientUnits="userSpaceOnUse" id="gradient13" spreadMethod="pad" x1="-819.2" x2="819.2">
      <stop offset="0.0" stop-color="#70d2a1"/>
      <stop offset="0.5843137254901961" stop-color="#00773b"/>
      <stop offset="1.0" stop-color="#000000"/>
    </linearGradient>
    <g id="sprite0" transform="matrix(1.0, 0.0, 0.0, 1.0, 24.75, 10.35)">
      <use height="97.35" transform="matrix(1.0, 0.0, 0.0, 1.0, -24.75, -10.35)" width="311.35" xlink:href="#shape2"/>
    </g>
    <g id="shape2" transform="matrix(1.0, 0.0, 0.0, 1.0, 24.75, 10.35)">
      <path d="M286.6 87.0 L-24.75 87.0 -24.75 -10.35 286.6 -10.35 286.6 87.0" fill="#cccccc" fill-opacity="0.0" fill-rule="evenodd" stroke="none"/>
    </g>
    <g id="shape3" transform="matrix(1.0, 0.0, 0.0, 1.0, 0.0, 0.0)">
      <path d="M555.5 0.5 L555.5 235.5 0.5 235.5 0.5 0.5 555.5 0.5 Z" fill="none" stroke="#000000" stroke-linecap="round" stroke-linejoin="round" stroke-width="1.0"/>
    </g>
  </defs>
</svg>
