<?xml version="1.0" encoding="UTF-8" standalone="no"?>
<svg xmlns:xlink="http://www.w3.org/1999/xlink" height="236.0px" width="556.0px" xmlns="http://www.w3.org/2000/svg">
  <g transform="matrix(1.0, 0.0, 0.0, 1.0, 0.0, 0.0)">
    <use height="240.15" transform="matrix(1.0, 0.0, 0.0, 1.0, -1.0, -1.0)" width="558.0" xlink:href="#shape0"/>
    <use height="365.65" transform="matrix(1.5089, -0.1068, 0.1068, 1.5089, -139.9342, -118.7552)" width="486.85" xlink:href="#shape1"/>
    <use height="360.55" transform="matrix(1.4501, 0.4311, -0.4311, 1.4501, 48.5529, -239.9688)" width="436.65" xlink:href="#shape2"/>
    <use height="333.55" transform="matrix(0.362, -0.0432, 0.0432, 0.362, 106.65, 66.45)" width="523.15" xlink:href="#shape3"/>
    <use height="282.25" transform="matrix(0.362, -0.0432, 0.0432, 0.362, 128.55, 73.65)" width="395.55" xlink:href="#shape4"/>
    <use height="387.15" transform="matrix(0.5894, 1.5534, -1.5534, 0.5894, 463.722, -367.1445)" width="447.6" xlink:href="#shape5"/>
    <use height="39.65" transform="matrix(1.5074, 0.0, 0.0, 1.5074, 222.5, 74.95)" width="47.25" xlink:href="#shape6"/>
    <use height="39.65" transform="matrix(2.4184, 0.3965, -0.3965, 2.4184, 208.8, 47.65)" width="47.25" xlink:href="#shape6"/>
    <use height="39.65" transform="matrix(3.3811, 1.3176, -1.3176, 3.3811, 183.4, 1.5)" width="47.25" xlink:href="#shape6"/>
    <use height="97.35" transform="matrix(1.7857, 0.0, 0.0, 2.4138, -0.997, 0.017)" width="311.35" xlink:href="#sprite0"/>
    <use height="236.0" transform="matrix(1.0, 0.0, 0.0, 1.0, 0.0, 0.0)" width="556.0" xlink:href="#shape8"/>
  </g>
  <defs>
    <g id="shape0" transform="matrix(1.0, 0.0, 0.0, 1.0, 1.0, 1.0)">
      <path d="M557.0 239.15 L-1.0 239.15 -1.0 -1.0 557.0 -1.0 557.0 239.15" fill="url(#gradient0)" fill-rule="evenodd" stroke="none"/>
    </g>
    <radialGradient cx="0" cy="0" gradientTransform="matrix(0.3759, 0.0, 0.0, 0.3466, 278.0, 119.1)" gradientUnits="userSpaceOnUse" id="gradient0" r="819.2" spreadMethod="pad">
      <stop offset="0.0" stop-color="#ffffff"/>
      <stop offset="0.4" stop-color="#ffcae6"/>
      <stop offset="1.0" stop-color="#ac56b6"/>
    </radialGradient>
    <g id="shape1" transform="matrix(1.0, 0.0, 0.0, 1.0, 91.85, 36.0)">
      <path d="M67.45 -14.15 L122.35 93.3 60.15 -7.8 67.45 -14.15 M100.0 -28.0 L138.55 86.25 91.45 -23.35 100.0 -28.0 M191.0 -36.0 L177.0 82.9 181.3 -35.4 191.0 -36.0 M277.15 -16.8 L205.75 87.9 268.2 -20.7 277.15 -16.8 M303.0 -12.0 L223.6 86.2 294.6 -17.0 303.0 -12.0 M343.0 45.0 L220.85 112.75 336.35 37.9 343.0 45.0 M392.85 108.4 L229.45 132.1 388.45 99.7 392.85 108.4 M395.0 154.0 L228.8 153.2 393.3 144.4 395.0 154.0 M362.75 249.75 L227.1 182.35 365.6 240.45 362.75 249.75 M361.0 276.0 L230.85 199.9 364.95 267.1 361.0 276.0 M92.8 93.35 L-4.05 25.55 0.7 17.0 92.8 93.35 M61.85 312.9 L117.6 219.2 71.0 316.0 61.85 312.9 M272.2 312.95 L201.45 202.55 279.0 306.0 272.2 312.95 M249.1 324.25 L241.0 329.65 185.9 211.0 249.1 324.25 M-3.35 43.0 L95.05 111.15 -7.0 52.0 -3.35 43.0 M-88.05 138.3 L90.8 140.05 -87.2 148.0 -88.05 138.3 M-91.85 187.7 L87.25 171.65 -88.95 197.0 -91.85 187.7 M-91.85 154.55 L87.45 151.75 -90.45 164.2 -91.85 154.55 M-8.85 268.1 L92.75 203.85 -2.0 275.0 -8.85 268.1 M-37.9 241.3 L75.6 198.8 -32.0 249.0 -37.9 241.3" fill="#886bac" fill-rule="evenodd" stroke="none"/>
    </g>
    <g id="shape2" transform="matrix(1.0, 0.0, 0.0, 1.0, 60.1, 50.0)">
      <path d="M27.55 -34.5 L103.3 85.55 21.25 -28.0 27.55 -34.5 M56.55 -50.0 L117.7 77.7 49.0 -45.0 56.55 -50.0 M238.0 -32.0 L181.25 70.05 229.4 -34.85 238.0 -32.0 M304.0 -2.0 L204.3 84.35 297.65 -8.45 304.0 -2.0 M376.5 142.9 L209.25 132.75 375.25 133.9 376.5 142.9 M376.55 112.05 L209.4 114.25 373.85 103.45 376.55 112.05 M373.0 158.0 L206.1 143.65 372.2 148.95 373.0 158.0 M320.0 35.0 L220.3 89.05 314.5 27.85 320.0 35.0 M6.65 286.95 L82.65 193.7 14.45 291.55 6.65 286.95 M30.7 291.35 L99.25 192.1 39.0 295.0 30.7 291.35 M109.95 310.55 L126.0 196.8 119.0 310.0 109.95 310.55 M310.0 243.0 L202.15 170.5 313.4 234.6 310.0 243.0 M306.25 267.1 L204.25 187.05 310.65 259.2 306.25 267.1 M232.15 293.9 L176.8 187.1 239.0 288.0 232.15 293.9 M201.9 306.8 L161.7 193.7 209.85 302.5 201.9 306.8 M-36.7 12.95 L75.95 88.05 -40.4 21.2 -36.7 12.95 M-38.35 37.3 L79.45 104.35 -41.0 46.0 -38.35 37.3 M-60.1 139.55 L77.85 131.45 -58.5 148.45 -60.1 139.55 M-58.1 181.9 L77.25 151.05 -54.0 190.0 -58.1 181.9 M-28.15 236.4 L85.25 169.0 -22.0 243.0 -28.15 236.4" fill="#ed82b4" fill-rule="evenodd" stroke="none"/>
    </g>
    <g id="shape3" transform="matrix(1.0, 0.0, 0.0, 1.0, 0.0, 0.0)">
      <path d="M346.15 55.95 L352.75 56.15 Q359.4 57.1 359.75 60.55 368.95 62.7 403.05 57.9 L438.4 52.4 Q441.35 52.2 448.0 60.7 454.2 68.6 456.6 74.45 459.45 81.45 460.45 92.15 L464.4 107.25 Q468.05 124.15 466.8 133.1 463.1 135.7 442.4 158.5 436.25 156.3 432.1 147.7 L429.2 139.6 435.2 125.45 Q431.0 120.85 430.25 117.8 420.05 120.2 411.85 128.3 409.3 130.85 407.2 133.65 L405.65 135.95 417.15 154.45 418.1 160.7 Q419.0 167.8 419.0 171.85 420.1 173.2 461.35 193.1 500.0 211.7 512.0 217.05 515.1 218.45 515.2 222.3 523.95 224.5 523.05 227.2 522.35 229.1 517.15 232.15 512.05 235.15 510.45 234.9 494.6 230.9 483.0 231.45 L448.85 232.05 Q419.3 232.7 400.9 235.0 392.55 248.9 380.3 258.15 L369.35 245.2 366.55 254.8 Q346.5 260.8 330.4 263.8 320.45 270.2 314.0 277.2 310.8 280.7 309.55 282.95 L317.3 289.1 316.0 293.45 Q317.95 303.1 315.45 304.15 313.95 304.8 310.5 309.3 L304.5 317.15 296.95 326.55 Q291.8 332.6 288.8 333.35 285.45 334.25 277.45 330.7 269.6 327.2 270.6 325.9 L277.4 315.2 273.2 313.9 Q272.45 311.95 270.0 309.5 265.05 304.6 256.6 301.95 236.05 295.55 236.85 289.6 L243.2 251.0 238.15 244.6 Q244.4 226.75 246.0 213.8 244.25 208.9 223.8 187.4 202.95 165.45 186.35 151.3 172.25 139.25 125.8 111.25 L82.2 85.7 80.9 90.1 51.35 76.25 53.75 71.55 45.55 68.4 Q40.5 70.1 37.1 68.95 35.0 68.25 30.5 63.4 L26.4 58.75 26.5 55.9 Q24.3 56.45 20.65 54.15 L16.5 40.2 Q8.35 38.7 0.9 33.7 L0.0 23.4 2.65 21.5 1.45 19.75 Q0.1 16.05 2.7 9.1 L5.6 2.85 Q13.65 8.45 25.7 14.35 49.8 26.2 69.7 27.8 L74.3 23.8 104.5 30.25 103.4 34.25 221.9 60.0 239.25 53.95 Q252.45 29.15 263.7 14.65 269.35 7.4 272.3 5.1 277.55 1.45 292.4 0.4 L308.25 0.85 Q310.0 1.95 331.7 44.7 L346.15 55.95" fill="#505050" fill-rule="evenodd" stroke="none"/>
      <path d="M301.45 20.0 Q308.45 23.1 313.8 27.2 L323.85 68.25 Q321.7 70.95 318.95 72.95 302.1 84.4 300.7 85.8 299.8 86.65 299.6 88.9 L299.6 90.95 291.9 86.65 Q283.5 85.4 273.5 81.75 253.5 74.5 245.65 62.7 244.5 60.95 243.55 57.05 L242.85 53.45 258.05 28.05 Q269.25 22.3 295.5 17.75 L301.45 20.0" fill="#f6dad4" fill-rule="evenodd" stroke="none"/>
      <path d="M313.8 27.2 Q318.7 30.95 321.85 35.45 L331.35 53.1 Q329.4 61.5 323.85 68.25 L313.8 27.2" fill="#a69092" fill-rule="evenodd" stroke="none"/>
      <path d="M245.65 62.7 Q244.5 60.95 243.55 57.05 L242.85 53.45 245.25 49.35 Q251.7 42.2 257.55 41.35 262.0 40.7 290.0 44.7 318.7 48.75 321.65 50.95 L325.0 66.8 Q322.15 70.7 318.95 72.95 302.1 84.4 300.7 85.8 299.8 86.65 299.6 88.9 L299.6 90.95 291.9 86.65 Q283.5 85.4 273.5 81.75 253.5 74.5 245.65 62.7" fill="#a5b4c8" fill-rule="evenodd" stroke="none"/>
      <path d="M325.0 66.8 L321.65 50.95 330.05 57.25 Q328.05 62.55 325.0 66.8" fill="#757b89" fill-rule="evenodd" stroke="none"/>
      <path d="M263.95 17.7 Q270.45 8.8 274.25 6.8 280.35 3.6 307.45 2.45 308.6 3.2 312.0 12.45 286.25 16.2 269.65 21.55 264.45 23.2 260.8 24.85 L258.2 26.15 263.95 17.7" fill="#986b73" fill-rule="evenodd" stroke="none"/>
      <path d="M312.85 14.25 Q314.1 15.35 319.25 29.45 307.7 18.85 298.95 16.65 L305.45 15.05 Q312.05 13.55 312.85 14.25" fill="#986b73" fill-rule="evenodd" stroke="none"/>
      <path d="M310.75 32.45 L302.9 31.45 Q302.15 31.5 303.7 32.3 305.3 33.1 306.65 33.3 308.0 33.55 308.6 34.15 309.15 34.7 308.4 34.9 L300.05 34.2 Q299.8 32.45 298.9 31.9 295.5 29.75 294.25 29.65 L289.0 29.5 283.75 29.9 277.95 40.75 279.8 40.45 Q281.2 40.5 290.6 45.4 L297.7 42.35 295.7 33.3 291.75 30.7 294.4 31.5 Q297.15 32.5 297.85 33.35 298.95 34.7 300.65 42.4 L301.7 42.7 300.45 36.75 304.35 44.85 Q304.45 45.3 296.95 47.75 289.4 50.2 288.75 49.9 L276.4 42.55 277.4 39.25 268.75 38.75 Q260.1 37.9 260.15 36.0 260.2 34.1 262.05 28.8 L263.9 23.9 268.65 23.0 280.95 21.8 Q301.05 21.0 316.4 27.55 317.05 27.8 317.3 29.55 316.35 28.55 314.5 27.9 310.8 26.55 306.45 28.3 309.6 28.5 311.05 30.35 L310.75 32.45 M295.2 27.95 Q296.8 28.15 303.95 26.1 294.95 23.55 286.35 24.55 L284.85 28.0 286.3 28.45 Q288.4 28.9 288.35 27.1 288.3 26.1 289.45 27.25 290.9 28.75 291.3 28.75 292.25 28.7 294.9 25.8 L294.45 26.8 Q294.2 27.85 295.2 27.95" fill="#505050" fill-rule="evenodd" stroke="none"/>
      <path d="M254.15 60.4 Q253.45 51.3 254.05 49.75 254.45 48.7 255.4 49.55 L256.3 50.55 258.65 48.35 Q261.3 46.15 262.85 45.85 270.4 44.55 291.2 49.9 304.7 53.35 312.05 57.95 317.6 61.4 317.8 64.0 317.95 65.65 317.5 68.85 L316.7 72.4 Q316.4 73.1 314.0 74.15 311.55 75.25 310.85 74.55 302.9 64.3 298.05 60.45 294.75 57.8 288.8 57.2 283.65 56.65 281.5 57.7 258.05 72.0 256.2 70.7 254.9 69.85 254.15 60.4" fill="#505050" fill-rule="evenodd" stroke="none"/>
      <path d="M308.85 58.1 Q313.7 61.2 314.15 63.85 314.45 65.95 313.25 69.35 312.1 72.45 311.45 72.65 310.4 72.95 299.75 59.45 296.95 55.85 289.3 55.7 L282.2 56.3 Q259.45 69.2 257.9 68.0 256.9 67.2 257.9 58.65 L259.1 50.2 Q263.7 48.1 272.1 48.15 281.8 48.25 292.45 51.3 303.0 54.4 308.85 58.1" fill="#ffffff" fill-rule="evenodd" stroke="none"/>
      <path d="M261.25 68.35 L263.8 48.2 265.65 48.25 263.2 67.3 261.25 68.35" fill="#505050" fill-rule="evenodd" stroke="none"/>
      <path d="M312.95 59.0 L308.9 71.3 308.15 70.95 311.7 58.65 312.95 59.0" fill="#505050" fill-rule="evenodd" stroke="none"/>
      <path d="M267.2 64.9 L270.7 50.75 269.65 63.85 267.2 64.9" fill="#505050" fill-rule="evenodd" stroke="none"/>
      <path d="M273.15 61.6 L276.1 52.6 275.45 60.75 273.15 61.6" fill="#505050" fill-rule="evenodd" stroke="none"/>
      <path d="M305.4 67.05 L308.7 59.7 306.65 68.1 305.4 67.05" fill="#505050" fill-rule="evenodd" stroke="none"/>
      <path d="M302.2 64.0 L304.8 58.15 303.35 64.75 302.2 64.0" fill="#505050" fill-rule="evenodd" stroke="none"/>
      <path d="M272.05 8.4 Q277.15 13.5 271.85 17.75 269.75 19.4 266.95 20.05 L262.35 19.95 Q268.1 11.65 272.05 8.4" fill="#f0eaed" fill-rule="evenodd" stroke="none"/>
      <path d="M295.3 13.15 Q292.5 15.35 287.6 15.25 283.15 15.1 279.05 13.2 274.85 11.25 273.55 8.55 L273.3 7.4 274.25 6.8 Q279.2 4.25 297.5 2.7 298.0 3.85 298.15 5.45 298.55 10.6 295.3 13.15" fill="#f0eaed" fill-rule="evenodd" stroke="none"/>
      <path d="M307.45 2.45 Q308.3 3.05 311.0 9.85 L310.2 10.25 Q305.0 12.85 301.85 9.8 299.15 7.15 299.4 2.6 306.9 2.1 307.45 2.45" fill="#e3d7e0" fill-rule="evenodd" stroke="none"/>
      <path d="M304.5 6.45 Q302.6 5.45 297.4 5.0 291.6 4.45 286.2 5.15 L296.65 3.55 305.4 2.8 Q306.5 2.95 311.75 15.7 316.95 28.35 316.8 29.9 316.65 31.75 316.2 32.25 L318.05 34.25 328.05 64.5 323.25 70.2 Q318.65 75.35 319.9 72.9 321.2 70.35 320.65 64.65 320.25 60.3 319.45 58.0 315.85 35.0 314.45 33.15 313.55 31.95 312.5 31.8 L311.6 31.85 Q312.15 30.05 311.95 28.5 306.75 7.7 304.5 6.45" fill="#505050" fill-rule="evenodd" stroke="none"/>
      <path d="M273.65 84.7 Q296.2 92.25 297.0 93.25 297.85 94.25 295.45 106.2 L273.65 84.7" fill="#f9f2ef" fill-rule="evenodd" stroke="none"/>
      <path d="M327.3 67.1 Q331.5 61.1 333.3 52.2 333.5 51.1 336.05 51.5 337.85 61.55 330.8 75.55 323.55 90.0 313.4 94.7 L302.65 88.3 Q320.15 77.25 327.3 67.1" fill="#f9f2ef" fill-rule="evenodd" stroke="none"/>
      <path d="M310.1 99.8 L312.95 103.15 Q315.95 106.85 316.8 108.8 318.7 107.9 330.65 93.25 327.45 106.05 320.1 121.75 L310.1 99.8" fill="#f9f2ef" fill-rule="evenodd" stroke="none"/>
      <path d="M68.8 31.55 Q65.15 42.5 55.25 66.45 L49.0 56.7 Q49.95 55.1 48.6 53.8 45.5 50.9 43.45 54.1 L40.55 60.5 Q38.65 64.95 37.45 65.1 36.05 65.3 33.4 62.35 30.9 59.55 30.45 57.7 30.05 56.1 34.5 50.6 38.85 45.15 39.8 45.55 40.4 45.8 46.25 49.1 52.25 52.25 54.15 52.1 57.25 51.85 50.9 38.6 50.65 38.8 50.95 42.35 51.3 45.7 50.55 45.75 48.85 45.8 36.7 34.7 35.25 33.4 35.25 28.9 L35.6 24.7 32.95 32.15 Q27.85 30.5 23.15 27.15 L20.75 17.2 18.35 23.5 Q12.8 20.9 5.95 12.9 5.55 9.25 6.5 6.55 16.35 14.5 43.55 23.8 57.15 28.5 68.8 31.55" fill="#ead4d1" fill-rule="evenodd" stroke="none"/>
      <path d="M4.2 24.2 Q4.7 25.4 10.0 28.5 14.95 31.4 19.7 33.45 4.8 32.15 3.45 30.9 2.6 30.1 2.1 26.95 L1.8 24.0 4.2 24.2" fill="#ead4d1" fill-rule="evenodd" stroke="none"/>
      <path d="M28.75 39.75 L27.25 44.2 26.85 43.8 Q26.4 43.6 26.25 44.45 26.05 45.85 28.4 46.85 L25.45 53.05 Q23.8 52.65 22.25 51.7 20.7 50.75 20.6 40.5 L28.75 39.75" fill="#ead4d1" fill-rule="evenodd" stroke="none"/>
      <path d="M371.05 94.55 L386.8 93.35 398.4 86.3 401.55 91.9 Q405.3 97.95 408.0 100.05 L390.05 101.85 387.2 96.5 387.45 100.9 371.15 101.45 371.05 94.55" fill="#ead4d1" fill-rule="evenodd" stroke="none"/>
      <path d="M413.95 96.4 Q408.25 95.9 404.65 91.15 401.3 86.7 402.05 79.45 402.8 72.4 406.45 70.8 412.2 68.3 417.25 69.85 421.75 71.2 424.5 75.3 427.15 79.25 427.15 83.9 427.15 88.75 424.1 92.2 419.95 96.95 413.95 96.4" fill="#ead4d1" fill-rule="evenodd" stroke="none"/>
      <path d="M438.0 101.35 Q443.35 99.0 448.05 100.45 452.2 101.7 454.8 105.55 457.25 109.2 457.25 113.55 457.25 118.1 454.45 121.3 450.6 125.65 445.05 125.2 439.7 124.75 436.35 120.3 433.2 116.15 433.9 109.4 434.6 102.8 438.0 101.35" fill="#ead4d1" fill-rule="evenodd" stroke="none"/>
      <path d="M440.9 129.65 L441.2 134.05 443.85 137.0 Q446.05 147.8 443.6 150.5 442.85 148.4 439.0 142.6 L435.3 137.2 440.9 129.65" fill="#dcafb2" fill-rule="evenodd" stroke="none"/>
      <path d="M432.4 77.9 L436.25 79.6 Q441.0 82.05 445.3 85.95 459.05 98.55 463.5 121.0 462.95 119.85 461.35 118.35 L459.8 117.05 Q459.8 115.45 457.8 108.65 456.0 102.65 451.5 98.8 446.0 94.0 438.35 94.6 437.15 93.65 434.65 85.7 L432.4 77.9" fill="#dcafb2" fill-rule="evenodd" stroke="none"/>
      <path d="M371.05 94.55 Q373.55 92.2 372.3 101.95 371.05 111.95 369.4 110.4 367.75 108.85 368.15 103.0 368.6 96.9 371.05 94.55" fill="#fcfbfb" fill-rule="evenodd" stroke="none"/>
      <path d="M244.4 59.95 L250.2 48.0 Q256.45 35.55 258.75 33.35 256.9 36.8 252.15 50.65 251.45 52.75 251.5 61.9 L251.7 70.65 Q249.25 69.9 247.15 68.2 242.85 64.8 244.4 59.95" fill="#505050" fill-rule="evenodd" stroke="none"/>
      <path d="M69.55 64.3 Q69.15 67.05 72.2 67.1 75.3 67.1 77.0 64.3 77.85 67.9 75.5 69.2 73.75 70.2 70.85 69.7 69.0 69.4 69.1 66.8 L69.55 64.3" fill="#505050" fill-rule="evenodd" stroke="none"/>
      <path d="M243.35 78.45 Q243.75 80.15 246.2 79.95 248.6 79.75 249.2 77.9 252.3 81.85 245.8 81.6 244.25 81.55 243.65 80.0 L243.35 78.45" fill="#505050" fill-rule="evenodd" stroke="none"/>
      <path d="M251.1 84.6 Q251.5 86.25 253.95 86.05 256.35 85.8 256.95 84.0 260.05 87.95 253.55 87.7 252.0 87.65 251.4 86.15 L251.1 84.6" fill="#505050" fill-rule="evenodd" stroke="none"/>
      <path d="M261.15 91.7 Q261.55 93.4 264.0 93.2 266.4 93.0 267.0 91.15 270.1 95.1 263.6 94.85 262.05 94.8 261.45 93.25 L261.15 91.7" fill="#505050" fill-rule="evenodd" stroke="none"/>
      <path d="M273.55 108.55 Q273.95 110.2 276.4 110.0 278.8 109.75 279.4 107.95 282.5 111.9 276.0 111.65 274.45 111.6 273.85 110.1 L273.55 108.55" fill="#505050" fill-rule="evenodd" stroke="none"/>
      <path d="M286.15 121.5 Q284.6 121.45 284.05 119.9 L283.75 118.35 Q284.15 120.0 286.55 119.8 288.95 119.6 289.6 117.8 292.55 121.65 286.15 121.5" fill="#505050" fill-rule="evenodd" stroke="none"/>
      <path d="M346.95 92.8 Q347.35 94.45 349.8 94.25 352.2 94.05 352.8 92.25 354.45 94.35 352.95 95.3 351.8 96.0 349.4 95.9 347.85 95.85 347.25 94.35 L346.95 92.8" fill="#505050" fill-rule="evenodd" stroke="none"/>
      <path d="M344.4 82.1 Q344.8 83.75 347.2 83.55 349.65 83.35 350.25 81.55 353.3 85.45 346.8 85.2 345.25 85.15 344.7 83.65 L344.4 82.1" fill="#505050" fill-rule="evenodd" stroke="none"/>
      <path d="M342.3 71.25 Q342.7 72.95 345.15 72.75 347.55 72.55 348.15 70.7 351.25 74.65 344.75 74.4 343.2 74.35 342.6 72.8 L342.3 71.25" fill="#505050" fill-rule="evenodd" stroke="none"/>
      <path d="M340.3 121.55 Q340.7 123.25 343.15 123.05 345.55 122.85 346.15 121.0 347.8 123.1 346.3 124.05 345.15 124.8 342.75 124.7 341.2 124.65 340.6 123.1 L340.3 121.55" fill="#505050" fill-rule="evenodd" stroke="none"/>
      <path d="M339.4 125.45 Q341.05 127.55 339.55 128.5 338.4 129.25 336.0 129.15 334.45 129.1 333.85 127.55 L333.55 126.0 Q333.95 127.7 336.4 127.5 338.8 127.3 339.4 125.45" fill="#505050" fill-rule="evenodd" stroke="none"/>
      <path d="M66.5 76.35 Q66.25 78.8 68.65 78.95 71.1 79.05 72.35 76.55 73.1 79.85 71.3 80.95 69.95 81.8 67.65 81.25 66.2 80.9 66.2 78.6 L66.5 76.35" fill="#505050" fill-rule="evenodd" stroke="none"/>
      <path d="M74.5 47.1 Q74.1 50.6 77.55 50.75 80.95 50.9 82.75 47.4 83.85 52.0 81.3 53.55 79.4 54.75 76.15 54.0 74.05 53.55 74.05 50.25 L74.5 47.1" fill="#505050" fill-rule="evenodd" stroke="none"/>
      <path d="M83.25 30.65 Q82.95 33.45 85.75 33.55 88.55 33.65 90.05 30.85 90.95 34.55 88.85 35.8 87.25 36.75 84.6 36.15 82.9 35.8 82.9 33.2 L83.25 30.65" fill="#505050" fill-rule="evenodd" stroke="none"/>
    </g>
    <g id="shape4" transform="matrix(1.0, 0.0, 0.0, 1.0, 0.0, 0.0)">
      <path d="M395.55 48.35 Q389.7 40.1 381.95 37.25 377.15 35.45 371.95 37.45 L367.7 39.75 Q358.3 38.1 349.55 37.5 344.1 37.15 343.4 39.25 343.1 40.35 343.85 41.45 L337.65 40.75 Q331.25 40.3 330.5 41.25 329.75 42.2 332.1 46.15 L334.55 49.9 323.15 44.75 308.85 37.5 Q336.0 36.55 380.6 29.9 382.0 29.55 388.9 38.9 L395.55 48.35" fill="url(#gradient1)" fill-rule="evenodd" stroke="none"/>
      <path d="M329.65 86.65 L355.35 84.45 360.4 89.25 356.85 92.2 327.45 88.8 Q327.25 88.25 327.4 87.75 327.7 86.65 329.65 86.65" fill="url(#gradient2)" fill-rule="evenodd" stroke="none"/>
      <path d="M333.85 97.6 L340.15 97.6 354.75 129.1 356.4 134.35 Q358.25 140.9 359.2 147.65 362.25 169.15 355.1 184.2 355.05 179.15 355.85 172.05 L356.8 160.8 Q357.25 147.15 351.25 129.2 348.05 121.9 340.6 109.05 L333.85 97.6" fill="url(#gradient3)" fill-rule="evenodd" stroke="none"/>
      <path d="M297.45 32.35 L318.6 45.5 321.5 51.3 Q324.4 57.8 324.7 61.0 298.85 39.7 292.2 38.15 L289.7 32.7 292.75 32.15 297.45 32.35" fill="url(#gradient4)" fill-rule="evenodd" stroke="none"/>
      <path d="M313.0 66.05 Q311.2 66.75 309.4 69.8 L307.95 72.65 298.65 50.3 Q304.15 49.85 314.9 57.45 320.25 61.25 324.5 65.1 315.85 64.9 313.0 66.05" fill="url(#gradient5)" fill-rule="evenodd" stroke="none"/>
      <path d="M306.8 81.05 L308.85 84.6 315.35 88.95 Q315.25 105.4 307.95 121.5 300.15 138.75 289.0 143.7 L273.75 122.45 308.65 108.15 296.15 83.8 306.8 81.05" fill="url(#gradient6)" fill-rule="evenodd" stroke="none"/>
      <path d="M298.15 72.75 L287.3 78.0 293.9 99.0 267.5 111.1 Q285.2 72.45 285.2 59.45 280.75 73.6 261.8 111.75 L311.35 189.45 314.5 204.05 254.95 112.7 Q262.45 102.35 269.6 87.25 284.0 57.05 282.45 33.35 L288.5 39.1 298.15 72.75" fill="url(#gradient7)" fill-rule="evenodd" stroke="none"/>
      <path d="M200.15 176.65 Q200.25 184.6 197.85 185.95 206.3 188.3 222.9 200.5 239.5 212.65 244.9 220.45 239.5 223.4 225.75 225.15 L209.9 226.25 Q204.3 225.95 223.1 228.45 241.1 230.85 252.5 231.05 239.55 233.3 217.8 230.35 193.4 227.0 185.95 219.45 L192.95 186.8 Q141.55 127.45 125.05 115.9 114.75 108.7 93.25 95.25 L73.8 83.3 109.4 101.15 Q145.95 119.8 150.85 123.85 L174.3 145.75 Q193.05 163.6 196.1 165.7 200.0 168.3 200.15 176.65" fill="url(#gradient8)" fill-rule="evenodd" stroke="none"/>
      <path d="M205.85 236.0 Q221.6 242.55 223.6 245.85 220.9 250.9 219.1 258.2 217.5 264.5 217.9 266.0 218.1 266.95 224.3 274.7 L230.4 282.25 Q213.25 272.75 207.25 270.65 200.4 268.4 196.85 267.0 190.6 264.5 188.8 262.15 187.0 259.8 188.55 244.7 L190.45 230.05 205.85 236.0" fill="url(#gradient9)" fill-rule="evenodd" stroke="none"/>
      <path d="M176.1 37.75 L182.05 40.55 Q189.1 44.2 194.5 48.4 203.15 55.1 253.8 105.2 L249.8 111.35 264.2 137.65 Q258.25 130.4 247.85 121.35 L238.65 113.7 252.05 133.75 Q239.0 142.2 221.5 141.3 203.4 140.4 196.1 129.85 188.55 118.95 178.0 94.1 167.3 69.05 163.0 51.85 164.25 68.0 162.15 79.4 160.45 88.25 157.75 90.8 155.9 92.55 148.05 94.3 140.7 96.0 139.35 95.55 123.7 87.15 106.9 78.6 73.3 61.5 63.1 59.3 75.5 66.15 90.45 79.8 92.65 81.8 70.9 70.75 L38.4 54.3 Q36.85 53.7 36.65 41.85 36.45 29.1 39.05 22.2 30.95 41.65 21.35 58.2 L0.0 48.55 7.4 26.05 Q15.25 3.15 17.5 1.0 19.8 -1.1 31.35 1.25 37.15 2.4 42.5 4.0 L40.85 15.55 43.05 12.0 Q45.5 8.55 46.55 8.9 150.8 32.55 159.25 35.2 165.3 37.15 173.0 45.15 180.45 52.95 178.45 54.35 176.1 55.95 176.35 56.95 176.7 58.7 182.4 61.95 190.85 66.8 212.1 75.95 L196.55 79.7 210.45 86.35 Q225.3 94.1 230.0 99.45 226.3 93.5 215.85 86.9 L206.15 81.55 207.95 80.65 Q210.6 79.75 214.85 79.8 222.95 80.0 217.25 75.65 211.3 71.3 197.3 64.05 L184.5 57.65 Q182.15 46.35 176.1 37.75" fill="url(#gradient10)" fill-rule="evenodd" stroke="none"/>
    </g>
    <linearGradient gradientTransform="matrix(0.0529, 0.0, 0.0, 0.0122, 352.2, 39.9)" gradientUnits="userSpaceOnUse" id="gradient1" spreadMethod="pad" x1="-819.2" x2="819.2">
      <stop offset="0.0" stop-color="#b98e9a"/>
      <stop offset="0.5058823529411764" stop-color="#846775"/>
      <stop offset="1.0" stop-color="#625c5a"/>
    </linearGradient>
    <linearGradient gradientTransform="matrix(0.0202, 0.0, 0.0, 0.0047, 343.85, 88.3)" gradientUnits="userSpaceOnUse" id="gradient2" spreadMethod="pad" x1="-819.2" x2="819.2">
      <stop offset="0.0" stop-color="#b98e9a"/>
      <stop offset="0.5058823529411764" stop-color="#846775"/>
      <stop offset="1.0" stop-color="#625c5a"/>
    </linearGradient>
    <linearGradient gradientTransform="matrix(0.016, 0.0, 0.0, 0.0529, 346.95, 140.9)" gradientUnits="userSpaceOnUse" id="gradient3" spreadMethod="pad" x1="-819.2" x2="819.2">
      <stop offset="0.0" stop-color="#b98e9a"/>
      <stop offset="0.5058823529411764" stop-color="#846775"/>
      <stop offset="1.0" stop-color="#625c5a"/>
    </linearGradient>
    <linearGradient gradientTransform="matrix(0.0214, 0.0, 0.0, 0.0177, 307.2, 46.45)" gradientUnits="userSpaceOnUse" id="gradient4" spreadMethod="pad" x1="-819.2" x2="819.2">
      <stop offset="0.0" stop-color="#b98e9a"/>
      <stop offset="0.5058823529411764" stop-color="#846775"/>
      <stop offset="1.0" stop-color="#625c5a"/>
    </linearGradient>
    <linearGradient gradientTransform="matrix(0.0158, 0.0, 0.0, 0.0137, 311.55, 61.45)" gradientUnits="userSpaceOnUse" id="gradient5" spreadMethod="pad" x1="-819.2" x2="819.2">
      <stop offset="0.0" stop-color="#b98e9a"/>
      <stop offset="0.5058823529411764" stop-color="#846775"/>
      <stop offset="1.0" stop-color="#625c5a"/>
    </linearGradient>
    <linearGradient gradientTransform="matrix(0.0254, 0.0, 0.0, 0.0382, 294.55, 112.35)" gradientUnits="userSpaceOnUse" id="gradient6" spreadMethod="pad" x1="-819.2" x2="819.2">
      <stop offset="0.0" stop-color="#b98e9a"/>
      <stop offset="0.5058823529411764" stop-color="#846775"/>
      <stop offset="1.0" stop-color="#625c5a"/>
    </linearGradient>
    <linearGradient gradientTransform="matrix(0.0363, 0.0, 0.0, 0.1042, 284.7, 118.7)" gradientUnits="userSpaceOnUse" id="gradient7" spreadMethod="pad" x1="-819.2" x2="819.2">
      <stop offset="0.0" stop-color="#b98e9a"/>
      <stop offset="0.5058823529411764" stop-color="#846775"/>
      <stop offset="1.0" stop-color="#625c5a"/>
    </linearGradient>
    <linearGradient gradientTransform="matrix(0.1091, 0.0, 0.0, 0.0908, 163.15, 157.65)" gradientUnits="userSpaceOnUse" id="gradient8" spreadMethod="pad" x1="-819.2" x2="819.2">
      <stop offset="0.0" stop-color="#b98e9a"/>
      <stop offset="0.5058823529411764" stop-color="#846775"/>
      <stop offset="1.0" stop-color="#625c5a"/>
    </linearGradient>
    <linearGradient gradientTransform="matrix(0.026, 0.0, 0.0, 0.0319, 209.1, 256.15)" gradientUnits="userSpaceOnUse" id="gradient9" spreadMethod="pad" x1="-819.2" x2="819.2">
      <stop offset="0.0" stop-color="#b98e9a"/>
      <stop offset="0.5058823529411764" stop-color="#846775"/>
      <stop offset="1.0" stop-color="#625c5a"/>
    </linearGradient>
    <linearGradient gradientTransform="matrix(0.114, 0.114, -0.061, 0.061, 132.1, 70.7)" gradientUnits="userSpaceOnUse" id="gradient10" spreadMethod="pad" x1="-819.2" x2="819.2">
      <stop offset="0.0" stop-color="#b98e9a"/>
      <stop offset="0.5058823529411764" stop-color="#846775"/>
      <stop offset="1.0" stop-color="#625c5a"/>
    </linearGradient>
    <g id="shape5" transform="matrix(1.0, 0.0, 0.0, 1.0, 70.4, 51.8)">
      <path d="M-40.45 296.4 L-45.2 287.9 92.85 201.2 -40.45 296.4 M-44.5 270.45 L-48.15 261.4 95.1 183.4 -44.5 270.45 M-70.4 107.8 L-67.5 98.5 87.3 122.9 -70.4 107.8 M-56.2 151.45 L-54.8 141.85 87.5 142.85 -56.2 151.45 M-52.4 167.7 L-51.55 158.0 90.85 154.55 -52.4 167.7 M-48.55 12.05 L-42.65 4.35 75.6 95.8 -48.55 12.05 M-26.35 -2.0 L-19.5 -8.95 92.8 90.75 -26.35 -2.0 M288.5 323.65 L279.55 327.5 205.8 206.65 288.5 323.65 M314.35 318.85 L305.95 323.8 223.65 208.4 314.35 318.85 M193.1 335.35 L183.4 334.75 177.05 211.7 193.1 335.35 M95.8 330.85 L87.25 326.2 138.6 208.35 95.8 330.85 M55.9 310.65 L48.55 304.3 122.4 201.3 55.9 310.65 M365.15 203.95 L360.75 212.6 229.5 162.45 365.15 203.95 M335.95 259.35 L329.3 266.45 220.9 181.8 335.95 259.35 M377.2 140.75 L375.5 150.35 228.85 141.4 377.2 140.75 M357.9 43.05 L360.75 52.4 227.15 112.25 357.9 43.05 M356.15 16.85 L360.1 25.75 230.9 94.7 356.15 16.85 M276.1 -20.45 L282.9 -13.45 201.5 92.05 276.1 -20.45 M223.9 -51.8 L232.0 -46.4 185.95 83.6 223.9 -51.8 M56.65 -38.85 L65.85 -41.9 117.65 75.35 56.65 -38.85" fill="#ea90c2" fill-rule="evenodd" stroke="none"/>
    </g>
    <g id="shape6" transform="matrix(1.0, 0.0, 0.0, 1.0, 0.0, 0.0)">
      <path d="M45.25 0.15 L46.8 0.25 Q47.45 0.7 47.15 2.1 L46.0 7.2 43.95 14.25 33.25 19.25 31.85 19.5 30.45 19.45 28.55 17.65 28.55 15.05 32.35 4.9 39.8 1.95 45.25 0.15" fill="#001b2c" fill-opacity="0.29803923" fill-rule="evenodd" stroke="none"/>
      <path d="M40.95 6.7 Q42.95 8.35 45.3 7.5 L43.45 13.8 Q41.05 14.9 37.4 15.3 33.35 15.8 32.8 14.55 32.05 12.8 31.9 10.4 31.7 7.35 32.8 5.4 L39.5 2.65 Q38.95 5.05 40.95 6.7" fill="#eeb05b" fill-opacity="0.29803923" fill-rule="evenodd" stroke="none"/>
      <path d="M32.75 10.35 Q31.65 9.95 31.8 9.6 L32.95 5.55 33.85 8.35 33.75 5.1 35.05 7.45 34.7 5.0 36.5 6.9 36.6 4.7 37.7 6.15 37.7 4.15 38.85 5.5 38.7 3.6 40.4 6.25 33.9 10.7 32.75 10.35" fill="#a97a32" fill-opacity="0.29803923" fill-rule="evenodd" stroke="none"/>
      <path d="M42.25 6.85 L46.35 1.2 Q46.6 0.9 46.8 0.95 L46.9 1.25 45.4 6.9 43.2 7.2 42.25 6.85" fill="#8795ab" fill-opacity="0.29803923" fill-rule="evenodd" stroke="none"/>
      <path d="M44.15 7.45 L45.7 3.8 44.95 7.55 44.15 7.45" fill="#001b2c" fill-opacity="0.29803923" fill-rule="evenodd" stroke="none"/>
      <path d="M32.85 12.3 L40.35 6.6 33.9 12.7 32.85 12.3" fill="#a97a32" fill-opacity="0.29803923" fill-rule="evenodd" stroke="none"/>
      <path d="M32.8 5.35 L32.2 10.15 34.05 10.5 29.15 17.55 28.95 15.2 32.8 5.35" fill="#09371c" fill-opacity="0.29803923" fill-rule="evenodd" stroke="none"/>
      <path d="M34.75 13.15 L37.7 13.6 30.7 19.05 29.2 17.45 34.05 10.5 34.75 13.15" fill="#176636" fill-opacity="0.29803923" fill-rule="evenodd" stroke="none"/>
      <path d="M30.7 19.05 L37.7 13.6 39.2 14.8 43.45 13.8 33.25 18.7 30.7 19.05" fill="#30994b" fill-opacity="0.29803923" fill-rule="evenodd" stroke="none"/>
      <path d="M43.2 11.05 L41.45 10.9 Q42.3 10.5 43.2 10.05 L42.6 9.6 43.55 9.1 42.95 8.35 44.95 8.0 43.25 13.55 41.05 13.65 43.25 12.75 40.85 12.45 43.2 12.1 41.45 11.75 43.2 11.05" fill="#fce69f" fill-opacity="0.29803923" fill-rule="evenodd" stroke="none"/>
      <path d="M6.75 26.45 L12.55 25.4 18.4 24.55 19.85 24.7 21.2 25.1 22.45 27.35 21.75 29.85 15.35 38.6 7.4 39.4 1.7 39.65 Q0.6 39.65 0.2 39.15 -0.3 38.5 0.35 37.25 L2.9 32.7 4.7 29.65 Q6.55 26.6 6.75 26.45" fill="#001b2c" fill-opacity="0.29803923" fill-rule="evenodd" stroke="none"/>
      <path d="M17.6 29.2 Q17.8 31.05 17.3 33.45 16.65 36.45 15.1 38.0 L7.85 38.75 Q9.05 36.7 7.55 34.55 6.05 32.4 3.65 32.55 6.7 27.3 7.1 27.0 L13.35 27.2 Q17.4 27.85 17.6 29.2" fill="#eeb05b" fill-opacity="0.29803923" fill-rule="evenodd" stroke="none"/>
      <path d="M14.9 34.85 L14.1 38.0 13.45 35.4 13.15 37.85 11.95 35.5 11.2 37.65 10.55 35.9 10.05 37.85 9.25 36.25 8.85 38.1 8.0 35.1 15.5 32.6 Q17.6 33.75 17.15 34.2 L15.0 37.75 14.9 34.85" fill="#a97a32" fill-opacity="0.29803923" fill-rule="evenodd" stroke="none"/>
      <path d="M0.9 38.35 L0.4 38.45 0.4 38.15 3.35 33.1 Q5.1 32.75 6.4 34.0 L0.9 38.35" fill="#8795ab" fill-opacity="0.29803923" fill-rule="evenodd" stroke="none"/>
      <path d="M4.7 32.95 L2.2 36.0 4.0 32.6 4.7 32.95" fill="#001b2c" fill-opacity="0.29803923" fill-rule="evenodd" stroke="none"/>
      <path d="M16.95 31.35 L8.15 34.8 16.0 30.7 16.95 31.35" fill="#a97a32" fill-opacity="0.29803923" fill-rule="evenodd" stroke="none"/>
      <path d="M15.05 38.05 L16.95 33.6 15.25 32.7 21.9 27.3 21.4 29.65 15.05 38.05" fill="#09371c" fill-opacity="0.29803923" fill-rule="evenodd" stroke="none"/>
      <path d="M21.85 27.35 L15.25 32.7 15.3 30.0 12.55 28.75 20.8 25.45 21.85 27.35" fill="#176636" fill-opacity="0.29803923" fill-rule="evenodd" stroke="none"/>
      <path d="M20.8 25.45 L12.55 28.75 11.45 27.2 7.1 27.0 18.3 25.05 20.8 25.45" fill="#30994b" fill-opacity="0.29803923" fill-rule="evenodd" stroke="none"/>
      <path d="M4.1 32.2 L7.2 27.3 9.35 27.8 7.0 28.05 9.25 29.0 6.9 28.7 8.5 29.55 6.6 29.7 8.25 30.3 6.35 30.7 6.75 31.3 5.7 31.5 6.1 32.35 4.1 32.2" fill="#fce69f" fill-opacity="0.29803923" fill-rule="evenodd" stroke="none"/>
      <path d="M5.0 13.9 Q4.2 12.7 5.65 12.55 L8.45 12.35 12.4 12.25 16.7 16.9 Q17.4 17.75 17.3 18.3 L16.65 19.5 15.35 19.95 9.5 19.7 6.8 16.35 5.0 13.9" fill="#001b2c" fill-opacity="0.29803923" fill-rule="evenodd" stroke="none"/>
      <path d="M7.2 16.4 Q8.5 16.3 9.05 15.0 9.55 13.7 8.75 12.65 L12.25 12.55 Q13.2 13.6 14.0 15.4 14.95 17.4 14.4 17.9 L12.4 19.05 9.75 19.4 7.2 16.4" fill="#eeb05b" fill-opacity="0.29803923" fill-rule="evenodd" stroke="none"/>
      <path d="M9.3 16.75 L8.3 17.1 8.75 16.25 7.8 16.65 8.9 15.35 12.25 17.95 Q12.4 19.25 12.0 19.2 L9.8 19.3 11.05 18.35 9.45 18.95 10.4 17.9 9.2 18.5 9.9 17.25 8.75 17.55 9.3 16.75" fill="#a97a32" fill-opacity="0.29803923" fill-rule="evenodd" stroke="none"/>
      <path d="M8.9 14.3 L5.35 13.15 5.15 12.95 5.3 12.85 8.4 12.7 Q9.1 13.4 8.9 14.3" fill="#8795ab" fill-opacity="0.29803923" fill-rule="evenodd" stroke="none"/>
      <path d="M8.9 13.25 L6.75 13.05 8.8 12.85 8.9 13.25" fill="#001b2c" fill-opacity="0.29803923" fill-rule="evenodd" stroke="none"/>
      <path d="M9.1 15.35 L13.25 17.65 13.25 18.25 9.1 15.35" fill="#a97a32" fill-opacity="0.29803923" fill-rule="evenodd" stroke="none"/>
      <path d="M9.7 19.4 L12.25 18.9 12.15 17.9 16.55 19.25 15.35 19.7 9.7 19.4" fill="#09371c" fill-opacity="0.29803923" fill-rule="evenodd" stroke="none"/>
      <path d="M12.15 17.9 L13.35 17.1 13.1 15.5 17.05 18.2 16.5 19.25 12.15 17.9" fill="#176636" fill-opacity="0.29803923" fill-rule="evenodd" stroke="none"/>
      <path d="M12.25 12.55 L16.45 16.95 17.05 18.2 13.1 15.5 13.45 14.55 12.25 12.55" fill="#30994b" fill-opacity="0.29803923" fill-rule="evenodd" stroke="none"/>
      <path d="M12.15 12.7 L12.55 13.8 11.75 12.8 12.0 14.1 11.45 12.95 11.5 13.9 10.9 13.15 11.1 14.05 10.4 13.3 10.25 13.65 9.8 13.25 9.55 13.7 9.05 12.75 12.15 12.7" fill="#fce69f" fill-opacity="0.29803923" fill-rule="evenodd" stroke="none"/>
      <path d="M40.4 34.5 L41.5 37.75 Q42.05 39.45 40.35 39.15 L36.7 38.3 31.65 36.9 28.5 30.5 28.35 28.8 29.45 27.5 30.35 27.4 31.3 27.5 Q38.35 29.8 38.6 30.0 L40.4 34.5" fill="#001b2c" fill-opacity="0.29803923" fill-rule="evenodd" stroke="none"/>
      <path d="M36.45 37.85 L31.9 36.5 Q31.05 35.35 30.95 33.35 30.95 31.75 31.3 30.55 31.55 29.7 34.25 29.75 36.65 29.8 38.3 30.35 L39.9 34.35 Q38.35 33.95 37.15 35.15 35.95 36.35 36.45 37.85" fill="#eeb05b" fill-opacity="0.29803923" fill-rule="evenodd" stroke="none"/>
      <path d="M31.55 33.3 L32.25 33.0 36.8 35.5 35.9 37.3 35.85 36.05 35.15 37.0 35.05 35.7 34.4 36.75 34.2 35.3 33.15 36.65 33.25 35.05 32.55 36.65 32.4 34.5 32.0 36.4 31.0 33.85 Q30.85 33.6 31.55 33.3" fill="#a97a32" fill-opacity="0.29803923" fill-rule="evenodd" stroke="none"/>
      <path d="M41.0 38.4 L37.95 34.95 38.6 34.7 Q39.35 34.45 40.05 34.7 L41.35 38.3 41.3 38.5 41.0 38.4" fill="#8795ab" fill-opacity="0.29803923" fill-rule="evenodd" stroke="none"/>
      <path d="M39.15 34.45 L39.65 34.3 40.45 36.7 39.15 34.45" fill="#001b2c" fill-opacity="0.29803923" fill-rule="evenodd" stroke="none"/>
      <path d="M36.75 35.25 L31.45 32.0 32.15 31.7 36.75 35.25" fill="#a97a32" fill-opacity="0.29803923" fill-rule="evenodd" stroke="none"/>
      <path d="M31.9 36.55 L28.75 30.4 28.75 28.85 32.4 33.1 31.2 33.45 31.9 36.55" fill="#09371c" fill-opacity="0.29803923" fill-rule="evenodd" stroke="none"/>
      <path d="M28.75 28.9 L29.65 27.75 34.6 30.85 32.7 31.35 32.4 33.1 28.75 28.9" fill="#176636" fill-opacity="0.29803923" fill-rule="evenodd" stroke="none"/>
      <path d="M29.65 27.75 L31.3 27.8 38.3 30.35 35.5 29.95 34.6 30.85 29.65 27.75" fill="#30994b" fill-opacity="0.29803923" fill-rule="evenodd" stroke="none"/>
      <path d="M38.4 32.8 L37.15 32.35 38.3 32.15 37.1 31.85 38.25 31.5 36.7 31.4 38.25 31.05 36.75 30.6 38.2 30.5 39.65 34.05 38.35 33.95 38.7 33.4 38.05 33.15 38.4 32.8" fill="#fce69f" fill-opacity="0.29803923" fill-rule="evenodd" stroke="none"/>
    </g>
    <g id="sprite0" transform="matrix(1.0, 0.0, 0.0, 1.0, 24.75, 10.35)">
      <use height="97.35" transform="matrix(1.0, 0.0, 0.0, 1.0, -24.75, -10.35)" width="311.35" xlink:href="#shape7"/>
    </g>
    <g id="shape7" transform="matrix(1.0, 0.0, 0.0, 1.0, 24.75, 10.35)">
      <path d="M286.6 87.0 L-24.75 87.0 -24.75 -10.35 286.6 -10.35 286.6 87.0" fill="#cccccc" fill-opacity="0.0" fill-rule="evenodd" stroke="none"/>
    </g>
    <g id="shape8" transform="matrix(1.0, 0.0, 0.0, 1.0, 0.0, 0.0)">
      <path d="M555.5 0.5 L555.5 235.5 0.5 235.5 0.5 0.5 555.5 0.5 Z" fill="none" stroke="#000000" stroke-linecap="round" stroke-linejoin="round" stroke-width="1.0"/>
    </g>
  </defs>
</svg>
