<?xml version="1.0" encoding="UTF-8" standalone="no"?>
<svg xmlns:xlink="http://www.w3.org/1999/xlink" height="236.0px" width="556.0px" xmlns="http://www.w3.org/2000/svg">
  <g transform="matrix(1.0, 0.0, 0.0, 1.0, 0.0, 0.0)">
    <use height="236.65" transform="matrix(1.0, 0.0, 0.0, 1.0, -0.05, 0.0)" width="558.1" xlink:href="#shape0"/>
    <use height="288.7" transform="matrix(1.6733, 0.9295, -0.9295, 1.6733, 110.8, -286.85)" width="312.55" xlink:href="#shape1"/>
    <use height="287.2" transform="matrix(1.8706, 0.4162, -0.4161, 1.8706, 38.0, -223.05)" width="304.65" xlink:href="#shape2"/>
    <use height="242.55" transform="matrix(0.6422, 0.4141, -0.4141, 0.6422, 229.25, 51.25)" width="275.3" xlink:href="#shape3"/>
    <use height="107.55" transform="matrix(0.0852, -0.6458, 0.6458, 0.0852, 256.4, 159.3)" width="125.25" xlink:href="#shape4"/>
    <use height="97.35" transform="matrix(1.7857, 0.0, 0.0, 2.4138, -0.997, 0.017)" width="311.35" xlink:href="#sprite0"/>
    <use height="236.0" transform="matrix(1.0, 0.0, 0.0, 1.0, 0.0, 0.0)" width="556.0" xlink:href="#shape6"/>
  </g>
  <defs>
    <g id="shape0" transform="matrix(1.0, 0.0, 0.0, 1.0, 0.05, 0.0)">
      <path d="M558.05 236.65 L-0.05 236.65 -0.05 0.0 558.05 0.0 558.05 236.65" fill="url(#gradient0)" fill-rule="evenodd" stroke="none"/>
    </g>
    <radialGradient cx="0" cy="0" gradientTransform="matrix(0.3759, 0.0, 0.0, 0.3416, 279.0, 118.3)" gradientUnits="userSpaceOnUse" id="gradient0" r="819.2" spreadMethod="pad">
      <stop offset="0.0" stop-color="#ffffff"/>
      <stop offset="0.23529411764705882" stop-color="#ffffff"/>
      <stop offset="1.0" stop-color="#ffe621"/>
    </radialGradient>
    <g id="shape1" transform="matrix(1.0, 0.0, 0.0, 1.0, 0.0, 0.0)">
      <path d="M248.0 260.1 L201.45 190.4 254.8 253.1 248.0 260.1" fill="#ffcc41" fill-rule="evenodd" stroke="none"/>
      <path d="M300.45 210.75 L227.1 170.2 303.3 201.4 300.45 210.75" fill="#ffcc41" fill-rule="evenodd" stroke="none"/>
      <path d="M228.8 141.05 L310.85 134.25 312.55 143.85 228.8 141.05" fill="#ffcc41" fill-rule="evenodd" stroke="none"/>
      <path d="M298.7 236.95 L230.85 187.75 302.65 228.1 298.7 236.95" fill="#ffcc41" fill-rule="evenodd" stroke="none"/>
      <path d="M216.8 276.75 L185.9 198.85 224.9 271.35 216.8 276.75" fill="#ffcc41" fill-rule="evenodd" stroke="none"/>
      <path d="M248.0 22.4 L254.8 29.35 201.45 92.05 248.0 22.4" fill="#ffcc41" fill-rule="evenodd" stroke="none"/>
      <path d="M300.45 71.75 L303.3 81.05 227.1 112.25 300.45 71.75" fill="#ffcc41" fill-rule="evenodd" stroke="none"/>
      <path d="M312.55 138.6 L310.85 148.2 228.8 141.4 312.55 138.6" fill="#ffcc41" fill-rule="evenodd" stroke="none"/>
      <path d="M298.7 45.5 L302.65 54.4 230.85 94.7 298.7 45.5" fill="#ffcc41" fill-rule="evenodd" stroke="none"/>
      <path d="M216.8 5.7 L224.9 11.1 185.9 83.6 216.8 5.7" fill="#ffcc41" fill-rule="evenodd" stroke="none"/>
      <path d="M82.1 274.8 L74.75 268.45 122.4 201.3 82.1 274.8" fill="#ffcc41" fill-rule="evenodd" stroke="none"/>
      <path d="M25.55 230.2 L21.9 221.2 95.1 183.45 25.55 230.2" fill="#ffcc41" fill-rule="evenodd" stroke="none"/>
      <path d="M7.65 164.65 L8.55 154.95 90.85 154.55 7.65 164.65" fill="#ffcc41" fill-rule="evenodd" stroke="none"/>
      <path d="M29.6 256.2 L24.9 247.65 92.9 201.25 29.6 256.2" fill="#ffcc41" fill-rule="evenodd" stroke="none"/>
      <path d="M114.65 288.7 L106.1 284.0 138.6 208.4 114.65 288.7" fill="#ffcc41" fill-rule="evenodd" stroke="none"/>
      <path d="M3.85 115.25 L6.75 105.95 87.3 122.95 3.85 115.25" fill="#ffcc41" fill-rule="evenodd" stroke="none"/>
      <path d="M22.2 45.6 L29.05 38.7 92.8 90.75 22.2 45.6" fill="#ffcc41" fill-rule="evenodd" stroke="none"/>
      <path d="M75.25 3.1 L84.45 0.0 117.65 75.4 75.25 3.1" fill="#ffcc41" fill-rule="evenodd" stroke="none"/>
      <path d="M0.0 59.65 L5.95 51.95 75.6 95.8 0.0 59.65" fill="#ffcc41" fill-rule="evenodd" stroke="none"/>
      <path d="M1.0 153.45 L2.15 143.8 84.45 145.8 1.0 153.45" fill="#ffcc41" fill-rule="evenodd" stroke="none"/>
    </g>
    <g id="shape2" transform="matrix(1.0, 0.0, 0.0, 1.0, 0.0, 0.0)">
      <path d="M62.9 21.8 L108.3 89.75 56.3 28.6 62.9 21.8" fill="#faf9e8" fill-rule="evenodd" stroke="none"/>
      <path d="M11.75 69.95 L83.3 109.45 9.0 79.0 11.75 69.95" fill="#faf9e8" fill-rule="evenodd" stroke="none"/>
      <path d="M0.0 135.15 L81.65 137.85 1.65 144.5 0.0 135.15" fill="#faf9e8" fill-rule="evenodd" stroke="none"/>
      <path d="M13.5 44.35 L109.8 109.1 9.65 53.05 13.5 44.35" fill="#faf9e8" fill-rule="evenodd" stroke="none"/>
      <path d="M93.3 5.55 L123.45 81.5 85.4 10.85 93.3 5.55" fill="#faf9e8" fill-rule="evenodd" stroke="none"/>
      <path d="M19.35 219.4 L89.35 177.25 25.85 226.35 19.35 219.4" fill="#faf9e8" fill-rule="evenodd" stroke="none"/>
      <path d="M56.6 268.0 L104.1 201.5 65.3 271.75 56.6 268.0" fill="#faf9e8" fill-rule="evenodd" stroke="none"/>
      <path d="M120.0 287.2 L132.1 206.4 129.5 286.65 120.0 287.2" fill="#faf9e8" fill-rule="evenodd" stroke="none"/>
      <path d="M31.4 263.35 L86.7 203.15 39.55 268.15 31.4 263.35" fill="#faf9e8" fill-rule="evenodd" stroke="none"/>
      <path d="M2.05 179.6 L80.95 158.4 6.35 188.05 2.05 179.6" fill="#faf9e8" fill-rule="evenodd" stroke="none"/>
      <path d="M224.6 267.9 L185.35 196.25 231.8 261.7 224.6 267.9" fill="#faf9e8" fill-rule="evenodd" stroke="none"/>
      <path d="M279.75 224.4 L211.95 178.85 283.3 215.6 279.75 224.4" fill="#faf9e8" fill-rule="evenodd" stroke="none"/>
      <path d="M297.2 160.5 L216.1 150.65 296.35 151.05 297.2 160.5" fill="#faf9e8" fill-rule="evenodd" stroke="none"/>
      <path d="M275.8 249.75 L214.15 196.2 280.4 241.45 275.8 249.75" fill="#faf9e8" fill-rule="evenodd" stroke="none"/>
      <path d="M192.9 281.4 L169.55 203.15 201.25 276.9 192.9 281.4" fill="#faf9e8" fill-rule="evenodd" stroke="none"/>
      <path d="M300.9 112.35 L219.55 119.85 298.1 103.3 300.9 112.35" fill="#faf9e8" fill-rule="evenodd" stroke="none"/>
      <path d="M283.0 44.45 L214.2 88.5 276.35 37.7 283.0 44.45" fill="#faf9e8" fill-rule="evenodd" stroke="none"/>
      <path d="M231.3 3.0 L190.0 73.5 222.3 0.0 231.3 3.0" fill="#faf9e8" fill-rule="evenodd" stroke="none"/>
      <path d="M304.65 58.15 L230.95 93.4 298.9 50.65 304.65 58.15" fill="#faf9e8" fill-rule="evenodd" stroke="none"/>
      <path d="M300.9 144.65 L219.35 139.25 299.55 135.25 300.9 144.65" fill="#faf9e8" fill-rule="evenodd" stroke="none"/>
    </g>
    <g id="shape3" transform="matrix(1.0, 0.0, 0.0, 1.0, 0.0, 0.0)">
      <path d="M222.4 97.5 Q226.15 106.3 226.3 118.25 226.5 131.2 230.45 145.3 236.25 143.45 241.8 145.15 246.95 146.7 250.2 150.8 251.55 152.55 252.15 154.05 255.1 160.8 250.2 165.3 247.3 167.95 237.5 167.25 L231.85 167.1 Q229.3 167.45 222.8 170.7 212.5 175.9 207.2 175.45 205.85 177.05 203.55 178.25 198.95 180.65 194.3 178.5 L180.6 166.45 Q181.45 164.1 180.8 161.9 179.9 159.0 183.05 155.6 L184.3 154.45 184.2 153.45 Q185.05 142.45 193.85 121.05 194.35 119.95 195.65 119.6 L198.05 110.75 Q200.25 102.1 201.45 98.6 201.75 97.5 202.85 97.1 202.3 87.6 207.75 85.8 211.25 84.7 215.1 87.5 219.45 90.65 222.4 97.5" fill="#000000" fill-rule="evenodd" stroke="none"/>
      <path d="M225.3 143.2 Q225.05 143.9 225.95 145.45 226.85 146.95 227.95 147.85 225.95 149.3 225.65 150.4 231.25 146.55 237.05 146.8 242.1 147.0 246.0 150.1 249.6 153.0 250.45 156.8 251.35 160.8 248.5 163.45 246.6 165.25 240.55 164.95 L231.55 164.65 Q228.8 165.0 219.1 169.4 210.4 173.25 205.85 172.9 206.9 168.45 206.35 164.5 205.25 156.85 197.4 152.95 L199.15 143.35 Q198.8 142.75 197.75 146.3 196.7 149.95 196.5 152.7 L193.65 152.15 Q193.75 147.15 194.65 142.45 195.25 139.15 195.05 139.0 194.35 138.4 193.4 142.85 192.3 147.7 193.05 152.15 191.4 151.9 189.7 152.55 189.35 151.1 189.55 147.9 189.75 145.15 189.4 145.0 188.8 144.65 188.45 146.95 188.05 149.55 188.9 152.7 L186.65 153.65 Q187.5 143.05 196.15 122.0 195.95 124.05 194.55 129.7 197.2 124.1 199.6 114.7 202.7 102.45 203.75 99.4 205.75 114.6 204.7 127.9 206.9 121.15 206.8 110.4 205.7 101.85 205.35 97.4 204.75 89.35 208.5 88.2 213.1 86.75 217.95 94.3 223.65 103.15 223.85 118.25 224.05 131.55 228.1 146.15 226.4 144.95 225.3 143.2" fill="#ffffff" fill-rule="evenodd" stroke="none"/>
      <path d="M201.15 157.65 Q203.3 160.2 204.0 163.45 205.6 171.8 203.2 175.25 202.25 176.55 198.45 178.15 199.9 174.15 199.2 169.9 198.55 165.9 196.35 163.35 194.05 160.75 191.15 161.0 187.95 161.35 185.0 165.35 180.55 160.25 184.7 156.6 188.45 153.2 194.4 153.95 198.4 154.45 201.15 157.65" fill="#ffffff" fill-rule="evenodd" stroke="none"/>
      <path d="M183.2 169.45 L185.5 166.75 Q188.1 163.95 189.45 163.15 191.5 162.0 194.1 164.05 197.1 166.45 197.25 171.45 197.45 178.9 196.05 181.9 L183.2 169.45" fill="#f46287" fill-rule="evenodd" stroke="none"/>
      <path d="M194.0 150.45 L194.2 146.55 Q194.7 149.0 195.65 150.7 L194.0 150.45" fill="#c2d8d3" fill-rule="evenodd" stroke="none"/>
      <path d="M193.7 141.6 Q192.15 146.8 193.05 152.15 191.4 151.9 189.7 152.55 189.35 151.1 189.55 147.9 189.75 145.15 189.4 145.0 188.8 144.65 188.45 146.95 188.05 149.55 188.9 152.7 L186.65 153.65 Q187.5 143.05 196.15 122.0 195.95 124.05 194.55 129.7 197.2 124.1 199.6 114.7 202.7 102.45 203.75 99.4 205.25 110.8 205.05 121.0 203.65 103.55 202.45 108.15 197.8 127.0 196.85 129.35 194.25 135.9 193.7 141.6" fill="#c2d8d3" fill-rule="evenodd" stroke="none"/>
      <path d="M231.55 164.65 Q228.8 165.0 219.1 169.4 210.4 173.25 205.85 172.9 206.35 170.5 206.45 168.3 206.7 164.05 205.25 160.7 214.3 165.45 223.3 161.9 228.55 159.85 235.7 162.55 L240.8 164.35 Q243.5 165.05 245.55 164.3 249.15 162.95 250.45 160.35 249.9 162.2 248.5 163.45 246.6 165.25 240.55 164.95 L231.55 164.65" fill="#c2d8d3" fill-rule="evenodd" stroke="none"/>
      <path d="M208.9 86.5 Q212.2 85.45 216.05 89.7 211.25 87.1 208.6 88.15 205.4 89.45 206.35 96.15 207.9 106.4 207.0 115.65 L207.2 108.7 Q206.05 100.15 205.75 95.75 205.1 87.7 208.9 86.5" fill="#c2d8d3" fill-rule="evenodd" stroke="none"/>
      <path d="M196.35 163.35 Q194.05 160.75 191.15 161.0 187.95 161.35 185.0 165.35 180.3 159.95 185.1 156.25 184.25 158.4 185.1 158.75 L190.6 159.25 Q194.9 159.65 198.05 163.55 200.85 166.95 201.0 170.35 201.05 172.15 202.3 172.15 203.6 172.15 204.6 170.3 204.4 174.4 202.2 176.3 201.6 176.8 198.45 178.15 199.9 174.15 199.2 169.9 198.55 165.9 196.35 163.35" fill="#c2d8d3" fill-rule="evenodd" stroke="none"/>
      <path d="M121.4 238.75 Q118.0 240.85 113.3 241.9 103.95 244.05 97.55 239.05 93.2 235.7 86.55 176.65 L92.8 184.2 Q100.25 193.5 106.15 201.95 125.0 229.2 121.4 238.75" fill="#000000" fill-rule="evenodd" stroke="none"/>
      <path d="M119.9 236.2 Q116.85 238.2 112.7 239.2 104.45 241.25 98.9 236.2 95.45 233.05 90.05 183.3 L95.45 189.75 Q101.85 197.6 106.95 204.85 123.15 228.05 119.9 236.2" fill="#852428" fill-rule="evenodd" stroke="none"/>
      <path d="M87.8 131.2 Q87.95 131.9 93.6 135.5 L99.2 138.9 104.2 137.9 116.8 136.9 Q137.15 136.85 150.85 146.85 214.8 193.6 275.3 184.8 247.8 206.2 210.95 222.6 175.2 238.55 153.65 239.8 159.9 235.6 160.65 233.2 152.25 234.75 144.4 225.8 141.95 223.0 137.45 216.65 132.5 209.65 129.95 206.55 123.15 198.25 103.15 187.85 L84.5 179.1 Q77.8 176.05 79.55 172.55 78.85 170.45 80.5 167.65 82.55 164.85 83.0 163.85 77.05 154.75 76.55 151.85 75.45 145.6 84.95 143.35 L72.1 135.9 87.8 131.2" fill="#000000" fill-rule="evenodd" stroke="none"/>
      <path d="M227.75 197.4 Q214.1 202.85 201.8 214.8 190.05 226.2 179.2 231.5 172.9 234.6 162.25 237.1 163.35 235.35 168.25 230.6 172.45 226.5 173.35 223.9 156.15 236.35 147.5 224.25 144.6 220.2 126.7 202.45 131.55 191.3 149.8 182.35 169.4 172.75 189.65 173.8 228.1 192.5 259.6 189.4 237.75 193.35 227.75 197.4" fill="#3997c2" fill-rule="evenodd" stroke="none"/>
      <path d="M116.4 192.35 Q121.55 181.6 140.65 174.4 161.2 166.6 182.0 169.9 L187.75 172.85 Q171.85 169.7 151.2 178.6 129.95 187.7 125.1 200.9 L116.4 192.35" fill="#f1cc58" fill-rule="evenodd" stroke="none"/>
      <path d="M113.05 140.2 Q132.8 139.65 143.5 145.65 L156.65 154.5 Q169.45 163.15 181.05 169.4 173.6 166.7 163.05 167.1 153.0 167.5 142.9 170.6 132.55 173.8 125.2 178.85 117.3 184.35 114.75 190.8 83.25 160.1 81.8 158.3 78.25 153.8 79.35 149.65 80.7 144.6 89.3 145.05 95.85 145.45 107.7 147.9 94.0 143.05 90.6 142.5 106.1 140.4 113.05 140.2" fill="#3997c2" fill-rule="evenodd" stroke="none"/>
      <path d="M84.45 140.35 Q83.65 139.4 83.2 138.35 82.25 136.25 84.05 135.75 85.85 135.2 91.1 137.25 93.75 138.25 96.0 139.35 L84.45 140.35" fill="#852428" fill-rule="evenodd" stroke="none"/>
      <path d="M116.4 192.35 Q120.2 184.4 133.0 177.8 L137.35 179.5 139.3 184.95 Q128.2 192.35 125.1 200.9 L116.4 192.35" fill="#a5622f" fill-rule="evenodd" stroke="none"/>
      <path d="M187.75 172.85 Q179.9 171.3 169.4 173.15 L168.8 172.7 164.75 169.15 182.0 169.9 187.75 172.85" fill="#a5622f" fill-rule="evenodd" stroke="none"/>
      <path d="M155.35 153.65 Q169.7 163.25 181.05 169.4 173.5 166.6 162.85 167.1 162.85 164.85 160.85 161.05 158.6 156.7 155.35 153.65" fill="#00406d" fill-rule="evenodd" stroke="none"/>
      <path d="M114.75 190.8 Q83.25 160.1 81.8 158.3 77.45 152.7 79.85 148.4 80.85 150.5 85.7 153.8 L96.95 160.95 Q107.2 167.35 129.3 176.3 117.9 182.7 114.75 190.8" fill="#00406d" fill-rule="evenodd" stroke="none"/>
      <path d="M168.25 230.6 Q172.45 226.5 173.35 223.9 156.15 236.35 147.5 224.25 144.6 220.2 126.7 202.45 129.9 194.95 140.45 187.8 146.9 202.8 155.5 211.45 168.2 224.2 183.1 219.7 L172.6 228.85 Q166.75 234.25 167.35 235.85 L162.25 237.1 Q163.35 235.35 168.25 230.6" fill="#00406d" fill-rule="evenodd" stroke="none"/>
      <path d="M189.65 173.8 Q217.65 187.5 242.2 189.5 216.3 190.5 198.3 186.25 183.5 182.7 172.05 175.0 181.0 173.35 189.65 173.8" fill="#00406d" fill-rule="evenodd" stroke="none"/>
      <path d="M109.2 156.85 L112.05 161.15 Q114.65 165.8 113.5 167.8 112.65 169.3 114.2 171.95 115.75 174.55 114.5 176.55 112.15 180.4 94.5 178.4 96.85 172.3 99.85 166.55 105.9 155.05 109.2 156.85" fill="#000000" fill-rule="evenodd" stroke="none"/>
      <path d="M106.55 157.2 L109.4 161.5 Q112.0 166.15 110.85 168.15 110.0 169.65 111.55 172.3 113.1 174.9 111.85 176.9 109.5 180.7 91.85 178.75 94.2 172.65 97.2 166.9 103.25 155.4 106.55 157.2" fill="#c5e4e8" fill-rule="evenodd" stroke="none"/>
      <path d="M108.35 151.15 Q109.65 154.15 109.2 157.8 108.35 164.85 102.2 171.65 104.25 172.85 108.3 174.65 L109.15 175.05 Q110.05 175.55 110.35 176.35 L110.5 176.7 120.7 177.25 Q118.7 169.8 125.2 162.75 131.45 156.0 138.35 156.25 142.45 156.4 144.45 158.8 L145.5 160.55 Q146.7 163.3 144.7 169.35 141.95 177.85 141.75 185.3 L141.55 186.15 Q144.4 193.35 143.95 202.55 143.5 212.35 139.45 218.6 L139.65 219.55 Q139.55 226.65 133.4 233.65 125.1 243.15 115.1 240.85 105.1 238.6 101.55 226.0 101.4 225.4 101.55 224.75 L99.3 223.4 Q94.55 220.55 92.5 219.55 L91.8 219.2 Q81.85 214.2 80.3 210.45 76.55 201.1 90.9 194.1 91.9 193.6 93.3 192.55 91.85 190.3 91.7 187.9 L90.75 187.25 Q89.45 185.95 85.6 183.25 80.9 180.0 79.1 178.05 76.1 174.8 76.5 171.35 77.05 166.15 86.3 156.9 L90.5 152.5 Q96.4 145.3 100.7 145.3 104.1 145.3 106.8 148.6 107.75 149.65 108.35 151.15" fill="#000000" fill-rule="evenodd" stroke="none"/>
      <path d="M92.45 154.1 Q95.95 149.7 98.25 148.45 101.9 146.5 104.9 150.15 108.55 154.65 105.55 162.05 102.6 169.2 95.35 174.6 96.45 174.7 99.5 172.9 101.9 174.45 108.1 177.3 95.6 178.65 92.55 185.55 L83.9 179.0 Q78.6 174.95 78.95 171.6 79.4 167.75 84.5 162.25 90.55 156.45 92.45 154.1" fill="#ffffff" fill-rule="evenodd" stroke="none"/>
      <path d="M99.0 191.15 Q103.05 188.15 106.35 189.55 108.55 190.45 109.35 193.05 110.15 195.7 109.1 199.05 106.55 207.25 95.75 213.3 106.7 210.9 111.2 198.65 132.3 198.65 131.35 186.4 130.9 181.1 123.8 178.55 120.45 171.5 127.0 164.45 131.65 159.45 136.7 158.8 140.8 158.3 142.5 160.4 143.7 161.9 143.55 163.9 143.45 165.2 142.35 168.5 139.5 177.4 139.3 185.25 138.65 184.3 137.9 184.3 141.7 190.8 141.5 201.4 141.25 212.4 136.55 218.45 137.45 208.8 127.7 202.7 123.9 200.35 120.1 199.65 116.35 199.0 114.85 200.35 121.8 200.2 127.75 204.6 132.7 208.25 134.2 212.5 136.2 218.05 133.1 223.65 129.95 229.35 124.1 230.2 118.45 231.05 108.5 225.8 97.7 219.35 93.6 217.3 83.85 212.5 82.6 209.5 79.7 202.3 91.95 196.35 L99.0 191.15" fill="#ffffff" fill-rule="evenodd" stroke="none"/>
      <path d="M95.5 191.4 Q92.9 187.5 95.05 184.6 96.9 182.05 102.55 180.5 108.05 178.95 114.25 179.05 120.85 179.2 125.05 181.15 129.85 183.45 129.95 187.6 130.1 193.1 123.0 195.55 118.1 197.2 111.4 197.15 112.25 190.25 106.25 187.7 103.6 186.6 100.3 188.25 L95.5 191.4" fill="#ffffff" fill-rule="evenodd" stroke="none"/>
      <path d="M131.75 232.2 Q124.35 240.6 115.7 238.75 106.85 236.85 103.65 225.4 115.2 232.6 123.0 232.05 129.05 231.6 133.05 226.85 136.0 223.35 136.2 220.65 L137.45 219.5 Q137.35 225.85 131.75 232.2" fill="#c2d8d3" fill-rule="evenodd" stroke="none"/>
      <path d="M140.55 115.7 Q142.55 116.05 141.55 118.0 140.55 120.0 136.9 122.35 127.3 128.5 111.3 130.35 L120.25 126.1 129.8 105.55 Q133.9 114.5 140.55 115.7" fill="#000000" fill-rule="evenodd" stroke="none"/>
      <path d="M127.5 114.15 L131.5 115.6 Q135.8 117.05 137.55 117.0 132.15 122.55 118.25 124.15 112.75 124.8 119.6 119.55 L127.5 114.15" fill="#852428" fill-rule="evenodd" stroke="none"/>
      <path d="M107.0 31.8 Q123.15 26.15 127.35 21.05 134.3 28.2 132.6 42.25 131.95 47.85 130.05 52.55 128.2 57.15 126.1 58.75 119.4 53.85 112.55 42.35 L107.0 31.8" fill="#000000" fill-rule="evenodd" stroke="none"/>
      <path d="M108.45 33.1 Q122.95 28.2 126.7 23.85 132.3 31.3 131.0 42.7 129.8 52.9 125.45 56.1 119.5 51.9 113.35 42.1 L108.45 33.1" fill="#f46287" fill-rule="evenodd" stroke="none"/>
      <path d="M130.7 44.65 Q129.2 53.35 125.45 56.1 122.2 53.85 118.8 49.7 L118.95 49.5 Q128.7 37.75 128.9 27.55 132.35 35.05 130.7 44.65" fill="#852428" fill-rule="evenodd" stroke="none"/>
      <path d="M72.2 24.1 Q84.75 22.85 96.45 25.75 108.95 28.85 118.0 36.05 139.3 53.0 135.3 86.0 141.55 98.4 136.45 110.5 131.6 122.15 118.2 129.45 104.3 137.0 86.2 137.0 66.2 137.0 46.1 127.45 30.7 120.6 19.0 111.9 4.6 101.2 1.35 91.3 -0.55 85.5 0.2 84.75 0.6 84.3 2.55 85.7 -0.5 80.5 0.3 77.6 1.05 75.0 3.3 76.35 8.8 79.8 15.8 72.0 23.1 63.85 26.6 49.0 27.65 44.5 28.8 36.0 29.9 27.55 30.85 23.55 34.15 9.45 44.7 0.0 L53.0 9.15 Q63.1 19.3 72.2 24.1" fill="#000000" fill-rule="evenodd" stroke="none"/>
      <path d="M51.65 33.9 Q62.05 28.7 72.6 26.95 99.55 24.3 116.05 37.2 135.2 52.1 132.95 83.8 120.15 70.05 95.85 69.15 74.5 68.35 55.25 77.0 37.7 84.9 35.3 98.75 32.85 113.05 48.3 125.6 34.15 119.3 20.7 109.65 5.9 99.0 3.05 91.75 0.9 86.3 3.3 87.7 L7.4 91.1 Q4.1 85.6 3.3 82.2 2.5 79.0 4.45 80.2 9.85 83.6 17.65 74.3 25.6 64.75 29.1 49.75 30.25 44.8 31.1 37.1 32.0 28.4 32.55 25.4 35.0 12.35 44.4 3.35 L51.65 10.9 Q60.5 19.5 68.6 24.6 54.6 28.1 46.4 33.85 38.45 39.45 31.4 50.45 38.45 40.5 51.65 33.9" fill="#f46287" fill-rule="evenodd" stroke="none"/>
      <path d="M105.6 71.8 Q105.55 59.95 107.75 52.4 110.85 41.5 117.65 45.1 124.25 48.55 125.15 58.3 126.05 68.1 120.35 75.55 115.95 73.75 110.35 72.6 L105.6 71.8" fill="#000000" fill-rule="evenodd" stroke="none"/>
      <path d="M106.65 70.35 Q106.9 61.55 109.15 55.5 111.8 48.3 116.05 49.8 122.05 51.95 122.65 60.95 123.1 68.0 120.6 74.8 114.4 71.8 106.65 70.35" fill="#ffffff" fill-rule="evenodd" stroke="none"/>
      <path d="M38.65 94.3 Q42.7 85.5 54.55 79.5 66.15 73.6 81.65 72.25 97.95 70.8 113.85 74.9 121.15 76.75 126.65 81.7 132.1 86.55 134.3 93.1 139.35 108.35 125.25 121.65 118.85 127.7 106.8 131.1 94.9 134.4 81.8 134.0 67.9 133.55 57.25 128.85 45.35 123.65 40.05 114.15 34.2 103.75 38.65 94.3" fill="#fadf82" fill-rule="evenodd" stroke="none"/>
      <path d="M84.45 108.6 Q92.3 98.85 98.3 97.9 100.9 97.5 101.45 100.2 101.9 102.65 100.65 104.7 99.85 105.95 94.35 118.7 90.75 126.95 86.95 127.4 81.35 128.1 79.35 127.45 76.65 126.5 76.85 122.55 77.1 117.7 84.45 108.6" fill="#000000" fill-rule="evenodd" stroke="none"/>
      <path d="M84.9 69.9 Q75.15 70.3 67.6 73.55 58.35 59.2 59.7 47.6 61.05 36.5 70.75 35.8 80.1 35.15 84.9 46.85 89.7 58.55 84.9 69.9" fill="#000000" fill-rule="evenodd" stroke="none"/>
      <path d="M63.9 52.05 Q65.35 41.75 73.4 41.25 81.25 40.75 84.5 51.0 87.35 60.15 84.95 69.65 76.6 70.15 67.95 72.3 62.5 61.95 63.9 52.05" fill="#ffffff" fill-rule="evenodd" stroke="none"/>
      <path d="M65.0 60.1 Q65.55 52.05 70.45 51.35 75.6 50.55 78.05 58.0 80.5 65.3 77.35 70.45 L67.95 72.3 Q66.5 69.4 65.85 67.45 L73.35 64.2 65.0 60.1" fill="#000000" fill-rule="evenodd" stroke="none"/>
      <path d="M111.0 65.35 L108.0 64.05 Q109.0 56.55 112.3 57.1 114.0 57.4 114.85 60.05 115.6 62.45 115.35 65.6 114.7 73.35 110.4 72.25 107.1 71.35 107.55 65.95 L111.0 65.35" fill="#000000" fill-rule="evenodd" stroke="none"/>
      <path d="M95.6 76.4 Q97.6 69.95 104.65 67.9 111.75 65.9 115.8 70.45 120.3 75.5 116.75 80.3 113.15 85.05 106.0 83.85 101.3 83.05 98.2 80.95 94.9 78.7 95.6 76.4" fill="#000000" fill-rule="evenodd" stroke="none"/>
      <path d="M105.3 70.2 Q107.6 69.5 110.2 70.3 112.7 71.1 114.25 72.8 118.05 77.1 112.25 80.75 114.5 77.25 111.95 73.8 109.55 70.55 105.3 70.2" fill="#513256" fill-rule="evenodd" stroke="none"/>
      <path d="M46.75 47.1 Q49.05 72.4 40.0 70.4 33.6 69.0 37.55 60.7 39.5 56.65 46.75 47.1" fill="#84cbde" fill-rule="evenodd" stroke="none"/>
      <path d="M45.85 50.5 Q47.25 68.75 40.5 67.45 35.75 66.5 38.8 60.5 40.3 57.5 45.85 50.5" fill="#009fc5" fill-rule="evenodd" stroke="none"/>
      <path d="M42.5 55.8 Q44.0 57.1 42.1 61.55 40.2 66.05 39.0 63.85 37.8 61.65 39.4 58.05 41.0 54.45 42.5 55.8" fill="#ffffff" fill-rule="evenodd" stroke="none"/>
      <path d="M54.95 40.85 Q56.0 44.2 58.5 45.55 L63.05 45.75 Q64.05 50.1 61.65 50.85 59.65 51.45 57.15 48.15 54.45 44.65 54.95 40.85" fill="#000000" fill-rule="evenodd" stroke="none"/>
      <path d="M62.6 51.5 Q64.65 53.85 62.35 54.65 60.45 55.35 57.0 53.85 53.4 52.3 53.0 50.05 54.85 51.8 57.8 52.15 60.5 52.45 62.6 51.5" fill="#000000" fill-rule="evenodd" stroke="none"/>
      <path d="M120.55 51.5 Q122.4 51.85 123.95 50.65 125.7 49.4 126.05 46.95 126.9 49.45 125.35 52.25 123.85 54.9 122.3 54.75 121.1 54.7 120.7 53.1 L120.55 51.5" fill="#000000" fill-rule="evenodd" stroke="none"/>
      <path d="M122.55 54.85 Q124.25 55.7 125.9 55.5 127.65 55.2 128.15 53.7 128.8 55.65 127.05 57.0 125.45 58.25 123.95 57.65 122.8 57.2 122.55 55.95 L122.55 54.85" fill="#000000" fill-rule="evenodd" stroke="none"/>
      <path d="M75.1 30.6 Q67.0 24.2 63.55 32.9 62.7 34.95 62.15 34.65 61.65 34.35 61.85 32.8 62.85 26.55 67.05 26.15 71.05 25.75 75.1 30.6" fill="#000000" fill-rule="evenodd" stroke="none"/>
      <path d="M112.15 42.55 Q112.6 36.55 115.05 36.55 117.65 36.55 120.6 43.6 121.35 45.3 121.15 45.7 120.95 46.15 119.65 43.85 114.3 34.45 112.15 42.55" fill="#000000" fill-rule="evenodd" stroke="none"/>
      <path d="M45.45 31.65 Q49.75 29.35 58.25 27.75 49.25 31.1 43.05 36.45 37.05 41.55 31.4 50.45 38.8 39.95 53.15 33.15 34.1 44.6 28.65 59.35 23.25 73.85 17.85 80.25 14.4 84.3 9.75 85.9 9.45 88.7 12.95 94.0 16.4 99.3 20.35 102.1 16.2 102.7 5.95 91.95 L8.05 95.3 Q10.75 99.25 14.0 102.2 24.35 111.75 35.8 108.2 38.3 117.45 48.3 125.6 34.15 119.3 20.7 109.65 5.9 99.0 3.05 91.75 0.9 86.3 3.3 87.7 L7.4 91.1 Q4.1 85.6 3.3 82.2 2.5 79.0 4.45 80.2 9.85 83.6 17.65 74.3 25.6 64.75 29.1 49.75 30.25 44.85 31.05 37.4 32.0 28.65 32.45 26.0 34.7 13.25 43.2 4.55 38.9 13.2 41.15 22.7 42.85 29.95 45.45 31.65" fill="#852428" fill-rule="evenodd" stroke="none"/>
      <path d="M62.95 44.3 Q64.15 39.8 69.05 38.3 73.9 36.8 76.95 39.65 L69.25 39.9 Q64.85 41.5 62.95 44.3" fill="#852428" fill-rule="evenodd" stroke="none"/>
      <path d="M110.6 49.4 Q112.5 45.45 115.7 45.85 119.2 46.3 121.8 51.8 118.95 48.1 115.3 47.45 111.95 46.8 110.6 49.4" fill="#852428" fill-rule="evenodd" stroke="none"/>
      <path d="M37.0 99.35 Q38.15 91.95 44.6 86.2 41.45 94.7 51.2 108.95 55.25 114.8 60.0 119.1 64.8 123.5 68.3 124.4 68.95 123.35 69.25 123.9 L70.05 126.1 Q71.95 130.35 77.35 130.75 83.2 131.2 87.7 129.45 90.1 128.55 92.6 127.0 95.3 125.8 93.8 129.2 102.15 129.8 113.8 125.15 126.65 119.95 132.6 112.05 130.0 117.2 125.25 121.65 118.85 127.7 106.8 131.1 94.85 134.45 81.8 134.0 67.9 133.55 57.25 128.85 45.35 123.65 40.05 114.15 35.85 106.6 37.0 99.35" fill="#e8b049" fill-rule="evenodd" stroke="none"/>
      <path d="M83.3 203.0 Q81.5 207.95 89.5 211.75 L97.95 215.3 Q103.85 217.75 107.65 219.9 118.05 225.8 125.55 221.85 132.8 218.05 131.8 208.45 133.6 210.75 134.2 212.5 136.2 218.05 133.1 223.65 129.95 229.35 124.1 230.2 118.45 231.05 108.5 225.8 97.7 219.35 93.6 217.3 83.85 212.5 82.6 209.5 81.25 206.25 83.3 203.0" fill="#c2d8d3" fill-rule="evenodd" stroke="none"/>
      <path d="M137.9 184.3 Q141.7 190.8 141.5 201.4 141.25 212.4 136.55 218.45 137.1 212.9 133.6 208.05 138.5 206.45 138.35 194.2 138.25 186.0 136.35 177.1 142.5 155.7 128.55 162.9 132.85 159.05 137.3 158.75 140.95 158.5 142.5 160.4 143.7 161.9 143.55 163.9 143.45 165.2 142.35 168.5 139.5 177.4 139.3 185.25 138.65 184.3 137.9 184.3" fill="#c2d8d3" fill-rule="evenodd" stroke="none"/>
      <path d="M96.35 156.8 Q95.1 158.6 87.3 165.75 80.55 171.85 80.45 173.7 80.35 175.85 82.7 178.05 78.65 174.65 78.95 171.6 79.4 167.75 84.5 162.25 90.55 156.45 92.45 154.1 98.0 147.1 101.55 147.85 101.85 149.7 100.25 151.8 L96.35 156.8" fill="#c2d8d3" fill-rule="evenodd" stroke="none"/>
      <path d="M95.5 191.4 Q92.9 187.5 95.05 184.6 98.0 180.5 108.7 179.3 96.55 184.1 98.6 189.2 97.4 189.95 95.5 191.4" fill="#c2d8d3" fill-rule="evenodd" stroke="none"/>
      <path d="M123.65 232.6 Q130.45 232.1 134.65 226.15 129.9 235.2 122.45 238.1 113.8 241.4 111.1 229.5 118.65 232.9 123.65 232.6" fill="#ffffff" fill-rule="evenodd" stroke="none"/>
    </g>
    <g id="shape4" transform="matrix(1.0, 0.0, 0.0, 1.0, 0.0, 0.0)">
      <path d="M75.25 55.1 L81.9 44.45 98.6 26.75 118.6 29.45 125.25 47.45 113.9 62.1 88.25 65.1 80.4 64.15 75.25 55.1" fill="#001a2c" fill-opacity="0.28235295" fill-rule="evenodd" stroke="none"/>
      <path d="M95.95 60.05 L87.05 43.0 99.1 28.7 116.65 31.6 122.7 47.5 112.9 59.75 95.95 60.05" fill="#edaf5e" fill-opacity="0.28235295" fill-rule="evenodd" stroke="none"/>
      <path d="M77.6 54.45 L87.05 43.0 95.95 60.05 81.3 62.3 77.6 54.45" fill="#0f6435" fill-opacity="0.28235295" fill-rule="evenodd" stroke="none"/>
      <path d="M77.6 54.45 L82.25 47.75 99.1 28.7 77.6 54.45" fill="#2c9749" fill-opacity="0.28235295" fill-rule="evenodd" stroke="none"/>
      <path d="M81.3 62.3 L95.95 60.05 112.9 59.75 86.6 63.1 81.3 62.3" fill="#06351c" fill-opacity="0.28235295" fill-rule="evenodd" stroke="none"/>
      <path d="M102.4 37.8 Q106.2 36.5 109.05 38.15 111.55 39.6 112.4 42.65 113.25 45.65 112.0 48.05 110.6 50.7 107.3 51.05 101.65 51.65 99.85 45.45 99.1 42.95 99.75 40.8 100.45 38.5 102.4 37.8" fill="#001a2c" fill-opacity="0.28235295" fill-rule="evenodd" stroke="none"/>
      <path d="M19.95 43.0 L2.85 31.8 0.0 17.4 11.1 7.0 26.2 12.2 31.75 30.6 32.7 40.55 25.85 45.1 19.95 43.0" fill="#001a2c" fill-opacity="0.28235295" fill-rule="evenodd" stroke="none"/>
      <path d="M16.3 36.7 L4.4 30.5 1.8 18.35 11.75 9.25 25.15 13.4 28.65 27.75 16.3 36.7" fill="#edaf5e" fill-opacity="0.28235295" fill-rule="evenodd" stroke="none"/>
      <path d="M28.65 27.75 L31.3 39.25 25.85 43.45 16.3 36.7 28.65 27.75" fill="#0f6435" fill-opacity="0.28235295" fill-rule="evenodd" stroke="none"/>
      <path d="M25.15 13.4 L30.35 32.85 31.3 39.25 25.15 13.4" fill="#2c9749" fill-opacity="0.28235295" fill-rule="evenodd" stroke="none"/>
      <path d="M25.85 43.45 L21.85 42.2 4.4 30.5 16.3 36.7 25.85 43.45" fill="#06351c" fill-opacity="0.28235295" fill-rule="evenodd" stroke="none"/>
      <path d="M18.7 25.0 Q15.25 28.75 11.45 26.3 9.2 24.9 9.2 22.55 9.15 20.35 10.8 18.55 12.5 16.7 14.8 16.55 17.4 16.4 19.6 18.7 22.1 21.3 18.7 25.0" fill="#001a2c" fill-opacity="0.28235295" fill-rule="evenodd" stroke="none"/>
      <path d="M27.3 102.55 L12.9 107.55 0.6 97.65 3.8 81.4 21.9 73.0 31.95 70.6 37.65 77.0 36.35 83.35 27.3 102.55" fill="#001a2c" fill-opacity="0.28235295" fill-rule="evenodd" stroke="none"/>
      <path d="M25.75 101.2 L13.65 105.6 2.85 96.7 5.15 82.3 19.45 76.65 30.4 88.0 25.75 101.2" fill="#edaf5e" fill-opacity="0.28235295" fill-rule="evenodd" stroke="none"/>
      <path d="M19.45 76.65 L30.85 72.25 35.95 77.25 30.4 88.0 19.45 76.65" fill="#0f6435" fill-opacity="0.28235295" fill-rule="evenodd" stroke="none"/>
      <path d="M30.85 72.25 L5.15 82.3 24.4 74.15 30.85 72.25" fill="#2c9749" fill-opacity="0.28235295" fill-rule="evenodd" stroke="none"/>
      <path d="M35.95 77.25 L35.25 81.55 25.75 101.2 30.4 88.0 35.95 77.25" fill="#06351c" fill-opacity="0.28235295" fill-rule="evenodd" stroke="none"/>
      <path d="M16.85 97.45 Q14.65 97.8 12.55 96.35 10.4 94.85 9.9 92.55 9.35 89.85 11.4 87.25 13.7 84.25 18.0 87.25 22.35 90.3 20.45 94.55 19.3 97.05 16.85 97.45" fill="#001a2c" fill-opacity="0.28235295" fill-rule="evenodd" stroke="none"/>
      <path d="M64.95 4.75 L71.45 0.0 78.3 3.35 79.1 10.7 72.55 18.65 70.0 20.55 66.05 19.35 65.0 14.45 64.95 4.75" fill="#001a2c" fill-opacity="0.28235295" fill-rule="evenodd" stroke="none"/>
      <path d="M65.6 5.15 L71.45 1.15 77.6 4.1 78.15 10.3 73.35 15.05 66.1 12.6 65.6 5.15" fill="#edaf5e" fill-opacity="0.28235295" fill-rule="evenodd" stroke="none"/>
      <path d="M66.1 12.6 L73.35 15.05 69.75 19.75 66.5 18.5 66.1 12.6" fill="#0f6435" fill-opacity="0.28235295" fill-rule="evenodd" stroke="none"/>
      <path d="M66.5 18.5 L66.0 15.3 65.6 5.15 66.5 18.5" fill="#2c9749" fill-opacity="0.28235295" fill-rule="evenodd" stroke="none"/>
      <path d="M69.75 19.75 L73.35 15.05 78.15 10.3 71.5 18.55 69.75 19.75" fill="#06351c" fill-opacity="0.28235295" fill-rule="evenodd" stroke="none"/>
      <path d="M69.1 6.9 Q70.6 3.9 73.3 5.5 76.05 7.15 74.15 9.35 72.7 11.05 70.45 9.8 68.25 8.55 69.1 6.9" fill="#001a2c" fill-opacity="0.28235295" fill-rule="evenodd" stroke="none"/>
    </g>
    <g id="sprite0" transform="matrix(1.0, 0.0, 0.0, 1.0, 24.75, 10.35)">
      <use height="97.35" transform="matrix(1.0, 0.0, 0.0, 1.0, -24.75, -10.35)" width="311.35" xlink:href="#shape5"/>
    </g>
    <g id="shape5" transform="matrix(1.0, 0.0, 0.0, 1.0, 24.75, 10.35)">
      <path d="M286.6 87.0 L-24.75 87.0 -24.75 -10.35 286.6 -10.35 286.6 87.0" fill="#cccccc" fill-opacity="0.0" fill-rule="evenodd" stroke="none"/>
    </g>
    <g id="shape6" transform="matrix(1.0, 0.0, 0.0, 1.0, 0.0, 0.0)">
      <path d="M555.5 0.5 L555.5 235.5 0.5 235.5 0.5 0.5 555.5 0.5 Z" fill="none" stroke="#000000" stroke-linecap="round" stroke-linejoin="round" stroke-width="1.0"/>
    </g>
  </defs>
</svg>
