<?xml version="1.0" encoding="UTF-8" standalone="no"?>
<svg xmlns:xlink="http://www.w3.org/1999/xlink" height="236.0px" width="556.0px" xmlns="http://www.w3.org/2000/svg">
  <g transform="matrix(1.0, 0.0, 0.0, 1.0, 0.0, 0.0)">
    <use height="79.8" transform="matrix(1.1332, 0.0, 0.0, 1.1332, 147.6553, 108.535)" width="85.5" xlink:href="#shape0"/>
    <use height="26.1" transform="matrix(1.1332, 0.0, 0.0, 1.1332, 170.2982, 150.2649)" width="24.85" xlink:href="#shape1"/>
    <use height="165.0" transform="matrix(1.1332, 0.0, 0.0, 1.1332, 124.8945, 55.1602)" width="179.5" xlink:href="#shape2"/>
    <use height="170.0" transform="matrix(1.6554, 0.0, 0.0, 1.4038, -8.4, -0.8)" width="341.6" xlink:href="#shape3"/>
    <use height="97.35" transform="matrix(1.7857, 0.0, 0.0, 2.4138, -0.997, 0.017)" width="311.35" xlink:href="#sprite0"/>
    <use height="236.0" transform="matrix(1.0, 0.0, 0.0, 1.0, 0.0, 0.0)" width="556.0" xlink:href="#shape5"/>
  </g>
  <defs>
    <g id="shape0" transform="matrix(1.0, 0.0, 0.0, 1.0, 42.75, 39.9)">
      <path d="M-28.1 -18.45 Q-27.7 -14.1 -28.6 -14.4 -29.65 -14.8 -33.05 -12.9 -36.9 -10.7 -37.3 -8.05 -38.05 -3.55 -36.35 4.45 -34.1 15.1 -28.5 22.75 -25.45 26.85 -24.45 30.95 -23.55 34.65 -24.5 36.95 -25.45 39.25 -27.65 38.75 -30.05 38.25 -32.8 34.4 -38.95 26.15 -41.45 13.85 -44.1 1.1 -41.35 -9.4 -40.3 -13.55 -35.7 -16.1 -32.2 -18.05 -28.1 -18.45" fill="#000000" fill-rule="evenodd" stroke="none"/>
      <path d="M26.15 -16.5 Q28.4 -6.85 18.55 8.2 13.7 14.45 -9.15 3.65 -16.3 0.25 -24.4 -4.45 L-31.0 -8.45 Q-29.45 -16.0 -28.4 -19.4 -26.7 -25.05 -24.1 -28.6 -17.8 -37.35 -3.1 -37.3 -1.55 -39.0 1.5 -39.6 L7.65 -39.45 Q15.45 -37.45 16.55 -29.25 L22.35 -23.7 Q25.25 -20.25 26.15 -16.5" fill="#000000" fill-rule="evenodd" stroke="none"/>
      <path d="M24.35 -16.85 Q26.9 -7.85 17.45 6.55 12.9 12.35 -8.65 2.25 -15.35 -0.9 -23.0 -5.3 L-29.3 -9.05 Q-26.7 -22.8 -21.75 -28.55 -14.2 -37.2 2.35 -35.65 2.55 -35.85 0.4 -36.35 -1.75 -36.9 -1.4 -37.1 2.55 -39.2 7.6 -37.7 13.35 -36.0 15.05 -30.45 15.15 -30.15 13.7 -30.8 12.2 -31.5 12.25 -31.05 17.35 -27.15 19.85 -24.45 23.25 -20.75 24.35 -16.85" fill="#48a1c5" fill-rule="evenodd" stroke="none"/>
      <path d="M14.0 -11.05 Q11.95 -5.9 7.6 -2.3 5.4 -0.5 3.65 0.25 L-3.15 -4.85 Q-2.85 -9.9 -0.85 -14.45 1.5 -19.75 5.15 -21.9 10.1 -24.8 13.25 -21.0 16.4 -17.15 14.0 -11.05" fill="#000000" fill-rule="evenodd" stroke="none"/>
      <path d="M-17.55 -25.1 Q-11.3 -24.9 -11.9 -14.7 -12.15 -9.65 -13.7 -4.6 -21.85 -4.9 -23.0 -8.75 -24.5 -13.75 -22.7 -19.4 -20.9 -25.2 -17.55 -25.1" fill="#000000" fill-rule="evenodd" stroke="none"/>
      <path d="M17.0 -18.75 Q13.55 -20.15 7.6 -17.6 1.5 -14.45 -0.05 -13.85 -3.95 -12.4 -3.95 -16.75 -2.95 -13.25 -0.7 -14.65 13.5 -23.5 17.0 -18.75" fill="#000000" fill-rule="evenodd" stroke="none"/>
      <path d="M5.6 -16.7 Q10.1 -18.9 13.15 -19.2 14.7 -16.3 12.8 -11.4 10.75 -6.25 6.65 -2.6 4.65 -0.8 3.05 0.0 L-3.15 -4.85 Q-2.85 -9.25 -0.3 -13.8 L-0.05 -13.85 Q1.2 -14.35 5.6 -16.7" fill="#ffffff" fill-rule="evenodd" stroke="none"/>
      <path d="M4.8 -19.75 Q9.55 -22.75 12.3 -20.25 8.0 -19.85 0.8 -15.55 2.8 -18.55 4.8 -19.75" fill="#0082b3" fill-rule="evenodd" stroke="none"/>
      <path d="M-18.0 -29.65 Q-18.0 -26.85 -15.7 -22.65 -13.3 -18.25 -11.7 -18.2 -11.85 -20.1 -10.35 -17.0 -9.75 -15.75 -10.6 -15.7 -11.4 -15.7 -11.9 -16.35 -18.2 -21.35 -18.0 -29.65" fill="#000000" fill-rule="evenodd" stroke="none"/>
      <path d="M-12.55 -18.55 Q-14.2 -19.7 -16.0 -23.2 -13.1 -22.4 -12.55 -18.55" fill="#0082b3" fill-rule="evenodd" stroke="none"/>
      <path d="M-17.15 -23.4 Q-15.9 -19.75 -12.45 -16.8 -12.4 -11.9 -14.65 -6.1 -21.85 -5.7 -22.65 -9.3 -23.4 -12.65 -22.0 -17.8 -20.35 -23.5 -17.5 -23.4 L-17.15 -23.4" fill="#ffffff" fill-rule="evenodd" stroke="none"/>
      <path d="M5.25 -12.0 Q6.45 -14.55 8.05 -15.95 9.75 -17.4 11.4 -16.7 13.05 -16.0 12.8 -13.95 L12.2 -11.35 8.3 -12.3 11.5 -9.55 Q9.8 -5.85 7.35 -5.15 4.9 -4.45 4.3 -7.45 3.95 -9.25 5.25 -12.0" fill="#000000" fill-rule="evenodd" stroke="none"/>
      <path d="M-15.6 -15.7 L-12.6 -14.2 Q-13.15 -11.05 -14.9 -10.0 -16.7 -8.95 -17.7 -11.15 -18.35 -12.5 -17.9 -14.85 -17.5 -17.1 -16.55 -18.45 -15.5 -19.9 -14.1 -19.7 -12.7 -19.5 -12.5 -17.85 L-12.45 -15.75 -15.6 -15.7" fill="#000000" fill-rule="evenodd" stroke="none"/>
      <path d="M5.55 -38.15 Q2.0 -37.45 5.2 -34.65 L1.0 -35.75 2.35 -35.65 Q2.55 -35.85 0.4 -36.35 -1.75 -36.9 -1.4 -37.1 1.55 -38.65 5.55 -38.15" fill="#00658d" fill-rule="evenodd" stroke="none"/>
      <path d="M-24.65 -6.25 L-29.3 -9.05 Q-27.75 -17.2 -25.85 -21.7 -23.1 -28.3 -18.25 -31.7 -23.9 -26.05 -24.65 -6.25" fill="#00658d" fill-rule="evenodd" stroke="none"/>
      <path d="M9.4 3.0 Q19.1 3.6 22.05 8.95 24.75 13.85 20.8 19.5 16.65 25.35 8.25 27.45 -1.45 29.95 -12.75 25.85 -24.75 21.55 -31.4 14.7 -37.2 8.75 -37.8 2.2 -38.35 -3.85 -34.4 -7.85 -30.35 -11.9 -23.65 -11.65 -14.4 -11.25 -4.0 -5.95 3.75 -2.0 9.4 3.0" fill="#000000" fill-rule="evenodd" stroke="none"/>
      <path d="M8.35 3.25 Q17.5 3.85 20.25 8.9 22.8 13.5 19.05 18.9 15.2 24.45 7.25 26.5 -1.85 28.85 -12.5 25.0 -23.8 20.95 -30.0 14.45 -35.45 8.8 -36.05 2.6 -36.55 -3.15 -32.8 -6.95 -29.0 -10.85 -22.7 -10.6 -13.95 -10.2 -4.15 -5.2 3.05 -1.45 8.35 3.25" fill="#fadf82" fill-rule="evenodd" stroke="none"/>
      <path d="M23.3 18.4 Q24.05 15.5 26.25 9.6 28.45 3.65 29.25 0.65 30.25 -3.2 28.55 -4.0 27.75 -4.35 23.35 -4.1 20.15 -3.85 20.9 -6.85 21.7 -9.75 24.15 -10.25 29.75 -11.4 32.45 -9.9 34.95 -8.6 35.5 -4.85 35.95 -1.95 35.35 3.95 L34.1 15.65 Q33.6 21.0 34.35 23.2 35.45 26.8 40.7 31.3 43.4 33.65 42.55 36.05 41.8 38.25 38.7 39.3 35.45 40.4 31.95 39.45 27.9 38.3 25.3 34.8 20.7 28.4 23.3 18.4" fill="#000000" fill-rule="evenodd" stroke="none"/>
      <path d="M29.15 24.65 Q30.35 25.75 32.05 25.4 33.65 25.05 34.15 25.7 37.2 29.8 40.5 32.3 41.7 33.2 41.45 34.2 41.2 35.35 39.05 35.7 33.15 36.6 28.65 32.4 23.95 27.95 25.65 21.7 L29.75 8.1 Q30.25 6.3 30.6 6.25 31.0 6.15 30.55 8.25 L28.5 16.5 Q27.3 22.95 29.15 24.65" fill="#513256" fill-rule="evenodd" stroke="none"/>
      <path d="M30.35 -6.4 Q28.5 -7.45 25.75 -7.2 23.4 -7.0 23.45 -8.25 23.5 -9.5 25.75 -9.75 31.95 -10.35 33.6 -7.0 34.65 -4.9 33.75 -1.7 33.25 0.3 32.65 0.1 32.1 0.0 32.3 -2.65 32.45 -5.2 30.35 -6.4" fill="#513256" fill-rule="evenodd" stroke="none"/>
      <path d="M-19.95 -10.5 Q-19.65 -12.7 -17.4 -13.65 -14.95 -14.7 -11.1 -13.6 -7.75 -12.6 -6.0 -10.3 -4.3 -8.2 -4.6 -6.0 -4.85 -3.75 -6.95 -2.75 -9.25 -1.7 -12.9 -2.75 -16.55 -3.8 -18.5 -6.15 -20.3 -8.25 -19.95 -10.5" fill="#000000" fill-rule="evenodd" stroke="none"/>
      <path d="M-15.6 -11.5 Q-15.5 -12.6 -14.4 -13.05 L-11.3 -13.0 Q-7.85 -12.0 -8.15 -9.35 -8.5 -6.7 -12.2 -7.75 -16.0 -8.85 -15.6 -11.5" fill="#513256" fill-rule="evenodd" stroke="none"/>
      <path d="M3.2 18.05 Q11.05 23.95 16.65 21.6 12.0 25.85 4.9 27.0 -3.35 28.3 -12.5 25.0 -30.65 18.4 -35.05 6.75 -32.95 9.2 -29.7 9.55 -26.35 9.9 -22.65 7.95 -19.0 6.0 -11.1 9.4 -4.3 12.35 3.2 18.05" fill="#e8b049" fill-rule="evenodd" stroke="none"/>
      <path d="M-38.75 18.45 Q-39.55 15.65 -39.2 14.1 -38.85 12.5 -37.85 15.9 -36.8 19.25 -33.3 25.75 -29.95 31.95 -27.9 34.45 -26.05 36.8 -27.25 37.3 -28.5 37.85 -30.5 35.6 -35.4 30.1 -38.75 18.45" fill="#513256" fill-rule="evenodd" stroke="none"/>
    </g>
    <g id="shape1" transform="matrix(1.0, 0.0, 0.0, 1.0, 12.4, 12.65)">
      <path d="M11.65 7.55 Q11.05 11.05 8.55 12.2 L4.65 12.45 -4.4 10.3 Q-10.2 9.5 -11.6 0.8 L11.65 7.55" fill="#e8b049" fill-rule="evenodd" stroke="none"/>
      <path d="M-11.6 0.8 Q-10.2 9.5 -4.4 10.3 L4.65 12.45 8.55 12.2 Q11.05 11.05 11.65 7.55" fill="none" stroke="#000000" stroke-linecap="round" stroke-linejoin="round" stroke-width="1.6500000000000001"/>
      <path d="M-2.2 -11.85 Q4.9 -9.15 9.2 2.2 10.45 5.6 9.65 7.95 8.85 10.25 6.35 10.65 4.55 11.0 2.05 10.15 L-2.25 8.9 Q-7.35 8.05 -8.6 5.1 L-9.55 1.35 -10.65 -3.95 Q-11.95 -9.75 -9.05 -11.75 -6.55 -13.5 -2.2 -11.85" fill="#000000" fill-rule="evenodd" stroke="none"/>
      <path d="M-4.95 4.95 Q-4.95 2.95 -2.1 2.1 L2.6 1.9 Q9.45 3.9 6.6 7.35 4.85 9.5 -0.05 8.35 -4.95 7.15 -4.95 4.95" fill="#f99c89" fill-rule="evenodd" stroke="none"/>
    </g>
    <g id="shape2" transform="matrix(1.0, 0.0, 0.0, 1.0, 89.75, 82.5)">
      <path d="M35.75 4.75 Q33.95 8.15 29.75 9.5 25.15 11.0 20.35 8.85 14.05 10.2 6.15 15.05 -1.2 19.6 -5.3 24.15 -1.6 31.05 -1.45 36.65 -1.3 45.3 -10.35 47.85 L-15.05 54.55 Q-16.75 65.3 -18.4 82.5 L-89.75 80.8 Q-70.65 57.5 -51.8 43.5 -36.3 31.95 -25.65 29.75 -18.35 20.25 -18.1 19.1 -17.95 18.35 -17.15 18.2 L-16.4 18.2 Q6.35 -5.0 8.15 -9.65 6.8 -16.45 10.0 -21.15 13.0 -25.55 18.25 -26.3 22.65 -27.4 27.05 -24.3 31.05 -21.5 33.9 -16.2 36.75 -10.9 37.35 -5.35 38.0 0.65 35.75 4.75" fill="#000000" fill-rule="evenodd" stroke="none"/>
      <path d="M34.75 -6.2 Q36.1 -1.35 35.15 2.2 34.3 5.3 31.85 7.05 29.45 8.75 26.2 8.7 18.8 8.6 12.9 0.65 7.15 -7.15 9.55 -15.4 10.55 -18.9 12.85 -21.25 15.15 -23.55 17.95 -24.0 20.9 -24.4 24.55 -21.75 27.85 -19.35 30.65 -15.0 33.55 -10.7 34.75 -6.2" fill="#c2d8d3" fill-rule="evenodd" stroke="none"/>
      <path d="M0.1 3.05 L7.45 -5.5 9.55 -1.3 Q12.65 3.65 17.55 7.35 1.8 12.6 -15.9 33.3 -18.05 31.8 -17.8 26.6 -17.55 21.85 -16.25 20.55 -8.7 13.1 0.1 3.05" fill="#48a1c5" fill-rule="evenodd" stroke="none"/>
      <path d="M-3.9 35.3 Q-3.25 36.9 -3.65 39.1 -4.0 41.35 -5.4 43.1 -8.8 47.55 -15.05 45.8 -17.0 45.3 -17.25 46.45 -17.45 47.6 -16.05 47.7 -14.4 47.7 -13.45 48.2 L-15.4 51.85 Q-17.85 55.95 -20.6 58.4 L-16.75 57.3 -20.25 81.95 -87.4 80.85 Q-64.65 57.0 -54.6 48.55 -41.45 37.45 -28.1 32.5 -30.85 36.4 -32.65 42.75 L-18.7 22.65 Q-20.3 27.95 -18.8 34.45 -17.3 41.25 -13.75 41.85 -9.65 42.55 -6.6 40.9 -3.2 39.05 -3.9 35.3" fill="#df9138" fill-rule="evenodd" stroke="none"/>
      <path d="M20.65 -82.4 Q36.35 -80.6 36.25 -56.4 36.2 -49.3 38.85 -47.7 L39.3 -47.4 40.65 -47.25 Q42.95 -47.75 45.45 -52.7 L48.95 -60.35 Q51.5 -65.9 53.95 -69.55 61.25 -80.7 71.35 -81.8 78.0 -82.55 82.8 -80.1 87.1 -77.9 88.8 -73.85 90.5 -69.95 89.1 -66.05 87.65 -61.95 83.3 -59.65 75.7 -55.65 68.7 -49.05 64.15 -44.65 62.25 -41.85 65.7 -40.25 67.4 -37.05 68.95 -34.05 68.6 -30.5 68.25 -26.95 66.2 -24.0 63.9 -20.85 60.25 -19.3 65.7 -5.85 56.05 0.65 46.9 6.8 30.7 3.0 20.75 0.65 17.2 -6.4 14.3 -12.0 16.45 -16.25 11.55 -24.45 13.95 -33.3 14.65 -36.05 16.35 -39.8 L18.5 -44.75 Q19.7 -48.65 16.85 -55.15 14.4 -60.75 10.7 -64.95 8.15 -67.8 7.8 -71.2 7.45 -74.35 9.05 -77.1 10.65 -79.9 13.6 -81.3 16.8 -82.9 20.65 -82.4" fill="#000000" fill-rule="evenodd" stroke="none"/>
      <path d="M53.4 -42.95 Q58.1 -42.45 61.4 -40.3 67.75 -36.3 66.8 -29.95 65.9 -23.95 59.6 -20.35 56.2 -25.55 48.95 -27.55 42.3 -29.4 35.95 -27.8 35.15 -33.4 37.75 -37.2 40.05 -40.55 44.55 -42.05 48.65 -43.4 53.4 -42.95" fill="#ffffff" fill-rule="evenodd" stroke="none"/>
      <path d="M19.9 -43.95 Q21.1 -47.75 19.05 -54.1 17.05 -60.25 13.8 -63.75 8.65 -69.35 11.15 -74.75 13.7 -80.15 21.4 -79.3 28.75 -78.45 31.65 -72.8 34.15 -67.7 33.6 -57.4 33.2 -49.45 33.85 -50.65 L34.75 -52.95 Q35.75 -48.1 38.15 -45.5 L38.9 -45.2 40.9 -45.15 Q44.05 -45.7 46.45 -50.3 50.6 -60.7 54.25 -66.65 60.9 -77.7 70.6 -78.7 77.05 -79.35 81.5 -77.35 85.55 -75.6 86.95 -72.25 88.35 -69.0 86.8 -65.7 85.2 -62.2 81.0 -60.05 71.35 -55.2 61.0 -42.8 47.15 -47.4 39.3 -41.1 36.05 -38.5 34.65 -34.6 33.35 -30.9 34.05 -27.25 32.1 -26.5 30.3 -24.1 28.5 -21.6 27.75 -18.65 25.9 -11.15 32.1 -7.65 38.05 -4.3 43.4 -4.2 47.2 -4.15 48.05 -5.15 48.75 -6.0 47.4 -6.45 46.15 -6.95 45.85 -5.7 32.6 -5.0 30.05 -13.3 29.1 -16.5 30.25 -19.95 31.35 -23.25 33.7 -24.85 38.5 -28.25 46.2 -26.85 54.35 -25.35 57.9 -19.5 60.45 -15.25 60.2 -10.7 60.0 -6.05 56.8 -2.7 49.2 5.4 31.1 1.15 21.5 -1.15 18.35 -7.85 15.9 -13.1 18.05 -17.15 19.85 -19.8 18.65 -19.8 L16.7 -19.7 Q13.45 -26.55 15.75 -34.1 16.45 -36.4 18.05 -39.65 L19.9 -43.95" fill="#ffffff" fill-rule="evenodd" stroke="none"/>
      <path d="M-18.8 34.45 Q-17.3 41.25 -13.75 41.85 -11.15 42.3 -8.95 41.75 -12.4 45.1 -15.9 44.65 -19.15 44.2 -20.0 41.1 -25.0 42.6 -27.0 45.8 -28.0 47.45 -29.5 53.55 -27.45 76.0 -27.7 81.85 L-85.35 80.9 Q-77.55 70.8 -63.8 57.7 -50.95 45.35 -43.1 39.9 L-40.85 38.55 -39.7 38.1 Q-32.05 35.85 -31.3 38.85 L-32.65 42.75 -18.7 22.65 Q-20.3 27.95 -18.8 34.45" fill="#ffda4b" fill-rule="evenodd" stroke="none"/>
      <path d="M35.95 -27.8 Q34.8 -35.9 40.55 -40.05 45.55 -43.65 53.05 -42.95 48.85 -42.25 46.2 -39.5 43.55 -36.8 43.9 -33.55 44.2 -30.65 47.9 -27.8 41.75 -29.25 35.95 -27.8" fill="#c2d8d3" fill-rule="evenodd" stroke="none"/>
      <path d="M33.7 -24.85 L33.75 -24.95 Q31.4 -21.85 33.2 -16.35 35.0 -11.05 38.6 -8.95 41.65 -7.1 46.0 -6.1 L45.85 -5.7 Q32.6 -5.0 30.05 -13.3 29.1 -16.5 30.25 -19.95 31.35 -23.25 33.7 -24.85" fill="#c2d8d3" fill-rule="evenodd" stroke="none"/>
      <path d="M13.8 -63.75 Q11.05 -66.75 10.55 -70.1 10.1 -73.25 11.75 -75.75 11.3 -72.4 12.65 -68.3 13.7 -65.2 16.75 -60.6 20.7 -54.6 25.25 -51.0 29.35 -47.75 31.4 -54.55 33.0 -59.8 33.0 -68.7 34.0 -64.1 33.6 -57.4 33.2 -49.45 33.85 -50.65 L34.75 -52.95 Q35.75 -48.1 38.15 -45.5 L38.9 -45.2 40.9 -45.15 Q44.05 -45.7 46.45 -50.3 L46.6 -50.65 Q47.95 -49.05 50.4 -49.65 52.75 -50.2 54.65 -52.3 56.4 -54.3 67.05 -56.65 79.05 -59.3 84.25 -62.45 L83.9 -61.95 Q82.6 -60.85 81.0 -60.05 71.35 -55.2 61.0 -42.8 47.15 -47.4 39.3 -41.1 36.05 -38.5 34.65 -34.6 33.35 -30.9 34.05 -27.25 32.1 -26.5 30.3 -24.1 28.5 -21.6 27.75 -18.65 25.9 -11.15 32.1 -7.65 38.05 -4.3 43.4 -4.2 47.2 -4.15 48.05 -5.15 L48.25 -5.6 Q56.95 -4.3 59.1 -8.0 59.8 -9.25 60.25 -11.05 60.0 -3.5 53.0 0.15 44.95 4.4 31.1 1.15 21.5 -1.15 18.35 -7.85 15.9 -13.1 18.05 -17.15 19.85 -19.8 18.65 -19.8 L16.7 -19.7 Q13.45 -26.55 15.75 -34.1 16.45 -36.4 18.05 -39.65 L19.9 -43.95 Q21.1 -47.75 19.05 -54.1 17.05 -60.25 13.8 -63.75" fill="#c2d8d3" fill-rule="evenodd" stroke="none"/>
      <path d="M31.05 -36.9 Q31.25 -33.25 30.3 -28.95 L30.0 -26.1 Q29.1 -23.2 26.0 -22.85 25.75 -19.8 26.0 -14.35 26.15 -8.85 26.6 -8.2 26.8 -7.8 26.4 -7.25 26.0 -6.7 25.15 -6.55 22.95 -6.1 20.95 -8.7 18.95 -11.3 20.15 -16.65 21.1 -20.8 22.75 -23.15 17.2 -24.45 19.7 -32.05 20.6 -34.9 22.4 -37.55 24.05 -40.1 25.35 -40.75 30.75 -44.15 31.05 -36.9" fill="#ffffff" fill-rule="evenodd" stroke="none"/>
      <path d="M6.8 5.4 Q6.0 3.5 6.0 -3.8 L7.45 -5.5 9.55 -1.3 Q12.65 3.65 17.55 7.35 1.8 12.6 -15.9 33.3 -17.35 32.35 -17.7 29.5 -15.3 24.8 -6.45 16.9 3.55 8.45 6.8 5.4" fill="#00658d" fill-rule="evenodd" stroke="none"/>
      <path d="M-19.55 76.85 L-20.25 81.95 -30.05 81.8 Q-35.9 73.2 -45.35 69.3 -61.95 62.5 -82.1 75.8 L-81.85 75.05 -65.85 58.8 Q-52.45 56.0 -39.4 60.35 -24.85 65.2 -19.55 76.85" fill="#b43528" fill-rule="evenodd" stroke="none"/>
      <path d="M-28.4 66.0 Q-27.45 77.1 -27.7 81.85 L-30.05 81.8 Q-35.75 73.45 -44.8 69.55 -60.75 62.65 -80.05 74.55 -73.45 67.0 -64.8 58.6 -55.5 56.9 -45.9 58.7 -35.55 60.6 -28.4 66.0" fill="#fb613c" fill-rule="evenodd" stroke="none"/>
      <path d="M-17.85 64.95 L-18.7 71.05 Q-24.55 59.9 -36.6 55.75 -48.35 51.75 -62.3 55.4 L-59.05 52.4 Q-43.85 49.35 -32.85 52.95 -22.4 56.35 -17.85 64.95" fill="#b43528" fill-rule="evenodd" stroke="none"/>
      <path d="M-29.45 54.3 L-28.95 59.55 Q-35.4 55.25 -43.75 54.1 -52.05 52.95 -61.05 55.1 L-57.9 52.2 Q-40.85 49.05 -29.45 54.3" fill="#fb613c" fill-rule="evenodd" stroke="none"/>
      <path d="M-13.9 48.05 L-13.45 48.2 -15.2 51.45 Q-20.7 51.6 -23.5 48.2 -27.5 43.35 -25.1 31.9 L-22.15 27.65 Q-24.7 36.4 -22.45 42.45 -20.1 48.75 -13.9 48.05" fill="#b43528" fill-rule="evenodd" stroke="none"/>
      <path d="M-22.15 27.65 Q-24.55 36.05 -22.55 42.05 -24.35 42.9 -25.5 44.0 -26.6 39.35 -25.1 31.9 L-22.15 27.65" fill="#fb613c" fill-rule="evenodd" stroke="none"/>
    </g>
    <g id="shape3" transform="matrix(1.0, 0.0, 0.0, 1.0, 0.0, 0.0)">
      <path d="M341.6 170.0 L0.0 170.0 0.0 0.0 341.6 0.0 341.6 170.0" fill="#ffffff" fill-opacity="0.16470589" fill-rule="evenodd" stroke="none"/>
    </g>
    <g id="sprite0" transform="matrix(1.0, 0.0, 0.0, 1.0, 24.75, 10.35)">
      <use height="97.35" transform="matrix(1.0, 0.0, 0.0, 1.0, -24.75, -10.35)" width="311.35" xlink:href="#shape4"/>
    </g>
    <g id="shape4" transform="matrix(1.0, 0.0, 0.0, 1.0, 24.75, 10.35)">
      <path d="M286.6 87.0 L-24.75 87.0 -24.75 -10.35 286.6 -10.35 286.6 87.0" fill="#cccccc" fill-opacity="0.0" fill-rule="evenodd" stroke="none"/>
    </g>
    <g id="shape5" transform="matrix(1.0, 0.0, 0.0, 1.0, 0.0, 0.0)">
      <path d="M555.5 0.5 L555.5 235.5 0.5 235.5 0.5 0.5 555.5 0.5 Z" fill="none" stroke="#000000" stroke-linecap="round" stroke-linejoin="round" stroke-width="1.0"/>
    </g>
  </defs>
</svg>
