<?xml version="1.0" encoding="UTF-8" standalone="no"?>
<svg xmlns:xlink="http://www.w3.org/1999/xlink" height="236.0px" width="556.0px" xmlns="http://www.w3.org/2000/svg">
  <g transform="matrix(1.0, 0.0, 0.0, 1.0, 0.0, 0.0)">
    <use height="242.6" transform="matrix(0.0316, 0.0314, -0.0314, 0.0316, 261.7, 108.2)" width="243.8" xlink:href="#shape0"/>
    <use height="97.35" transform="matrix(1.7857, 0.0, 0.0, 2.4138, -0.997, 0.017)" width="311.35" xlink:href="#sprite0"/>
    <use height="236.0" transform="matrix(1.0, 0.0, 0.0, 1.0, 0.0, 0.0)" width="556.0" xlink:href="#shape2"/>
  </g>
  <defs>
    <g id="shape0" transform="matrix(1.0, 0.0, 0.0, 1.0, 0.0, 0.0)">
      <path d="M175.55 45.75 Q203.05 65.1 222.75 80.85 243.8 97.7 243.8 100.8 243.8 106.15 230.15 129.4 218.15 149.8 199.55 177.55 181.95 203.85 167.8 222.75 152.8 242.75 150.5 242.6 148.1 242.45 124.2 226.85 100.65 211.45 72.7 191.85 -0.25 140.7 0.0 134.15 0.15 130.7 13.75 109.7 26.55 90.0 44.6 64.95 63.5 38.8 77.65 21.3 93.8 1.45 98.15 0.1 102.5 -1.25 126.1 12.95 146.8 25.45 175.55 45.75" fill="#000000" fill-opacity="0.0" fill-rule="evenodd" stroke="none"/>
      <path d="M172.7 49.65 Q198.85 68.2 217.6 83.3 237.65 99.4 237.7 102.35 237.75 112.55 196.05 175.1 179.35 200.05 166.05 217.9 151.9 236.85 149.7 236.7 147.45 236.55 124.7 221.65 102.3 206.95 75.6 188.15 6.1 139.15 6.3 132.95 6.45 129.65 19.3 109.75 31.35 91.05 48.4 67.35 90.65 8.45 98.95 5.9 103.05 4.6 125.55 18.25 145.3 30.25 172.7 49.65" fill="#4b6582" fill-opacity="0.0" fill-rule="evenodd" stroke="none"/>
      <path d="M171.6 51.3 Q197.15 69.4 215.5 84.15 235.1 99.85 235.1 102.75 235.2 112.7 194.4 173.85 178.15 198.25 165.1 215.7 151.3 234.25 149.15 234.1 146.95 233.95 124.7 219.35 102.75 204.95 76.75 186.6 8.8 138.75 9.0 132.7 9.1 129.45 21.65 110.0 33.45 91.75 50.1 68.6 91.4 11.05 99.55 8.5 103.55 7.25 125.55 20.6 144.85 32.35 171.6 51.3" fill="#101f2c" fill-opacity="0.0" fill-rule="evenodd" stroke="none"/>
      <path d="M96.45 19.8 Q100.1 16.05 101.8 15.55 105.6 14.35 126.15 26.75 144.2 37.6 169.25 55.2 193.25 72.1 210.35 85.75 228.7 100.4 228.7 103.1 228.7 112.45 189.9 170.15 174.4 193.15 162.05 209.65 148.95 227.1 146.9 227.0 145.55 226.95 135.35 220.55 L135.7 220.65 135.1 210.1 130.5 217.5 Q98.2 196.95 59.75 169.2 15.6 137.3 15.75 132.75 16.0 127.85 42.15 90.25 68.3 52.7 87.15 30.15 L97.5 33.65 90.05 26.75 90.35 26.4 Q100.5 31.65 102.8 33.25 L92.8 23.65 93.55 22.8 110.35 32.75 96.45 19.8" fill="url(#gradient0)" fill-rule="evenodd" stroke="none"/>
    </g>
    <radialGradient cx="0" cy="0" gradientTransform="matrix(0.1342, 0.0, 0.0, 0.1342, 122.2, 121.2)" gradientUnits="userSpaceOnUse" id="gradient0" r="819.2" spreadMethod="pad">
      <stop offset="0.15294117647058825" stop-color="#142636" stop-opacity="0.0"/>
      <stop offset="0.5568627450980392" stop-color="#0b1312" stop-opacity="0.0"/>
      <stop offset="1.0" stop-color="#000000" stop-opacity="0.0"/>
    </radialGradient>
    <g id="sprite0" transform="matrix(1.0, 0.0, 0.0, 1.0, 24.75, 10.35)">
      <use height="97.35" transform="matrix(1.0, 0.0, 0.0, 1.0, -24.75, -10.35)" width="311.35" xlink:href="#shape1"/>
    </g>
    <g id="shape1" transform="matrix(1.0, 0.0, 0.0, 1.0, 24.75, 10.35)">
      <path d="M286.6 87.0 L-24.75 87.0 -24.75 -10.35 286.6 -10.35 286.6 87.0" fill="#cccccc" fill-opacity="0.0" fill-rule="evenodd" stroke="none"/>
    </g>
    <g id="shape2" transform="matrix(1.0, 0.0, 0.0, 1.0, 0.0, 0.0)">
      <path d="M555.5 0.5 L555.5 235.5 0.5 235.5 0.5 0.5 555.5 0.5 Z" fill="none" stroke="#000000" stroke-linecap="round" stroke-linejoin="round" stroke-width="1.0"/>
    </g>
  </defs>
</svg>
