<?xml version="1.0" encoding="UTF-8" standalone="no"?>
<svg xmlns:xlink="http://www.w3.org/1999/xlink" height="236.0px" width="556.0px" xmlns="http://www.w3.org/2000/svg">
  <g transform="matrix(1.0, 0.0, 0.0, 1.0, 0.0, 0.0)">
    <use height="140.0" transform="matrix(1.8683, 0.0, 0.0, 1.694, -2.8021, 1.1668)" width="300.0" xlink:href="#shape0"/>
    <use height="365.65" transform="matrix(1.058, -0.2158, 0.2158, 1.058, -36.3409, -39.4674)" width="486.85" xlink:href="#shape1"/>
    <use height="360.55" transform="matrix(0.7647, 0.7647, -0.7647, 0.7647, 251.3763, -199.0462)" width="436.65" xlink:href="#shape2"/>
    <use height="242.6" transform="matrix(0.1809, 0.1281, -0.1281, 0.1809, 255.5, 78.3)" width="243.8" xlink:href="#shape3"/>
    <use height="97.35" transform="matrix(1.7857, 0.0, 0.0, 2.4138, -0.997, 0.017)" width="311.35" xlink:href="#sprite0"/>
    <use height="236.0" transform="matrix(1.0, 0.0, 0.0, 1.0, 0.0, 0.0)" width="556.0" xlink:href="#shape5"/>
  </g>
  <defs>
    <g id="shape0" transform="matrix(1.0, 0.0, 0.0, 1.0, 150.0, 70.0)">
      <path d="M150.0 70.0 L-150.0 70.0 -150.0 -70.0 150.0 -70.0 150.0 70.0" fill="url(#gradient0)" fill-rule="evenodd" stroke="none"/>
    </g>
    <radialGradient cx="0" cy="0" gradientTransform="matrix(0.2021, 0.0, 0.0, 0.2021, 0.0, 0.0)" gradientUnits="userSpaceOnUse" id="gradient0" r="819.2" spreadMethod="pad">
      <stop offset="0.0" stop-color="#ffffff" stop-opacity="0.69803923"/>
      <stop offset="0.4" stop-color="#ffcae6" stop-opacity="0.69803923"/>
      <stop offset="1.0" stop-color="#ac56b6" stop-opacity="0.69803923"/>
    </radialGradient>
    <g id="shape1" transform="matrix(1.0, 0.0, 0.0, 1.0, 91.85, 36.0)">
      <path d="M67.45 -14.15 L122.35 93.3 60.15 -7.8 67.45 -14.15 M100.0 -28.0 L138.55 86.25 91.45 -23.35 100.0 -28.0 M191.0 -36.0 L177.0 82.9 181.3 -35.4 191.0 -36.0 M277.15 -16.8 L205.75 87.9 268.2 -20.7 277.15 -16.8 M303.0 -12.0 L223.6 86.2 294.6 -17.0 303.0 -12.0 M343.0 45.0 L220.85 112.75 336.35 37.9 343.0 45.0 M392.85 108.4 L229.45 132.1 388.45 99.7 392.85 108.4 M395.0 154.0 L228.8 153.2 393.3 144.4 395.0 154.0 M362.75 249.75 L227.1 182.35 365.6 240.45 362.75 249.75 M361.0 276.0 L230.85 199.9 364.95 267.1 361.0 276.0 M92.8 93.35 L-4.05 25.55 0.7 17.0 92.8 93.35 M61.85 312.9 L117.6 219.2 71.0 316.0 61.85 312.9 M272.2 312.95 L201.45 202.55 279.0 306.0 272.2 312.95 M249.1 324.25 L241.0 329.65 185.9 211.0 249.1 324.25 M-3.35 43.0 L95.05 111.15 -7.0 52.0 -3.35 43.0 M-88.05 138.3 L90.8 140.05 -87.2 148.0 -88.05 138.3 M-91.85 187.7 L87.25 171.65 -88.95 197.0 -91.85 187.7 M-91.85 154.55 L87.45 151.75 -90.45 164.2 -91.85 154.55 M-8.85 268.1 L92.75 203.85 -2.0 275.0 -8.85 268.1 M-37.9 241.3 L75.6 198.8 -32.0 249.0 -37.9 241.3" fill="#886bac" fill-opacity="0.0" fill-rule="evenodd" stroke="none"/>
    </g>
    <g id="shape2" transform="matrix(1.0, 0.0, 0.0, 1.0, 60.1, 50.0)">
      <path d="M27.55 -34.5 L103.3 85.55 21.25 -28.0 27.55 -34.5 M56.55 -50.0 L117.7 77.7 49.0 -45.0 56.55 -50.0 M238.0 -32.0 L181.25 70.05 229.4 -34.85 238.0 -32.0 M304.0 -2.0 L204.3 84.35 297.65 -8.45 304.0 -2.0 M376.5 142.9 L209.25 132.75 375.25 133.9 376.5 142.9 M376.55 112.05 L209.4 114.25 373.85 103.45 376.55 112.05 M373.0 158.0 L206.1 143.65 372.2 148.95 373.0 158.0 M320.0 35.0 L220.3 89.05 314.5 27.85 320.0 35.0 M6.65 286.95 L82.65 193.7 14.45 291.55 6.65 286.95 M30.7 291.35 L99.25 192.1 39.0 295.0 30.7 291.35 M109.95 310.55 L126.0 196.8 119.0 310.0 109.95 310.55 M310.0 243.0 L202.15 170.5 313.4 234.6 310.0 243.0 M306.25 267.1 L204.25 187.05 310.65 259.2 306.25 267.1 M232.15 293.9 L176.8 187.1 239.0 288.0 232.15 293.9 M201.9 306.8 L161.7 193.7 209.85 302.5 201.9 306.8 M-36.7 12.95 L75.95 88.05 -40.4 21.2 -36.7 12.95 M-38.35 37.3 L79.45 104.35 -41.0 46.0 -38.35 37.3 M-60.1 139.55 L77.85 131.45 -58.5 148.45 -60.1 139.55 M-58.1 181.9 L77.25 151.05 -54.0 190.0 -58.1 181.9 M-28.15 236.4 L85.25 169.0 -22.0 243.0 -28.15 236.4" fill="#ed82b4" fill-opacity="0.0" fill-rule="evenodd" stroke="none"/>
    </g>
    <g id="shape3" transform="matrix(1.0, 0.0, 0.0, 1.0, 0.0, 0.0)">
      <path d="M175.55 45.75 Q203.05 65.1 222.75 80.85 243.8 97.7 243.8 100.8 243.8 106.15 230.15 129.4 218.15 149.8 199.55 177.55 181.95 203.85 167.8 222.75 152.8 242.75 150.5 242.6 148.1 242.45 124.2 226.85 100.65 211.45 72.7 191.85 -0.25 140.7 0.0 134.15 0.15 130.7 13.75 109.7 26.55 90.0 44.6 64.95 63.5 38.8 77.65 21.3 93.8 1.45 98.15 0.1 102.5 -1.25 126.1 12.95 146.8 25.45 175.55 45.75" fill="#000000" fill-opacity="0.21176471" fill-rule="evenodd" stroke="none"/>
      <path d="M172.7 49.65 Q198.85 68.2 217.6 83.3 237.65 99.4 237.7 102.35 237.75 112.55 196.05 175.1 179.35 200.05 166.05 217.9 151.9 236.85 149.7 236.7 147.45 236.55 124.7 221.65 102.3 206.95 75.6 188.15 6.1 139.15 6.3 132.95 6.45 129.65 19.3 109.75 31.35 91.05 48.4 67.35 90.65 8.45 98.95 5.9 103.05 4.6 125.55 18.25 145.3 30.25 172.7 49.65" fill="#4b6582" fill-opacity="0.21176471" fill-rule="evenodd" stroke="none"/>
      <path d="M171.6 51.3 Q197.15 69.4 215.5 84.15 235.1 99.85 235.1 102.75 235.2 112.7 194.4 173.85 178.15 198.25 165.1 215.7 151.3 234.25 149.15 234.1 146.95 233.95 124.7 219.35 102.75 204.95 76.75 186.6 8.8 138.75 9.0 132.7 9.1 129.45 21.65 110.0 33.45 91.75 50.1 68.6 91.4 11.05 99.55 8.5 103.55 7.25 125.55 20.6 144.85 32.35 171.6 51.3" fill="#101f2c" fill-opacity="0.21176471" fill-rule="evenodd" stroke="none"/>
      <path d="M96.45 19.8 Q100.1 16.05 101.8 15.55 105.6 14.35 126.15 26.75 144.2 37.6 169.25 55.2 193.25 72.1 210.35 85.75 228.7 100.4 228.7 103.1 228.7 112.45 189.9 170.15 174.4 193.15 162.05 209.65 148.95 227.1 146.9 227.0 145.55 226.95 135.35 220.55 L135.7 220.65 135.1 210.1 130.5 217.5 Q98.2 196.95 59.75 169.2 15.6 137.3 15.75 132.75 16.0 127.85 42.15 90.25 68.3 52.7 87.15 30.15 L97.5 33.65 90.05 26.75 90.35 26.4 Q100.5 31.65 102.8 33.25 L92.8 23.65 93.55 22.8 110.35 32.75 96.45 19.8" fill="url(#gradient1)" fill-rule="evenodd" stroke="none"/>
    </g>
    <radialGradient cx="0" cy="0" gradientTransform="matrix(0.1342, 0.0, 0.0, 0.1342, 122.2, 121.2)" gradientUnits="userSpaceOnUse" id="gradient1" r="819.2" spreadMethod="pad">
      <stop offset="0.15294117647058825" stop-color="#142636" stop-opacity="0.21176471"/>
      <stop offset="0.5568627450980392" stop-color="#0b1312" stop-opacity="0.21176471"/>
      <stop offset="1.0" stop-color="#000000" stop-opacity="0.21176471"/>
    </radialGradient>
    <g id="sprite0" transform="matrix(1.0, 0.0, 0.0, 1.0, 24.75, 10.35)">
      <use height="97.35" transform="matrix(1.0, 0.0, 0.0, 1.0, -24.75, -10.35)" width="311.35" xlink:href="#shape4"/>
    </g>
    <g id="shape4" transform="matrix(1.0, 0.0, 0.0, 1.0, 24.75, 10.35)">
      <path d="M286.6 87.0 L-24.75 87.0 -24.75 -10.35 286.6 -10.35 286.6 87.0" fill="#cccccc" fill-opacity="0.0" fill-rule="evenodd" stroke="none"/>
    </g>
    <g id="shape5" transform="matrix(1.0, 0.0, 0.0, 1.0, 0.0, 0.0)">
      <path d="M555.5 0.5 L555.5 235.5 0.5 235.5 0.5 0.5 555.5 0.5 Z" fill="none" stroke="#000000" stroke-linecap="round" stroke-linejoin="round" stroke-width="1.0"/>
    </g>
  </defs>
</svg>
