<?xml version="1.0" encoding="UTF-8" standalone="no"?>
<svg xmlns:xlink="http://www.w3.org/1999/xlink" height="236.0px" width="556.0px" xmlns="http://www.w3.org/2000/svg">
  <g transform="matrix(1.0, 0.0, 0.0, 1.0, 0.0, 0.0)">
    <use height="140.0" transform="matrix(1.8735, 0.0, 0.0, 1.7068, -7.0211, -1.624)" width="300.0" xlink:href="#shape0"/>
    <use height="404.05" transform="matrix(0.3937, 0.0, 0.0, 0.3937, 209.2219, 43.3723)" width="344.75" xlink:href="#sprite0"/>
    <use height="48.2" transform="matrix(0.4589, -0.7949, 0.7949, 0.4589, 268.2664, 126.8084)" width="46.6" xlink:href="#sprite1"/>
    <use height="48.2" transform="matrix(1.1749, 2.0349, -2.0349, 1.1749, 178.6614, 49.9224)" width="46.6" xlink:href="#sprite1"/>
    <use height="48.2" transform="matrix(-0.8261, 1.4308, -1.4308, -0.8261, 415.8299, 60.495)" width="46.6" xlink:href="#sprite1"/>
    <use height="48.2" transform="matrix(1.3768, 0.0, 0.0, 1.3768, 288.3882, 64.8628)" width="46.6" xlink:href="#sprite1"/>
    <use height="48.2" transform="matrix(1.0097, -1.7488, 1.7488, 1.0097, 263.6457, 132.0785)" width="46.6" xlink:href="#sprite1"/>
    <use height="48.2" transform="matrix(1.6654, 2.8846, -2.8846, 1.6654, 272.1798, 0.3965)" width="46.6" xlink:href="#sprite1"/>
    <use height="48.2" transform="matrix(0.9179, 0.0, 0.0, 0.9179, 383.8256, 116.892)" width="46.6" xlink:href="#sprite1"/>
    <use height="48.2" transform="matrix(0.9179, 0.0, 0.0, 0.9179, 317.7256, 116.892)" width="46.6" xlink:href="#sprite1"/>
    <use height="48.2" transform="matrix(0.9179, 0.0, 0.0, 0.9179, 119.4756, 61.842)" width="46.6" xlink:href="#sprite1"/>
    <use height="48.2" transform="matrix(0.9179, 0.0, 0.0, 0.9179, 149.3256, 90.192)" width="46.6" xlink:href="#sprite1"/>
    <use height="97.35" transform="matrix(1.7857, 0.0, 0.0, 2.4138, -0.997, 0.017)" width="311.35" xlink:href="#sprite2"/>
    <use height="236.0" transform="matrix(1.0, 0.0, 0.0, 1.0, 0.0, 0.0)" width="556.0" xlink:href="#shape4"/>
  </g>
  <defs>
    <g id="shape0" transform="matrix(1.0, 0.0, 0.0, 1.0, 150.0, 70.0)">
      <path d="M150.0 70.0 L-150.0 70.0 -150.0 -70.0 150.0 -70.0 150.0 70.0" fill="url(#gradient0)" fill-rule="evenodd" stroke="none"/>
    </g>
    <radialGradient cx="0" cy="0" gradientTransform="matrix(0.3105, 0.0, 0.0, 0.2021, 1.35, 85.25)" gradientUnits="userSpaceOnUse" id="gradient0" r="819.2" spreadMethod="pad">
      <stop offset="0.6666666666666666" stop-color="#bfb6de"/>
      <stop offset="0.8" stop-color="#533a7e"/>
    </radialGradient>
    <g id="sprite0" transform="matrix(1.0, 0.0, 0.0, 1.0, 177.0, 287.5)">
      <use height="196.3" transform="matrix(1.7506, 0.0, 0.0, 1.7506, -156.7, -266.65)" width="181.5" xlink:href="#shape1"/>
      <use height="196.3" transform="matrix(1.7506, 0.0, 0.0, 1.7506, -167.75, -273.65)" width="181.5" xlink:href="#shape1"/>
    </g>
    <g id="shape1" transform="matrix(1.0, 0.0, 0.0, 1.0, 0.0, 0.0)">
      <path d="M44.95 158.45 L61.2 168.55 44.6 179.9 44.6 182.45 Q47.8 185.45 47.8 185.8 L47.65 193.0 Q46.85 194.05 45.05 194.2 43.2 194.35 42.7 193.4 L41.05 188.4 38.55 187.75 35.3 188.4 32.65 191.3 30.45 195.7 Q29.85 196.35 28.6 196.3 27.25 196.25 27.0 195.05 26.25 190.25 26.25 189.1 L29.55 184.1 28.15 182.75 22.35 184.35 Q22.15 184.45 19.9 188.5 19.35 189.25 17.9 188.65 16.35 188.05 16.3 186.7 L17.55 181.3 Q14.45 181.2 15.05 178.05 L19.45 172.85 24.65 173.25 27.45 172.15 Q31.15 171.0 35.8 170.65 L44.95 158.45" fill="#000000" fill-opacity="0.6" fill-rule="evenodd" stroke="none"/>
      <path d="M25.6 176.2 L23.55 177.15 21.7 177.25 Q21.9 176.15 21.0 174.65 L20.1 173.35 23.75 173.7 Q24.6 173.7 25.3 174.55 26.0 175.45 25.6 176.2" fill="url(#gradient1)" fill-rule="evenodd" stroke="none"/>
      <path d="M25.6 177.05 Q28.2 176.8 28.9 179.2 29.6 181.5 28.25 182.15 27.05 182.25 22.35 183.6 22.35 182.55 21.6 181.2 20.8 179.75 20.0 179.85 L25.6 177.05" fill="url(#gradient2)" fill-rule="evenodd" stroke="none"/>
      <path d="M21.4 183.85 L20.0 187.25 Q19.35 188.4 18.1 188.05 16.95 187.65 16.95 186.85 L18.65 180.7 Q20.0 183.05 21.4 183.85" fill="url(#gradient3)" fill-rule="evenodd" stroke="none"/>
      <path d="M20.9 177.7 L17.9 180.35 Q16.25 180.55 15.8 179.45 L15.65 178.35 19.0 173.9 Q19.4 176.25 20.9 177.7" fill="url(#gradient4)" fill-rule="evenodd" stroke="none"/>
      <path d="M31.5 191.3 L29.8 195.25 Q29.35 195.9 28.5 195.5 27.7 195.1 27.7 194.45 L27.2 189.6 Q28.2 191.45 31.5 191.3" fill="url(#gradient5)" fill-rule="evenodd" stroke="none"/>
      <path d="M33.65 184.9 Q35.0 186.3 34.75 187.0 L31.9 190.25 Q31.55 189.3 29.6 188.85 L27.75 188.6 31.3 183.85 Q32.2 183.4 33.65 184.9" fill="url(#gradient6)" fill-rule="evenodd" stroke="none"/>
      <path d="M43.4 180.2 L43.55 182.6 Q42.8 181.65 40.25 182.8 37.6 184.0 38.7 186.65 36.7 187.5 35.95 187.5 35.55 187.5 34.75 183.95 36.7 181.65 38.8 180.0 42.9 176.75 43.4 180.2" fill="url(#gradient7)" fill-rule="evenodd" stroke="none"/>
      <path d="M40.8 166.05 L44.1 165.85 Q47.75 166.1 49.55 168.4 52.45 172.05 51.25 173.75 45.25 178.3 44.45 178.4 43.75 175.85 40.95 173.05 38.45 170.5 37.4 170.5 L40.8 166.05" fill="url(#gradient8)" fill-rule="evenodd" stroke="none"/>
      <path d="M46.15 185.15 Q44.7 184.05 43.3 185.75 42.6 186.6 42.2 187.65 L39.45 187.15 Q38.5 183.95 41.1 183.2 L43.75 183.1 46.15 185.15" fill="url(#gradient9)" fill-rule="evenodd" stroke="none"/>
      <path d="M47.05 192.5 Q45.1 194.2 43.4 192.85 L42.35 188.15 Q45.65 187.9 47.05 186.45 L47.05 192.5" fill="url(#gradient10)" fill-rule="evenodd" stroke="none"/>
      <path d="M30.65 178.9 Q27.25 175.2 25.2 173.65 28.9 172.0 36.25 171.6 31.3 172.35 29.15 173.2 35.85 172.5 39.25 173.3 42.3 176.1 43.4 180.2 36.35 184.1 34.75 183.95 34.05 182.6 30.65 178.9" fill="url(#gradient11)" fill-rule="evenodd" stroke="none"/>
      <path d="M43.6 172.6 Q44.35 172.5 44.55 171.8 44.8 172.65 43.65 173.1 42.45 173.6 42.65 171.8 42.85 172.7 43.6 172.6" fill="#000000" fill-opacity="0.6" fill-rule="evenodd" stroke="none"/>
      <path d="M45.35 176.3 Q45.9 176.25 46.05 175.6 46.2 176.4 45.4 176.75 44.45 177.2 44.6 175.6 44.8 176.4 45.35 176.3" fill="#000000" fill-opacity="0.6" fill-rule="evenodd" stroke="none"/>
      <path d="M40.55 170.6 Q41.1 170.55 41.25 169.9 41.4 170.7 40.6 171.05 39.65 171.5 39.8 169.9 40.0 170.7 40.55 170.6" fill="#000000" fill-opacity="0.6" fill-rule="evenodd" stroke="none"/>
      <path d="M146.3 153.1 L155.45 165.3 Q162.9 165.85 166.65 167.9 L171.8 167.5 176.2 172.7 Q176.8 175.85 173.7 175.95 L174.95 181.35 Q174.9 182.7 173.35 183.3 L171.35 183.15 168.9 179.0 163.1 177.4 161.7 178.75 165.0 183.75 164.25 189.7 Q164.0 190.9 162.65 190.95 161.45 191.0 160.8 190.35 L158.6 185.95 155.95 183.05 152.7 182.4 150.2 183.05 148.55 188.05 Q148.05 189.0 146.25 188.85 144.4 188.7 143.6 187.65 L143.45 180.45 146.65 177.1 146.65 174.55 130.05 163.2 146.3 153.1" fill="#000000" fill-opacity="0.6" fill-rule="evenodd" stroke="none"/>
      <path d="M166.0 169.2 Q166.65 168.35 167.5 168.35 L171.15 168.05 170.25 169.3 Q169.4 170.8 169.55 171.9 L167.7 171.8 165.65 170.85 Q165.25 170.1 166.0 169.2" fill="url(#gradient12)" fill-rule="evenodd" stroke="none"/>
      <path d="M169.65 175.85 Q168.9 177.2 168.9 178.25 L163.0 176.8 Q161.65 176.15 162.35 173.85 163.1 171.45 165.65 171.7 L171.3 174.5 Q170.45 174.4 169.65 175.85" fill="url(#gradient13)" fill-rule="evenodd" stroke="none"/>
      <path d="M174.3 181.5 Q174.3 182.3 173.15 182.7 171.9 183.05 171.3 181.9 L169.85 178.5 Q171.3 177.7 172.6 175.35 L174.3 181.5" fill="url(#gradient14)" fill-rule="evenodd" stroke="none"/>
      <path d="M173.35 175.05 L170.35 172.35 Q171.85 170.9 172.25 168.55 L175.6 173.0 Q176.0 175.3 173.35 175.05" fill="url(#gradient15)" fill-rule="evenodd" stroke="none"/>
      <path d="M163.55 189.1 Q163.55 189.75 162.75 190.15 161.9 190.55 161.45 189.9 L159.75 185.95 Q163.05 186.1 164.1 184.25 L163.55 189.1" fill="url(#gradient16)" fill-rule="evenodd" stroke="none"/>
      <path d="M163.5 183.25 L161.65 183.5 Q159.7 183.95 159.35 184.9 156.75 182.4 156.5 181.65 156.3 180.95 157.65 179.55 159.05 178.05 159.95 178.5 L163.5 183.25" fill="url(#gradient17)" fill-rule="evenodd" stroke="none"/>
      <path d="M155.3 182.15 Q154.55 182.15 152.55 181.3 153.65 178.65 151.0 177.45 148.5 176.3 147.7 177.25 147.65 176.05 147.85 174.85 148.35 171.4 152.5 174.7 154.55 176.35 156.5 178.65 155.7 182.15 155.3 182.15" fill="url(#gradient18)" fill-rule="evenodd" stroke="none"/>
      <path d="M150.3 167.7 Q147.5 170.5 146.8 173.05 146.0 172.95 140.0 168.4 138.85 166.7 141.7 163.05 143.5 160.75 147.15 160.5 L150.45 160.7 153.85 165.15 Q152.8 165.15 150.3 167.7" fill="url(#gradient19)" fill-rule="evenodd" stroke="none"/>
      <path d="M150.2 177.85 Q152.8 178.6 151.8 181.8 L149.05 182.3 147.95 180.4 Q146.55 178.7 145.1 179.8 L147.55 177.75 150.2 177.85" fill="url(#gradient20)" fill-rule="evenodd" stroke="none"/>
      <path d="M148.9 182.8 L147.85 187.5 Q146.15 188.85 144.2 187.15 L144.2 181.1 Q145.65 182.55 148.9 182.8" fill="url(#gradient21)" fill-rule="evenodd" stroke="none"/>
      <path d="M162.1 167.85 Q159.95 167.0 155.0 166.25 162.35 166.65 166.05 168.3 164.0 169.85 160.6 173.55 157.2 177.25 156.5 178.65 154.9 178.75 147.85 174.85 148.95 170.75 152.0 167.95 155.4 167.15 162.1 167.85" fill="url(#gradient22)" fill-rule="evenodd" stroke="none"/>
      <path d="M147.6 167.75 Q146.45 167.3 146.7 166.45 146.9 167.15 147.65 167.25 148.45 167.35 148.6 166.45 148.8 168.25 147.6 167.75" fill="#000000" fill-opacity="0.6" fill-rule="evenodd" stroke="none"/>
      <path d="M145.9 170.95 Q146.5 171.05 146.65 170.25 146.8 171.85 145.85 171.4 145.05 171.05 145.2 170.25 145.35 170.9 145.9 170.95" fill="#000000" fill-opacity="0.6" fill-rule="evenodd" stroke="none"/>
      <path d="M150.7 165.75 Q149.85 165.35 150.0 164.55 150.15 165.2 150.7 165.3 151.3 165.4 151.45 164.55 151.6 166.15 150.7 165.75" fill="#000000" fill-opacity="0.6" fill-rule="evenodd" stroke="none"/>
      <path d="M134.15 44.0 Q142.75 61.7 148.2 70.9 154.85 82.2 166.3 97.55 L179.65 105.2 Q182.35 106.9 181.15 111.45 L175.6 131.6 Q173.85 135.6 171.0 137.0 169.4 137.75 140.05 159.3 110.3 181.15 104.8 185.75 101.1 188.85 96.3 186.25 23.35 152.0 13.25 146.45 10.5 144.95 9.3 142.35 L5.2 131.9 0.6 119.5 Q-1.25 114.1 2.5 111.95 L12.85 105.65 Q30.25 87.55 42.95 63.85 46.9 56.45 49.9 49.35 L52.15 43.75 Q53.85 39.05 59.05 38.5 70.5 37.0 87.15 30.95 127.0 39.5 129.05 40.25 133.05 41.7 134.15 44.0" fill="#000000" fill-opacity="0.6" fill-rule="evenodd" stroke="none"/>
      <path d="M134.15 50.3 Q138.6 59.2 143.45 67.7 159.0 94.8 172.6 107.3 L98.5 151.35 101.35 57.95 130.65 43.05 134.15 50.3" fill="url(#gradient23)" fill-rule="evenodd" stroke="none"/>
      <path d="M56.1 42.25 L101.35 57.95 Q101.1 93.35 98.5 151.35 L10.25 114.1 Q23.55 99.35 37.35 77.65 50.95 56.25 56.1 42.25" fill="url(#gradient24)" fill-rule="evenodd" stroke="none"/>
      <path d="M2.55 114.95 Q9.3 111.6 16.0 108.2 L10.25 114.1 98.5 151.35 172.6 107.3 167.1 101.55 179.55 108.65 98.85 157.35 2.55 114.95" fill="url(#gradient25)" fill-rule="evenodd" stroke="none"/>
      <path d="M12.25 144.2 L2.55 114.95 98.85 157.35 100.2 185.0 12.25 144.2" fill="url(#gradient26)" fill-rule="evenodd" stroke="none"/>
      <path d="M100.2 185.0 L98.85 157.35 179.55 108.65 172.3 134.5 100.2 185.0" fill="url(#gradient27)" fill-rule="evenodd" stroke="none"/>
      <path d="M56.1 42.25 L89.25 33.15 130.65 43.05 101.35 57.95 56.1 42.25" fill="url(#gradient28)" fill-rule="evenodd" stroke="none"/>
      <path d="M117.85 47.45 Q115.2 48.75 111.75 48.65 103.45 48.35 101.85 42.4 102.8 30.6 100.6 24.4 98.4 18.4 94.2 19.95 90.6 21.25 89.4 29.35 88.45 35.7 89.25 40.5 86.9 44.8 80.75 43.75 74.55 42.65 74.0 37.85 72.75 22.2 76.65 12.7 81.95 -0.15 96.15 0.0 113.85 0.15 119.8 16.6 124.2 28.85 121.3 43.55 120.65 46.05 117.85 47.45" fill="#000000" fill-opacity="0.6" fill-rule="evenodd" stroke="none"/>
      <path d="M119.2 44.1 Q117.9 48.8 111.45 47.4 105.0 46.0 103.45 40.6 104.45 29.6 102.25 23.25 99.95 16.7 94.9 17.3 91.25 17.75 89.05 26.65 87.15 34.35 87.8 38.4 85.55 42.3 81.1 41.75 76.65 41.15 76.1 36.85 75.05 24.05 79.75 14.05 85.3 2.25 96.3 2.55 113.05 3.0 118.25 18.9 122.05 30.4 119.2 44.1" fill="url(#gradient29)" fill-rule="evenodd" stroke="none"/>
      <path d="M119.8 45.05 Q115.75 49.85 109.9 48.15 112.1 32.65 109.8 23.7 114.4 32.3 113.95 43.05 114.95 27.1 113.45 20.4 111.1 10.25 101.9 5.45 107.65 4.9 114.0 11.8 120.75 19.1 121.25 28.3 121.9 41.2 119.8 45.05" fill="#000000" fill-opacity="0.6" fill-rule="evenodd" stroke="none"/>
      <path d="M90.75 15.75 Q94.3 13.7 98.1 14.65 101.65 15.5 103.15 18.3 94.25 12.6 90.2 19.9 86.8 25.95 87.05 40.15 87.1 41.55 85.1 42.3 L82.0 42.15 Q81.3 21.25 90.75 15.75" fill="#000000" fill-opacity="0.6" fill-rule="evenodd" stroke="none"/>
      <path d="M49.95 63.85 L54.1 61.65 Q56.05 60.95 58.1 61.9 60.75 63.05 60.45 66.45 60.1 70.0 51.6 86.35 43.75 101.35 38.25 110.0 34.7 115.5 30.5 113.0 28.9 112.0 28.4 110.3 27.85 108.5 29.0 107.1 31.0 104.55 39.3 89.85 L48.65 72.85 Q44.9 73.05 44.5 71.1 44.3 70.15 45.2 67.6 45.65 66.3 49.95 63.85" fill="#000000" fill-opacity="0.6" fill-rule="evenodd" stroke="none"/>
      <path d="M67.1 66.3 Q69.5 65.75 72.2 66.7 78.65 69.0 77.7 74.55 76.7 80.6 71.1 95.8 65.25 111.85 61.0 119.2 58.9 122.85 55.25 123.35 52.05 123.75 48.75 121.8 45.55 119.9 44.05 117.0 42.45 113.85 43.85 111.3 60.3 75.25 63.4 69.1 64.5 66.9 67.1 66.3 M70.05 76.4 Q70.25 75.35 69.35 74.95 68.45 74.6 68.05 75.45 L51.5 114.3 Q50.95 115.4 52.05 116.15 53.15 116.9 53.95 115.5 59.7 105.35 65.3 90.55 69.7 78.85 70.05 76.4" fill="#000000" fill-opacity="0.6" fill-rule="evenodd" stroke="none"/>
      <path d="M86.15 81.25 Q85.2 81.0 84.95 81.95 L74.2 122.95 Q73.8 124.1 75.05 124.65 76.3 125.2 76.85 123.7 81.05 112.8 84.45 97.25 87.1 85.05 87.1 82.55 87.1 81.5 86.15 81.25 M82.7 73.1 Q85.0 72.15 87.75 72.65 90.6 73.15 92.4 74.85 94.45 76.7 94.4 79.4 94.3 85.5 91.0 101.4 87.5 118.15 84.4 126.1 82.85 130.0 79.3 131.15 76.2 132.1 72.6 130.75 69.15 129.45 67.2 126.85 65.15 124.1 66.15 121.35 77.25 83.1 79.4 76.5 80.2 74.15 82.7 73.1" fill="#000000" fill-opacity="0.6" fill-rule="evenodd" stroke="none"/>
      <path d="M58.95 63.5 Q61.6 64.65 61.25 68.1 60.95 71.7 52.4 88.0 44.55 103.1 39.05 111.6 35.55 117.1 31.35 114.6 29.75 113.65 29.2 111.9 28.7 110.1 29.8 108.7 31.85 106.2 40.15 91.45 L49.5 74.45 Q45.75 74.7 45.3 72.75 45.05 71.75 46.0 69.25 46.5 67.95 50.75 65.5 L54.9 63.3 58.95 63.5" fill="#ffffff" fill-opacity="0.6" fill-rule="evenodd" stroke="none"/>
      <path d="M67.95 67.9 Q70.35 67.35 73.0 68.35 79.45 70.65 78.5 76.2 77.5 82.25 71.9 97.45 66.05 113.5 61.8 120.85 59.7 124.45 56.05 124.95 52.85 125.4 49.55 123.45 46.35 121.55 44.85 118.65 43.25 115.5 44.65 112.95 61.15 76.9 64.25 70.7 65.35 68.5 67.95 67.9 M68.85 77.1 L52.3 115.95 Q51.75 117.05 52.9 117.8 54.0 118.55 54.8 117.15 60.5 107.05 66.1 92.2 70.4 80.8 70.9 78.05 71.05 77.0 70.15 76.6 69.25 76.2 68.85 77.1" fill="#ffffff" fill-opacity="0.6" fill-rule="evenodd" stroke="none"/>
      <path d="M87.0 82.9 Q86.05 82.65 85.75 83.6 L75.05 124.55 Q74.65 125.7 75.85 126.25 77.1 126.8 77.65 125.35 81.85 114.45 85.25 98.9 87.9 86.75 87.9 84.2 87.95 83.15 87.0 82.9 M83.5 74.75 Q85.8 73.8 88.6 74.3 95.3 75.45 95.2 81.05 95.1 87.1 91.8 103.05 88.35 119.75 85.2 127.7 83.65 131.65 80.1 132.75 77.0 133.75 73.4 132.4 69.95 131.1 68.0 128.5 66.0 125.7 67.0 122.95 78.05 84.75 80.25 78.15 81.0 75.8 83.5 74.75" fill="#ffffff" fill-opacity="0.6" fill-rule="evenodd" stroke="none"/>
      <path d="M61.15 51.65 L57.05 44.85 56.65 57.2 55.7 45.1 52.85 50.1 56.1 42.25 100.8 57.8 58.85 44.8 61.15 51.65" fill="#7eb3c4" fill-opacity="0.6" fill-rule="evenodd" stroke="none"/>
      <path d="M81.6 11.6 Q85.65 5.05 95.6 3.55 75.7 7.95 79.45 41.3 77.35 40.35 76.55 38.5 76.75 19.35 81.6 11.6" fill="#7eb3c4" fill-opacity="0.6" fill-rule="evenodd" stroke="none"/>
    </g>
    <linearGradient gradientTransform="matrix(9.0E-4, 0.0033, -0.0023, 6.0E-4, 22.9, 175.3)" gradientUnits="userSpaceOnUse" id="gradient1" spreadMethod="pad" x1="-819.2" x2="819.2">
      <stop offset="0.14901960784313725" stop-color="#e3afc7" stop-opacity="0.6"/>
      <stop offset="0.7843137254901961" stop-color="#964e4e" stop-opacity="0.6"/>
      <stop offset="1.0" stop-color="#4b2220" stop-opacity="0.6"/>
    </linearGradient>
    <linearGradient gradientTransform="matrix(0.0056, 0.0, 0.0, 0.004, 24.55, 180.3)" gradientUnits="userSpaceOnUse" id="gradient2" spreadMethod="pad" x1="-819.2" x2="819.2">
      <stop offset="0.14901960784313725" stop-color="#e3afc7" stop-opacity="0.6"/>
      <stop offset="0.7843137254901961" stop-color="#964e4e" stop-opacity="0.6"/>
      <stop offset="1.0" stop-color="#4b2220" stop-opacity="0.6"/>
    </linearGradient>
    <linearGradient gradientTransform="matrix(0.0027, 0.0, 0.0, 0.0045, 19.15, 184.4)" gradientUnits="userSpaceOnUse" id="gradient3" spreadMethod="pad" x1="-819.2" x2="819.2">
      <stop offset="0.14901960784313725" stop-color="#e3afc7" stop-opacity="0.6"/>
      <stop offset="0.7843137254901961" stop-color="#964e4e" stop-opacity="0.6"/>
      <stop offset="1.0" stop-color="#4b2220" stop-opacity="0.6"/>
    </linearGradient>
    <linearGradient gradientTransform="matrix(0.0032, 0.0, 0.0, 0.004, 18.25, 177.15)" gradientUnits="userSpaceOnUse" id="gradient4" spreadMethod="pad" x1="-819.2" x2="819.2">
      <stop offset="0.14901960784313725" stop-color="#e3afc7" stop-opacity="0.6"/>
      <stop offset="0.7843137254901961" stop-color="#964e4e" stop-opacity="0.6"/>
      <stop offset="1.0" stop-color="#4b2220" stop-opacity="0.6"/>
    </linearGradient>
    <linearGradient gradientTransform="matrix(0.0026, 0.0, 0.0, 0.0037, 29.35, 192.6)" gradientUnits="userSpaceOnUse" id="gradient5" spreadMethod="pad" x1="-819.2" x2="819.2">
      <stop offset="0.14901960784313725" stop-color="#e3afc7" stop-opacity="0.6"/>
      <stop offset="0.7843137254901961" stop-color="#964e4e" stop-opacity="0.6"/>
      <stop offset="1.0" stop-color="#4b2220" stop-opacity="0.6"/>
    </linearGradient>
    <linearGradient gradientTransform="matrix(0.0043, 0.0, 0.0, 0.004, 31.25, 187.0)" gradientUnits="userSpaceOnUse" id="gradient6" spreadMethod="pad" x1="-819.2" x2="819.2">
      <stop offset="0.14901960784313725" stop-color="#e3afc7" stop-opacity="0.6"/>
      <stop offset="0.7843137254901961" stop-color="#964e4e" stop-opacity="0.6"/>
      <stop offset="1.0" stop-color="#4b2220" stop-opacity="0.6"/>
    </linearGradient>
    <linearGradient gradientTransform="matrix(0.0054, 0.0, 0.0, 0.0056, 39.15, 182.95)" gradientUnits="userSpaceOnUse" id="gradient7" spreadMethod="pad" x1="-819.2" x2="819.2">
      <stop offset="0.14901960784313725" stop-color="#e3afc7" stop-opacity="0.6"/>
      <stop offset="0.7843137254901961" stop-color="#964e4e" stop-opacity="0.6"/>
      <stop offset="1.0" stop-color="#4b2220" stop-opacity="0.6"/>
    </linearGradient>
    <linearGradient gradientTransform="matrix(0.0087, 0.005, -0.0038, 0.0066, 47.2, 169.25)" gradientUnits="userSpaceOnUse" id="gradient8" spreadMethod="pad" x1="-819.2" x2="819.2">
      <stop offset="0.0" stop-color="#995b6c" stop-opacity="0.6"/>
      <stop offset="0.7137254901960784" stop-color="#4d2221" stop-opacity="0.6"/>
      <stop offset="1.0" stop-color="#100403" stop-opacity="0.6"/>
    </linearGradient>
    <linearGradient gradientTransform="matrix(0.0042, 0.0, 0.0, 0.0028, 42.65, 185.3)" gradientUnits="userSpaceOnUse" id="gradient9" spreadMethod="pad" x1="-819.2" x2="819.2">
      <stop offset="0.14901960784313725" stop-color="#e3afc7" stop-opacity="0.6"/>
      <stop offset="0.7843137254901961" stop-color="#964e4e" stop-opacity="0.6"/>
      <stop offset="1.0" stop-color="#4b2220" stop-opacity="0.6"/>
    </linearGradient>
    <linearGradient gradientTransform="matrix(0.0029, 0.0, 0.0, 0.0043, 44.7, 189.95)" gradientUnits="userSpaceOnUse" id="gradient10" spreadMethod="pad" x1="-819.2" x2="819.2">
      <stop offset="0.14901960784313725" stop-color="#e3afc7" stop-opacity="0.6"/>
      <stop offset="0.7843137254901961" stop-color="#964e4e" stop-opacity="0.6"/>
      <stop offset="1.0" stop-color="#4b2220" stop-opacity="0.6"/>
    </linearGradient>
    <linearGradient gradientTransform="matrix(0.0111, 0.0, 0.0, 0.0075, 34.3, 177.75)" gradientUnits="userSpaceOnUse" id="gradient11" spreadMethod="pad" x1="-819.2" x2="819.2">
      <stop offset="0.14901960784313725" stop-color="#e3afc7" stop-opacity="0.6"/>
      <stop offset="0.7843137254901961" stop-color="#964e4e" stop-opacity="0.6"/>
      <stop offset="1.0" stop-color="#4b2220" stop-opacity="0.6"/>
    </linearGradient>
    <linearGradient gradientTransform="matrix(0.0034, 0.0, 0.0, 0.0023, 168.3, 169.95)" gradientUnits="userSpaceOnUse" id="gradient12" spreadMethod="pad" x1="-819.2" x2="819.2">
      <stop offset="0.14901960784313725" stop-color="#e3afc7" stop-opacity="0.6"/>
      <stop offset="0.7843137254901961" stop-color="#964e4e" stop-opacity="0.6"/>
      <stop offset="1.0" stop-color="#4b2220" stop-opacity="0.6"/>
    </linearGradient>
    <linearGradient gradientTransform="matrix(0.0056, 0.0, 0.0, 0.004, 166.7, 174.95)" gradientUnits="userSpaceOnUse" id="gradient13" spreadMethod="pad" x1="-819.2" x2="819.2">
      <stop offset="0.14901960784313725" stop-color="#e3afc7" stop-opacity="0.6"/>
      <stop offset="0.7843137254901961" stop-color="#964e4e" stop-opacity="0.6"/>
      <stop offset="1.0" stop-color="#4b2220" stop-opacity="0.6"/>
    </linearGradient>
    <linearGradient gradientTransform="matrix(0.0027, 0.0, 0.0, 0.0045, 172.05, 179.05)" gradientUnits="userSpaceOnUse" id="gradient14" spreadMethod="pad" x1="-819.2" x2="819.2">
      <stop offset="0.14901960784313725" stop-color="#e3afc7" stop-opacity="0.6"/>
      <stop offset="0.7843137254901961" stop-color="#964e4e" stop-opacity="0.6"/>
      <stop offset="1.0" stop-color="#4b2220" stop-opacity="0.6"/>
    </linearGradient>
    <linearGradient gradientTransform="matrix(0.0032, 0.0, 0.0, 0.004, 173.0, 171.8)" gradientUnits="userSpaceOnUse" id="gradient15" spreadMethod="pad" x1="-819.2" x2="819.2">
      <stop offset="0.14901960784313725" stop-color="#e3afc7" stop-opacity="0.6"/>
      <stop offset="0.7843137254901961" stop-color="#964e4e" stop-opacity="0.6"/>
      <stop offset="1.0" stop-color="#4b2220" stop-opacity="0.6"/>
    </linearGradient>
    <linearGradient gradientTransform="matrix(0.0027, 0.0, 0.0, 0.0037, 161.9, 187.25)" gradientUnits="userSpaceOnUse" id="gradient16" spreadMethod="pad" x1="-819.2" x2="819.2">
      <stop offset="0.14901960784313725" stop-color="#e3afc7" stop-opacity="0.6"/>
      <stop offset="0.7843137254901961" stop-color="#964e4e" stop-opacity="0.6"/>
      <stop offset="1.0" stop-color="#4b2220" stop-opacity="0.6"/>
    </linearGradient>
    <linearGradient gradientTransform="matrix(0.0043, 0.0, 0.0, 0.004, 159.95, 181.65)" gradientUnits="userSpaceOnUse" id="gradient17" spreadMethod="pad" x1="-819.2" x2="819.2">
      <stop offset="0.14901960784313725" stop-color="#e3afc7" stop-opacity="0.6"/>
      <stop offset="0.7843137254901961" stop-color="#964e4e" stop-opacity="0.6"/>
      <stop offset="1.0" stop-color="#4b2220" stop-opacity="0.6"/>
    </linearGradient>
    <linearGradient gradientTransform="matrix(0.0054, 0.0, 0.0, 0.0055, 152.1, 177.6)" gradientUnits="userSpaceOnUse" id="gradient18" spreadMethod="pad" x1="-819.2" x2="819.2">
      <stop offset="0.14901960784313725" stop-color="#e3afc7" stop-opacity="0.6"/>
      <stop offset="0.7843137254901961" stop-color="#964e4e" stop-opacity="0.6"/>
      <stop offset="1.0" stop-color="#4b2220" stop-opacity="0.6"/>
    </linearGradient>
    <linearGradient gradientTransform="matrix(-0.0082, 0.001, -0.001, -0.0076, 146.85, 166.0)" gradientUnits="userSpaceOnUse" id="gradient19" spreadMethod="pad" x1="-819.2" x2="819.2">
      <stop offset="0.0" stop-color="#995b6c" stop-opacity="0.6"/>
      <stop offset="0.5215686274509804" stop-color="#4d2221" stop-opacity="0.6"/>
      <stop offset="1.0" stop-color="#100403" stop-opacity="0.6"/>
    </linearGradient>
    <linearGradient gradientTransform="matrix(0.0043, 0.0, 0.0, 0.0028, 148.6, 180.0)" gradientUnits="userSpaceOnUse" id="gradient20" spreadMethod="pad" x1="-819.2" x2="819.2">
      <stop offset="0.14901960784313725" stop-color="#e3afc7" stop-opacity="0.6"/>
      <stop offset="0.7843137254901961" stop-color="#964e4e" stop-opacity="0.6"/>
      <stop offset="1.0" stop-color="#4b2220" stop-opacity="0.6"/>
    </linearGradient>
    <linearGradient gradientTransform="matrix(0.0029, 0.0, 0.0, 0.0043, 146.55, 184.6)" gradientUnits="userSpaceOnUse" id="gradient21" spreadMethod="pad" x1="-819.2" x2="819.2">
      <stop offset="0.14901960784313725" stop-color="#e3afc7" stop-opacity="0.6"/>
      <stop offset="0.7843137254901961" stop-color="#964e4e" stop-opacity="0.6"/>
      <stop offset="1.0" stop-color="#4b2220" stop-opacity="0.6"/>
    </linearGradient>
    <linearGradient gradientTransform="matrix(0.0111, 0.0, 0.0, 0.0076, 156.95, 172.45)" gradientUnits="userSpaceOnUse" id="gradient22" spreadMethod="pad" x1="-819.2" x2="819.2">
      <stop offset="0.14901960784313725" stop-color="#e3afc7" stop-opacity="0.6"/>
      <stop offset="0.7843137254901961" stop-color="#964e4e" stop-opacity="0.6"/>
      <stop offset="1.0" stop-color="#4b2220" stop-opacity="0.6"/>
    </linearGradient>
    <linearGradient gradientTransform="matrix(-0.0254, 0.0573, -0.0603, -0.0268, 142.2, 112.75)" gradientUnits="userSpaceOnUse" id="gradient23" spreadMethod="pad" x1="-819.2" x2="819.2">
      <stop offset="0.0" stop-color="#455c79" stop-opacity="0.6"/>
      <stop offset="0.4549019607843137" stop-color="#192a37" stop-opacity="0.6"/>
      <stop offset="0.8666666666666667" stop-color="#00070e" stop-opacity="0.6"/>
    </linearGradient>
    <linearGradient gradientTransform="matrix(0.0327, 0.0449, -0.0537, 0.0392, 55.8, 96.8)" gradientUnits="userSpaceOnUse" id="gradient24" spreadMethod="pad" x1="-819.2" x2="819.2">
      <stop offset="0.0" stop-color="#34677c" stop-opacity="0.6"/>
      <stop offset="0.8666666666666667" stop-color="#101f2c" stop-opacity="0.6"/>
    </linearGradient>
    <linearGradient gradientTransform="matrix(0.1025, 0.0416, -0.0128, 0.0315, 91.05, 129.45)" gradientUnits="userSpaceOnUse" id="gradient25" spreadMethod="pad" x1="-819.2" x2="819.2">
      <stop offset="0.0" stop-color="#417f9f" stop-opacity="0.6"/>
      <stop offset="0.8666666666666667" stop-color="#101f2c" stop-opacity="0.6"/>
    </linearGradient>
    <linearGradient gradientTransform="matrix(-0.0505, -0.0503, 0.0301, -0.0302, 54.15, 146.85)" gradientUnits="userSpaceOnUse" id="gradient26" spreadMethod="pad" x1="-819.2" x2="819.2">
      <stop offset="0.0" stop-color="#193043" stop-opacity="0.6"/>
      <stop offset="0.8666666666666667" stop-color="#101f2c" stop-opacity="0.6"/>
    </linearGradient>
    <linearGradient gradientTransform="matrix(-0.0797, 0.0, 0.0, -0.0466, 139.2, 146.9)" gradientUnits="userSpaceOnUse" id="gradient27" spreadMethod="pad" x1="-819.2" x2="819.2">
      <stop offset="0.0" stop-color="#455c79" stop-opacity="0.6"/>
      <stop offset="0.4549019607843137" stop-color="#192a37" stop-opacity="0.6"/>
      <stop offset="0.8666666666666667" stop-color="#00070e" stop-opacity="0.6"/>
    </linearGradient>
    <linearGradient gradientTransform="matrix(0.0562, 0.0151, -0.0039, 0.0146, 93.35, 45.55)" gradientUnits="userSpaceOnUse" id="gradient28" spreadMethod="pad" x1="-819.2" x2="819.2">
      <stop offset="0.0" stop-color="#34677c" stop-opacity="0.6"/>
      <stop offset="0.8666666666666667" stop-color="#101f2c" stop-opacity="0.6"/>
    </linearGradient>
    <linearGradient gradientTransform="matrix(0.0272, 0.0, 0.0, 0.0276, 98.15, 25.1)" gradientUnits="userSpaceOnUse" id="gradient29" spreadMethod="pad" x1="-819.2" x2="819.2">
      <stop offset="0.0" stop-color="#417f9f" stop-opacity="0.6"/>
      <stop offset="0.8666666666666667" stop-color="#101f2c" stop-opacity="0.6"/>
    </linearGradient>
    <g id="sprite1" transform="matrix(1.0, 0.0, 0.0, 1.0, 6.4, 6.6)">
      <use height="35.0" transform="matrix(0.3057, 0.0, 0.0, 0.3057, 11.7335, 12.1501)" width="33.8" xlink:href="#shape2"/>
    </g>
    <g id="shape2" transform="matrix(1.0, 0.0, 0.0, 1.0, 16.9, 17.5)">
      <path d="M16.9 -0.35 Q16.9 3.15 14.7 5.65 15.05 6.85 15.05 8.25 15.05 12.1 12.35 14.8 9.65 17.5 5.85 17.5 0.05 17.5 -2.5 12.2 -4.9 13.8 -7.7 13.8 -11.5 13.8 -14.2 11.1 -16.9 8.4 -16.9 4.55 -16.9 1.2 -14.75 -1.4 -12.55 -3.95 -9.3 -4.5 -10.15 -6.3 -10.15 -8.35 -10.15 -12.15 -7.45 -14.8 -4.75 -17.5 -0.95 -17.5 2.6 -17.5 5.2 -15.2 7.8 -12.95 8.25 -9.55 11.85 -9.3 14.4 -6.65 16.9 -4.0 16.9 -0.35" fill="#ffe8f2" fill-opacity="0.0" fill-rule="evenodd" stroke="none"/>
    </g>
    <g id="sprite2" transform="matrix(1.0, 0.0, 0.0, 1.0, 24.75, 10.35)">
      <use height="97.35" transform="matrix(1.0, 0.0, 0.0, 1.0, -24.75, -10.35)" width="311.35" xlink:href="#shape3"/>
    </g>
    <g id="shape3" transform="matrix(1.0, 0.0, 0.0, 1.0, 24.75, 10.35)">
      <path d="M286.6 87.0 L-24.75 87.0 -24.75 -10.35 286.6 -10.35 286.6 87.0" fill="#cccccc" fill-opacity="0.0" fill-rule="evenodd" stroke="none"/>
    </g>
    <g id="shape4" transform="matrix(1.0, 0.0, 0.0, 1.0, 0.0, 0.0)">
      <path d="M555.5 0.5 L555.5 235.5 0.5 235.5 0.5 0.5 555.5 0.5 Z" fill="none" stroke="#000000" stroke-linecap="round" stroke-linejoin="round" stroke-width="1.0"/>
    </g>
  </defs>
</svg>
