<?xml version="1.0" encoding="UTF-8" standalone="no"?>
<svg xmlns:xlink="http://www.w3.org/1999/xlink" height="236.0px" width="556.0px" xmlns="http://www.w3.org/2000/svg">
  <g transform="matrix(1.0, 0.0, 0.0, 1.0, 0.0, 0.0)">
    <use height="48.2" transform="matrix(0.4589, -0.7949, 0.7949, 0.4589, 268.2664, 126.8084)" width="46.6" xlink:href="#sprite0"/>
    <use height="48.2" transform="matrix(1.1749, 2.0349, -2.0349, 1.1749, 178.6614, 49.9224)" width="46.6" xlink:href="#sprite0"/>
    <use height="48.2" transform="matrix(-0.8261, 1.4308, -1.4308, -0.8261, 415.8299, 60.495)" width="46.6" xlink:href="#sprite0"/>
    <use height="48.2" transform="matrix(1.3768, 0.0, 0.0, 1.3768, 288.3882, 64.8628)" width="46.6" xlink:href="#sprite0"/>
    <use height="48.2" transform="matrix(1.0097, -1.7488, 1.7488, 1.0097, 263.6457, 132.0785)" width="46.6" xlink:href="#sprite0"/>
    <use height="48.2" transform="matrix(1.6654, 2.8846, -2.8846, 1.6654, 272.1798, 0.3965)" width="46.6" xlink:href="#sprite0"/>
    <use height="73.0" transform="matrix(3.0E-4, 3.1971, -3.1971, 3.0E-4, 378.5114, -2156.0409)" width="1398.55" xlink:href="#sprite1"/>
    <use height="170.0" transform="matrix(1.6362, 0.0, 0.0, 1.4399, -1.4, -4.6)" width="341.6" xlink:href="#shape2"/>
    <use height="214.55" transform="matrix(1.0, 0.0, 0.0, 1.0, 119.45, 26.5)" width="303.1" xlink:href="#shape3"/>
    <use height="210.55" transform="matrix(1.1937, 0.6892, 0.553, -0.9579, 161.55, 317.3)" width="111.95" xlink:href="#shape4"/>
    <use height="97.35" transform="matrix(1.7857, 0.0, 0.0, 2.4138, -0.997, 0.017)" width="311.35" xlink:href="#sprite2"/>
    <use height="236.0" transform="matrix(1.0, 0.0, 0.0, 1.0, 0.0, 0.0)" width="556.0" xlink:href="#shape6"/>
  </g>
  <defs>
    <g id="sprite0" transform="matrix(1.0, 0.0, 0.0, 1.0, 6.4, 6.6)">
      <use height="35.0" transform="matrix(0.3057, 0.0, 0.0, 0.3057, 11.7335, 12.1501)" width="33.8" xlink:href="#shape0"/>
    </g>
    <g id="shape0" transform="matrix(1.0, 0.0, 0.0, 1.0, 16.9, 17.5)">
      <path d="M16.9 -0.35 Q16.9 3.15 14.7 5.65 15.05 6.85 15.05 8.25 15.05 12.1 12.35 14.8 9.65 17.5 5.85 17.5 0.05 17.5 -2.5 12.2 -4.9 13.8 -7.7 13.8 -11.5 13.8 -14.2 11.1 -16.9 8.4 -16.9 4.55 -16.9 1.2 -14.75 -1.4 -12.55 -3.95 -9.3 -4.5 -10.15 -6.3 -10.15 -8.35 -10.15 -12.15 -7.45 -14.8 -4.75 -17.5 -0.95 -17.5 2.6 -17.5 5.2 -15.2 7.8 -12.95 8.25 -9.55 11.85 -9.3 14.4 -6.65 16.9 -4.0 16.9 -0.35" fill="#ffe8f2" fill-opacity="0.0" fill-rule="evenodd" stroke="none"/>
    </g>
    <g id="sprite1" transform="matrix(1.0, 0.0, 0.0, 1.0, 478.0, 0.0)">
      <use height="73.0" transform="matrix(1.0, 0.0, 0.0, 1.0, 0.0, 0.0)" width="920.55" xlink:href="#shape1"/>
    </g>
    <g id="shape1" transform="matrix(1.0, 0.0, 0.0, 1.0, 239.05, 34.0)">
      <path d="M187.4 -33.7 L239.05 -33.55 213.8 24.0 206.15 23.95 Q208.3 27.0 202.45 34.0 L172.65 33.55 171.25 28.2 136.65 28.8 116.1 31.1 96.6 31.05 97.3 33.7 22.1 33.55 Q25.65 25.55 20.75 25.5 L-30.8 25.4 Q-24.5 24.75 -28.9 23.75 -33.35 22.7 -120.95 24.85 -118.45 28.2 -121.4 30.2 -124.4 32.2 -153.45 30.1 L-171.2 31.4 Q-175.25 31.75 -189.7 29.95 L-209.2 27.95 -229.4 26.9 Q-230.9 26.9 -228.3 25.9 L-222.15 23.7 Q-213.7 20.45 -222.0 20.45 L-239.05 20.4 -216.0 -32.15 -71.9 -31.8 Q-74.9 -29.9 -67.2 -31.65 L-58.95 -33.75 -27.85 -33.7 Q-28.3 -32.7 -28.1 -31.7 -27.8 -29.7 -24.75 -29.7 L26.85 -29.55 Q26.5 -30.3 26.75 -31.15 27.35 -32.9 30.65 -33.55 36.0 -34.5 59.2 -33.5 L59.5 -31.9 Q59.9 -30.05 60.65 -28.8 61.4 -27.55 72.7 -29.0 L83.8 -30.75 104.7 -30.7 Q113.2 -30.65 127.5 -28.65 141.9 -26.6 146.1 -26.6 153.75 -26.6 189.1 -27.15 190.6 -27.15 188.9 -28.15 186.15 -29.6 184.75 -30.4 179.1 -33.7 187.4 -33.7" fill="#000000" fill-rule="evenodd" stroke="none"/>
      <path d="M629.85 -28.7 L681.5 -28.55 656.25 29.0 648.6 28.95 Q650.75 32.0 644.9 39.0 L615.1 38.55 613.7 33.2 579.1 33.8 558.55 36.1 539.05 36.05 539.75 38.7 464.55 38.55 Q468.1 30.55 463.2 30.5 L411.65 30.4 Q417.95 29.75 413.55 28.75 409.1 27.7 321.5 29.85 324.0 33.2 321.05 35.2 318.05 37.2 289.0 35.1 L271.25 36.4 Q267.2 36.75 252.75 34.95 L233.25 32.95 213.05 31.9 Q211.55 31.9 214.15 30.9 L220.3 28.7 Q228.75 25.45 220.45 25.45 L203.4 25.4 226.45 -27.15 370.55 -26.8 Q367.55 -24.9 375.25 -26.65 L383.5 -28.75 414.6 -28.7 Q414.15 -27.7 414.35 -26.7 414.65 -24.7 417.7 -24.7 L469.3 -24.55 Q468.95 -25.3 469.2 -26.15 469.8 -27.9 473.1 -28.55 478.45 -29.5 501.65 -28.5 L501.95 -26.9 Q502.35 -25.05 503.1 -23.8 503.85 -22.55 515.15 -24.0 L526.25 -25.75 547.15 -25.7 Q555.65 -25.65 569.95 -23.65 L588.55 -21.6 Q596.2 -21.6 631.55 -22.15 633.05 -22.15 631.35 -23.15 L627.2 -25.4 Q621.55 -28.7 629.85 -28.7" fill="#000000" fill-rule="evenodd" stroke="none"/>
    </g>
    <g id="shape2" transform="matrix(1.0, 0.0, 0.0, 1.0, 0.0, 0.0)">
      <path d="M341.6 170.0 L0.0 170.0 0.0 0.0 341.6 0.0 341.6 170.0" fill="#ffffff" fill-opacity="0.92156863" fill-rule="evenodd" stroke="none"/>
    </g>
    <g id="shape3" transform="matrix(1.0, 0.0, 0.0, 1.0, -119.45, -26.5)">
      <path d="M315.55 155.85 Q315.25 157.2 313.85 157.25 312.35 157.25 312.05 155.85 309.35 145.0 307.05 140.1 303.75 133.3 298.1 130.4 296.55 129.5 297.3 128.0 298.05 126.45 299.65 127.05 311.3 131.85 312.5 130.95 313.05 130.65 313.2 127.7 L313.5 126.75 Q316.85 121.5 317.3 113.5 317.8 105.5 315.0 100.7 314.45 99.7 315.1 98.75 316.1 96.7 313.05 84.45 309.95 71.85 306.65 66.25 L305.45 64.25 Q304.4 62.45 298.45 61.85 290.25 61.15 287.85 57.4 278.0 61.0 266.0 62.55 250.65 64.5 244.6 60.5 L244.15 60.0 Q239.75 54.1 233.4 48.8 225.55 42.3 219.4 41.15 218.6 40.95 218.2 40.25 L218.1 40.05 Q217.7 39.05 218.35 38.3 219.75 36.35 225.9 32.5 231.75 28.9 231.95 28.0 232.2 26.6 233.65 26.5 235.15 26.5 235.45 27.95 236.75 34.05 245.15 41.05 253.5 48.0 261.4 49.45 267.15 50.5 269.2 47.3 270.1 45.9 271.55 46.6 L275.3 46.5 Q277.55 44.8 278.8 40.15 280.05 35.5 279.2 31.35 278.95 29.75 280.5 29.3 282.1 28.75 282.65 30.3 286.25 38.55 294.55 46.45 303.35 54.8 310.7 56.05 316.45 57.0 320.15 52.95 321.0 52.0 322.15 52.55 323.3 53.0 323.3 54.25 323.1 60.85 320.7 71.2 318.45 81.0 320.15 84.35 322.3 88.6 325.7 93.55 L328.9 97.65 Q329.75 98.8 328.85 99.85 328.2 100.95 326.8 100.5 L322.45 100.35 Q321.7 100.95 322.1 103.35 322.7 106.35 322.95 114.55 323.1 125.55 324.95 128.7 326.4 131.2 333.25 133.7 340.35 136.25 345.8 136.0 349.85 135.75 350.7 134.0 351.1 133.05 351.95 132.9 352.9 132.8 353.55 133.35 354.05 133.9 354.8 133.55 357.45 132.4 359.95 126.35 362.75 119.55 362.85 111.85 362.9 110.25 364.5 110.05 366.0 109.9 366.4 111.45 367.95 118.9 379.3 127.9 389.75 136.15 396.1 137.05 397.4 137.3 397.6 138.65 398.2 143.95 401.1 145.6 405.95 148.45 419.95 142.35 421.3 141.8 422.1 143.0 423.0 144.25 422.0 145.2 414.05 154.3 411.15 180.0 408.65 203.05 411.55 210.35 412.1 211.7 410.9 212.55 L409.4 212.7 Q407.05 212.8 396.15 220.25 L394.3 220.35 Q393.3 219.85 393.4 218.75 395.55 173.8 395.75 162.55 395.9 157.5 393.3 152.05 390.75 146.6 386.65 143.3 381.0 138.8 374.75 140.3 373.65 140.6 372.95 139.7 370.6 136.9 367.4 137.6 364.3 138.2 361.2 141.4 358.25 144.6 357.05 148.5 356.75 149.7 355.55 149.75 354.45 149.9 353.75 148.95 350.6 144.05 339.35 142.85 330.4 142.1 327.6 144.95 326.55 146.05 325.35 145.2 322.1 143.15 320.6 143.8 318.15 144.7 315.55 155.85" fill="#ffb1ff" fill-rule="evenodd" stroke="none"/>
      <path d="M395.15 218.8 Q397.4 174.0 397.6 162.65 397.75 153.2 390.95 145.1 383.65 136.3 374.3 138.5 369.8 133.25 363.35 137.3 357.5 141.05 355.35 147.95 351.95 142.8 340.95 141.3 330.05 139.85 326.35 143.7 321.0 140.3 318.35 143.2 316.15 145.65 313.85 155.45 311.1 144.25 308.6 139.15 305.05 131.9 298.9 128.8 309.35 133.05 312.0 132.9 314.85 132.8 315.0 127.75 318.55 122.2 319.1 113.8 319.65 105.15 316.55 99.8 318.4 97.6 314.6 83.15 310.8 68.65 307.25 63.9 305.95 60.75 298.1 60.0 290.25 59.25 288.7 55.1 279.85 58.75 266.85 60.55 251.3 62.75 245.65 58.95 241.15 52.9 234.65 47.5 226.4 40.6 219.7 39.4 221.1 37.6 227.6 33.65 233.3 30.15 233.65 28.35 234.65 33.0 239.6 38.3 244.3 43.4 250.6 47.05 257.15 50.85 262.4 51.45 268.2 52.05 270.65 48.25 275.9 51.0 279.25 44.15 282.3 37.8 281.0 31.05 286.5 43.8 299.3 52.7 313.65 62.85 321.45 54.2 321.3 60.4 318.5 72.85 316.55 81.3 318.55 85.15 320.7 89.55 324.3 94.55 L327.4 98.8 323.25 98.15 Q319.35 98.6 320.35 103.65 320.8 106.3 321.15 117.55 321.55 126.4 323.4 129.6 326.1 134.25 337.9 136.9 350.1 139.75 352.35 134.7 355.8 137.9 360.15 130.2 364.6 122.35 364.65 111.85 366.35 119.8 377.95 129.15 388.75 137.85 395.85 138.85 396.8 147.1 402.95 148.15 408.75 149.2 420.65 144.05 412.4 153.35 409.4 179.55 406.8 203.05 409.9 211.0 409.1 210.05 402.0 214.35 L395.15 218.8" fill="#ffffff" fill-rule="evenodd" stroke="none"/>
      <path d="M132.95 29.9 Q134.5 30.3 134.7 32.1 136.85 36.9 147.7 46.85 162.05 60.0 175.75 63.55 177.4 64.0 177.55 65.7 178.6 76.4 193.15 80.8 200.45 82.95 207.65 83.0 209.25 83.05 209.95 84.4 210.6 85.85 209.7 87.1 204.95 93.1 201.65 99.95 197.5 108.75 199.75 112.2 203.25 117.6 225.6 123.6 248.8 129.85 271.15 130.65 273.1 130.75 273.5 132.7 273.95 134.75 272.0 135.45 271.35 135.65 271.35 136.1 270.5 140.8 296.95 166.85 L303.65 173.45 Q305.05 174.85 303.95 176.55 303.0 178.25 301.05 177.6 292.75 174.75 285.8 176.25 279.9 177.6 276.45 181.5 271.25 187.4 274.4 193.7 275.4 195.8 273.55 196.9 269.5 199.5 277.75 229.4 L280.05 237.8 Q280.6 239.9 278.6 240.8 276.55 241.6 275.5 239.75 268.95 229.15 250.85 221.1 245.15 218.6 238.9 216.6 L233.7 215.15 Q231.55 214.6 231.8 212.5 231.95 210.25 234.1 210.15 L257.5 208.8 Q263.0 169.3 265.7 158.85 265.8 156.45 256.2 150.9 249.4 147.0 238.45 142.25 214.7 131.95 191.55 125.35 181.45 122.5 165.1 136.7 153.15 147.0 141.05 163.15 L136.6 169.35 Q135.25 170.9 133.45 169.85 L133.2 169.7 Q131.35 168.3 132.65 166.3 L136.55 160.9 Q151.3 138.0 138.5 126.45 137.15 125.1 138.05 123.35 139.0 121.65 140.9 122.15 155.55 125.9 165.75 119.4 174.9 113.55 177.3 99.85 179.5 87.3 156.7 70.8 140.6 59.2 120.9 50.8 119.8 50.4 119.55 49.3 119.25 48.3 119.8 47.35 127.3 34.3 129.5 31.45 131.25 29.3 132.95 29.9" fill="#ffb1ff" fill-rule="evenodd" stroke="none"/>
      <path d="M121.9 48.55 Q132.4 30.3 132.2 32.4 152.0 60.0 175.1 66.0 176.3 78.2 192.15 83.05 200.05 85.55 207.7 85.5 203.85 90.5 200.6 96.5 194.2 108.4 197.6 113.55 201.7 119.75 225.15 126.05 248.55 132.3 271.0 133.2 264.85 135.8 276.3 149.15 279.45 152.8 301.9 175.2 286.4 169.85 276.6 177.9 272.55 181.25 271.25 185.9 270.0 190.6 272.15 194.85 267.95 197.6 270.6 211.45 L277.6 238.45 Q270.7 227.1 251.85 218.75 245.9 216.15 239.5 214.15 L234.3 212.65 259.65 211.2 Q265.6 169.0 268.1 159.45 269.8 153.0 239.65 140.0 215.7 129.65 192.2 122.9 178.0 118.9 154.95 142.85 146.65 151.45 139.85 160.5 142.2 156.55 143.95 152.1 151.05 134.5 140.2 124.6 153.2 128.0 163.65 123.35 176.75 117.5 179.8 100.3 182.55 84.4 152.45 64.9 137.45 55.15 121.9 48.55" fill="#ffffff" fill-rule="evenodd" stroke="none"/>
    </g>
    <g id="shape4" transform="matrix(1.0, 0.0, 0.0, 1.0, 0.0, 0.0)">
      <path d="M111.8 14.0 Q112.25 15.2 111.25 16.0 105.2 21.1 102.5 29.7 99.85 38.3 102.7 43.6 103.15 44.45 102.65 45.35 102.25 46.15 101.2 46.25 87.2 47.2 74.5 65.75 L74.15 66.15 Q69.55 69.85 69.65 72.3 69.8 74.15 74.85 77.15 L77.3 78.7 Q78.5 79.4 78.05 80.75 77.55 82.05 76.15 81.95 73.05 81.65 65.0 89.5 59.7 94.8 55.8 97.75 L55.7 97.85 Q54.3 98.9 53.2 97.55 52.15 96.25 53.4 95.1 57.1 91.85 58.65 88.15 60.0 84.95 59.35 82.7 L58.9 82.3 Q57.0 81.75 52.65 83.65 46.85 86.2 39.35 92.35 32.85 97.65 32.85 107.4 L32.85 108.6 34.5 115.9 Q36.9 120.1 45.7 126.75 46.4 127.3 46.4 128.2 L46.4 128.45 Q45.9 132.0 42.75 140.5 39.3 149.55 39.3 153.05 L39.45 154.6 39.45 155.15 Q39.0 158.55 18.55 190.15 7.7 206.9 6.4 209.5 5.6 211.05 4.0 210.35 2.95 209.8 2.95 208.7 L3.15 207.95 24.7 164.8 Q28.2 155.9 28.2 148.7 28.2 145.15 27.15 142.85 25.95 140.25 23.3 139.3 22.4 139.05 22.15 138.1 L22.1 137.6 Q22.1 137.0 22.5 136.5 27.35 130.65 27.35 125.65 27.35 123.4 26.3 122.35 24.65 120.85 21.9 123.2 18.85 125.9 17.9 137.45 16.8 149.65 14.15 155.05 13.4 156.75 11.75 155.9 10.75 155.45 10.75 154.3 L10.95 153.5 Q12.05 151.1 12.05 146.25 12.05 140.0 10.55 132.5 4.35 134.75 3.2 135.6 L3.1 135.65 3.05 135.7 3.05 135.65 Q1.5 136.9 0.45 135.65 0.0 135.2 0.0 134.45 0.0 133.7 0.7 133.0 L0.75 132.95 Q4.6 129.35 8.0 125.25 11.7 120.85 16.1 111.75 14.95 94.1 13.15 89.8 L13.0 89.1 Q13.0 88.5 13.4 88.0 18.6 81.2 18.6 75.5 18.6 73.45 17.85 71.65 15.25 65.1 4.8 63.55 3.6 63.4 3.35 62.3 L3.25 61.8 Q3.25 60.95 3.9 60.4 9.55 55.65 12.05 52.4 15.5 47.9 17.55 41.1 17.8 40.3 18.6 39.95 23.0 38.2 26.1 35.35 29.6 32.1 29.9 28.75 L29.9 28.25 Q29.9 22.65 20.4 16.95 19.5 16.5 19.5 15.4 L19.6 14.8 Q20.15 13.4 21.6 13.65 26.35 14.5 28.3 12.4 31.3 9.2 29.5 2.25 29.3 1.35 29.95 0.6 30.6 -0.1 31.6 0.05 L45.6 2.6 Q46.4 2.8 46.75 3.35 L47.1 4.35 47.05 4.7 Q46.55 7.4 46.55 10.75 46.55 15.95 48.05 19.55 L48.2 20.25 Q48.2 21.45 47.1 21.9 43.9 23.3 33.35 37.45 23.55 50.6 22.05 54.05 L21.85 55.15 Q21.85 60.25 29.9 71.7 L30.25 72.7 30.0 73.6 Q29.0 75.4 29.0 77.75 L29.15 79.05 30.05 77.6 Q30.65 76.8 31.6 76.9 32.55 76.9 33.05 77.8 33.4 78.35 34.5 78.25 38.5 77.9 44.65 72.1 51.3 65.75 53.9 58.7 54.3 57.5 55.6 57.5 56.85 57.5 57.3 58.7 58.0 60.85 60.05 61.0 63.7 61.2 69.0 56.8 74.25 52.35 76.7 47.15 77.0 46.5 77.65 46.25 85.7 43.1 88.15 36.2 89.65 31.95 89.65 21.6 L89.75 14.4 Q89.75 12.7 91.55 12.7 L110.1 12.8 Q111.4 12.9 111.8 14.0" fill="#ff00ff" fill-rule="evenodd" stroke="none"/>
      <path d="M90.65 33.85 Q91.35 30.35 91.4 24.45 L91.55 14.5 110.1 14.6 Q103.45 20.25 100.7 29.45 97.95 38.55 101.1 44.45 86.2 45.45 73.0 64.75 65.85 70.6 68.75 74.65 69.7 76.05 72.25 77.65 L76.3 80.15 Q72.6 79.85 66.65 85.4 L54.6 96.45 Q58.5 92.95 60.25 88.95 61.95 85.1 61.05 82.2 60.15 79.15 54.1 81.15 47.4 83.4 38.2 90.95 30.55 97.2 31.1 108.8 L31.1 110.75 Q31.2 112.95 31.75 114.4 31.15 111.05 31.1 108.8 L32.8 116.6 Q35.45 121.3 44.6 128.2 44.15 131.5 40.15 142.2 36.9 150.95 37.65 154.95 37.3 157.8 22.2 181.25 6.1 206.2 4.8 208.6 L26.35 165.55 Q28.75 159.6 29.65 153.15 31.45 140.2 23.9 137.6 31.05 128.9 28.7 122.85 27.75 120.4 25.5 120.05 23.2 119.7 20.75 121.85 17.15 125.0 16.2 135.95 15.15 148.2 12.9 153.6 14.55 149.15 13.5 139.6 L11.9 130.1 2.05 134.2 Q4.85 131.85 9.4 126.4 12.25 123.0 15.35 117.2 L17.9 112.1 Q16.7 93.55 14.8 89.1 22.7 78.85 19.55 71.0 16.5 63.45 5.05 61.8 10.95 56.8 13.65 53.2 17.15 48.55 19.25 41.6 28.6 37.9 31.1 31.4 34.25 23.05 21.3 15.4 30.05 17.0 31.55 9.55 32.25 5.85 31.25 1.8 L45.3 4.35 Q43.55 13.5 46.4 20.25 42.7 21.85 31.85 36.4 22.0 49.65 20.4 53.3 18.25 58.3 28.45 72.7 26.3 76.55 28.45 85.25 30.0 80.75 31.5 78.65 32.65 80.7 35.95 79.8 39.05 79.0 42.95 75.95 52.1 68.85 55.55 59.3 57.75 65.7 66.3 60.85 74.45 56.2 78.3 47.9 88.55 43.9 90.65 33.85" fill="#ffffff" fill-rule="evenodd" stroke="none"/>
    </g>
    <g id="sprite2" transform="matrix(1.0, 0.0, 0.0, 1.0, 24.75, 10.35)">
      <use height="97.35" transform="matrix(1.0, 0.0, 0.0, 1.0, -24.75, -10.35)" width="311.35" xlink:href="#shape5"/>
    </g>
    <g id="shape5" transform="matrix(1.0, 0.0, 0.0, 1.0, 24.75, 10.35)">
      <path d="M286.6 87.0 L-24.75 87.0 -24.75 -10.35 286.6 -10.35 286.6 87.0" fill="#cccccc" fill-opacity="0.0" fill-rule="evenodd" stroke="none"/>
    </g>
    <g id="shape6" transform="matrix(1.0, 0.0, 0.0, 1.0, 0.0, 0.0)">
      <path d="M555.5 0.5 L555.5 235.5 0.5 235.5 0.5 0.5 555.5 0.5 Z" fill="none" stroke="#000000" stroke-linecap="round" stroke-linejoin="round" stroke-width="1.0"/>
    </g>
  </defs>
</svg>
