<?xml version="1.0" encoding="UTF-8" standalone="no"?>
<svg xmlns:xlink="http://www.w3.org/1999/xlink" height="236.0px" width="556.0px" xmlns="http://www.w3.org/2000/svg">
  <g transform="matrix(1.0, 0.0, 0.0, 1.0, 0.0, 0.0)">
    <use height="48.2" transform="matrix(0.4589, -0.7949, 0.7949, 0.4589, 268.2664, 126.8084)" width="46.6" xlink:href="#sprite0"/>
    <use height="48.2" transform="matrix(1.1749, 2.0349, -2.0349, 1.1749, 178.6614, 49.9224)" width="46.6" xlink:href="#sprite0"/>
    <use height="48.2" transform="matrix(-0.8261, 1.4308, -1.4308, -0.8261, 415.8299, 60.495)" width="46.6" xlink:href="#sprite0"/>
    <use height="48.2" transform="matrix(1.3768, 0.0, 0.0, 1.3768, 288.3882, 64.8628)" width="46.6" xlink:href="#sprite0"/>
    <use height="48.2" transform="matrix(1.0097, -1.7488, 1.7488, 1.0097, 263.6457, 132.0785)" width="46.6" xlink:href="#sprite0"/>
    <use height="48.2" transform="matrix(1.6654, 2.8846, -2.8846, 1.6654, 272.1798, 0.3965)" width="46.6" xlink:href="#sprite0"/>
    <use height="73.0" transform="matrix(3.0E-4, 3.1971, -3.1971, 3.0E-4, 378.5114, -2156.0409)" width="1398.55" xlink:href="#sprite1"/>
    <use height="211.6" transform="matrix(1.0, 0.0, 0.0, 1.0, 208.4, 16.4)" width="166.65" xlink:href="#shape2"/>
    <use height="97.35" transform="matrix(1.7857, 0.0, 0.0, 2.4138, -0.997, 0.017)" width="311.35" xlink:href="#sprite2"/>
    <use height="236.0" transform="matrix(1.0, 0.0, 0.0, 1.0, 0.0, 0.0)" width="556.0" xlink:href="#shape4"/>
  </g>
  <defs>
    <g id="sprite0" transform="matrix(1.0, 0.0, 0.0, 1.0, 6.4, 6.6)">
      <use height="35.0" transform="matrix(0.3057, 0.0, 0.0, 0.3057, 11.7335, 12.1501)" width="33.8" xlink:href="#shape0"/>
    </g>
    <g id="shape0" transform="matrix(1.0, 0.0, 0.0, 1.0, 16.9, 17.5)">
      <path d="M16.9 -0.35 Q16.9 3.15 14.7 5.65 15.05 6.85 15.05 8.25 15.05 12.1 12.35 14.8 9.65 17.5 5.85 17.5 0.05 17.5 -2.5 12.2 -4.9 13.8 -7.7 13.8 -11.5 13.8 -14.2 11.1 -16.9 8.4 -16.9 4.55 -16.9 1.2 -14.75 -1.4 -12.55 -3.95 -9.3 -4.5 -10.15 -6.3 -10.15 -8.35 -10.15 -12.15 -7.45 -14.8 -4.75 -17.5 -0.95 -17.5 2.6 -17.5 5.2 -15.2 7.8 -12.95 8.25 -9.55 11.85 -9.3 14.4 -6.65 16.9 -4.0 16.9 -0.35" fill="#ffe8f2" fill-opacity="0.0" fill-rule="evenodd" stroke="none"/>
    </g>
    <g id="sprite1" transform="matrix(1.0, 0.0, 0.0, 1.0, 478.0, 0.0)">
      <use height="73.0" transform="matrix(1.0, 0.0, 0.0, 1.0, 0.0, 0.0)" width="920.55" xlink:href="#shape1"/>
    </g>
    <g id="shape1" transform="matrix(1.0, 0.0, 0.0, 1.0, 239.05, 34.0)">
      <path d="M187.4 -33.7 L239.05 -33.55 213.8 24.0 206.15 23.95 Q208.3 27.0 202.45 34.0 L172.65 33.55 171.25 28.2 136.65 28.8 116.1 31.1 96.6 31.05 97.3 33.7 22.1 33.55 Q25.65 25.55 20.75 25.5 L-30.8 25.4 Q-24.5 24.75 -28.9 23.75 -33.35 22.7 -120.95 24.85 -118.45 28.2 -121.4 30.2 -124.4 32.2 -153.45 30.1 L-171.2 31.4 Q-175.25 31.75 -189.7 29.95 L-209.2 27.95 -229.4 26.9 Q-230.9 26.9 -228.3 25.9 L-222.15 23.7 Q-213.7 20.45 -222.0 20.45 L-239.05 20.4 -216.0 -32.15 -71.9 -31.8 Q-74.9 -29.9 -67.2 -31.65 L-58.95 -33.75 -27.85 -33.7 Q-28.3 -32.7 -28.1 -31.7 -27.8 -29.7 -24.75 -29.7 L26.85 -29.55 Q26.5 -30.3 26.75 -31.15 27.35 -32.9 30.65 -33.55 36.0 -34.5 59.2 -33.5 L59.5 -31.9 Q59.9 -30.05 60.65 -28.8 61.4 -27.55 72.7 -29.0 L83.8 -30.75 104.7 -30.7 Q113.2 -30.65 127.5 -28.65 141.9 -26.6 146.1 -26.6 153.75 -26.6 189.1 -27.15 190.6 -27.15 188.9 -28.15 186.15 -29.6 184.75 -30.4 179.1 -33.7 187.4 -33.7" fill="#000000" fill-rule="evenodd" stroke="none"/>
      <path d="M629.85 -28.7 L681.5 -28.55 656.25 29.0 648.6 28.95 Q650.75 32.0 644.9 39.0 L615.1 38.55 613.7 33.2 579.1 33.8 558.55 36.1 539.05 36.05 539.75 38.7 464.55 38.55 Q468.1 30.55 463.2 30.5 L411.65 30.4 Q417.95 29.75 413.55 28.75 409.1 27.7 321.5 29.85 324.0 33.2 321.05 35.2 318.05 37.2 289.0 35.1 L271.25 36.4 Q267.2 36.75 252.75 34.95 L233.25 32.95 213.05 31.9 Q211.55 31.9 214.15 30.9 L220.3 28.7 Q228.75 25.45 220.45 25.45 L203.4 25.4 226.45 -27.15 370.55 -26.8 Q367.55 -24.9 375.25 -26.65 L383.5 -28.75 414.6 -28.7 Q414.15 -27.7 414.35 -26.7 414.65 -24.7 417.7 -24.7 L469.3 -24.55 Q468.95 -25.3 469.2 -26.15 469.8 -27.9 473.1 -28.55 478.45 -29.5 501.65 -28.5 L501.95 -26.9 Q502.35 -25.05 503.1 -23.8 503.85 -22.55 515.15 -24.0 L526.25 -25.75 547.15 -25.7 Q555.65 -25.65 569.95 -23.65 L588.55 -21.6 Q596.2 -21.6 631.55 -22.15 633.05 -22.15 631.35 -23.15 L627.2 -25.4 Q621.55 -28.7 629.85 -28.7" fill="#000000" fill-rule="evenodd" stroke="none"/>
    </g>
    <g id="shape2" transform="matrix(1.0, 0.0, 0.0, 1.0, -208.4, -16.4)">
      <path d="M375.05 24.65 Q375.0 26.3 373.35 26.95 369.25 30.3 362.45 43.35 353.45 60.55 353.6 74.7 353.55 76.45 351.95 77.05 341.95 80.85 341.45 96.05 341.25 103.65 343.0 110.6 343.4 112.1 342.25 113.2 341.05 114.15 339.65 113.6 332.55 110.6 325.1 109.2 315.5 107.5 312.8 110.5 308.55 115.3 308.5 138.45 308.5 162.5 313.5 184.25 313.85 186.2 312.05 187.05 310.3 187.95 309.05 186.35 308.6 185.75 308.2 185.85 303.45 186.25 285.2 218.55 L280.55 226.7 Q279.5 228.5 277.65 227.8 275.75 227.3 275.85 225.3 276.5 216.5 273.2 210.25 270.4 204.85 265.75 202.55 258.7 199.0 253.4 203.7 251.6 205.2 250.05 203.7 246.55 200.5 219.75 216.15 L212.2 220.6 Q210.35 221.65 209.0 220.0 207.7 218.2 209.2 216.65 217.75 207.65 220.8 188.05 221.75 181.9 222.05 175.35 L222.15 169.95 Q222.15 167.75 224.2 167.4 226.4 167.05 227.05 169.1 L234.45 191.25 Q274.05 186.4 284.85 186.3 287.2 185.75 290.05 175.1 292.1 167.5 293.8 155.65 297.55 130.1 297.95 106.0 298.15 95.5 280.15 83.35 267.1 74.5 248.45 67.0 244.2 65.7 241.25 64.3 239.45 63.4 239.95 61.4 L240.05 61.1 Q240.95 58.95 243.2 59.7 L249.45 62.05 Q275.35 70.4 283.2 55.05 284.1 53.4 286.05 53.8 287.95 54.3 287.9 56.25 288.1 71.35 297.0 79.5 305.05 86.85 318.9 85.65 331.6 84.5 341.6 58.2 348.7 39.65 351.7 18.5 351.8 17.3 352.8 16.75 353.7 16.2 354.8 16.5 369.35 20.4 372.6 21.75 375.15 22.85 375.05 24.65" fill="#ffb1ff" fill-rule="evenodd" stroke="none"/>
      <path d="M354.15 18.85 Q374.45 24.3 372.45 24.6 350.8 50.85 351.05 74.7 339.55 79.1 339.0 95.6 338.65 103.9 340.65 111.3 334.85 108.85 328.2 107.3 315.1 104.2 310.95 108.8 306.0 114.35 306.0 138.6 306.05 162.85 311.0 184.75 306.85 179.5 296.9 194.0 294.2 197.95 278.35 225.45 279.55 209.1 269.25 201.7 264.95 198.7 260.1 198.65 255.25 198.65 251.7 201.8 247.95 198.5 235.3 204.65 233.5 205.5 211.0 218.35 220.2 208.8 223.35 188.4 224.3 182.0 224.6 175.3 L224.65 169.9 232.7 194.0 Q274.95 188.85 284.85 188.8 291.5 188.7 296.25 156.3 300.0 130.45 300.45 106.0 300.75 91.25 271.6 75.2 261.15 69.35 250.6 65.1 255.05 66.4 259.8 67.0 278.65 69.25 285.4 56.2 285.5 69.65 292.65 78.5 301.75 89.7 319.15 88.15 335.15 86.7 346.3 52.6 351.8 35.6 354.15 18.85" fill="#ffffff" fill-rule="evenodd" stroke="none"/>
    </g>
    <g id="sprite2" transform="matrix(1.0, 0.0, 0.0, 1.0, 24.75, 10.35)">
      <use height="97.35" transform="matrix(1.0, 0.0, 0.0, 1.0, -24.75, -10.35)" width="311.35" xlink:href="#shape3"/>
    </g>
    <g id="shape3" transform="matrix(1.0, 0.0, 0.0, 1.0, 24.75, 10.35)">
      <path d="M286.6 87.0 L-24.75 87.0 -24.75 -10.35 286.6 -10.35 286.6 87.0" fill="#cccccc" fill-opacity="0.0" fill-rule="evenodd" stroke="none"/>
    </g>
    <g id="shape4" transform="matrix(1.0, 0.0, 0.0, 1.0, 0.0, 0.0)">
      <path d="M555.5 0.5 L555.5 235.5 0.5 235.5 0.5 0.5 555.5 0.5 Z" fill="none" stroke="#000000" stroke-linecap="round" stroke-linejoin="round" stroke-width="1.0"/>
    </g>
  </defs>
</svg>
