<?xml version="1.0" encoding="UTF-8" standalone="no"?>
<svg xmlns:xlink="http://www.w3.org/1999/xlink" height="236.0px" width="556.0px" xmlns="http://www.w3.org/2000/svg">
  <g transform="matrix(1.0, 0.0, 0.0, 1.0, 0.0, 0.0)">
    <use height="48.2" transform="matrix(0.4589, -0.7949, 0.7949, 0.4589, 268.2664, 126.8084)" width="46.6" xlink:href="#sprite0"/>
    <use height="48.2" transform="matrix(1.1749, 2.0349, -2.0349, 1.1749, 178.6614, 49.9224)" width="46.6" xlink:href="#sprite0"/>
    <use height="48.2" transform="matrix(-0.8261, 1.4308, -1.4308, -0.8261, 415.8299, 60.495)" width="46.6" xlink:href="#sprite0"/>
    <use height="48.2" transform="matrix(1.3768, 0.0, 0.0, 1.3768, 288.3882, 64.8628)" width="46.6" xlink:href="#sprite0"/>
    <use height="48.2" transform="matrix(1.0097, -1.7488, 1.7488, 1.0097, 263.6457, 132.0785)" width="46.6" xlink:href="#sprite0"/>
    <use height="48.2" transform="matrix(1.6654, 2.8846, -2.8846, 1.6654, 272.1798, 0.3965)" width="46.6" xlink:href="#sprite0"/>
    <use height="73.0" transform="matrix(3.0E-4, 3.1971, -3.1971, 3.0E-4, 378.5114, -2156.0409)" width="1398.55" xlink:href="#sprite1"/>
    <use height="249.95" transform="matrix(1.0, 0.0, 0.0, 1.0, 118.9, 34.3)" width="125.25" xlink:href="#shape2"/>
    <use height="97.35" transform="matrix(1.7857, 0.0, 0.0, 2.4138, -0.997, 0.017)" width="311.35" xlink:href="#sprite2"/>
    <use height="236.0" transform="matrix(1.0, 0.0, 0.0, 1.0, 0.0, 0.0)" width="556.0" xlink:href="#shape4"/>
  </g>
  <defs>
    <g id="sprite0" transform="matrix(1.0, 0.0, 0.0, 1.0, 6.4, 6.6)">
      <use height="35.0" transform="matrix(0.3057, 0.0, 0.0, 0.3057, 11.7335, 12.1501)" width="33.8" xlink:href="#shape0"/>
    </g>
    <g id="shape0" transform="matrix(1.0, 0.0, 0.0, 1.0, 16.9, 17.5)">
      <path d="M16.9 -0.35 Q16.9 3.15 14.7 5.65 15.05 6.85 15.05 8.25 15.05 12.1 12.35 14.8 9.65 17.5 5.85 17.5 0.05 17.5 -2.5 12.2 -4.9 13.8 -7.7 13.8 -11.5 13.8 -14.2 11.1 -16.9 8.4 -16.9 4.55 -16.9 1.2 -14.75 -1.4 -12.55 -3.95 -9.3 -4.5 -10.15 -6.3 -10.15 -8.35 -10.15 -12.15 -7.45 -14.8 -4.75 -17.5 -0.95 -17.5 2.6 -17.5 5.2 -15.2 7.8 -12.95 8.25 -9.55 11.85 -9.3 14.4 -6.65 16.9 -4.0 16.9 -0.35" fill="#ffe8f2" fill-opacity="0.0" fill-rule="evenodd" stroke="none"/>
    </g>
    <g id="sprite1" transform="matrix(1.0, 0.0, 0.0, 1.0, 478.0, 0.0)">
      <use height="73.0" transform="matrix(1.0, 0.0, 0.0, 1.0, 0.0, 0.0)" width="920.55" xlink:href="#shape1"/>
    </g>
    <g id="shape1" transform="matrix(1.0, 0.0, 0.0, 1.0, 239.05, 34.0)">
      <path d="M187.4 -33.7 L239.05 -33.55 213.8 24.0 206.15 23.95 Q208.3 27.0 202.45 34.0 L172.65 33.55 171.25 28.2 136.65 28.8 116.1 31.1 96.6 31.05 97.3 33.7 22.1 33.55 Q25.65 25.55 20.75 25.5 L-30.8 25.4 Q-24.5 24.75 -28.9 23.75 -33.35 22.7 -120.95 24.85 -118.45 28.2 -121.4 30.2 -124.4 32.2 -153.45 30.1 L-171.2 31.4 Q-175.25 31.75 -189.7 29.95 L-209.2 27.95 -229.4 26.9 Q-230.9 26.9 -228.3 25.9 L-222.15 23.7 Q-213.7 20.45 -222.0 20.45 L-239.05 20.4 -216.0 -32.15 -71.9 -31.8 Q-74.9 -29.9 -67.2 -31.65 L-58.95 -33.75 -27.85 -33.7 Q-28.3 -32.7 -28.1 -31.7 -27.8 -29.7 -24.75 -29.7 L26.85 -29.55 Q26.5 -30.3 26.75 -31.15 27.35 -32.9 30.65 -33.55 36.0 -34.5 59.2 -33.5 L59.5 -31.9 Q59.9 -30.05 60.65 -28.8 61.4 -27.55 72.7 -29.0 L83.8 -30.75 104.7 -30.7 Q113.2 -30.65 127.5 -28.65 141.9 -26.6 146.1 -26.6 153.75 -26.6 189.1 -27.15 190.6 -27.15 188.9 -28.15 186.15 -29.6 184.75 -30.4 179.1 -33.7 187.4 -33.7" fill="#000000" fill-rule="evenodd" stroke="none"/>
      <path d="M629.85 -28.7 L681.5 -28.55 656.25 29.0 648.6 28.95 Q650.75 32.0 644.9 39.0 L615.1 38.55 613.7 33.2 579.1 33.8 558.55 36.1 539.05 36.05 539.75 38.7 464.55 38.55 Q468.1 30.55 463.2 30.5 L411.65 30.4 Q417.95 29.75 413.55 28.75 409.1 27.7 321.5 29.85 324.0 33.2 321.05 35.2 318.05 37.2 289.0 35.1 L271.25 36.4 Q267.2 36.75 252.75 34.95 L233.25 32.95 213.05 31.9 Q211.55 31.9 214.15 30.9 L220.3 28.7 Q228.75 25.45 220.45 25.45 L203.4 25.4 226.45 -27.15 370.55 -26.8 Q367.55 -24.9 375.25 -26.65 L383.5 -28.75 414.6 -28.7 Q414.15 -27.7 414.35 -26.7 414.65 -24.7 417.7 -24.7 L469.3 -24.55 Q468.95 -25.3 469.2 -26.15 469.8 -27.9 473.1 -28.55 478.45 -29.5 501.65 -28.5 L501.95 -26.9 Q502.35 -25.05 503.1 -23.8 503.85 -22.55 515.15 -24.0 L526.25 -25.75 547.15 -25.7 Q555.65 -25.65 569.95 -23.65 L588.55 -21.6 Q596.2 -21.6 631.55 -22.15 633.05 -22.15 631.35 -23.15 L627.2 -25.4 Q621.55 -28.7 629.85 -28.7" fill="#000000" fill-rule="evenodd" stroke="none"/>
    </g>
    <g id="shape2" transform="matrix(1.0, 0.0, 0.0, 1.0, -118.9, -34.3)">
      <path d="M217.6 131.05 Q218.5 130.05 219.8 130.7 221.1 131.4 220.65 132.8 217.55 143.6 217.15 148.95 216.6 156.5 220.0 161.85 220.9 163.35 219.5 164.35 218.1 165.3 217.0 163.95 209.35 154.0 207.8 154.1 207.15 154.1 205.55 156.6 L204.85 157.25 Q199.3 160.15 194.95 166.8 190.5 173.5 190.5 179.1 190.5 180.25 189.45 180.75 187.55 182.05 184.1 194.15 180.5 206.6 180.5 213.1 L180.55 215.5 Q180.55 217.55 185.45 221.0 192.2 225.75 192.35 230.2 202.7 231.95 213.9 236.65 228.15 242.6 231.35 249.1 L231.55 249.7 Q232.4 257.1 235.25 264.85 238.8 274.4 243.5 278.45 244.15 279.05 244.15 279.85 L244.15 280.05 Q243.95 281.1 243.05 281.45 240.85 282.45 233.6 282.7 226.75 282.85 226.15 283.6 225.2 284.7 223.9 284.0 222.6 283.3 223.05 281.85 224.95 275.95 221.2 265.65 217.45 255.45 211.35 250.25 206.9 246.5 203.5 248.25 202.05 249.0 201.15 247.65 199.95 245.7 197.85 245.9 195.0 246.25 191.6 249.65 188.15 253.05 186.85 257.0 186.3 258.6 184.7 258.15 183.05 257.85 183.3 256.25 184.35 247.3 181.1 236.3 177.65 224.65 171.85 219.9 167.35 216.2 162.2 217.85 161.0 218.3 160.25 217.25 159.45 216.25 160.15 215.15 163.6 209.6 170.85 201.8 177.65 194.45 177.9 190.65 178.15 185.9 177.65 179.95 L177.0 174.8 Q176.8 173.4 178.1 172.9 179.25 172.3 180.2 173.4 182.35 175.95 183.9 175.7 184.85 175.5 185.7 173.25 186.65 170.35 190.55 163.1 195.9 153.5 195.9 149.85 195.9 147.0 191.2 141.4 186.35 135.7 181.5 133.15 177.85 131.3 176.25 132.45 L174.6 132.7 Q173.75 132.4 173.45 131.55 173.25 130.8 172.5 130.75 169.6 130.4 164.4 134.4 158.55 138.9 154.65 145.55 153.8 146.85 152.35 146.25 150.95 145.65 151.4 144.05 153.75 136.9 148.45 123.4 143.55 111.0 138.5 107.1 137.45 106.25 137.95 104.9 140.05 100.05 138.4 97.2 135.65 92.25 120.5 90.55 119.0 90.35 118.9 88.9 118.8 87.4 120.1 87.0 131.55 83.2 146.9 62.35 160.55 43.65 161.7 35.8 161.9 34.4 163.4 34.3 164.15 34.3 164.75 34.9 166.9 36.0 180.0 34.95 181.2 34.85 181.65 35.8 182.3 36.8 181.65 37.7 157.3 75.55 151.5 85.15 148.9 89.45 148.4 95.5 147.9 101.5 149.8 106.35 152.4 113.1 158.55 114.95 159.65 115.25 159.85 116.35 160.45 119.95 163.6 120.95 L170.85 120.7 Q175.05 119.45 178.0 116.65 178.85 115.8 179.9 116.35 180.95 116.7 181.05 117.9 181.35 123.75 190.55 130.4 197.9 135.55 201.75 134.45 203.2 134.05 203.8 135.4 205.65 138.8 207.2 138.95 209.85 139.4 217.6 131.05" fill="#ffb1ff" fill-rule="evenodd" stroke="none"/>
      <path d="M180.15 36.75 Q155.8 74.45 150.0 84.15 145.1 92.25 146.95 102.65 148.9 113.95 158.05 116.7 159.35 123.45 166.95 123.2 173.9 122.9 179.25 118.0 179.6 124.2 188.35 131.0 197.05 137.7 202.2 136.15 205.15 141.75 208.85 140.6 212.0 139.55 218.9 132.3 215.65 143.35 215.3 149.0 214.75 157.1 218.45 162.8 211.6 153.95 209.2 152.7 206.75 151.35 204.05 155.7 198.2 158.65 193.55 165.65 188.7 172.9 188.7 179.1 186.05 180.1 182.1 194.5 178.15 208.9 178.8 214.8 178.4 218.2 184.85 222.8 191.2 227.35 190.5 231.7 200.05 233.0 212.15 237.9 226.65 243.8 229.7 249.9 230.55 257.45 233.5 265.35 237.2 275.45 242.35 279.85 240.3 280.7 232.7 280.85 226.0 281.05 224.8 282.45 226.25 277.95 224.6 270.85 223.1 264.05 219.5 257.75 215.75 251.2 211.45 248.1 206.75 244.6 202.7 246.7 199.55 241.7 193.2 245.95 187.4 249.9 185.15 256.4 186.7 242.6 180.15 228.5 172.8 212.55 161.65 216.15 164.95 210.85 173.6 201.5 179.5 195.1 179.7 190.8 179.95 185.9 179.4 179.8 L178.8 174.55 182.1 177.15 Q185.7 178.75 187.4 173.9 188.3 171.3 193.6 161.4 197.7 153.55 197.7 149.85 197.7 144.5 188.85 136.3 179.65 127.75 175.2 131.0 173.8 126.5 166.15 131.0 158.35 135.55 153.1 144.6 155.65 136.9 150.2 122.95 145.25 110.0 139.6 105.65 142.85 98.05 138.05 94.0 133.55 90.25 120.65 88.75 132.5 84.75 148.15 63.6 162.2 44.55 163.5 36.1 163.7 37.35 172.0 37.15 L180.15 36.75" fill="#ffffff" fill-rule="evenodd" stroke="none"/>
    </g>
    <g id="sprite2" transform="matrix(1.0, 0.0, 0.0, 1.0, 24.75, 10.35)">
      <use height="97.35" transform="matrix(1.0, 0.0, 0.0, 1.0, -24.75, -10.35)" width="311.35" xlink:href="#shape3"/>
    </g>
    <g id="shape3" transform="matrix(1.0, 0.0, 0.0, 1.0, 24.75, 10.35)">
      <path d="M286.6 87.0 L-24.75 87.0 -24.75 -10.35 286.6 -10.35 286.6 87.0" fill="#cccccc" fill-opacity="0.0" fill-rule="evenodd" stroke="none"/>
    </g>
    <g id="shape4" transform="matrix(1.0, 0.0, 0.0, 1.0, 0.0, 0.0)">
      <path d="M555.5 0.5 L555.5 235.5 0.5 235.5 0.5 0.5 555.5 0.5 Z" fill="none" stroke="#000000" stroke-linecap="round" stroke-linejoin="round" stroke-width="1.0"/>
    </g>
  </defs>
</svg>
