<?xml version="1.0" encoding="UTF-8" standalone="no"?>
<svg xmlns:xlink="http://www.w3.org/1999/xlink" height="236.0px" width="556.0px" xmlns="http://www.w3.org/2000/svg">
  <g transform="matrix(1.0, 0.0, 0.0, 1.0, 0.0, 0.0)">
    <use height="48.2" transform="matrix(0.4589, -0.7949, 0.7949, 0.4589, 268.2664, 126.8084)" width="46.6" xlink:href="#sprite0"/>
    <use height="48.2" transform="matrix(1.1749, 2.0349, -2.0349, 1.1749, 178.6614, 49.9224)" width="46.6" xlink:href="#sprite0"/>
    <use height="48.2" transform="matrix(-0.8261, 1.4308, -1.4308, -0.8261, 415.8299, 60.495)" width="46.6" xlink:href="#sprite0"/>
    <use height="48.2" transform="matrix(1.3768, 0.0, 0.0, 1.3768, 288.3882, 64.8628)" width="46.6" xlink:href="#sprite0"/>
    <use height="48.2" transform="matrix(1.0097, -1.7488, 1.7488, 1.0097, 263.6457, 132.0785)" width="46.6" xlink:href="#sprite0"/>
    <use height="48.2" transform="matrix(1.6654, 2.8846, -2.8846, 1.6654, 272.1798, 0.3965)" width="46.6" xlink:href="#sprite0"/>
    <use height="97.35" transform="matrix(1.7857, 0.0, 0.0, 2.4138, -0.997, 0.017)" width="311.35" xlink:href="#sprite1"/>
    <use height="236.0" transform="matrix(1.0, 0.0, 0.0, 1.0, 0.0, 0.0)" width="556.0" xlink:href="#shape2"/>
  </g>
  <defs>
    <g id="sprite0" transform="matrix(1.0, 0.0, 0.0, 1.0, 6.4, 6.6)">
      <use height="35.0" transform="matrix(0.3057, 0.0, 0.0, 0.3057, 11.7335, 12.1501)" width="33.8" xlink:href="#shape0"/>
    </g>
    <g id="shape0" transform="matrix(1.0, 0.0, 0.0, 1.0, 16.9, 17.5)">
      <path d="M16.9 -0.35 Q16.9 3.15 14.7 5.65 15.05 6.85 15.05 8.25 15.05 12.1 12.35 14.8 9.65 17.5 5.85 17.5 0.05 17.5 -2.5 12.2 -4.9 13.8 -7.7 13.8 -11.5 13.8 -14.2 11.1 -16.9 8.4 -16.9 4.55 -16.9 1.2 -14.75 -1.4 -12.55 -3.95 -9.3 -4.5 -10.15 -6.3 -10.15 -8.35 -10.15 -12.15 -7.45 -14.8 -4.75 -17.5 -0.95 -17.5 2.6 -17.5 5.2 -15.2 7.8 -12.95 8.25 -9.55 11.85 -9.3 14.4 -6.65 16.9 -4.0 16.9 -0.35" fill="#ffe8f2" fill-opacity="0.0" fill-rule="evenodd" stroke="none"/>
    </g>
    <g id="sprite1" transform="matrix(1.0, 0.0, 0.0, 1.0, 24.75, 10.35)">
      <use height="97.35" transform="matrix(1.0, 0.0, 0.0, 1.0, -24.75, -10.35)" width="311.35" xlink:href="#shape1"/>
    </g>
    <g id="shape1" transform="matrix(1.0, 0.0, 0.0, 1.0, 24.75, 10.35)">
      <path d="M286.6 87.0 L-24.75 87.0 -24.75 -10.35 286.6 -10.35 286.6 87.0" fill="#cccccc" fill-opacity="0.0" fill-rule="evenodd" stroke="none"/>
    </g>
    <g id="shape2" transform="matrix(1.0, 0.0, 0.0, 1.0, 0.0, 0.0)">
      <path d="M555.5 0.5 L555.5 235.5 0.5 235.5 0.5 0.5 555.5 0.5 Z" fill="none" stroke="#000000" stroke-linecap="round" stroke-linejoin="round" stroke-width="1.0"/>
    </g>
  </defs>
</svg>
