<?xml version="1.0" encoding="UTF-8" standalone="no"?>
<svg xmlns:xlink="http://www.w3.org/1999/xlink" height="216.45px" width="557.65px" xmlns="http://www.w3.org/2000/svg">
  <g transform="matrix(1.0, 0.0, 0.0, 1.0, 1.65, -25.2)">
    <path d="M555.95 25.2 L555.95 50.95 -1.65 50.95 -1.65 25.2 555.95 25.2" fill="#ffd400" fill-rule="evenodd" stroke="none"/>
    <path d="M556.0 67.45 L-1.65 67.45 -1.65 59.1 556.0 59.1 556.0 67.45" fill="#ffffa4" fill-rule="evenodd" stroke="none"/>
    <path d="M556.0 104.6 L-1.65 104.6 -1.65 96.25 556.0 96.25 556.0 104.6" fill="#ffffff" fill-rule="evenodd" stroke="none"/>
    <path d="M556.0 160.05 L-1.65 160.05 -1.65 151.7 556.0 151.7 556.0 160.05" fill="#ffffa4" fill-rule="evenodd" stroke="none"/>
    <path d="M556.0 241.65 L-1.65 241.65 -1.65 233.3 556.0 233.3 556.0 241.65" fill="#ffffa4" fill-rule="evenodd" stroke="none"/>
    <path d="M556.0 160.05 L-1.65 160.05 -1.65 151.7 556.0 151.7 556.0 160.05" fill="#ffffff" fill-rule="evenodd" stroke="none"/>
  </g>
</svg>
