<?xml version="1.0" encoding="UTF-8" standalone="no"?>
<svg xmlns:xlink="http://www.w3.org/1999/xlink" height="211.5px" width="588.2px" xmlns="http://www.w3.org/2000/svg">
  <g transform="matrix(1.0, 0.0, 0.0, 1.0, 15.6, -7.6)">
    <path d="M572.6 45.35 L-15.6 45.35 -15.6 14.3 572.6 14.3 572.6 45.35" fill="#8d4ec2" fill-rule="evenodd" stroke="none"/>
    <path d="M572.6 191.35 L-15.6 191.35 -15.6 177.45 572.6 177.45 572.6 191.35" fill="#8d4ec2" fill-rule="evenodd" stroke="none"/>
    <path d="M572.6 169.4 L-15.6 169.4 -15.6 155.5 572.6 155.5 572.6 169.4" fill="#ffd7f0" fill-rule="evenodd" stroke="none"/>
    <path d="M572.6 107.3 L-15.6 107.3 -15.6 104.35 572.6 104.35 572.6 107.3" fill="#ffd7f0" fill-rule="evenodd" stroke="none"/>
    <path d="M572.6 94.6 L-15.6 94.6 -15.6 73.2 572.6 73.2 572.6 94.6" fill="#8d4ec2" fill-rule="evenodd" stroke="none"/>
    <path d="M572.6 219.1 L-15.6 219.1 -15.6 216.65 572.6 216.65 572.6 219.1" fill="#8d4ec2" fill-rule="evenodd" stroke="none"/>
    <path d="M572.6 61.65 L-15.6 61.65 -15.6 54.7 572.6 54.7 572.6 61.65" fill="#8d4ec2" fill-rule="evenodd" stroke="none"/>
    <path d="M572.6 144.9 L-15.6 144.9 -15.6 141.4 572.6 141.4 572.6 144.9" fill="#ffd7f0" fill-rule="evenodd" stroke="none"/>
    <path d="M572.6 23.45 L-15.6 23.45 -15.6 19.95 572.6 19.95 572.6 23.45" fill="#ff9dc2" fill-rule="evenodd" stroke="none"/>
    <path d="M572.6 199.0 L-15.6 199.0 -15.6 195.5 572.6 195.5 572.6 199.0" fill="#ffd7f0" fill-rule="evenodd" stroke="none"/>
    <path d="M572.6 185.6 L-15.6 185.6 -15.6 183.15 572.6 183.15 572.6 185.6" fill="#ffd7f0" fill-rule="evenodd" stroke="none"/>
    <path d="M572.6 62.75 L-15.6 62.75 -15.6 60.25 572.6 60.25 572.6 62.75" fill="#ff9dc2" fill-rule="evenodd" stroke="none"/>
    <path d="M572.6 132.9 L-15.6 132.9 -15.6 127.65 572.6 127.65 572.6 132.9" fill="#8d4ec2" fill-rule="evenodd" stroke="none"/>
    <path d="M572.6 12.85 L-15.6 12.85 -15.6 7.6 572.6 7.6 572.6 12.85" fill="#8d4ec2" fill-rule="evenodd" stroke="none"/>
  </g>
</svg>
