<?xml version="1.0" encoding="UTF-8" standalone="no"?>
<svg xmlns:xlink="http://www.w3.org/1999/xlink" height="195.55px" width="581.4px" xmlns="http://www.w3.org/2000/svg">
  <g transform="matrix(1.0, 0.0, 0.0, 1.0, 8.75, -8.35)">
    <path d="M568.05 8.35 L568.05 34.1 -8.7 34.1 -8.7 8.35 568.05 8.35" fill="#8d4ec2" fill-rule="evenodd" stroke="none"/>
    <path d="M572.65 61.75 L-4.1 61.75 -4.1 53.4 572.65 53.4 572.65 61.75" fill="#ff9dc2" fill-rule="evenodd" stroke="none"/>
    <path d="M572.65 98.9 L-4.1 98.9 -4.1 90.55 572.65 90.55 572.65 98.9" fill="#ffd7e6" fill-rule="evenodd" stroke="none"/>
    <path d="M572.65 127.7 L-4.1 127.7 -4.1 119.35 572.65 119.35 572.65 127.7" fill="#ff9dc2" fill-rule="evenodd" stroke="none"/>
    <path d="M572.65 203.9 L-4.1 203.9 -4.1 195.55 572.65 195.55 572.65 203.9" fill="#ffd7e6" fill-rule="evenodd" stroke="none"/>
    <path d="M568.2 134.3 L568.2 140.15 -8.75 140.15 -8.75 134.3 568.2 134.3" fill="#8d4ec2" fill-rule="evenodd" stroke="none"/>
  </g>
</svg>
