<?xml version="1.0" encoding="UTF-8" standalone="no"?>
<svg xmlns:xlink="http://www.w3.org/1999/xlink" height="124.05px" width="194.3px" xmlns="http://www.w3.org/2000/svg">
  <g transform="matrix(1.0, 0.0, 0.0, 1.0, 97.15, 62.0)">
    <path d="M19.5 -46.75 Q25.9 -41.55 25.7 -40.45 25.4 -38.8 23.6 -34.8 21.5 -30.15 20.35 -29.75 L1.8 -21.85 Q23.5 -8.75 62.5 28.0 82.0 46.35 97.15 62.05 L46.6 59.4 13.15 34.3 Q-13.7 14.15 -18.6 13.0 L-32.15 10.15 Q-40.3 8.15 -44.65 5.6 -45.6 9.7 -45.6 20.5 -45.6 30.6 -46.45 32.8 -47.65 36.15 -51.7 38.1 -55.65 40.05 -58.3 38.7 -61.75 36.95 -81.05 24.0 -83.6 24.25 -84.05 23.7 L-92.0 16.55 Q-91.95 15.1 -90.7 15.0 -93.85 10.0 -95.8 1.95 -97.55 -5.0 -97.0 -5.9 -96.6 -6.6 -92.4 -9.5 -87.85 -12.6 -86.65 -12.6 -85.55 -12.65 -84.05 -12.0 L-74.3 -6.6 -72.1 -4.4 -71.6 -1.35 Q-71.15 1.8 -71.4 2.2 -71.8 2.9 -74.5 4.2 L-70.15 8.3 Q-69.25 9.3 -68.55 11.95 L-61.4 17.1 -63.75 -8.55 Q-66.15 -10.25 -66.45 -13.8 -65.85 -14.2 -63.8 -16.9 L-61.0 -20.45 Q-63.25 -23.55 -73.0 -33.45 L-85.3 -45.85 Q-86.05 -48.2 -86.3 -56.9 -80.7 -60.2 -73.1 -62.0 -69.95 -61.85 -67.2 -60.45 -64.2 -56.95 -48.0 -40.65 L-29.15 -52.4 Q-28.7 -52.5 -26.9 -51.2 L-25.2 -49.9 Q-22.8 -57.95 -20.1 -58.85 -18.4 -59.4 -10.2 -57.05 L-2.25 -54.55 11.25 -52.2 Q13.1 -52.0 19.5 -46.75" fill="#000000" fill-rule="evenodd" stroke="none"/>
    <path d="M-67.75 -52.9 L-67.65 -52.8 Q-65.25 -51.2 -61.2 -45.8 L-54.0 -35.15 Q-48.0 -26.0 -48.0 -25.05 -47.85 -23.65 -57.0 -17.65 -76.15 -38.6 -84.4 -46.85 -84.8 -48.4 -84.6 -51.15 -84.6 -51.45 -83.0 -51.95 L-81.4 -52.4 Q-78.55 -58.3 -75.75 -60.35 L-72.95 -59.5 Q-70.0 -58.5 -69.4 -57.6 L-67.75 -52.9" fill="#f9cedd" fill-rule="evenodd" stroke="none"/>
    <path d="M-19.15 -57.35 Q-19.75 -53.75 -11.35 -54.4 -18.65 -43.65 -19.4 -43.0 -19.9 -42.55 -22.2 -44.6 -24.6 -46.6 -24.4 -47.35 -24.2 -48.35 -19.15 -57.35" fill="#f9cedd" fill-rule="evenodd" stroke="none"/>
    <path d="M-7.7 -49.0 L-4.15 -47.25 Q-4.35 -46.8 -13.45 -37.15 -14.25 -36.55 -16.2 -38.05 -18.1 -39.6 -17.8 -40.6 -17.4 -41.9 -10.95 -52.55 -11.35 -50.75 -7.7 -49.0" fill="#f9cedd" fill-rule="evenodd" stroke="none"/>
    <path d="M-3.0 -45.5 Q-4.0 -42.85 1.15 -38.4 -8.1 -32.6 -10.15 -32.4 -11.45 -32.25 -12.35 -33.7 -13.1 -35.0 -12.85 -35.6 L-3.0 -45.5" fill="#f9cedd" fill-rule="evenodd" stroke="none"/>
    <path d="M10.25 -51.05 L15.6 -48.0 22.2 -43.35 Q20.85 -44.15 13.85 -44.6 7.2 -45.0 6.95 -45.5 L-0.1 -53.0 10.25 -51.05" fill="url(#gradient0)" fill-rule="evenodd" stroke="none"/>
    <path d="M-27.4 -38.7 Q-27.85 -39.45 -27.0 -42.7 L-26.0 -45.75 Q-25.4 -44.25 -23.0 -42.45 -20.55 -40.65 -19.2 -40.8 -19.5 -37.95 -15.6 -34.4 -17.0 -31.4 -17.6 -31.95 -26.6 -37.5 -27.4 -38.7" fill="#f9cedd" fill-rule="evenodd" stroke="none"/>
    <path d="M-27.25 -47.3 L-28.25 -43.5 Q-29.2 -39.5 -29.05 -38.6 -28.8 -37.1 -20.2 -31.6 -19.6 -31.2 -18.35 -26.8 -16.85 -21.75 -16.55 -17.25 -15.55 -3.85 -25.4 -5.7 L-31.85 -9.5 Q-34.95 -11.55 -35.5 -13.3 -36.3 -18.45 -36.2 -24.05 -36.1 -30.15 -34.9 -31.0 L-36.4 -34.3 -39.05 -34.95 Q-36.6 -40.55 -35.7 -41.2 L-39.75 -44.1 -29.45 -50.45 -27.25 -47.3" fill="url(#gradient1)" fill-rule="evenodd" stroke="none"/>
    <path d="M-38.2 -41.0 L-40.25 -37.0 -41.9 -32.6 -38.8 -32.9 -39.25 -23.65 Q-39.35 -13.9 -37.45 -11.4 -29.95 -6.6 -6.5 6.45 L-3.75 12.0 Q-22.2 1.0 -40.75 -10.05 -43.4 -11.4 -44.2 -15.8 L-44.8 -25.15 -44.9 -34.45 Q-44.9 -38.8 -45.6 -39.35 L-45.3 -41.4 -42.0 -41.45 -38.2 -41.0" fill="url(#gradient2)" fill-rule="evenodd" stroke="none"/>
    <path d="M-65.0 -14.2 L-59.4 -17.8 -56.35 -11.9 Q-55.4 -10.6 -50.5 -10.2 L-43.6 -10.55 -29.35 -1.85 Q-31.15 -0.15 -37.6 1.4 -43.85 2.8 -45.95 2.2 L-50.4 -1.85 Q-53.75 -5.15 -56.75 -4.5 L-59.3 -9.85 -56.75 20.8 -53.8 24.35 Q-51.6 27.7 -52.55 30.55 -52.35 28.6 -53.65 27.15 L-56.95 24.55 -70.4 17.05 Q-69.45 16.0 -69.05 14.7 L-68.85 13.6 -60.0 19.3 -62.55 -9.35 Q-63.55 -9.75 -65.0 -14.2" fill="url(#gradient3)" fill-rule="evenodd" stroke="none"/>
    <path d="M-48.75 -21.1 Q-46.8 -22.4 -46.6 -23.85 L-46.15 -32.1 -45.8 -20.1 -48.75 -21.1" fill="#f9cedd" fill-rule="evenodd" stroke="none"/>
    <path d="M-50.15 -20.2 L-45.7 -18.25 Q-44.6 -12.8 -44.2 -12.1 L-46.0 -11.85 -51.4 -19.6 -50.15 -20.2" fill="#f9cedd" fill-rule="evenodd" stroke="none"/>
    <path d="M-53.6 -18.35 L-52.35 -17.1 -52.65 -11.35 Q-54.5 -11.45 -55.15 -12.0 -55.8 -12.55 -57.9 -17.05 -56.95 -16.5 -56.4 -16.45 -55.95 -16.4 -53.6 -18.35" fill="#f9cedd" fill-rule="evenodd" stroke="none"/>
    <path d="M-84.6 -10.85 Q-85.35 -9.75 -91.9 -3.65 L-94.95 -6.7 -87.4 -11.7 -85.95 -11.65 Q-84.95 -11.4 -84.6 -10.85" fill="#f9cedd" fill-rule="evenodd" stroke="none"/>
    <path d="M-83.45 -10.0 Q-82.6 -10.4 -81.35 -9.6 -80.25 -8.9 -79.8 -8.1 L-85.9 1.05 -90.4 -3.05 -83.45 -10.0" fill="#f9cedd" fill-rule="evenodd" stroke="none"/>
    <path d="M-82.4 4.0 Q-84.8 2.8 -84.75 1.45 L-78.85 -7.2 Q-74.1 -5.7 -73.4 -2.65 -72.8 -0.3 -74.8 1.8 L-76.25 0.55 Q-75.95 -2.3 -76.5 -4.2 -76.4 -2.5 -77.25 1.05 -78.2 4.9 -79.0 4.95 -80.2 5.05 -82.4 4.0" fill="#f9cedd" fill-rule="evenodd" stroke="none"/>
    <path d="M-82.65 5.4 L-79.2 16.45 Q-81.7 17.55 -84.45 17.0 -87.55 16.4 -89.6 13.85 -92.6 10.2 -94.4 2.4 L-95.55 -4.7 Q-90.1 0.8 -82.65 5.4" fill="#f9cedd" fill-rule="evenodd" stroke="none"/>
    <path d="M-73.7 6.4 L-71.65 8.35 Q-69.55 10.4 -69.4 11.4 -69.1 13.2 -69.95 15.25 -71.2 18.2 -74.2 19.6 -71.75 16.4 -71.6 14.65 L-75.45 11.4 Q-74.0 8.95 -73.7 6.4" fill="url(#gradient4)" fill-rule="evenodd" stroke="none"/>
    <path d="M-75.95 -52.45 L-74.6 -56.4 -75.75 -60.35 Q-74.85 -61.0 -74.05 -61.0 L-70.15 -60.35 -68.6 -59.65 -65.6 -53.8 -62.8 -53.15 -59.4 -49.4 -59.05 -49.6 -58.2 -49.4 Q-54.8 -46.4 -55.5 -46.6 L-57.8 -47.4 -48.0 -37.65 Q-47.45 -37.2 -47.6 -32.6 L-47.8 -28.05 -59.85 -45.4 Q-60.45 -46.6 -63.15 -49.4 -66.25 -52.7 -67.75 -52.9 L-70.5 -56.6 -74.0 -55.4 -74.85 -52.65 -75.95 -52.45" fill="#ac59b2" fill-rule="evenodd" stroke="none"/>
    <path d="M-78.45 -52.4 L-78.95 -53.45 Q-77.55 -51.2 -76.8 -52.2 -75.6 -56.15 -75.05 -56.8 -74.7 -57.2 -72.6 -57.85 L-70.6 -58.4 -74.4 -56.1 -75.4 -52.95 Q-73.35 -53.65 -72.65 -54.0 -72.2 -54.15 -71.95 -54.9 L-71.75 -55.6 -71.0 -52.7 -76.05 -50.7 -75.45 -49.0 -77.4 -50.35 -79.0 -48.9 Q-77.25 -46.8 -76.1 -43.7 L-73.15 -45.05 Q-72.5 -45.2 -73.0 -46.6 L-73.65 -47.95 -71.05 -45.6 -74.0 -42.2 -74.65 -41.6 Q-75.5 -40.95 -76.2 -41.0 -77.4 -41.05 -78.0 -42.2 L-79.6 -46.6 -81.2 -45.15 Q-81.75 -45.0 -82.55 -46.2 L-81.5 -46.2 -81.15 -47.35 Q-82.95 -47.95 -83.4 -48.3 L-82.2 -48.4 -81.4 -48.2 -80.0 -49.6 Q-79.65 -50.0 -80.1 -50.7 L-80.6 -51.35 Q-78.9 -50.6 -78.4 -51.05 -78.05 -51.35 -78.45 -52.4" fill="#000000" fill-rule="evenodd" stroke="none"/>
    <path d="M-71.8 -45.15 Q-67.4 -44.9 -66.2 -45.7 -64.95 -46.45 -65.2 -47.9 -65.6 -49.6 -68.5 -49.85 -66.0 -50.0 -64.8 -48.25 -63.55 -46.55 -65.2 -45.45 -67.25 -44.05 -72.85 -44.2 L-71.8 -45.15" fill="#000000" fill-rule="evenodd" stroke="none"/>
    <path d="M-74.1 -42.9 Q-73.9 -37.0 -75.25 -37.05 -76.6 -37.15 -78.0 -39.75 -75.75 -37.25 -75.35 -38.4 L-75.0 -41.95 -74.1 -42.9" fill="#000000" fill-rule="evenodd" stroke="none"/>
    <path d="M-74.1 -36.5 Q-72.9 -40.0 -72.1 -41.0 -69.75 -43.9 -64.0 -44.75 -62.4 -45.0 -63.1 -46.7 -59.25 -41.85 -50.75 -28.3 -51.85 -27.7 -54.7 -26.8 L-57.6 -25.65 Q-58.5 -24.85 -59.4 -21.0 L-65.55 -27.85 Q-72.05 -35.0 -74.1 -36.5" fill="#000000" fill-rule="evenodd" stroke="none"/>
    <path d="M-72.6 -36.2 L-72.1 -38.2 -71.1 -40.35 Q-69.25 -42.9 -63.6 -43.7 L-62.4 -43.8 Q-59.65 -40.35 -52.55 -29.25 -54.8 -28.0 -58.25 -26.5 -59.15 -25.75 -59.8 -23.05 -69.35 -33.85 -72.6 -36.2" fill="#ffffff" fill-rule="evenodd" stroke="none"/>
    <path d="M-60.8 -35.4 L-62.4 -33.8 -59.5 -29.4 -63.15 -33.1 -64.0 -32.0 -62.35 -29.6 -64.4 -31.5 -64.85 -29.8 -64.85 -32.2 -67.25 -34.8 -64.65 -32.5 -63.55 -33.85 -66.35 -38.2 -62.8 -34.4 -61.4 -35.85 -64.75 -41.0 -60.45 -36.5 -57.25 -37.55 -57.0 -36.9 -59.8 -35.8 -57.35 -31.65 -60.8 -35.4" fill="#000000" fill-rule="evenodd" stroke="none"/>
  </g>
  <defs>
    <linearGradient gradientTransform="matrix(0.0245, 0.0203, -0.0203, 0.0245, 9.25, -39.2)" gradientUnits="userSpaceOnUse" id="gradient0" spreadMethod="pad" x1="-819.2" x2="819.2">
      <stop offset="0.0" stop-color="#9185cc"/>
      <stop offset="0.5843137254901961" stop-color="#111977"/>
      <stop offset="1.0" stop-color="#00002a"/>
    </linearGradient>
    <linearGradient gradientTransform="matrix(0.0245, 0.0203, -0.0203, 0.0245, -16.15, -8.4)" gradientUnits="userSpaceOnUse" id="gradient1" spreadMethod="pad" x1="-819.2" x2="819.2">
      <stop offset="0.0" stop-color="#9185cc"/>
      <stop offset="0.5843137254901961" stop-color="#111977"/>
      <stop offset="1.0" stop-color="#00002a"/>
    </linearGradient>
    <linearGradient gradientTransform="matrix(0.0245, 0.0203, -0.0203, 0.0245, -22.0, -1.4)" gradientUnits="userSpaceOnUse" id="gradient2" spreadMethod="pad" x1="-819.2" x2="819.2">
      <stop offset="0.0" stop-color="#9185cc"/>
      <stop offset="0.5843137254901961" stop-color="#111977"/>
      <stop offset="1.0" stop-color="#00002a"/>
    </linearGradient>
    <linearGradient gradientTransform="matrix(0.0245, 0.0203, -0.0203, 0.0245, -42.4, 23.35)" gradientUnits="userSpaceOnUse" id="gradient3" spreadMethod="pad" x1="-819.2" x2="819.2">
      <stop offset="0.0" stop-color="#9185cc"/>
      <stop offset="0.5843137254901961" stop-color="#111977"/>
      <stop offset="1.0" stop-color="#00002a"/>
    </linearGradient>
    <linearGradient gradientTransform="matrix(0.0245, 0.0203, -0.0203, 0.0245, -54.85, 38.4)" gradientUnits="userSpaceOnUse" id="gradient4" spreadMethod="pad" x1="-819.2" x2="819.2">
      <stop offset="0.0" stop-color="#9185cc"/>
      <stop offset="0.5843137254901961" stop-color="#111977"/>
      <stop offset="1.0" stop-color="#00002a"/>
    </linearGradient>
  </defs>
</svg>
