<?xml version="1.0" encoding="UTF-8" standalone="no"?>
<svg xmlns:xlink="http://www.w3.org/1999/xlink" height="175.8px" width="245.3px" xmlns="http://www.w3.org/2000/svg">
  <g transform="matrix(1.0, 0.0, 0.0, 1.0, 122.65, 87.9)">
    <path d="M122.65 87.9 L-76.45 87.9 Q-74.55 80.65 -72.85 71.25 -69.55 52.5 -70.75 41.8 L-81.2 41.45 Q-87.25 45.6 -88.2 45.6 -88.4 45.6 -89.0 47.15 L-90.6 50.5 Q-93.75 55.25 -100.2 54.45 -104.0 58.25 -113.9 55.7 -115.85 55.2 -117.2 50.05 L-118.15 44.95 Q-119.25 43.25 -120.0 40.4 -121.6 34.75 -120.0 29.4 -121.45 25.3 -119.15 20.4 -117.45 16.75 -115.9 15.7 -115.4 15.35 -118.05 10.65 -121.15 5.3 -121.4 4.15 -123.7 -6.15 -121.7 -16.85 -120.25 -24.75 -117.05 -30.8 -116.2 -40.2 -110.2 -43.4 -106.15 -45.55 -102.4 -44.5 -100.45 -43.95 -95.25 -40.55 L-89.05 -36.2 Q-87.2 -34.95 -84.3 -31.15 L-80.8 -30.7 Q-76.95 -29.5 -74.75 -25.75 L-78.3 -50.5 Q-80.8 -50.4 -81.2 -52.25 -81.5 -53.4 -81.0 -56.95 L-80.5 -60.3 -77.8 -63.05 Q-77.8 -64.95 -76.0 -72.0 -74.15 -79.4 -72.95 -81.45 -71.8 -83.4 -65.8 -85.8 -60.25 -88.0 -58.55 -87.9 -56.15 -87.75 -43.05 -82.4 -29.05 -76.75 -24.5 -73.5 L-21.6 -75.0 -12.4 -71.05 -7.25 -72.55 Q-0.9 -73.85 5.4 -72.75 25.65 -69.2 37.75 -42.95 48.65 -33.95 76.2 7.6 105.85 52.4 122.65 87.9" fill="#000000" fill-rule="evenodd" stroke="none"/>
    <path d="M21.05 -63.3 L22.5 -60.8 24.7 -56.15 Q26.8 -50.15 19.0 -56.3 -14.05 -76.35 -31.7 -42.95 -25.2 -67.55 -6.6 -70.7 0.65 -71.9 8.65 -69.5 15.65 -67.4 21.05 -63.3" fill="url(#gradient0)" fill-rule="evenodd" stroke="none"/>
    <path d="M-32.15 -39.4 Q-26.2 -50.4 -15.95 -56.15 -10.8 -59.0 -6.9 -59.7 -27.2 -44.15 -33.8 -10.7 -29.4 -7.95 -19.4 2.25 -36.2 -5.25 -38.5 -5.7 L-55.25 -4.35 -72.85 -2.55 Q-72.85 -3.5 -71.05 -4.55 L-69.25 -5.4 -39.6 -10.5 Q-33.8 -34.1 -32.15 -39.4" fill="url(#gradient1)" fill-rule="evenodd" stroke="none"/>
    <path d="M-49.55 51.35 Q-48.05 56.25 -47.0 61.25 -43.6 77.25 -45.7 87.7 -45.7 87.05 -70.3 87.7 -65.2 64.15 -65.0 41.45 L-42.1 43.4 -40.65 54.55 Q-39.3 66.8 -39.6 72.25 -40.6 65.75 -43.9 56.45 L-47.0 48.45 -50.8 47.4 -49.55 51.35" fill="url(#gradient2)" fill-rule="evenodd" stroke="none"/>
    <path d="M34.6 -18.2 Q33.85 -14.55 32.0 -9.65 29.6 -3.3 17.05 15.45 4.05 34.95 -1.5 39.8 -4.8 42.65 -11.2 44.05 -22.45 46.5 -39.65 43.4 -27.65 43.95 -20.35 42.35 -15.6 41.3 -9.8 38.25 -4.65 35.65 13.15 12.65 31.7 -11.2 35.0 -20.9 L34.6 -18.2" fill="url(#gradient3)" fill-rule="evenodd" stroke="none"/>
    <path d="M-69.65 -59.45 Q-70.65 -59.3 -71.75 -61.85 -72.85 -64.45 -71.8 -64.75 L-67.8 -63.95 Q-66.7 -63.3 -64.6 -58.8 L-69.65 -59.45" fill="#4b324a" fill-rule="evenodd" stroke="none"/>
    <path d="M-79.0 -60.1 L-71.8 -64.75 Q-70.55 -65.4 -69.65 -59.45 -74.55 -54.15 -75.4 -53.55 -75.95 -53.15 -77.85 -53.05 L-79.65 -53.1 -79.6 -56.35 Q-79.4 -59.7 -79.0 -60.1" fill="#f8cdc7" fill-rule="evenodd" stroke="none"/>
    <path d="M-58.2 -69.4 Q-58.0 -70.25 -58.85 -70.05 L-62.6 -67.5 Q-62.85 -67.35 -63.0 -67.35 -63.35 -67.35 -62.8 -68.15 -60.65 -71.1 -58.2 -73.05 -57.4 -74.95 -58.65 -74.1 L-63.95 -70.5 -62.2 -73.25 Q-60.25 -76.1 -58.85 -76.4 L-51.85 -78.6 Q-45.9 -80.4 -44.2 -80.05 -39.9 -79.05 -30.65 -75.15 L-31.95 -73.25 -43.8 -78.15 Q-39.35 -75.2 -35.95 -69.45 -32.95 -64.4 -33.6 -63.5 L-38.95 -56.3 Q-48.4 -67.1 -51.65 -67.3 -55.6 -67.55 -60.65 -61.5 L-63.4 -57.95 Q-64.4 -56.75 -64.2 -57.75 L-66.3 -63.05 -63.75 -63.7 -58.2 -69.4" fill="#f8cdc7" fill-rule="evenodd" stroke="none"/>
    <path d="M-69.45 -66.05 L-69.6 -67.25 Q-69.55 -68.65 -68.6 -69.45 L-63.55 -73.7 -66.7 -67.95 Q-67.35 -66.25 -69.45 -66.05" fill="#efc1cb" fill-rule="evenodd" stroke="none"/>
    <path d="M-45.7 -82.35 Q-58.65 -80.65 -63.95 -78.75 -67.25 -77.55 -71.35 -72.95 L-74.8 -68.55 -70.3 -77.7 Q-69.25 -79.7 -62.35 -83.0 L-55.65 -85.95 -45.7 -82.35" fill="#290000" fill-rule="evenodd" stroke="none"/>
    <path d="M-58.4 -86.6 L-64.05 -83.7 Q-69.85 -80.6 -70.55 -79.8 L-73.7 -73.45 -73.2 -76.95 Q-72.5 -80.6 -71.6 -81.55 -70.25 -82.85 -65.45 -84.85 -60.3 -87.05 -58.4 -86.6" fill="#290000" fill-rule="evenodd" stroke="none"/>
    <path d="M-56.1 -61.35 Q-54.6 -64.35 -51.2 -63.25 -47.8 -62.2 -39.6 -54.35 L-42.55 -51.4 -61.4 -48.0 -67.55 -44.2 Q-68.85 -43.3 -70.9 -37.95 L-72.65 -32.75 -74.35 -42.1 -74.35 -43.45 Q-74.3 -44.95 -73.9 -45.45 -73.25 -46.35 -64.8 -48.4 -63.7 -48.95 -60.05 -54.75 -57.05 -59.5 -56.1 -61.35" fill="#ffffff" fill-rule="evenodd" stroke="none"/>
    <path d="M-39.35 -53.95 L-41.9 -50.95 -53.8 -59.65 -39.35 -53.95" fill="#000000" fill-rule="evenodd" stroke="none"/>
    <path d="M-45.3 -50.15 L-49.55 -49.7 -56.75 -56.25 -45.3 -50.15" fill="#000000" fill-rule="evenodd" stroke="none"/>
    <path d="M-51.85 -49.05 L-54.4 -48.4 -59.7 -52.7 -51.85 -49.05" fill="#000000" fill-rule="evenodd" stroke="none"/>
    <path d="M-71.4 -33.8 L-75.4 -44.6 -75.2 -45.65 -69.9 -37.4 -71.4 -33.8" fill="#000000" fill-rule="evenodd" stroke="none"/>
    <path d="M-72.85 -44.4 L-69.0 -40.55 -69.9 -38.5 -72.85 -44.4" fill="#000000" fill-rule="evenodd" stroke="none"/>
    <path d="M-52.05 -66.05 Q-55.45 -65.9 -59.15 -60.8 L-63.55 -53.5 Q-65.55 -50.0 -71.4 -48.4 L-75.4 -46.35 -75.2 -49.95 -71.6 -49.3 Q-64.8 -54.55 -64.2 -57.75 L-65.4 -60.95 Q-55.0 -69.4 -51.85 -70.3 -47.3 -71.55 -35.8 -69.3 -32.95 -64.35 -33.6 -63.5 L-38.95 -56.3 Q-48.85 -66.15 -52.05 -66.05" fill="#90a0eb" fill-rule="evenodd" stroke="none"/>
    <path d="M-74.8 -4.95 L-76.0 -1.75 Q-77.3 2.45 -77.85 7.15 -79.55 22.25 -72.65 36.8 -78.15 34.05 -80.35 22.85 -82.2 13.2 -80.7 5.45 L-89.8 3.7 -90.8 5.65 Q-91.8 8.1 -92.4 10.85 -94.4 19.8 -91.1 28.55 -93.05 26.65 -94.3 22.4 -95.55 18.0 -95.4 13.0 -95.15 0.45 -87.05 -5.6 L-74.8 -4.95" fill="url(#gradient4)" fill-rule="evenodd" stroke="none"/>
    <path d="M-84.95 11.45 Q-85.4 15.45 -87.4 14.95 -89.4 14.45 -90.2 13.25 -91.35 11.65 -89.7 9.25 -89.45 11.8 -87.5 12.65 -85.5 13.55 -84.95 11.45" fill="url(#gradient5)" fill-rule="evenodd" stroke="none"/>
    <path d="M4.45 -64.25 Q6.6 -64.05 6.5 -66.2 6.35 -68.35 4.05 -69.45 6.8 -70.15 7.95 -68.55 8.8 -67.4 8.6 -65.35 8.35 -63.25 4.45 -64.25" fill="#000000" fill-rule="evenodd" stroke="none"/>
    <path d="M15.05 -59.35 Q17.2 -59.15 17.1 -61.35 16.95 -63.5 14.65 -64.55 17.4 -65.35 18.55 -63.75 19.4 -62.55 19.2 -60.5 18.95 -58.35 15.05 -59.35" fill="#000000" fill-rule="evenodd" stroke="none"/>
    <path d="M-39.4 -22.1 Q-41.2 -22.2 -42.0 -19.75 -42.8 -17.3 -41.2 -16.15 -44.0 -15.15 -44.35 -16.95 -44.6 -18.25 -43.55 -20.65 -42.8 -22.15 -41.0 -22.25 L-39.4 -22.1" fill="#c176a2" fill-rule="evenodd" stroke="none"/>
    <path d="M-39.25 -32.25 Q-40.05 -29.75 -38.5 -28.65 -41.25 -27.7 -41.6 -29.45 -41.8 -30.75 -40.8 -33.15 -40.05 -34.65 -38.25 -34.75 L-36.6 -34.6 Q-38.45 -34.75 -39.25 -32.25" fill="#c176a2" fill-rule="evenodd" stroke="none"/>
    <path d="M-31.75 -49.45 Q-33.6 -49.55 -34.4 -47.1 -35.2 -44.6 -33.6 -43.5 -36.4 -42.55 -36.7 -44.3 -36.95 -45.6 -35.9 -48.0 -35.2 -49.5 -33.4 -49.6 L-31.75 -49.45" fill="#c176a2" fill-rule="evenodd" stroke="none"/>
    <path d="M-25.9 -61.15 Q-27.45 -61.35 -28.4 -60.0 -29.25 -58.7 -28.0 -57.95 -30.5 -57.55 -30.65 -58.55 -30.75 -59.35 -29.6 -60.6 -28.45 -61.9 -25.9 -61.15" fill="#c176a2" fill-rule="evenodd" stroke="none"/>
    <path d="M-83.55 21.6 Q-84.0 25.55 -86.4 25.05 -88.65 24.55 -89.6 23.35 -90.85 21.75 -89.0 19.45 -88.7 21.95 -86.45 22.8 -84.2 23.65 -83.55 21.6" fill="url(#gradient6)" fill-rule="evenodd" stroke="none"/>
    <path d="M-81.0 29.65 Q-81.4 32.4 -83.4 32.05 -88.6 31.15 -85.6 28.2 -85.4 29.9 -83.45 30.5 -81.55 31.05 -81.0 29.65" fill="url(#gradient7)" fill-rule="evenodd" stroke="none"/>
    <path d="M-78.35 36.35 Q-78.75 38.55 -80.45 38.25 -85.05 37.55 -82.4 35.1 -82.2 36.5 -80.55 37.0 -78.85 37.5 -78.35 36.35" fill="url(#gradient8)" fill-rule="evenodd" stroke="none"/>
    <path d="M-93.2 -28.3 L-87.25 -28.1 -84.15 -28.5 Q-80.65 -28.6 -78.8 -27.0 -75.4 -24.15 -75.4 -16.65 -75.4 -16.15 -76.25 -14.75 -77.2 -13.35 -77.3 -11.75 -77.55 -9.0 -77.1 -7.75 L-79.4 -8.35 -79.1 -11.65 Q-78.6 -15.15 -77.95 -16.2 -76.85 -17.95 -78.65 -22.3 -80.65 -27.05 -84.3 -26.6 -86.35 -25.15 -88.6 -21.75 -95.25 -21.1 -102.1 -21.55 L-105.3 -21.85 Q-105.9 -21.9 -105.1 -21.75 L-100.35 -20.5 Q-97.0 -19.65 -93.85 -19.35 -108.2 -19.35 -108.7 -21.1 L-111.2 -32.15 -112.6 -29.4 Q-114.3 -25.85 -115.65 -21.9 -120.15 -9.15 -120.15 3.3 -121.6 -14.95 -115.25 -28.95 -115.05 -36.3 -111.25 -39.8 -109.8 -41.15 -106.6 -42.3 -105.3 -42.75 -103.0 -41.85 L-101.6 -40.8 Q-100.2 -39.35 -100.2 -37.15 -100.2 -35.7 -102.75 -36.35 L-99.0 -32.75 Q-94.95 -28.95 -93.2 -28.3" fill="#f8cdc7" fill-rule="evenodd" stroke="none"/>
    <path d="M-98.0 -39.4 Q-86.0 -32.55 -86.85 -31.9 -87.7 -31.25 -92.6 -31.9 -96.8 -34.0 -98.3 -35.95 L-98.0 -39.4" fill="#dabbcb" fill-rule="evenodd" stroke="none"/>
    <path d="M-118.15 23.3 Q-117.3 20.35 -113.6 18.55 L-105.95 26.85 -105.75 31.7 Q-113.8 27.05 -114.8 26.0 -115.6 25.25 -116.3 25.65 -117.0 26.1 -116.35 26.65 L-105.95 34.05 Q-114.6 30.25 -117.0 27.9 -118.85 26.0 -118.15 23.3" fill="url(#gradient9)" fill-rule="evenodd" stroke="none"/>
    <path d="M-117.4 31.05 L-106.8 38.05 Q-107.2 38.6 -107.0 40.5 L-106.8 42.3 -114.6 42.75 -105.95 44.65 -104.85 46.55 Q-115.25 44.45 -116.55 43.4 -120.2 39.25 -119.2 34.75 -118.85 33.35 -118.1 32.05 L-117.4 31.05" fill="url(#gradient10)" fill-rule="evenodd" stroke="none"/>
    <path d="M-103.6 48.25 L-101.5 52.25 Q-108.15 55.4 -112.95 53.8 -114.2 53.35 -114.5 50.15 L-114.6 47.0 -103.6 48.25" fill="url(#gradient11)" fill-rule="evenodd" stroke="none"/>
    <path d="M-97.0 32.35 L-90.0 37.05 Q-95.15 43.15 -98.3 43.8 -102.4 43.8 -103.2 39.15 L-97.0 32.35" fill="url(#gradient12)" fill-rule="evenodd" stroke="none"/>
    <path d="M-91.75 45.7 Q-92.4 49.1 -95.6 51.0 -98.9 52.9 -100.6 50.6 -102.1 48.6 -102.05 46.85 L-101.7 45.5 Q-100.2 46.45 -98.8 47.35 -95.2 48.65 -91.75 45.7" fill="url(#gradient13)" fill-rule="evenodd" stroke="none"/>
    <path d="M-42.75 -48.2 Q-40.3 -50.4 -43.35 -41.55 -45.5 -35.35 -52.7 -17.5 -57.8 -24.4 -57.8 -29.15 L-42.75 -48.2" fill="#f6eaed" fill-rule="evenodd" stroke="none"/>
    <path d="M-47.6 -12.6 L-53.8 -10.7 Q-49.55 -17.5 -35.95 -53.75 -38.95 -41.85 -47.6 -12.6" fill="url(#gradient14)" fill-rule="evenodd" stroke="none"/>
    <path d="M-61.2 -29.15 Q-64.45 -26.95 -65.55 -23.4 -66.4 -20.55 -66.05 -15.75 -70.3 -19.9 -72.0 -25.65 L-72.85 -30.6 -67.8 -29.8 -61.2 -29.15" fill="#f6eaed" fill-rule="evenodd" stroke="none"/>
    <path d="M-63.8 -18.85 L-62.9 -20.9 -60.8 -17.65 Q-58.5 -14.25 -57.6 -13.45 L-56.95 -9.4 Q-64.2 -13.0 -64.8 -14.3 -64.65 -16.4 -63.8 -18.85" fill="#f6eaed" fill-rule="evenodd" stroke="none"/>
    <path d="M-69.65 -8.75 L-71.8 -8.75 -74.15 -16.85 -73.05 -20.65 Q-70.6 -16.85 -65.65 -12.5 -61.2 -8.55 -59.7 -8.15 L-67.8 -7.55 Q-68.3 -7.55 -69.0 -8.15 L-69.65 -8.75" fill="url(#gradient15)" fill-rule="evenodd" stroke="none"/>
    <path d="M-55.65 -77.4 Q-46.25 -80.5 -44.2 -80.05 -39.9 -79.05 -30.65 -75.15 L-31.95 -73.25 -43.8 -78.15 Q-39.35 -75.2 -35.95 -69.45 -32.95 -64.4 -33.6 -63.5 L-36.8 -59.15 Q-43.2 -67.95 -55.65 -77.4" fill="#4b324a" fill-rule="evenodd" stroke="none"/>
    <path d="M-35.8 -69.3 Q-32.95 -64.35 -33.6 -63.5 L-36.8 -59.15 Q-41.1 -65.05 -47.4 -70.6 L-35.8 -69.3" fill="#000840" fill-rule="evenodd" stroke="none"/>
    <path d="M-52.25 -48.55 L-43.4 -49.95 -49.7 -43.35 Q-56.5 -35.9 -58.85 -31.25 -61.7 -31.55 -67.5 -31.4 L-66.3 -33.8 -64.7 -36.25 -58.05 -40.4 -54.6 -41.35 Q-54.45 -41.95 -58.55 -41.95 -68.55 -34.85 -69.0 -35.15 -69.6 -35.4 -69.95 -36.3 -68.65 -40.05 -67.35 -41.85 -66.4 -43.25 -63.1 -45.7 -61.5 -46.9 -52.25 -48.55" fill="#90a0eb" fill-rule="evenodd" stroke="none"/>
    <path d="M-70.65 -67.55 L-70.9 -66.05 -72.75 -65.2 -70.65 -67.55" fill="#efc1cb" fill-rule="evenodd" stroke="none"/>
    <path d="M-59.45 -77.6 Q-71.4 -69.55 -73.0 -67.25 -73.75 -66.75 -71.8 -69.8 -69.8 -72.85 -68.8 -73.6 -64.3 -77.05 -61.4 -77.65 L-59.45 -77.6" fill="#efc1cb" fill-rule="evenodd" stroke="none"/>
    <path d="M-58.8 -84.65 L-55.65 -85.95 -45.7 -82.35 -56.0 -80.7 Q-57.95 -82.3 -58.8 -84.65" fill="#b49ee6" fill-rule="evenodd" stroke="none"/>
    <path d="M-70.55 -79.8 Q-71.5 -78.65 -73.3 -74.35 L-73.6 -74.25 Q-72.8 -80.25 -71.6 -81.55 L-69.95 -82.65 Q-69.6 -81.7 -69.7 -80.5 L-70.55 -79.8" fill="#e6e2f2" fill-rule="evenodd" stroke="none"/>
    <path d="M-57.45 -42.55 L-55.6 -43.15 -52.45 -42.75 Q-51.75 -42.7 -54.2 -41.95 L-57.45 -42.55" fill="#000000" fill-rule="evenodd" stroke="none"/>
  </g>
  <defs>
    <linearGradient gradientTransform="matrix(0.0113, 0.0658, -0.0658, 0.0113, 10.55, 21.45)" gradientUnits="userSpaceOnUse" id="gradient0" spreadMethod="pad" x1="-819.2" x2="819.2">
      <stop offset="0.0" stop-color="#8f548d"/>
      <stop offset="0.5843137254901961" stop-color="#190000"/>
      <stop offset="1.0" stop-color="#000000"/>
    </linearGradient>
    <linearGradient gradientTransform="matrix(0.0113, 0.0658, -0.0658, 0.0113, -27.95, 28.1)" gradientUnits="userSpaceOnUse" id="gradient1" spreadMethod="pad" x1="-819.2" x2="819.2">
      <stop offset="0.0" stop-color="#8f548d"/>
      <stop offset="0.5843137254901961" stop-color="#190000"/>
      <stop offset="1.0" stop-color="#000000"/>
    </linearGradient>
    <linearGradient gradientTransform="matrix(0.0435, 0.0582, -0.0582, 0.0435, -75.15, 47.15)" gradientUnits="userSpaceOnUse" id="gradient2" spreadMethod="pad" x1="-819.2" x2="819.2">
      <stop offset="0.0" stop-color="#8f548d"/>
      <stop offset="0.5843137254901961" stop-color="#190000"/>
      <stop offset="1.0" stop-color="#000000"/>
    </linearGradient>
    <linearGradient gradientTransform="matrix(0.0435, 0.0582, -0.0582, 0.0435, -14.55, 1.9)" gradientUnits="userSpaceOnUse" id="gradient3" spreadMethod="pad" x1="-819.2" x2="819.2">
      <stop offset="0.0" stop-color="#8f548d"/>
      <stop offset="0.5843137254901961" stop-color="#190000"/>
      <stop offset="1.0" stop-color="#000000"/>
    </linearGradient>
    <linearGradient gradientTransform="matrix(0.0113, 0.0658, -0.0658, 0.0113, -78.0, 36.75)" gradientUnits="userSpaceOnUse" id="gradient4" spreadMethod="pad" x1="-819.2" x2="819.2">
      <stop offset="0.0" stop-color="#8f548d"/>
      <stop offset="0.5843137254901961" stop-color="#190000"/>
      <stop offset="1.0" stop-color="#000000"/>
    </linearGradient>
    <linearGradient gradientTransform="matrix(0.0078, 0.0303, -0.0303, 0.0078, -81.6, 33.05)" gradientUnits="userSpaceOnUse" id="gradient5" spreadMethod="pad" x1="-819.2" x2="819.2">
      <stop offset="0.0" stop-color="#8f548d"/>
      <stop offset="0.5843137254901961" stop-color="#190000"/>
      <stop offset="1.0" stop-color="#000000"/>
    </linearGradient>
    <linearGradient gradientTransform="matrix(0.0078, 0.0303, -0.0303, 0.0078, -83.1, 33.45)" gradientUnits="userSpaceOnUse" id="gradient6" spreadMethod="pad" x1="-819.2" x2="819.2">
      <stop offset="0.0" stop-color="#8f548d"/>
      <stop offset="0.5843137254901961" stop-color="#190000"/>
      <stop offset="1.0" stop-color="#000000"/>
    </linearGradient>
    <linearGradient gradientTransform="matrix(0.0078, 0.0303, -0.0303, 0.0078, -82.2, 33.25)" gradientUnits="userSpaceOnUse" id="gradient7" spreadMethod="pad" x1="-819.2" x2="819.2">
      <stop offset="0.0" stop-color="#8f548d"/>
      <stop offset="0.5843137254901961" stop-color="#190000"/>
      <stop offset="1.0" stop-color="#000000"/>
    </linearGradient>
    <linearGradient gradientTransform="matrix(0.0078, 0.0303, -0.0303, 0.0078, -81.0, 32.95)" gradientUnits="userSpaceOnUse" id="gradient8" spreadMethod="pad" x1="-819.2" x2="819.2">
      <stop offset="0.0" stop-color="#8f548d"/>
      <stop offset="0.5843137254901961" stop-color="#190000"/>
      <stop offset="1.0" stop-color="#000000"/>
    </linearGradient>
    <linearGradient gradientTransform="matrix(0.0333, 0.0158, -0.0158, 0.0333, -82.0, 39.45)" gradientUnits="userSpaceOnUse" id="gradient9" spreadMethod="pad" x1="-819.2" x2="819.2">
      <stop offset="0.0" stop-color="#f6d3b9"/>
      <stop offset="0.5843137254901961" stop-color="#190000"/>
      <stop offset="1.0" stop-color="#000000"/>
    </linearGradient>
    <linearGradient gradientTransform="matrix(0.0333, 0.0158, -0.0158, 0.0333, -87.5, 51.2)" gradientUnits="userSpaceOnUse" id="gradient10" spreadMethod="pad" x1="-819.2" x2="819.2">
      <stop offset="0.0" stop-color="#f6d3b9"/>
      <stop offset="0.5843137254901961" stop-color="#190000"/>
      <stop offset="1.0" stop-color="#000000"/>
    </linearGradient>
    <linearGradient gradientTransform="matrix(0.0333, 0.0158, -0.0158, 0.0333, -91.25, 59.1)" gradientUnits="userSpaceOnUse" id="gradient11" spreadMethod="pad" x1="-819.2" x2="819.2">
      <stop offset="0.0" stop-color="#f6d3b9"/>
      <stop offset="0.5843137254901961" stop-color="#190000"/>
      <stop offset="1.0" stop-color="#000000"/>
    </linearGradient>
    <linearGradient gradientTransform="matrix(0.0333, 0.0158, -0.0158, 0.0333, -84.4, 44.6)" gradientUnits="userSpaceOnUse" id="gradient12" spreadMethod="pad" x1="-819.2" x2="819.2">
      <stop offset="0.0" stop-color="#f6d3b9"/>
      <stop offset="0.5843137254901961" stop-color="#190000"/>
      <stop offset="1.0" stop-color="#000000"/>
    </linearGradient>
    <linearGradient gradientTransform="matrix(0.0333, 0.0158, -0.0158, 0.0333, -88.0, 52.25)" gradientUnits="userSpaceOnUse" id="gradient13" spreadMethod="pad" x1="-819.2" x2="819.2">
      <stop offset="0.0" stop-color="#f6d3b9"/>
      <stop offset="0.5843137254901961" stop-color="#190000"/>
      <stop offset="1.0" stop-color="#000000"/>
    </linearGradient>
    <linearGradient gradientTransform="matrix(0.0113, 0.0658, -0.0658, 0.0113, -32.6, 28.9)" gradientUnits="userSpaceOnUse" id="gradient14" spreadMethod="pad" x1="-819.2" x2="819.2">
      <stop offset="0.0" stop-color="#8f548d"/>
      <stop offset="0.5843137254901961" stop-color="#190000"/>
      <stop offset="1.0" stop-color="#000000"/>
    </linearGradient>
    <linearGradient gradientTransform="matrix(0.0113, 0.0658, -0.0658, 0.0113, -57.3, 33.2)" gradientUnits="userSpaceOnUse" id="gradient15" spreadMethod="pad" x1="-819.2" x2="819.2">
      <stop offset="0.0" stop-color="#8f548d"/>
      <stop offset="0.5843137254901961" stop-color="#190000"/>
      <stop offset="1.0" stop-color="#000000"/>
    </linearGradient>
  </defs>
</svg>
