<?xml version="1.0" encoding="UTF-8" standalone="no"?>
<svg xmlns:xlink="http://www.w3.org/1999/xlink" height="365.65px" width="486.85px" xmlns="http://www.w3.org/2000/svg">
  <g transform="matrix(1.0, 0.0, 0.0, 1.0, 91.85, 36.0)">
    <path d="M67.45 -14.15 L122.35 93.3 60.15 -7.8 67.45 -14.15 M100.0 -28.0 L138.55 86.25 91.45 -23.35 100.0 -28.0 M191.0 -36.0 L177.0 82.9 181.3 -35.4 191.0 -36.0 M277.15 -16.8 L205.75 87.9 268.2 -20.7 277.15 -16.8 M303.0 -12.0 L223.6 86.2 294.6 -17.0 303.0 -12.0 M343.0 45.0 L220.85 112.75 336.35 37.9 343.0 45.0 M392.85 108.4 L229.45 132.1 388.45 99.7 392.85 108.4 M395.0 154.0 L228.8 153.2 393.3 144.4 395.0 154.0 M362.75 249.75 L227.1 182.35 365.6 240.45 362.75 249.75 M361.0 276.0 L230.85 199.9 364.95 267.1 361.0 276.0 M92.8 93.35 L-4.05 25.55 0.7 17.0 92.8 93.35 M61.85 312.9 L117.6 219.2 71.0 316.0 61.85 312.9 M272.2 312.95 L201.45 202.55 279.0 306.0 272.2 312.95 M249.1 324.25 L241.0 329.65 185.9 211.0 249.1 324.25 M-3.35 43.0 L95.05 111.15 -7.0 52.0 -3.35 43.0 M-88.05 138.3 L90.8 140.05 -87.2 148.0 -88.05 138.3 M-91.85 187.7 L87.25 171.65 -88.95 197.0 -91.85 187.7 M-91.85 154.55 L87.45 151.75 -90.45 164.2 -91.85 154.55 M-8.85 268.1 L92.75 203.85 -2.0 275.0 -8.85 268.1 M-37.9 241.3 L75.6 198.8 -32.0 249.0 -37.9 241.3" fill="#886bac" fill-rule="evenodd" stroke="none"/>
  </g>
</svg>
