<?xml version="1.0" encoding="UTF-8" standalone="no"?>
<svg xmlns:xlink="http://www.w3.org/1999/xlink" height="360.55px" width="436.65px" xmlns="http://www.w3.org/2000/svg">
  <g transform="matrix(1.0, 0.0, 0.0, 1.0, 60.1, 50.0)">
    <path d="M27.55 -34.5 L103.3 85.55 21.25 -28.0 27.55 -34.5 M56.55 -50.0 L117.7 77.7 49.0 -45.0 56.55 -50.0 M238.0 -32.0 L181.25 70.05 229.4 -34.85 238.0 -32.0 M304.0 -2.0 L204.3 84.35 297.65 -8.45 304.0 -2.0 M376.5 142.9 L209.25 132.75 375.25 133.9 376.5 142.9 M376.55 112.05 L209.4 114.25 373.85 103.45 376.55 112.05 M373.0 158.0 L206.1 143.65 372.2 148.95 373.0 158.0 M320.0 35.0 L220.3 89.05 314.5 27.85 320.0 35.0 M6.65 286.95 L82.65 193.7 14.45 291.55 6.65 286.95 M30.7 291.35 L99.25 192.1 39.0 295.0 30.7 291.35 M109.95 310.55 L126.0 196.8 119.0 310.0 109.95 310.55 M310.0 243.0 L202.15 170.5 313.4 234.6 310.0 243.0 M306.25 267.1 L204.25 187.05 310.65 259.2 306.25 267.1 M232.15 293.9 L176.8 187.1 239.0 288.0 232.15 293.9 M201.9 306.8 L161.7 193.7 209.85 302.5 201.9 306.8 M-36.7 12.95 L75.95 88.05 -40.4 21.2 -36.7 12.95 M-38.35 37.3 L79.45 104.35 -41.0 46.0 -38.35 37.3 M-60.1 139.55 L77.85 131.45 -58.5 148.45 -60.1 139.55 M-58.1 181.9 L77.25 151.05 -54.0 190.0 -58.1 181.9 M-28.15 236.4 L85.25 169.0 -22.0 243.0 -28.15 236.4" fill="#ed82b4" fill-rule="evenodd" stroke="none"/>
  </g>
</svg>
