<?xml version="1.0" encoding="UTF-8" standalone="no"?>
<svg xmlns:xlink="http://www.w3.org/1999/xlink" height="333.55px" width="523.15px" xmlns="http://www.w3.org/2000/svg">
  <g transform="matrix(1.0, 0.0, 0.0, 1.0, 0.0, 0.0)">
    <path d="M346.15 55.95 L352.75 56.15 Q359.4 57.1 359.75 60.55 368.95 62.7 403.05 57.9 L438.4 52.4 Q441.35 52.2 448.0 60.7 454.2 68.6 456.6 74.45 459.45 81.45 460.45 92.15 L464.4 107.25 Q468.05 124.15 466.8 133.1 463.1 135.7 442.4 158.5 436.25 156.3 432.1 147.7 L429.2 139.6 435.2 125.45 Q431.0 120.85 430.25 117.8 420.05 120.2 411.85 128.3 409.3 130.85 407.2 133.65 L405.65 135.95 417.15 154.45 418.1 160.7 Q419.0 167.8 419.0 171.85 420.1 173.2 461.35 193.1 500.0 211.7 512.0 217.05 515.1 218.45 515.2 222.3 523.95 224.5 523.05 227.2 522.35 229.1 517.15 232.15 512.05 235.15 510.45 234.9 494.6 230.9 483.0 231.45 L448.85 232.05 Q419.3 232.7 400.9 235.0 392.55 248.9 380.3 258.15 L369.35 245.2 366.55 254.8 Q346.5 260.8 330.4 263.8 320.45 270.2 314.0 277.2 310.8 280.7 309.55 282.95 L317.3 289.1 316.0 293.45 Q317.95 303.1 315.45 304.15 313.95 304.8 310.5 309.3 L304.5 317.15 296.95 326.55 Q291.8 332.6 288.8 333.35 285.45 334.25 277.45 330.7 269.6 327.2 270.6 325.9 L277.4 315.2 273.2 313.9 Q272.45 311.95 270.0 309.5 265.05 304.6 256.6 301.95 236.05 295.55 236.85 289.6 L243.2 251.0 238.15 244.6 Q244.4 226.75 246.0 213.8 244.25 208.9 223.8 187.4 202.95 165.45 186.35 151.3 172.25 139.25 125.8 111.25 L82.2 85.7 80.9 90.1 51.35 76.25 53.75 71.55 45.55 68.4 Q40.5 70.1 37.1 68.95 35.0 68.25 30.5 63.4 L26.4 58.75 26.5 55.9 Q24.3 56.45 20.65 54.15 L16.5 40.2 Q8.35 38.7 0.9 33.7 L0.0 23.4 2.65 21.5 1.45 19.75 Q0.1 16.05 2.7 9.1 L5.6 2.85 Q13.65 8.45 25.7 14.35 49.8 26.2 69.7 27.8 L74.3 23.8 104.5 30.25 103.4 34.25 221.9 60.0 239.25 53.95 Q252.45 29.15 263.7 14.65 269.35 7.4 272.3 5.1 277.55 1.45 292.4 0.4 L308.25 0.85 Q310.0 1.95 331.7 44.7 L346.15 55.95" fill="#000000" fill-rule="evenodd" stroke="none"/>
    <path d="M301.45 20.0 Q308.45 23.1 313.8 27.2 L323.85 68.25 Q321.7 70.95 318.95 72.95 302.1 84.4 300.7 85.8 299.8 86.65 299.6 88.9 L299.6 90.95 291.9 86.65 Q283.5 85.4 273.5 81.75 253.5 74.5 245.65 62.7 244.5 60.95 243.55 57.05 L242.85 53.45 258.05 28.05 Q269.25 22.3 295.5 17.75 L301.45 20.0" fill="#f2cac0" fill-rule="evenodd" stroke="none"/>
    <path d="M313.8 27.2 Q318.7 30.95 321.85 35.45 L331.35 53.1 Q329.4 61.5 323.85 68.25 L313.8 27.2" fill="#7e5e60" fill-rule="evenodd" stroke="none"/>
    <path d="M245.65 62.7 Q244.5 60.95 243.55 57.05 L242.85 53.45 245.25 49.35 Q251.7 42.2 257.55 41.35 262.0 40.7 290.0 44.7 318.7 48.75 321.65 50.95 L325.0 66.8 Q322.15 70.7 318.95 72.95 302.1 84.4 300.7 85.8 299.8 86.65 299.6 88.9 L299.6 90.95 291.9 86.65 Q283.5 85.4 273.5 81.75 253.5 74.5 245.65 62.7" fill="#7d92af" fill-rule="evenodd" stroke="none"/>
    <path d="M325.0 66.8 L321.65 50.95 330.05 57.25 Q328.05 62.55 325.0 66.8" fill="#373f54" fill-rule="evenodd" stroke="none"/>
    <path d="M263.95 17.7 Q270.45 8.8 274.25 6.8 280.35 3.6 307.45 2.45 308.6 3.2 312.0 12.45 286.25 16.2 269.65 21.55 264.45 23.2 260.8 24.85 L258.2 26.15 263.95 17.7" fill="#6a2834" fill-rule="evenodd" stroke="none"/>
    <path d="M312.85 14.25 Q314.1 15.35 319.25 29.45 307.7 18.85 298.95 16.65 L305.45 15.05 Q312.05 13.55 312.85 14.25" fill="#6a2834" fill-rule="evenodd" stroke="none"/>
    <path d="M310.75 32.45 L302.9 31.45 Q302.15 31.5 303.7 32.3 305.3 33.1 306.65 33.3 308.0 33.55 308.6 34.15 309.15 34.7 308.4 34.9 L300.05 34.2 Q299.8 32.45 298.9 31.9 295.5 29.75 294.25 29.65 L289.0 29.5 283.75 29.9 277.95 40.75 279.8 40.45 Q281.2 40.5 290.6 45.4 L297.7 42.35 295.7 33.3 291.75 30.7 294.4 31.5 Q297.15 32.5 297.85 33.35 298.95 34.7 300.65 42.4 L301.7 42.7 300.45 36.75 304.35 44.85 Q304.45 45.3 296.95 47.75 289.4 50.2 288.75 49.9 L276.4 42.55 277.4 39.25 268.75 38.75 Q260.1 37.9 260.15 36.0 260.2 34.1 262.05 28.8 L263.9 23.9 268.65 23.0 280.95 21.8 Q301.05 21.0 316.4 27.55 317.05 27.8 317.3 29.55 316.35 28.55 314.5 27.9 310.8 26.55 306.45 28.3 309.6 28.5 311.05 30.35 L310.75 32.45 M295.2 27.95 Q296.8 28.15 303.95 26.1 294.95 23.55 286.35 24.55 L284.85 28.0 286.3 28.45 Q288.4 28.9 288.35 27.1 288.3 26.1 289.45 27.25 290.9 28.75 291.3 28.75 292.25 28.7 294.9 25.8 L294.45 26.8 Q294.2 27.85 295.2 27.95" fill="#000000" fill-rule="evenodd" stroke="none"/>
    <path d="M254.15 60.4 Q253.45 51.3 254.05 49.75 254.45 48.7 255.4 49.55 L256.3 50.55 258.65 48.35 Q261.3 46.15 262.85 45.85 270.4 44.55 291.2 49.9 304.7 53.35 312.05 57.95 317.6 61.4 317.8 64.0 317.95 65.65 317.5 68.85 L316.7 72.4 Q316.4 73.1 314.0 74.15 311.55 75.25 310.85 74.55 302.9 64.3 298.05 60.45 294.75 57.8 288.8 57.2 283.65 56.65 281.5 57.7 258.05 72.0 256.2 70.7 254.9 69.85 254.15 60.4" fill="#000000" fill-rule="evenodd" stroke="none"/>
    <path d="M308.85 58.1 Q313.7 61.2 314.15 63.85 314.45 65.95 313.25 69.35 312.1 72.45 311.45 72.65 310.4 72.95 299.75 59.45 296.95 55.85 289.3 55.7 L282.2 56.3 Q259.45 69.2 257.9 68.0 256.9 67.2 257.9 58.65 L259.1 50.2 Q263.7 48.1 272.1 48.15 281.8 48.25 292.45 51.3 303.0 54.4 308.85 58.1" fill="#ffffff" fill-rule="evenodd" stroke="none"/>
    <path d="M261.25 68.35 L263.8 48.2 265.65 48.25 263.2 67.3 261.25 68.35" fill="#000000" fill-rule="evenodd" stroke="none"/>
    <path d="M312.95 59.0 L308.9 71.3 308.15 70.95 311.7 58.65 312.95 59.0" fill="#000000" fill-rule="evenodd" stroke="none"/>
    <path d="M267.2 64.9 L270.7 50.75 269.65 63.85 267.2 64.9" fill="#000000" fill-rule="evenodd" stroke="none"/>
    <path d="M273.15 61.6 L276.1 52.6 275.45 60.75 273.15 61.6" fill="#000000" fill-rule="evenodd" stroke="none"/>
    <path d="M305.4 67.05 L308.7 59.7 306.65 68.1 305.4 67.05" fill="#000000" fill-rule="evenodd" stroke="none"/>
    <path d="M302.2 64.0 L304.8 58.15 303.35 64.75 302.2 64.0" fill="#000000" fill-rule="evenodd" stroke="none"/>
    <path d="M272.05 8.4 Q277.15 13.5 271.85 17.75 269.75 19.4 266.95 20.05 L262.35 19.95 Q268.1 11.65 272.05 8.4" fill="#eae1e5" fill-rule="evenodd" stroke="none"/>
    <path d="M295.3 13.15 Q292.5 15.35 287.6 15.25 283.15 15.1 279.05 13.2 274.85 11.25 273.55 8.55 L273.3 7.4 274.25 6.8 Q279.2 4.25 297.5 2.7 298.0 3.85 298.15 5.45 298.55 10.6 295.3 13.15" fill="#eae1e5" fill-rule="evenodd" stroke="none"/>
    <path d="M307.45 2.45 Q308.3 3.05 311.0 9.85 L310.2 10.25 Q305.0 12.85 301.85 9.8 299.15 7.15 299.4 2.6 306.9 2.1 307.45 2.45" fill="#d7c5d2" fill-rule="evenodd" stroke="none"/>
    <path d="M304.5 6.45 Q302.6 5.45 297.4 5.0 291.6 4.45 286.2 5.15 L296.65 3.55 305.4 2.8 Q306.5 2.95 311.75 15.7 316.95 28.35 316.8 29.9 316.65 31.75 316.2 32.25 L318.05 34.25 328.05 64.5 323.25 70.2 Q318.65 75.35 319.9 72.9 321.2 70.35 320.65 64.65 320.25 60.3 319.45 58.0 315.85 35.0 314.45 33.15 313.55 31.95 312.5 31.8 L311.6 31.85 Q312.15 30.05 311.95 28.5 306.75 7.7 304.5 6.45" fill="#000000" fill-rule="evenodd" stroke="none"/>
    <path d="M273.65 84.7 Q296.2 92.25 297.0 93.25 297.85 94.25 295.45 106.2 L273.65 84.7" fill="#f7ece8" fill-rule="evenodd" stroke="none"/>
    <path d="M327.3 67.1 Q331.5 61.1 333.3 52.2 333.5 51.1 336.05 51.5 337.85 61.55 330.8 75.55 323.55 90.0 313.4 94.7 L302.65 88.3 Q320.15 77.25 327.3 67.1" fill="#f7ece8" fill-rule="evenodd" stroke="none"/>
    <path d="M310.1 99.8 L312.95 103.15 Q315.95 106.85 316.8 108.8 318.7 107.9 330.65 93.25 327.45 106.05 320.1 121.75 L310.1 99.8" fill="#f7ece8" fill-rule="evenodd" stroke="none"/>
    <path d="M68.8 31.55 Q65.15 42.5 55.25 66.45 L49.0 56.7 Q49.95 55.1 48.6 53.8 45.5 50.9 43.45 54.1 L40.55 60.5 Q38.65 64.95 37.45 65.1 36.05 65.3 33.4 62.35 30.9 59.55 30.45 57.7 30.05 56.1 34.5 50.6 38.85 45.15 39.8 45.55 40.4 45.8 46.25 49.1 52.25 52.25 54.15 52.1 57.25 51.85 50.9 38.6 50.65 38.8 50.95 42.35 51.3 45.7 50.55 45.75 48.85 45.8 36.7 34.7 35.25 33.4 35.25 28.9 L35.6 24.7 32.95 32.15 Q27.85 30.5 23.15 27.15 L20.75 17.2 18.35 23.5 Q12.8 20.9 5.95 12.9 5.55 9.25 6.5 6.55 16.35 14.5 43.55 23.8 57.15 28.5 68.8 31.55" fill="#e1c1bd" fill-rule="evenodd" stroke="none"/>
    <path d="M4.2 24.2 Q4.7 25.4 10.0 28.5 14.95 31.4 19.7 33.45 4.8 32.15 3.45 30.9 2.6 30.1 2.1 26.95 L1.8 24.0 4.2 24.2" fill="#e1c1bd" fill-rule="evenodd" stroke="none"/>
    <path d="M28.75 39.75 L27.25 44.2 26.85 43.8 Q26.4 43.6 26.25 44.45 26.05 45.85 28.4 46.85 L25.45 53.05 Q23.8 52.65 22.25 51.7 20.7 50.75 20.6 40.5 L28.75 39.75" fill="#e1c1bd" fill-rule="evenodd" stroke="none"/>
    <path d="M371.05 94.55 L386.8 93.35 398.4 86.3 401.55 91.9 Q405.3 97.95 408.0 100.05 L390.05 101.85 387.2 96.5 387.45 100.9 371.15 101.45 371.05 94.55" fill="#e1c1bd" fill-rule="evenodd" stroke="none"/>
    <path d="M413.95 96.4 Q408.25 95.9 404.65 91.15 401.3 86.7 402.05 79.45 402.8 72.4 406.45 70.8 412.2 68.3 417.25 69.85 421.75 71.2 424.5 75.3 427.15 79.25 427.15 83.9 427.15 88.75 424.1 92.2 419.95 96.95 413.95 96.4" fill="#e1c1bd" fill-rule="evenodd" stroke="none"/>
    <path d="M438.0 101.35 Q443.35 99.0 448.05 100.45 452.2 101.7 454.8 105.55 457.25 109.2 457.25 113.55 457.25 118.1 454.45 121.3 450.6 125.65 445.05 125.2 439.7 124.75 436.35 120.3 433.2 116.15 433.9 109.4 434.6 102.8 438.0 101.35" fill="#e1c1bd" fill-rule="evenodd" stroke="none"/>
    <path d="M440.9 129.65 L441.2 134.05 443.85 137.0 Q446.05 147.8 443.6 150.5 442.85 148.4 439.0 142.6 L435.3 137.2 440.9 129.65" fill="#cd8b8f" fill-rule="evenodd" stroke="none"/>
    <path d="M432.4 77.9 L436.25 79.6 Q441.0 82.05 445.3 85.95 459.05 98.55 463.5 121.0 462.95 119.85 461.35 118.35 L459.8 117.05 Q459.8 115.45 457.8 108.65 456.0 102.65 451.5 98.8 446.0 94.0 438.35 94.6 437.15 93.65 434.65 85.7 L432.4 77.9" fill="#cd8b8f" fill-rule="evenodd" stroke="none"/>
    <path d="M371.05 94.55 Q373.55 92.2 372.3 101.95 371.05 111.95 369.4 110.4 367.75 108.85 368.15 103.0 368.6 96.9 371.05 94.55" fill="#fbfaf9" fill-rule="evenodd" stroke="none"/>
    <path d="M244.4 59.95 L250.2 48.0 Q256.45 35.55 258.75 33.35 256.9 36.8 252.15 50.65 251.45 52.75 251.5 61.9 L251.7 70.65 Q249.25 69.9 247.15 68.2 242.85 64.8 244.4 59.95" fill="#000000" fill-rule="evenodd" stroke="none"/>
    <path d="M69.55 64.3 Q69.15 67.05 72.2 67.1 75.3 67.1 77.0 64.3 77.85 67.9 75.5 69.2 73.75 70.2 70.85 69.7 69.0 69.4 69.1 66.8 L69.55 64.3" fill="#000000" fill-rule="evenodd" stroke="none"/>
    <path d="M243.35 78.45 Q243.75 80.15 246.2 79.95 248.6 79.75 249.2 77.9 252.3 81.85 245.8 81.6 244.25 81.55 243.65 80.0 L243.35 78.45" fill="#000000" fill-rule="evenodd" stroke="none"/>
    <path d="M251.1 84.6 Q251.5 86.25 253.95 86.05 256.35 85.8 256.95 84.0 260.05 87.95 253.55 87.7 252.0 87.65 251.4 86.15 L251.1 84.6" fill="#000000" fill-rule="evenodd" stroke="none"/>
    <path d="M261.15 91.7 Q261.55 93.4 264.0 93.2 266.4 93.0 267.0 91.15 270.1 95.1 263.6 94.85 262.05 94.8 261.45 93.25 L261.15 91.7" fill="#000000" fill-rule="evenodd" stroke="none"/>
    <path d="M273.55 108.55 Q273.95 110.2 276.4 110.0 278.8 109.75 279.4 107.95 282.5 111.9 276.0 111.65 274.45 111.6 273.85 110.1 L273.55 108.55" fill="#000000" fill-rule="evenodd" stroke="none"/>
    <path d="M286.15 121.5 Q284.6 121.45 284.05 119.9 L283.75 118.35 Q284.15 120.0 286.55 119.8 288.95 119.6 289.6 117.8 292.55 121.65 286.15 121.5" fill="#000000" fill-rule="evenodd" stroke="none"/>
    <path d="M346.95 92.8 Q347.35 94.45 349.8 94.25 352.2 94.05 352.8 92.25 354.45 94.35 352.95 95.3 351.8 96.0 349.4 95.9 347.85 95.85 347.25 94.35 L346.95 92.8" fill="#000000" fill-rule="evenodd" stroke="none"/>
    <path d="M344.4 82.1 Q344.8 83.75 347.2 83.55 349.65 83.35 350.25 81.55 353.3 85.45 346.8 85.2 345.25 85.15 344.7 83.65 L344.4 82.1" fill="#000000" fill-rule="evenodd" stroke="none"/>
    <path d="M342.3 71.25 Q342.7 72.95 345.15 72.75 347.55 72.55 348.15 70.7 351.25 74.65 344.75 74.4 343.2 74.35 342.6 72.8 L342.3 71.25" fill="#000000" fill-rule="evenodd" stroke="none"/>
    <path d="M340.3 121.55 Q340.7 123.25 343.15 123.05 345.55 122.85 346.15 121.0 347.8 123.1 346.3 124.05 345.15 124.8 342.75 124.7 341.2 124.65 340.6 123.1 L340.3 121.55" fill="#000000" fill-rule="evenodd" stroke="none"/>
    <path d="M339.4 125.45 Q341.05 127.55 339.55 128.5 338.4 129.25 336.0 129.15 334.45 129.1 333.85 127.55 L333.55 126.0 Q333.95 127.7 336.4 127.5 338.8 127.3 339.4 125.45" fill="#000000" fill-rule="evenodd" stroke="none"/>
    <path d="M66.5 76.35 Q66.25 78.8 68.65 78.95 71.1 79.05 72.35 76.55 73.1 79.85 71.3 80.95 69.95 81.8 67.65 81.25 66.2 80.9 66.2 78.6 L66.5 76.35" fill="#000000" fill-rule="evenodd" stroke="none"/>
    <path d="M74.5 47.1 Q74.1 50.6 77.55 50.75 80.95 50.9 82.75 47.4 83.85 52.0 81.3 53.55 79.4 54.75 76.15 54.0 74.05 53.55 74.05 50.25 L74.5 47.1" fill="#000000" fill-rule="evenodd" stroke="none"/>
    <path d="M83.25 30.65 Q82.95 33.45 85.75 33.55 88.55 33.65 90.05 30.85 90.95 34.55 88.85 35.8 87.25 36.75 84.6 36.15 82.9 35.8 82.9 33.2 L83.25 30.65" fill="#000000" fill-rule="evenodd" stroke="none"/>
  </g>
</svg>
