<?xml version="1.0" encoding="UTF-8" standalone="no"?>
<svg xmlns:xlink="http://www.w3.org/1999/xlink" height="282.25px" width="395.55px" xmlns="http://www.w3.org/2000/svg">
  <g transform="matrix(1.0, 0.0, 0.0, 1.0, 0.0, 0.0)">
    <path d="M395.55 48.35 Q389.7 40.1 381.95 37.25 377.15 35.45 371.95 37.45 L367.7 39.75 Q358.3 38.1 349.55 37.5 344.1 37.15 343.4 39.25 343.1 40.35 343.85 41.45 L337.65 40.75 Q331.25 40.3 330.5 41.25 329.75 42.2 332.1 46.15 L334.55 49.9 323.15 44.75 308.85 37.5 Q336.0 36.55 380.6 29.9 382.0 29.55 388.9 38.9 L395.55 48.35" fill="url(#gradient0)" fill-rule="evenodd" stroke="none"/>
    <path d="M329.65 86.65 L355.35 84.45 360.4 89.25 356.85 92.2 327.45 88.8 Q327.25 88.25 327.4 87.75 327.7 86.65 329.65 86.65" fill="url(#gradient1)" fill-rule="evenodd" stroke="none"/>
    <path d="M333.85 97.6 L340.15 97.6 354.75 129.1 356.4 134.35 Q358.25 140.9 359.2 147.65 362.25 169.15 355.1 184.2 355.05 179.15 355.85 172.05 L356.8 160.8 Q357.25 147.15 351.25 129.2 348.05 121.9 340.6 109.05 L333.85 97.6" fill="url(#gradient2)" fill-rule="evenodd" stroke="none"/>
    <path d="M297.45 32.35 L318.6 45.5 321.5 51.3 Q324.4 57.8 324.7 61.0 298.85 39.7 292.2 38.15 L289.7 32.7 292.75 32.15 297.45 32.35" fill="url(#gradient3)" fill-rule="evenodd" stroke="none"/>
    <path d="M313.0 66.05 Q311.2 66.75 309.4 69.8 L307.95 72.65 298.65 50.3 Q304.15 49.85 314.9 57.45 320.25 61.25 324.5 65.1 315.85 64.9 313.0 66.05" fill="url(#gradient4)" fill-rule="evenodd" stroke="none"/>
    <path d="M306.8 81.05 L308.85 84.6 315.35 88.95 Q315.25 105.4 307.95 121.5 300.15 138.75 289.0 143.7 L273.75 122.45 308.65 108.15 296.15 83.8 306.8 81.05" fill="url(#gradient5)" fill-rule="evenodd" stroke="none"/>
    <path d="M298.15 72.75 L287.3 78.0 293.9 99.0 267.5 111.1 Q285.2 72.45 285.2 59.45 280.75 73.6 261.8 111.75 L311.35 189.45 314.5 204.05 254.95 112.7 Q262.45 102.35 269.6 87.25 284.0 57.05 282.45 33.35 L288.5 39.1 298.15 72.75" fill="url(#gradient6)" fill-rule="evenodd" stroke="none"/>
    <path d="M200.15 176.65 Q200.25 184.6 197.85 185.95 206.3 188.3 222.9 200.5 239.5 212.65 244.9 220.45 239.5 223.4 225.75 225.15 L209.9 226.25 Q204.3 225.95 223.1 228.45 241.1 230.85 252.5 231.05 239.55 233.3 217.8 230.35 193.4 227.0 185.95 219.45 L192.95 186.8 Q141.55 127.45 125.05 115.9 114.75 108.7 93.25 95.25 L73.8 83.3 109.4 101.15 Q145.95 119.8 150.85 123.85 L174.3 145.75 Q193.05 163.6 196.1 165.7 200.0 168.3 200.15 176.65" fill="url(#gradient7)" fill-rule="evenodd" stroke="none"/>
    <path d="M205.85 236.0 Q221.6 242.55 223.6 245.85 220.9 250.9 219.1 258.2 217.5 264.5 217.9 266.0 218.1 266.95 224.3 274.7 L230.4 282.25 Q213.25 272.75 207.25 270.65 200.4 268.4 196.85 267.0 190.6 264.5 188.8 262.15 187.0 259.8 188.55 244.7 L190.45 230.05 205.85 236.0" fill="url(#gradient8)" fill-rule="evenodd" stroke="none"/>
    <path d="M176.1 37.75 L182.05 40.55 Q189.1 44.2 194.5 48.4 203.15 55.1 253.8 105.2 L249.8 111.35 264.2 137.65 Q258.25 130.4 247.85 121.35 L238.65 113.7 252.05 133.75 Q239.0 142.2 221.5 141.3 203.4 140.4 196.1 129.85 188.55 118.95 178.0 94.1 167.3 69.05 163.0 51.85 164.25 68.0 162.15 79.4 160.45 88.25 157.75 90.8 155.9 92.55 148.05 94.3 140.7 96.0 139.35 95.55 123.7 87.15 106.9 78.6 73.3 61.5 63.1 59.3 75.5 66.15 90.45 79.8 92.65 81.8 70.9 70.75 L38.4 54.3 Q36.85 53.7 36.65 41.85 36.45 29.1 39.05 22.2 30.95 41.65 21.35 58.2 L0.0 48.55 7.4 26.05 Q15.25 3.15 17.5 1.0 19.8 -1.1 31.35 1.25 37.15 2.4 42.5 4.0 L40.85 15.55 43.05 12.0 Q45.5 8.55 46.55 8.9 150.8 32.55 159.25 35.2 165.3 37.15 173.0 45.15 180.45 52.95 178.45 54.35 176.1 55.95 176.35 56.95 176.7 58.7 182.4 61.95 190.85 66.8 212.1 75.95 L196.55 79.7 210.45 86.35 Q225.3 94.1 230.0 99.45 226.3 93.5 215.85 86.9 L206.15 81.55 207.95 80.65 Q210.6 79.75 214.85 79.8 222.95 80.0 217.25 75.65 211.3 71.3 197.3 64.05 L184.5 57.65 Q182.15 46.35 176.1 37.75" fill="url(#gradient9)" fill-rule="evenodd" stroke="none"/>
  </g>
  <defs>
    <linearGradient gradientTransform="matrix(0.0529, 0.0, 0.0, 0.0122, 352.2, 39.9)" gradientUnits="userSpaceOnUse" id="gradient0" spreadMethod="pad" x1="-819.2" x2="819.2">
      <stop offset="0.0" stop-color="#995b6c"/>
      <stop offset="0.5058823529411764" stop-color="#4d2237"/>
      <stop offset="1.0" stop-color="#1b120f"/>
    </linearGradient>
    <linearGradient gradientTransform="matrix(0.0202, 0.0, 0.0, 0.0047, 343.85, 88.3)" gradientUnits="userSpaceOnUse" id="gradient1" spreadMethod="pad" x1="-819.2" x2="819.2">
      <stop offset="0.0" stop-color="#995b6c"/>
      <stop offset="0.5058823529411764" stop-color="#4d2237"/>
      <stop offset="1.0" stop-color="#1b120f"/>
    </linearGradient>
    <linearGradient gradientTransform="matrix(0.016, 0.0, 0.0, 0.0529, 346.95, 140.9)" gradientUnits="userSpaceOnUse" id="gradient2" spreadMethod="pad" x1="-819.2" x2="819.2">
      <stop offset="0.0" stop-color="#995b6c"/>
      <stop offset="0.5058823529411764" stop-color="#4d2237"/>
      <stop offset="1.0" stop-color="#1b120f"/>
    </linearGradient>
    <linearGradient gradientTransform="matrix(0.0214, 0.0, 0.0, 0.0177, 307.2, 46.45)" gradientUnits="userSpaceOnUse" id="gradient3" spreadMethod="pad" x1="-819.2" x2="819.2">
      <stop offset="0.0" stop-color="#995b6c"/>
      <stop offset="0.5058823529411764" stop-color="#4d2237"/>
      <stop offset="1.0" stop-color="#1b120f"/>
    </linearGradient>
    <linearGradient gradientTransform="matrix(0.0158, 0.0, 0.0, 0.0137, 311.55, 61.45)" gradientUnits="userSpaceOnUse" id="gradient4" spreadMethod="pad" x1="-819.2" x2="819.2">
      <stop offset="0.0" stop-color="#995b6c"/>
      <stop offset="0.5058823529411764" stop-color="#4d2237"/>
      <stop offset="1.0" stop-color="#1b120f"/>
    </linearGradient>
    <linearGradient gradientTransform="matrix(0.0254, 0.0, 0.0, 0.0382, 294.55, 112.35)" gradientUnits="userSpaceOnUse" id="gradient5" spreadMethod="pad" x1="-819.2" x2="819.2">
      <stop offset="0.0" stop-color="#995b6c"/>
      <stop offset="0.5058823529411764" stop-color="#4d2237"/>
      <stop offset="1.0" stop-color="#1b120f"/>
    </linearGradient>
    <linearGradient gradientTransform="matrix(0.0363, 0.0, 0.0, 0.1042, 284.7, 118.7)" gradientUnits="userSpaceOnUse" id="gradient6" spreadMethod="pad" x1="-819.2" x2="819.2">
      <stop offset="0.0" stop-color="#995b6c"/>
      <stop offset="0.5058823529411764" stop-color="#4d2237"/>
      <stop offset="1.0" stop-color="#1b120f"/>
    </linearGradient>
    <linearGradient gradientTransform="matrix(0.1091, 0.0, 0.0, 0.0908, 163.15, 157.65)" gradientUnits="userSpaceOnUse" id="gradient7" spreadMethod="pad" x1="-819.2" x2="819.2">
      <stop offset="0.0" stop-color="#995b6c"/>
      <stop offset="0.5058823529411764" stop-color="#4d2237"/>
      <stop offset="1.0" stop-color="#1b120f"/>
    </linearGradient>
    <linearGradient gradientTransform="matrix(0.026, 0.0, 0.0, 0.0319, 209.1, 256.15)" gradientUnits="userSpaceOnUse" id="gradient8" spreadMethod="pad" x1="-819.2" x2="819.2">
      <stop offset="0.0" stop-color="#995b6c"/>
      <stop offset="0.5058823529411764" stop-color="#4d2237"/>
      <stop offset="1.0" stop-color="#1b120f"/>
    </linearGradient>
    <linearGradient gradientTransform="matrix(0.114, 0.114, -0.061, 0.061, 132.1, 70.7)" gradientUnits="userSpaceOnUse" id="gradient9" spreadMethod="pad" x1="-819.2" x2="819.2">
      <stop offset="0.0" stop-color="#995b6c"/>
      <stop offset="0.5058823529411764" stop-color="#4d2237"/>
      <stop offset="1.0" stop-color="#1b120f"/>
    </linearGradient>
  </defs>
</svg>
