<?xml version="1.0" encoding="UTF-8" standalone="no"?>
<svg xmlns:xlink="http://www.w3.org/1999/xlink" height="387.15px" width="447.6px" xmlns="http://www.w3.org/2000/svg">
  <g transform="matrix(1.0, 0.0, 0.0, 1.0, 70.4, 51.8)">
    <path d="M-40.45 296.4 L-45.2 287.9 92.85 201.2 -40.45 296.4 M-44.5 270.45 L-48.15 261.4 95.1 183.4 -44.5 270.45 M-70.4 107.8 L-67.5 98.5 87.3 122.9 -70.4 107.8 M-56.2 151.45 L-54.8 141.85 87.5 142.85 -56.2 151.45 M-52.4 167.7 L-51.55 158.0 90.85 154.55 -52.4 167.7 M-48.55 12.05 L-42.65 4.35 75.6 95.8 -48.55 12.05 M-26.35 -2.0 L-19.5 -8.95 92.8 90.75 -26.35 -2.0 M288.5 323.65 L279.55 327.5 205.8 206.65 288.5 323.65 M314.35 318.85 L305.95 323.8 223.65 208.4 314.35 318.85 M193.1 335.35 L183.4 334.75 177.05 211.7 193.1 335.35 M95.8 330.85 L87.25 326.2 138.6 208.35 95.8 330.85 M55.9 310.65 L48.55 304.3 122.4 201.3 55.9 310.65 M365.15 203.95 L360.75 212.6 229.5 162.45 365.15 203.95 M335.95 259.35 L329.3 266.45 220.9 181.8 335.95 259.35 M377.2 140.75 L375.5 150.35 228.85 141.4 377.2 140.75 M357.9 43.05 L360.75 52.4 227.15 112.25 357.9 43.05 M356.15 16.85 L360.1 25.75 230.9 94.7 356.15 16.85 M276.1 -20.45 L282.9 -13.45 201.5 92.05 276.1 -20.45 M223.9 -51.8 L232.0 -46.4 185.95 83.6 223.9 -51.8 M56.65 -38.85 L65.85 -41.9 117.65 75.35 56.65 -38.85" fill="#ea90c2" fill-rule="evenodd" stroke="none"/>
  </g>
</svg>
