<?xml version="1.0" encoding="UTF-8" standalone="no"?>
<svg xmlns:xlink="http://www.w3.org/1999/xlink" height="55.85px" width="209.05px" xmlns="http://www.w3.org/2000/svg">
  <g transform="matrix(1.0, 0.0, 0.0, 1.0, 0.0, 0.0)">
    <path d="M11.45 5.9 L14.8 6.05 Q6.95 4.3 6.25 3.6 5.75 3.05 9.45 3.1 L15.8 3.3 Q18.65 3.4 16.75 2.95 5.2 0.25 13.25 0.0 L23.65 0.35 37.55 10.0 46.45 28.25 37.65 28.55 20.85 27.75 Q17.35 27.25 16.95 26.4 16.75 25.85 17.9 24.65 19.15 23.4 19.0 22.8 18.7 21.75 15.35 21.0 12.0 20.25 11.65 19.45 11.5 19.1 12.55 18.05 13.6 17.0 13.15 16.25 12.5 15.05 8.65 13.7 1.85 11.3 7.4 10.7 L11.3 10.4 Q12.9 10.2 11.55 9.85 -6.25 5.3 3.4 5.4 L11.45 5.9" fill="#ffffff" fill-rule="evenodd" stroke="none"/>
    <path d="M19.95 24.75 L31.25 2.75 201.9 42.9 144.05 31.1 209.05 47.4 130.85 35.15 197.1 49.85 108.1 35.75 198.35 55.05 146.8 48.95 19.95 24.75 M136.2 47.65 L146.8 48.95 169.65 53.45 136.2 47.65" fill="#775554" fill-rule="evenodd" stroke="none"/>
    <path d="M8.65 6.75 L16.7 7.25 20.05 7.4 Q12.2 5.65 11.5 4.95 10.95 4.4 14.65 4.45 L21.05 4.65 Q23.85 4.75 22.0 4.3 10.4 1.6 18.5 1.35 L28.9 1.7 182.8 41.05 42.75 11.35 191.45 46.25 44.2 17.7 194.05 50.75 21.85 17.95 181.3 53.1 51.65 29.6 178.0 55.85 Q36.7 30.6 26.1 29.1 22.55 28.6 22.2 27.75 21.95 27.2 23.15 26.0 24.4 24.75 24.25 24.15 23.95 23.1 20.6 22.35 17.2 21.6 16.9 20.8 16.75 20.45 17.8 19.4 18.85 18.35 18.4 17.6 17.75 16.4 13.9 15.05 7.1 12.7 12.65 12.05 L16.55 11.7 Q18.15 11.55 16.75 11.2 -1.05 6.6 8.65 6.75" fill="#f7f1f4" fill-rule="evenodd" stroke="none"/>
    <path d="M55.95 11.55 Q36.6 7.65 33.25 7.65 26.45 7.65 68.55 19.8 L53.5 16.6 34.55 12.75 Q29.25 11.9 82.35 27.4 L63.35 23.65 34.95 17.65 Q22.4 14.7 77.05 32.1 L57.5 28.25 Q36.55 24.4 29.65 24.25 22.75 24.1 38.6 28.85 L55.8 33.6 47.6 32.6 Q37.45 31.1 27.75 28.3 22.55 26.8 21.9 25.95 21.5 25.4 23.35 24.9 25.45 24.3 25.55 24.0 25.8 23.3 22.0 22.1 18.15 20.9 17.9 20.45 17.75 20.15 19.55 20.15 L21.9 20.1 Q22.55 19.9 20.1 19.15 17.75 18.4 19.05 18.1 L22.65 17.65 Q24.95 17.25 24.35 16.4 23.55 15.2 17.55 12.95 11.6 10.75 11.65 10.35 L15.05 10.65 19.65 11.45 Q21.0 11.55 17.35 10.2 13.55 8.85 13.5 8.5 L15.4 8.25 17.65 8.0 Q17.95 7.5 14.8 6.05 9.2 3.5 18.1 4.6 L23.75 5.35 24.9 5.45 23.9 5.1 Q19.4 3.85 18.35 2.3 17.9 1.6 18.5 1.2 19.1 0.8 20.75 0.85 23.55 1.0 32.5 2.75 L40.9 4.5 45.2 5.3 Q48.6 6.25 44.1 7.05 40.15 7.75 55.95 11.55 L67.55 13.95 82.15 17.1 67.3 14.15 55.95 11.55" fill="#775554" fill-rule="evenodd" stroke="none"/>
  </g>
</svg>
