<?xml version="1.0" encoding="UTF-8" standalone="no"?>
<svg xmlns:xlink="http://www.w3.org/1999/xlink" height="218.3px" width="342.3px" xmlns="http://www.w3.org/2000/svg">
  <g transform="matrix(1.0, 0.0, 0.0, 1.0, 0.0, 0.0)">
    <path d="M235.55 143.0 Q243.8 154.3 274.45 177.8 291.9 191.2 328.7 218.3 288.55 193.95 270.05 183.8 242.75 168.8 224.4 162.7 203.7 155.8 187.85 157.75 171.25 159.75 156.6 171.7 154.05 165.7 149.45 148.6 146.45 137.45 141.55 132.65 134.9 126.2 119.15 123.2 102.25 120.05 68.5 119.5 98.8 118.0 102.3 110.15 105.35 103.4 88.4 92.2 61.6 74.45 0.0 52.45 39.3 61.15 56.5 63.0 76.25 65.15 78.7 59.95 81.2 54.7 66.9 40.05 53.95 26.75 21.3 0.0 94.6 52.9 134.25 66.35 171.55 79.0 189.1 59.8 195.8 71.8 203.25 79.8 212.5 89.65 227.6 99.05 259.0 118.5 342.3 150.0 271.9 129.3 246.65 128.75 224.85 128.3 235.55 143.0 M220.7 142.7 Q205.75 131.2 201.7 125.7 190.65 110.55 253.8 129.15 213.15 113.75 197.85 104.25 185.45 96.55 179.05 85.1 170.5 94.5 152.3 88.3 132.9 81.75 97.15 55.95 113.1 69.0 119.4 75.5 126.35 82.6 125.15 85.2 123.95 87.75 114.3 86.7 105.95 85.75 86.75 81.55 116.75 92.25 129.9 100.95 148.0 112.9 120.2 114.25 136.7 114.5 144.9 116.05 152.6 117.5 155.85 120.65 158.25 123.0 159.7 128.4 161.95 136.8 163.2 139.7 170.35 133.9 178.45 132.9 186.2 131.95 196.25 135.35 205.25 138.3 218.55 145.6 227.6 150.6 247.15 162.45 L220.7 142.7" fill="#fbb7a1" fill-rule="evenodd" stroke="none"/>
    <path d="M225.8 137.85 Q232.75 147.45 258.75 167.4 273.55 178.75 304.75 201.7 270.65 181.05 255.05 172.45 231.85 159.75 216.3 154.55 198.75 148.7 185.3 150.35 171.2 152.05 158.8 162.2 156.65 157.1 152.75 142.6 150.2 133.15 146.05 129.1 140.4 123.6 127.05 121.05 112.75 118.35 84.1 117.9 132.35 115.55 100.95 94.8 78.15 79.7 25.95 61.1 59.3 68.45 73.85 70.0 90.6 71.85 92.7 67.45 94.85 62.95 82.7 50.55 71.7 39.3 44.05 16.6 106.25 61.45 139.85 72.85 171.45 83.6 186.35 67.3 192.05 77.5 198.4 84.25 206.2 92.6 219.05 100.55 245.65 117.05 316.3 143.8 256.55 126.25 235.15 125.75 216.7 125.4 225.8 137.85 M99.55 85.75 Q125.05 94.8 136.15 102.15 151.5 112.3 127.95 113.45 153.0 113.85 158.15 118.9 160.2 120.9 161.45 125.5 163.35 132.6 164.4 135.1 175.75 125.8 192.45 131.35 204.1 135.25 235.65 154.35 L213.2 137.6 Q200.5 127.85 197.1 123.2 187.7 110.35 241.25 126.1 206.75 113.05 193.8 105.0 183.25 98.45 177.85 88.75 170.55 96.7 155.15 91.45 138.7 85.9 108.4 64.0 133.95 85.0 132.15 88.85 131.1 91.0 122.95 90.1 115.85 89.35 99.55 85.75" fill="#ffffff" fill-rule="evenodd" stroke="none"/>
  </g>
</svg>
