<?xml version="1.0" encoding="UTF-8" standalone="no"?>
<svg xmlns:xlink="http://www.w3.org/1999/xlink" height="236.5px" width="557.65px" xmlns="http://www.w3.org/2000/svg">
  <g transform="matrix(1.0, 0.0, 0.0, 1.0, 1.65, 0.0)">
    <path d="M556.0 236.5 L-1.65 236.5 -1.65 0.05 556.0 0.05 556.0 236.5" fill="url(#gradient0)" fill-rule="evenodd" stroke="none"/>
    <path d="M555.95 0.0 L555.95 33.6 -1.65 33.6 -1.65 0.0 555.95 0.0" fill="#ffd400" fill-rule="evenodd" stroke="none"/>
    <path d="M555.95 191.85 L-1.65 191.85 -1.65 176.75 555.95 176.75 555.95 191.85" fill="#ffd400" fill-rule="evenodd" stroke="none"/>
    <path d="M555.95 168.05 L-1.65 168.05 -1.65 153.0 555.95 153.0 555.95 168.05" fill="#ffffff" fill-rule="evenodd" stroke="none"/>
    <path d="M555.95 100.75 L-1.65 100.75 -1.65 97.55 555.95 97.55 555.95 100.75" fill="#ffffff" fill-rule="evenodd" stroke="none"/>
    <path d="M555.95 86.95 L-1.65 86.95 -1.65 63.8 555.95 63.8 555.95 86.95" fill="#ffd400" fill-rule="evenodd" stroke="none"/>
    <path d="M555.95 221.95 L-1.65 221.95 -1.65 219.3 555.95 219.3 555.95 221.95" fill="#ffd400" fill-rule="evenodd" stroke="none"/>
    <path d="M555.95 51.25 L-1.65 51.25 -1.65 43.75 555.95 43.75 555.95 51.25" fill="#ffffff" fill-rule="evenodd" stroke="none"/>
    <path d="M555.95 141.5 L-1.65 141.5 -1.65 137.75 555.95 137.75 555.95 141.5" fill="#ffffff" fill-rule="evenodd" stroke="none"/>
    <path d="M555.95 200.15 L-1.65 200.15 -1.65 196.35 555.95 196.35 555.95 200.15" fill="#ffffff" fill-rule="evenodd" stroke="none"/>
    <path d="M555.95 185.65 L-1.65 185.65 -1.65 183.0 555.95 183.0 555.95 185.65" fill="#ffffff" fill-rule="evenodd" stroke="none"/>
    <path d="M555.95 23.7 L-1.65 23.7 -1.65 21.0 555.95 21.0 555.95 23.7" fill="#ffffff" fill-rule="evenodd" stroke="none"/>
    <path d="M555.95 128.5 L-1.65 128.5 -1.65 122.85 555.95 122.85 555.95 128.5" fill="#ffd400" fill-rule="evenodd" stroke="none"/>
  </g>
  <defs>
    <linearGradient gradientTransform="matrix(0.0, -0.1443, 0.1588, 0.0, 277.15, 118.25)" gradientUnits="userSpaceOnUse" id="gradient0" spreadMethod="pad" x1="-819.2" x2="819.2">
      <stop offset="0.0" stop-color="#ffffff"/>
      <stop offset="0.6823529411764706" stop-color="#fff7ae"/>
      <stop offset="1.0" stop-color="#ffe605"/>
    </linearGradient>
  </defs>
</svg>
