<?xml version="1.0" encoding="UTF-8" standalone="no"?>
<svg xmlns:xlink="http://www.w3.org/1999/xlink" height="39.65px" width="47.25px" xmlns="http://www.w3.org/2000/svg">
  <g transform="matrix(1.0, 0.0, 0.0, 1.0, 0.0, 0.0)">
    <path d="M45.25 0.15 L46.8 0.25 Q47.45 0.7 47.15 2.1 L46.0 7.2 43.95 14.25 33.25 19.25 31.85 19.5 30.45 19.45 28.55 17.65 28.55 15.05 32.35 4.9 39.8 1.95 45.25 0.15" fill="#001b2c" fill-rule="evenodd" stroke="none"/>
    <path d="M40.95 6.7 Q42.95 8.35 45.3 7.5 L43.45 13.8 Q41.05 14.9 37.4 15.3 33.35 15.8 32.8 14.55 32.05 12.8 31.9 10.4 31.7 7.35 32.8 5.4 L39.5 2.65 Q38.95 5.05 40.95 6.7" fill="#eeb05b" fill-rule="evenodd" stroke="none"/>
    <path d="M32.75 10.35 Q31.65 9.95 31.8 9.6 L32.95 5.55 33.85 8.35 33.75 5.1 35.05 7.45 34.7 5.0 36.5 6.9 36.6 4.7 37.7 6.15 37.7 4.15 38.85 5.5 38.7 3.6 40.4 6.25 33.9 10.7 32.75 10.35" fill="#a97a32" fill-rule="evenodd" stroke="none"/>
    <path d="M42.25 6.85 L46.35 1.2 Q46.6 0.9 46.8 0.95 L46.9 1.25 45.4 6.9 43.2 7.2 42.25 6.85" fill="#8795ab" fill-rule="evenodd" stroke="none"/>
    <path d="M44.15 7.45 L45.7 3.8 44.95 7.55 44.15 7.45" fill="#001b2c" fill-rule="evenodd" stroke="none"/>
    <path d="M32.85 12.3 L40.35 6.6 33.9 12.7 32.85 12.3" fill="#a97a32" fill-rule="evenodd" stroke="none"/>
    <path d="M32.8 5.35 L32.2 10.15 34.05 10.5 29.15 17.55 28.95 15.2 32.8 5.35" fill="#09371c" fill-rule="evenodd" stroke="none"/>
    <path d="M34.75 13.15 L37.7 13.6 30.7 19.05 29.2 17.45 34.05 10.5 34.75 13.15" fill="#176636" fill-rule="evenodd" stroke="none"/>
    <path d="M30.7 19.05 L37.7 13.6 39.2 14.8 43.45 13.8 33.25 18.7 30.7 19.05" fill="#30994b" fill-rule="evenodd" stroke="none"/>
    <path d="M43.2 11.05 L41.45 10.9 Q42.3 10.5 43.2 10.05 L42.6 9.6 43.55 9.1 42.95 8.35 44.95 8.0 43.25 13.55 41.05 13.65 43.25 12.75 40.85 12.45 43.2 12.1 41.45 11.75 43.2 11.05" fill="#fce69f" fill-rule="evenodd" stroke="none"/>
    <path d="M6.75 26.45 L12.55 25.4 18.4 24.55 19.85 24.7 21.2 25.1 22.45 27.35 21.75 29.85 15.35 38.6 7.4 39.4 1.7 39.65 Q0.6 39.65 0.2 39.15 -0.3 38.5 0.35 37.25 L2.9 32.7 4.7 29.65 Q6.55 26.6 6.75 26.45" fill="#001b2c" fill-rule="evenodd" stroke="none"/>
    <path d="M17.6 29.2 Q17.8 31.05 17.3 33.45 16.65 36.45 15.1 38.0 L7.85 38.75 Q9.05 36.7 7.55 34.55 6.05 32.4 3.65 32.55 6.7 27.3 7.1 27.0 L13.35 27.2 Q17.4 27.85 17.6 29.2" fill="#eeb05b" fill-rule="evenodd" stroke="none"/>
    <path d="M14.9 34.85 L14.1 38.0 13.45 35.4 13.15 37.85 11.95 35.5 11.2 37.65 10.55 35.9 10.05 37.85 9.25 36.25 8.85 38.1 8.0 35.1 15.5 32.6 Q17.6 33.75 17.15 34.2 L15.0 37.75 14.9 34.85" fill="#a97a32" fill-rule="evenodd" stroke="none"/>
    <path d="M0.9 38.35 L0.4 38.45 0.4 38.15 3.35 33.1 Q5.1 32.75 6.4 34.0 L0.9 38.35" fill="#8795ab" fill-rule="evenodd" stroke="none"/>
    <path d="M4.7 32.95 L2.2 36.0 4.0 32.6 4.7 32.95" fill="#001b2c" fill-rule="evenodd" stroke="none"/>
    <path d="M16.95 31.35 L8.15 34.8 16.0 30.7 16.95 31.35" fill="#a97a32" fill-rule="evenodd" stroke="none"/>
    <path d="M15.05 38.05 L16.95 33.6 15.25 32.7 21.9 27.3 21.4 29.65 15.05 38.05" fill="#09371c" fill-rule="evenodd" stroke="none"/>
    <path d="M21.85 27.35 L15.25 32.7 15.3 30.0 12.55 28.75 20.8 25.45 21.85 27.35" fill="#176636" fill-rule="evenodd" stroke="none"/>
    <path d="M20.8 25.45 L12.55 28.75 11.45 27.2 7.1 27.0 18.3 25.05 20.8 25.45" fill="#30994b" fill-rule="evenodd" stroke="none"/>
    <path d="M4.1 32.2 L7.2 27.3 9.35 27.8 7.0 28.05 9.25 29.0 6.9 28.7 8.5 29.55 6.6 29.7 8.25 30.3 6.35 30.7 6.75 31.3 5.7 31.5 6.1 32.35 4.1 32.2" fill="#fce69f" fill-rule="evenodd" stroke="none"/>
    <path d="M5.0 13.9 Q4.2 12.7 5.65 12.55 L8.45 12.35 12.4 12.25 16.7 16.9 Q17.4 17.75 17.3 18.3 L16.65 19.5 15.35 19.95 9.5 19.7 6.8 16.35 5.0 13.9" fill="#001b2c" fill-rule="evenodd" stroke="none"/>
    <path d="M7.2 16.4 Q8.5 16.3 9.05 15.0 9.55 13.7 8.75 12.65 L12.25 12.55 Q13.2 13.6 14.0 15.4 14.95 17.4 14.4 17.9 L12.4 19.05 9.75 19.4 7.2 16.4" fill="#eeb05b" fill-rule="evenodd" stroke="none"/>
    <path d="M9.3 16.75 L8.3 17.1 8.75 16.25 7.8 16.65 8.9 15.35 12.25 17.95 Q12.4 19.25 12.0 19.2 L9.8 19.3 11.05 18.35 9.45 18.95 10.4 17.9 9.2 18.5 9.9 17.25 8.75 17.55 9.3 16.75" fill="#a97a32" fill-rule="evenodd" stroke="none"/>
    <path d="M8.9 14.3 L5.35 13.15 5.15 12.95 5.3 12.85 8.4 12.7 Q9.1 13.4 8.9 14.3" fill="#8795ab" fill-rule="evenodd" stroke="none"/>
    <path d="M8.9 13.25 L6.75 13.05 8.8 12.85 8.9 13.25" fill="#001b2c" fill-rule="evenodd" stroke="none"/>
    <path d="M9.1 15.35 L13.25 17.65 13.25 18.25 9.1 15.35" fill="#a97a32" fill-rule="evenodd" stroke="none"/>
    <path d="M9.7 19.4 L12.25 18.9 12.15 17.9 16.55 19.25 15.35 19.7 9.7 19.4" fill="#09371c" fill-rule="evenodd" stroke="none"/>
    <path d="M12.15 17.9 L13.35 17.1 13.1 15.5 17.05 18.2 16.5 19.25 12.15 17.9" fill="#176636" fill-rule="evenodd" stroke="none"/>
    <path d="M12.25 12.55 L16.45 16.95 17.05 18.2 13.1 15.5 13.45 14.55 12.25 12.55" fill="#30994b" fill-rule="evenodd" stroke="none"/>
    <path d="M12.15 12.7 L12.55 13.8 11.75 12.8 12.0 14.1 11.45 12.95 11.5 13.9 10.9 13.15 11.1 14.05 10.4 13.3 10.25 13.65 9.8 13.25 9.55 13.7 9.05 12.75 12.15 12.7" fill="#fce69f" fill-rule="evenodd" stroke="none"/>
    <path d="M40.4 34.5 L41.5 37.75 Q42.05 39.45 40.35 39.15 L36.7 38.3 31.65 36.9 28.5 30.5 28.35 28.8 29.45 27.5 30.35 27.4 31.3 27.5 Q38.35 29.8 38.6 30.0 L40.4 34.5" fill="#001b2c" fill-rule="evenodd" stroke="none"/>
    <path d="M36.45 37.85 L31.9 36.5 Q31.05 35.35 30.95 33.35 30.95 31.75 31.3 30.55 31.55 29.7 34.25 29.75 36.65 29.8 38.3 30.35 L39.9 34.35 Q38.35 33.95 37.15 35.15 35.95 36.35 36.45 37.85" fill="#eeb05b" fill-rule="evenodd" stroke="none"/>
    <path d="M31.55 33.3 L32.25 33.0 36.8 35.5 35.9 37.3 35.85 36.05 35.15 37.0 35.05 35.7 34.4 36.75 34.2 35.3 33.15 36.65 33.25 35.05 32.55 36.65 32.4 34.5 32.0 36.4 31.0 33.85 Q30.85 33.6 31.55 33.3" fill="#a97a32" fill-rule="evenodd" stroke="none"/>
    <path d="M41.0 38.4 L37.95 34.95 38.6 34.7 Q39.35 34.45 40.05 34.7 L41.35 38.3 41.3 38.5 41.0 38.4" fill="#8795ab" fill-rule="evenodd" stroke="none"/>
    <path d="M39.15 34.45 L39.65 34.3 40.45 36.7 39.15 34.45" fill="#001b2c" fill-rule="evenodd" stroke="none"/>
    <path d="M36.75 35.25 L31.45 32.0 32.15 31.7 36.75 35.25" fill="#a97a32" fill-rule="evenodd" stroke="none"/>
    <path d="M31.9 36.55 L28.75 30.4 28.75 28.85 32.4 33.1 31.2 33.45 31.9 36.55" fill="#09371c" fill-rule="evenodd" stroke="none"/>
    <path d="M28.75 28.9 L29.65 27.75 34.6 30.85 32.7 31.35 32.4 33.1 28.75 28.9" fill="#176636" fill-rule="evenodd" stroke="none"/>
    <path d="M29.65 27.75 L31.3 27.8 38.3 30.35 35.5 29.95 34.6 30.85 29.65 27.75" fill="#30994b" fill-rule="evenodd" stroke="none"/>
    <path d="M38.4 32.8 L37.15 32.35 38.3 32.15 37.1 31.85 38.25 31.5 36.7 31.4 38.25 31.05 36.75 30.6 38.2 30.5 39.65 34.05 38.35 33.95 38.7 33.4 38.05 33.15 38.4 32.8" fill="#fce69f" fill-rule="evenodd" stroke="none"/>
  </g>
</svg>
