<?xml version="1.0" encoding="UTF-8" standalone="no"?>
<svg xmlns:xlink="http://www.w3.org/1999/xlink" height="288.7px" width="312.55px" xmlns="http://www.w3.org/2000/svg">
  <g transform="matrix(1.0, 0.0, 0.0, 1.0, 0.0, 0.0)">
    <path d="M248.0 260.1 L201.45 190.4 254.8 253.1 248.0 260.1" fill="#ffcc41" fill-rule="evenodd" stroke="none"/>
    <path d="M300.45 210.75 L227.1 170.2 303.3 201.4 300.45 210.75" fill="#ffcc41" fill-rule="evenodd" stroke="none"/>
    <path d="M228.8 141.05 L310.85 134.25 312.55 143.85 228.8 141.05" fill="#ffcc41" fill-rule="evenodd" stroke="none"/>
    <path d="M298.7 236.95 L230.85 187.75 302.65 228.1 298.7 236.95" fill="#ffcc41" fill-rule="evenodd" stroke="none"/>
    <path d="M216.8 276.75 L185.9 198.85 224.9 271.35 216.8 276.75" fill="#ffcc41" fill-rule="evenodd" stroke="none"/>
    <path d="M248.0 22.4 L254.8 29.35 201.45 92.05 248.0 22.4" fill="#ffcc41" fill-rule="evenodd" stroke="none"/>
    <path d="M300.45 71.75 L303.3 81.05 227.1 112.25 300.45 71.75" fill="#ffcc41" fill-rule="evenodd" stroke="none"/>
    <path d="M312.55 138.6 L310.85 148.2 228.8 141.4 312.55 138.6" fill="#ffcc41" fill-rule="evenodd" stroke="none"/>
    <path d="M298.7 45.5 L302.65 54.4 230.85 94.7 298.7 45.5" fill="#ffcc41" fill-rule="evenodd" stroke="none"/>
    <path d="M216.8 5.7 L224.9 11.1 185.9 83.6 216.8 5.7" fill="#ffcc41" fill-rule="evenodd" stroke="none"/>
    <path d="M82.1 274.8 L74.75 268.45 122.4 201.3 82.1 274.8" fill="#ffcc41" fill-rule="evenodd" stroke="none"/>
    <path d="M25.55 230.2 L21.9 221.2 95.1 183.45 25.55 230.2" fill="#ffcc41" fill-rule="evenodd" stroke="none"/>
    <path d="M7.65 164.65 L8.55 154.95 90.85 154.55 7.65 164.65" fill="#ffcc41" fill-rule="evenodd" stroke="none"/>
    <path d="M29.6 256.2 L24.9 247.65 92.9 201.25 29.6 256.2" fill="#ffcc41" fill-rule="evenodd" stroke="none"/>
    <path d="M114.65 288.7 L106.1 284.0 138.6 208.4 114.65 288.7" fill="#ffcc41" fill-rule="evenodd" stroke="none"/>
    <path d="M3.85 115.25 L6.75 105.95 87.3 122.95 3.85 115.25" fill="#ffcc41" fill-rule="evenodd" stroke="none"/>
    <path d="M22.2 45.6 L29.05 38.7 92.8 90.75 22.2 45.6" fill="#ffcc41" fill-rule="evenodd" stroke="none"/>
    <path d="M75.25 3.1 L84.45 0.0 117.65 75.4 75.25 3.1" fill="#ffcc41" fill-rule="evenodd" stroke="none"/>
    <path d="M0.0 59.65 L5.95 51.95 75.6 95.8 0.0 59.65" fill="#ffcc41" fill-rule="evenodd" stroke="none"/>
    <path d="M1.0 153.45 L2.15 143.8 84.45 145.8 1.0 153.45" fill="#ffcc41" fill-rule="evenodd" stroke="none"/>
  </g>
</svg>
