<?xml version="1.0" encoding="UTF-8" standalone="no"?>
<svg xmlns:xlink="http://www.w3.org/1999/xlink" height="287.2px" width="304.65px" xmlns="http://www.w3.org/2000/svg">
  <g transform="matrix(1.0, 0.0, 0.0, 1.0, 0.0, 0.0)">
    <path d="M62.9 21.8 L108.3 89.75 56.3 28.6 62.9 21.8" fill="#faf9e8" fill-rule="evenodd" stroke="none"/>
    <path d="M11.75 69.95 L83.3 109.45 9.0 79.0 11.75 69.95" fill="#faf9e8" fill-rule="evenodd" stroke="none"/>
    <path d="M0.0 135.15 L81.65 137.85 1.65 144.5 0.0 135.15" fill="#faf9e8" fill-rule="evenodd" stroke="none"/>
    <path d="M13.5 44.35 L109.8 109.1 9.65 53.05 13.5 44.35" fill="#faf9e8" fill-rule="evenodd" stroke="none"/>
    <path d="M93.3 5.55 L123.45 81.5 85.4 10.85 93.3 5.55" fill="#faf9e8" fill-rule="evenodd" stroke="none"/>
    <path d="M19.35 219.4 L89.35 177.25 25.85 226.35 19.35 219.4" fill="#faf9e8" fill-rule="evenodd" stroke="none"/>
    <path d="M56.6 268.0 L104.1 201.5 65.3 271.75 56.6 268.0" fill="#faf9e8" fill-rule="evenodd" stroke="none"/>
    <path d="M120.0 287.2 L132.1 206.4 129.5 286.65 120.0 287.2" fill="#faf9e8" fill-rule="evenodd" stroke="none"/>
    <path d="M31.4 263.35 L86.7 203.15 39.55 268.15 31.4 263.35" fill="#faf9e8" fill-rule="evenodd" stroke="none"/>
    <path d="M2.05 179.6 L80.95 158.4 6.35 188.05 2.05 179.6" fill="#faf9e8" fill-rule="evenodd" stroke="none"/>
    <path d="M224.6 267.9 L185.35 196.25 231.8 261.7 224.6 267.9" fill="#faf9e8" fill-rule="evenodd" stroke="none"/>
    <path d="M279.75 224.4 L211.95 178.85 283.3 215.6 279.75 224.4" fill="#faf9e8" fill-rule="evenodd" stroke="none"/>
    <path d="M297.2 160.5 L216.1 150.65 296.35 151.05 297.2 160.5" fill="#faf9e8" fill-rule="evenodd" stroke="none"/>
    <path d="M275.8 249.75 L214.15 196.2 280.4 241.45 275.8 249.75" fill="#faf9e8" fill-rule="evenodd" stroke="none"/>
    <path d="M192.9 281.4 L169.55 203.15 201.25 276.9 192.9 281.4" fill="#faf9e8" fill-rule="evenodd" stroke="none"/>
    <path d="M300.9 112.35 L219.55 119.85 298.1 103.3 300.9 112.35" fill="#faf9e8" fill-rule="evenodd" stroke="none"/>
    <path d="M283.0 44.45 L214.2 88.5 276.35 37.7 283.0 44.45" fill="#faf9e8" fill-rule="evenodd" stroke="none"/>
    <path d="M231.3 3.0 L190.0 73.5 222.3 0.0 231.3 3.0" fill="#faf9e8" fill-rule="evenodd" stroke="none"/>
    <path d="M304.65 58.15 L230.95 93.4 298.9 50.65 304.65 58.15" fill="#faf9e8" fill-rule="evenodd" stroke="none"/>
    <path d="M300.9 144.65 L219.35 139.25 299.55 135.25 300.9 144.65" fill="#faf9e8" fill-rule="evenodd" stroke="none"/>
  </g>
</svg>
