<?xml version="1.0" encoding="UTF-8" standalone="no"?>
<svg xmlns:xlink="http://www.w3.org/1999/xlink" height="40.05px" width="66.15px" xmlns="http://www.w3.org/2000/svg">
  <g transform="matrix(1.0, 0.0, 0.0, 1.0, 0.0, 0.0)">
    <path d="M58.3 36.15 Q57.4 33.45 53.9 31.75 50.65 30.2 47.0 30.2 47.6 20.6 49.5 14.75 52.05 6.95 56.45 8.5 62.45 10.6 62.95 21.5 63.35 30.3 60.8 37.25 L58.3 36.15" fill="#d34c60" fill-rule="evenodd" stroke="none"/>
    <path d="M1.6 12.3 Q2.6 0.65 11.35 0.05 19.9 -0.55 24.0 10.95 27.7 21.25 25.55 32.05 16.15 32.75 7.2 35.1 0.6 23.45 1.6 12.3" fill="#d34c60" fill-rule="evenodd" stroke="none"/>
    <path d="M25.8 30.9 Q26.95 31.8 26.45 32.75 13.25 34.75 7.8 36.0 3.5 37.0 1.6 35.3 -0.35 33.55 4.4 32.0 -2.45 31.65 1.4 30.0 7.3 27.6 16.85 28.4 13.45 27.1 8.85 26.1 5.2 25.35 4.35 24.4 3.4 23.3 8.55 23.2 15.15 23.05 20.5 25.9 24.95 28.3 25.8 30.9" fill="#000000" fill-rule="evenodd" stroke="none"/>
    <path d="M56.5 29.95 Q62.9 30.05 66.15 32.95 L61.6 34.95 64.35 40.05 Q62.5 38.35 60.0 37.25 L57.85 36.5 Q56.45 33.75 51.55 31.65 L47.0 30.2 Q48.05 29.15 60.4 26.45 62.3 26.05 62.15 26.9 62.05 27.7 60.8 28.25 L56.5 29.95" fill="#000000" fill-rule="evenodd" stroke="none"/>
  </g>
</svg>
