<?xml version="1.0" encoding="UTF-8" standalone="no"?>
<svg xmlns:xlink="http://www.w3.org/1999/xlink" height="306.75px" width="310.4px" xmlns="http://www.w3.org/2000/svg">
  <g transform="matrix(1.0, 0.0, 0.0, 1.0, 0.0, 0.0)">
    <path d="M292.65 69.55 L220.85 112.8 286.0 62.45 292.65 69.55" fill="#ffcc41" fill-rule="evenodd" stroke="none"/>
    <path d="M254.45 19.75 L205.75 87.95 245.55 15.85 254.45 19.75" fill="#ffcc41" fill-rule="evenodd" stroke="none"/>
    <path d="M189.4 0.0 L177.0 82.9 179.7 0.6 189.4 0.0" fill="#ffcc41" fill-rule="evenodd" stroke="none"/>
    <path d="M280.3 24.5 L223.6 86.2 271.95 19.55 280.3 24.5" fill="#ffcc41" fill-rule="evenodd" stroke="none"/>
    <path d="M310.4 110.4 L229.45 132.15 306.0 101.75 310.4 110.4" fill="#ffcc41" fill-rule="evenodd" stroke="none"/>
    <path d="M82.1 19.85 L122.4 93.3 74.75 26.2 82.1 19.85" fill="#ffcc41" fill-rule="evenodd" stroke="none"/>
    <path d="M25.55 64.4 L95.1 111.2 21.9 73.45 25.55 64.4" fill="#ffcc41" fill-rule="evenodd" stroke="none"/>
    <path d="M7.65 130.0 L90.85 140.05 8.55 139.7 7.65 130.0" fill="#ffcc41" fill-rule="evenodd" stroke="none"/>
    <path d="M29.6 38.45 L92.9 93.4 24.9 46.95 29.6 38.45" fill="#ffcc41" fill-rule="evenodd" stroke="none"/>
    <path d="M114.65 5.95 L138.6 86.25 106.1 10.6 114.65 5.95" fill="#ffcc41" fill-rule="evenodd" stroke="none"/>
    <path d="M3.85 179.35 L87.3 171.7 6.75 188.65 3.85 179.35" fill="#ffcc41" fill-rule="evenodd" stroke="none"/>
    <path d="M22.2 249.0 L92.8 203.85 29.05 255.95 22.2 249.0" fill="#ffcc41" fill-rule="evenodd" stroke="none"/>
    <path d="M75.25 291.55 L117.65 219.25 84.45 294.6 75.25 291.55" fill="#ffcc41" fill-rule="evenodd" stroke="none"/>
    <path d="M0.0 234.95 L75.6 198.8 5.95 242.65 0.0 234.95" fill="#ffcc41" fill-rule="evenodd" stroke="none"/>
    <path d="M5.25 155.85 L3.85 146.25 87.5 151.75 5.25 155.85" fill="#ffcc41" fill-rule="evenodd" stroke="none"/>
    <path d="M292.65 237.2 L286.0 244.35 220.85 194.0 292.65 237.2" fill="#ffcc41" fill-rule="evenodd" stroke="none"/>
    <path d="M254.45 287.05 L245.55 290.95 205.75 218.85 254.45 287.05" fill="#ffcc41" fill-rule="evenodd" stroke="none"/>
    <path d="M189.4 306.75 L179.7 306.15 177.0 223.9 189.4 306.75" fill="#ffcc41" fill-rule="evenodd" stroke="none"/>
    <path d="M280.3 282.3 L271.95 287.25 223.6 220.55 280.3 282.3" fill="#ffcc41" fill-rule="evenodd" stroke="none"/>
    <path d="M310.4 196.35 L306.0 205.05 229.45 174.65 310.4 196.35" fill="#ffcc41" fill-rule="evenodd" stroke="none"/>
  </g>
</svg>
