<?xml version="1.0" encoding="UTF-8" standalone="no"?>
<svg xmlns:xlink="http://www.w3.org/1999/xlink" height="107.55px" width="125.25px" xmlns="http://www.w3.org/2000/svg">
  <g transform="matrix(1.0, 0.0, 0.0, 1.0, 0.0, 0.0)">
    <path d="M75.25 55.1 L81.9 44.45 98.6 26.75 118.6 29.45 125.25 47.45 113.9 62.1 88.25 65.1 80.4 64.15 75.25 55.1" fill="#001a2c" fill-rule="evenodd" stroke="none"/>
    <path d="M95.95 60.05 L87.05 43.0 99.1 28.7 116.65 31.6 122.7 47.5 112.9 59.75 95.95 60.05" fill="#edaf5e" fill-rule="evenodd" stroke="none"/>
    <path d="M77.6 54.45 L87.05 43.0 95.95 60.05 81.3 62.3 77.6 54.45" fill="#0f6435" fill-rule="evenodd" stroke="none"/>
    <path d="M77.6 54.45 L82.25 47.75 99.1 28.7 77.6 54.45" fill="#2c9749" fill-rule="evenodd" stroke="none"/>
    <path d="M81.3 62.3 L95.95 60.05 112.9 59.75 86.6 63.1 81.3 62.3" fill="#06351c" fill-rule="evenodd" stroke="none"/>
    <path d="M102.4 37.8 Q106.2 36.5 109.05 38.15 111.55 39.6 112.4 42.65 113.25 45.65 112.0 48.05 110.6 50.7 107.3 51.05 101.65 51.65 99.85 45.45 99.1 42.95 99.75 40.8 100.45 38.5 102.4 37.8" fill="#001a2c" fill-rule="evenodd" stroke="none"/>
    <path d="M19.95 43.0 L2.85 31.8 0.0 17.4 11.1 7.0 26.2 12.2 31.75 30.6 32.7 40.55 25.85 45.1 19.95 43.0" fill="#001a2c" fill-rule="evenodd" stroke="none"/>
    <path d="M16.3 36.7 L4.4 30.5 1.8 18.35 11.75 9.25 25.15 13.4 28.65 27.75 16.3 36.7" fill="#edaf5e" fill-rule="evenodd" stroke="none"/>
    <path d="M28.65 27.75 L31.3 39.25 25.85 43.45 16.3 36.7 28.65 27.75" fill="#0f6435" fill-rule="evenodd" stroke="none"/>
    <path d="M25.15 13.4 L30.35 32.85 31.3 39.25 25.15 13.4" fill="#2c9749" fill-rule="evenodd" stroke="none"/>
    <path d="M25.85 43.45 L21.85 42.2 4.4 30.5 16.3 36.7 25.85 43.45" fill="#06351c" fill-rule="evenodd" stroke="none"/>
    <path d="M18.7 25.0 Q15.25 28.75 11.45 26.3 9.2 24.9 9.2 22.55 9.15 20.35 10.8 18.55 12.5 16.7 14.8 16.55 17.4 16.4 19.6 18.7 22.1 21.3 18.7 25.0" fill="#001a2c" fill-rule="evenodd" stroke="none"/>
    <path d="M27.3 102.55 L12.9 107.55 0.6 97.65 3.8 81.4 21.9 73.0 31.95 70.6 37.65 77.0 36.35 83.35 27.3 102.55" fill="#001a2c" fill-rule="evenodd" stroke="none"/>
    <path d="M25.75 101.2 L13.65 105.6 2.85 96.7 5.15 82.3 19.45 76.65 30.4 88.0 25.75 101.2" fill="#edaf5e" fill-rule="evenodd" stroke="none"/>
    <path d="M19.45 76.65 L30.85 72.25 35.95 77.25 30.4 88.0 19.45 76.65" fill="#0f6435" fill-rule="evenodd" stroke="none"/>
    <path d="M30.85 72.25 L5.15 82.3 24.4 74.15 30.85 72.25" fill="#2c9749" fill-rule="evenodd" stroke="none"/>
    <path d="M35.95 77.25 L35.25 81.55 25.75 101.2 30.4 88.0 35.95 77.25" fill="#06351c" fill-rule="evenodd" stroke="none"/>
    <path d="M16.85 97.45 Q14.65 97.8 12.55 96.35 10.4 94.85 9.9 92.55 9.35 89.85 11.4 87.25 13.7 84.25 18.0 87.25 22.35 90.3 20.45 94.55 19.3 97.05 16.85 97.45" fill="#001a2c" fill-rule="evenodd" stroke="none"/>
    <path d="M64.95 4.75 L71.45 0.0 78.3 3.35 79.1 10.7 72.55 18.65 70.0 20.55 66.05 19.35 65.0 14.45 64.95 4.75" fill="#001a2c" fill-rule="evenodd" stroke="none"/>
    <path d="M65.6 5.15 L71.45 1.15 77.6 4.1 78.15 10.3 73.35 15.05 66.1 12.6 65.6 5.15" fill="#edaf5e" fill-rule="evenodd" stroke="none"/>
    <path d="M66.1 12.6 L73.35 15.05 69.75 19.75 66.5 18.5 66.1 12.6" fill="#0f6435" fill-rule="evenodd" stroke="none"/>
    <path d="M66.5 18.5 L66.0 15.3 65.6 5.15 66.5 18.5" fill="#2c9749" fill-rule="evenodd" stroke="none"/>
    <path d="M69.75 19.75 L73.35 15.05 78.15 10.3 71.5 18.55 69.75 19.75" fill="#06351c" fill-rule="evenodd" stroke="none"/>
    <path d="M69.1 6.9 Q70.6 3.9 73.3 5.5 76.05 7.15 74.15 9.35 72.7 11.05 70.45 9.8 68.25 8.55 69.1 6.9" fill="#001a2c" fill-rule="evenodd" stroke="none"/>
  </g>
</svg>
