<?xml version="1.0" encoding="UTF-8" standalone="no"?>
<svg xmlns:xlink="http://www.w3.org/1999/xlink" height="90.65px" width="98.7px" xmlns="http://www.w3.org/2000/svg">
  <g transform="matrix(1.0, 0.0, 0.0, 1.0, 0.0, 0.0)">
    <path d="M13.85 27.8 Q14.85 32.55 13.8 32.3 12.55 32.05 9.1 34.6 5.2 37.45 5.05 40.4 4.75 45.45 7.7 54.1 11.55 65.45 18.7 73.15 22.55 77.3 24.2 81.7 25.7 85.65 24.95 88.3 24.2 90.9 21.7 90.65 19.0 90.4 15.4 86.55 7.65 78.25 3.3 65.1 -1.2 51.4 0.4 39.5 1.05 34.8 5.8 31.4 9.4 28.8 13.85 27.8" fill="#000000" fill-rule="evenodd" stroke="none"/>
    <path d="M73.8 23.0 Q77.5 33.3 68.6 51.15 64.05 58.65 37.55 49.7 24.25 45.2 11.9 39.2 13.4 22.4 16.95 16.1 22.75 5.7 38.95 3.8 40.45 1.8 43.65 0.75 46.95 -0.35 50.5 0.15 59.3 1.3 61.6 10.2 71.5 16.65 73.8 23.0" fill="#000000" fill-rule="evenodd" stroke="none"/>
    <path d="M67.2 49.45 Q62.9 56.45 37.9 48.1 25.35 43.9 13.7 38.3 14.85 22.8 19.55 15.9 26.7 5.35 45.15 5.0 45.35 4.7 42.9 4.4 40.5 4.1 40.8 3.9 44.9 1.0 50.65 2.0 57.2 3.15 59.8 9.05 L58.25 8.85 56.65 8.7 Q69.0 16.15 71.75 22.8 75.8 32.45 67.2 49.45" fill="#488fc1" fill-rule="evenodd" stroke="none"/>
    <path d="M43.05 39.55 Q42.75 33.9 44.35 28.65 46.2 22.55 50.0 19.7 55.05 15.9 59.0 19.7 63.0 23.5 61.1 30.55 58.55 40.0 51.15 44.3 L43.05 39.55" fill="#000000" fill-rule="evenodd" stroke="none"/>
    <path d="M24.6 19.1 Q31.5 18.5 32.15 29.8 32.5 35.5 31.45 41.25 22.45 41.9 20.7 37.8 18.4 32.55 19.65 26.05 20.9 19.45 24.6 19.1" fill="#000000" fill-rule="evenodd" stroke="none"/>
    <path d="M40.65 26.6 Q42.2 30.3 44.5 28.45 59.0 16.9 63.45 21.7 59.5 20.55 53.2 24.15 46.95 28.4 45.3 29.2 41.15 31.4 40.65 26.6" fill="#000000" fill-rule="evenodd" stroke="none"/>
    <path d="M45.3 29.2 L51.1 25.4 Q55.8 22.4 59.15 21.65 61.3 24.7 59.7 30.3 57.15 39.75 50.5 44.1 L43.05 39.55 Q42.75 34.75 45.05 29.35 45.2 29.3 45.3 29.2" fill="#ffffff" fill-rule="evenodd" stroke="none"/>
    <path d="M58.05 20.6 Q53.35 21.6 46.0 27.3 47.8 23.85 49.85 22.15 54.7 18.2 58.05 20.6" fill="#1c6daf" fill-rule="evenodd" stroke="none"/>
    <path d="M23.5 14.2 Q23.85 17.3 26.95 21.6 30.15 26.1 31.9 25.95 31.45 23.8 33.55 27.15 34.75 29.05 32.0 28.05 24.35 23.3 23.5 14.2" fill="#000000" fill-rule="evenodd" stroke="none"/>
    <path d="M30.95 25.65 Q28.95 24.6 26.5 21.0 29.85 21.55 30.95 25.65" fill="#1c6daf" fill-rule="evenodd" stroke="none"/>
    <path d="M25.25 20.95 Q27.15 24.85 31.3 27.6 31.95 33.0 30.2 39.7 22.35 41.0 21.0 37.15 19.75 33.6 20.65 27.75 21.65 21.2 24.85 20.95 L25.25 20.95" fill="#ffffff" fill-rule="evenodd" stroke="none"/>
    <path d="M58.55 32.5 Q57.15 36.8 54.55 37.9 51.9 38.95 50.9 35.75 50.3 33.8 51.4 30.6 52.4 27.6 53.95 25.9 55.6 24.1 57.55 24.65 59.5 25.2 59.4 27.5 L59.1 30.4 54.7 29.85 58.55 32.5" fill="#000000" fill-rule="evenodd" stroke="none"/>
    <path d="M31.45 30.45 Q31.25 34.05 29.45 35.4 27.65 36.75 26.2 34.5 25.35 33.1 25.55 30.4 25.7 27.9 26.55 26.3 27.45 24.6 29.05 24.6 30.65 24.65 31.05 26.45 L31.4 28.75 27.95 29.2 31.45 30.45" fill="#000000" fill-rule="evenodd" stroke="none"/>
    <path d="M48.35 1.8 Q44.5 3.05 48.4 5.7 L43.65 5.05 45.15 5.0 Q45.35 4.7 42.9 4.4 40.5 4.1 40.8 3.9 43.85 1.7 48.35 1.8" fill="#0c4f7d" fill-rule="evenodd" stroke="none"/>
    <path d="M19.2 40.8 L13.7 38.3 Q14.35 29.15 15.9 23.95 18.1 16.35 23.0 11.95 17.4 18.9 19.2 40.8" fill="#0c4f7d" fill-rule="evenodd" stroke="none"/>
    <path d="M41.95 38.45 Q50.9 41.8 57.85 46.55 68.6 46.0 72.55 51.5 76.15 56.5 72.5 63.25 68.7 70.25 59.75 73.65 49.4 77.65 36.4 74.6 22.65 71.4 14.45 64.7 7.35 58.9 5.8 51.8 4.4 45.2 8.25 40.3 12.2 35.25 19.6 34.7 29.85 33.95 41.95 38.45" fill="#000000" fill-rule="evenodd" stroke="none"/>
    <path d="M41.85 39.3 Q50.4 42.5 56.75 47.0 66.85 46.45 70.6 51.7 74.0 56.45 70.55 62.85 67.0 69.45 58.55 72.7 48.8 76.5 36.6 73.6 23.7 70.55 16.0 64.25 9.25 58.7 7.85 52.0 6.5 45.75 10.1 41.1 13.8 36.3 20.8 35.8 30.45 35.05 41.85 39.3" fill="#f9de65" fill-rule="evenodd" stroke="none"/>
    <path d="M85.55 34.6 Q86.45 37.75 86.55 44.35 L86.65 57.35 Q86.8 63.25 87.85 65.6 89.6 69.4 95.95 73.7 99.25 75.95 98.6 78.7 98.05 81.2 94.7 82.8 91.3 84.4 87.3 83.8 82.75 83.05 79.45 79.5 73.55 73.1 75.15 61.75 75.6 58.45 77.25 51.7 78.9 44.85 79.4 41.45 80.0 37.05 78.05 36.45 L72.3 37.0 Q68.75 37.65 69.25 34.3 69.7 30.95 72.4 30.05 83.35 26.55 85.55 34.6" fill="#000000" fill-rule="evenodd" stroke="none"/>
    <path d="M81.8 49.65 L80.6 59.0 Q80.15 66.25 82.4 67.9 83.8 68.9 85.65 68.3 L88.0 68.4 Q91.95 72.55 95.85 74.85 97.25 75.65 97.15 76.8 97.05 78.1 94.65 78.75 88.25 80.5 82.8 76.45 77.1 72.2 78.15 65.1 L80.9 49.6 Q81.2 47.55 81.65 47.4 82.05 47.25 81.8 49.65" fill="#451d43" fill-rule="evenodd" stroke="none"/>
    <path d="M83.2 32.5 Q84.6 34.65 84.05 38.3 83.75 40.55 83.1 40.45 82.45 40.3 82.3 37.45 82.15 34.65 79.65 33.6 L74.55 33.3 Q71.95 33.8 71.85 32.4 71.75 31.0 74.2 30.5 81.0 29.05 83.2 32.5" fill="#451d43" fill-rule="evenodd" stroke="none"/>
    <path d="M33.15 30.95 Q36.95 31.6 39.25 33.9 41.3 36.0 41.3 38.5 41.3 41.0 39.15 42.35 36.7 43.85 32.55 43.15 28.35 42.45 25.95 40.15 23.75 38.0 23.8 35.55 23.85 33.05 26.2 31.7 28.8 30.2 33.15 30.95" fill="#000000" fill-rule="evenodd" stroke="none"/>
    <path d="M33.0 31.65 Q36.95 32.3 36.9 35.25 36.9 38.2 32.7 37.5 28.35 36.8 28.45 33.85 28.55 30.85 33.0 31.65" fill="#451d43" fill-rule="evenodd" stroke="none"/>
    <path d="M36.6 73.6 Q15.7 68.7 9.4 56.4 15.15 61.7 23.2 56.15 27.0 53.55 36.15 56.3 43.95 58.6 52.95 63.9 62.35 69.45 68.25 66.1 63.65 71.4 55.95 73.6 47.15 76.1 36.6 73.6" fill="#dea623" fill-rule="evenodd" stroke="none"/>
    <path d="M6.85 69.75 Q5.6 66.8 5.8 65.05 6.0 63.3 7.55 66.85 9.05 70.4 13.85 77.1 18.3 83.45 20.85 86.0 23.2 88.3 21.95 89.05 20.65 89.8 18.15 87.6 12.05 82.2 6.85 69.75" fill="#451d43" fill-rule="evenodd" stroke="none"/>
    <path d="M39.65 60.3 Q44.6 59.7 50.35 64.35 50.5 60.55 51.35 64.7 52.15 68.65 51.0 68.2 47.95 64.5 44.8 62.6 38.6 58.95 32.85 66.0 34.9 60.85 39.65 60.3" fill="#000000" fill-rule="evenodd" stroke="none"/>
  </g>
</svg>
