<?xml version="1.0" encoding="UTF-8" standalone="no"?>
<svg xmlns:xlink="http://www.w3.org/1999/xlink" height="139.4px" width="152.8px" xmlns="http://www.w3.org/2000/svg">
  <g transform="matrix(1.0, 0.0, 0.0, 1.0, 0.0, 0.0)">
    <path d="M89.35 88.4 Q85.9 92.1 80.45 91.1 75.8 90.2 73.45 87.3 70.95 84.1 73.15 80.15 75.35 76.25 80.05 75.1 86.0 73.7 89.6 78.95 93.25 84.2 89.35 88.4" fill="#1d3f60" fill-rule="evenodd" stroke="none"/>
    <path d="M88.55 87.75 Q85.45 91.05 80.55 90.2 76.35 89.45 74.3 86.9 72.05 84.1 74.05 80.6 76.0 77.15 80.25 76.1 85.55 74.8 88.8 79.45 92.0 84.05 88.55 87.75" fill="#a5c6be" fill-rule="evenodd" stroke="none"/>
    <path d="M87.25 77.75 Q88.05 80.1 85.85 79.65 L81.0 78.75 Q77.7 78.6 75.75 80.75 73.45 83.4 74.3 86.9 72.05 84.1 74.05 80.6 76.0 77.15 80.25 76.1 84.1 75.2 87.25 77.75" fill="#ffffff" fill-rule="evenodd" stroke="none"/>
    <path d="M107.05 69.2 L107.75 70.35 Q108.45 71.7 108.3 72.8 107.75 76.2 99.0 75.5 89.9 74.75 87.5 76.55 86.6 77.25 86.2 78.55 L85.5 81.0 Q84.6 83.4 81.2 84.0 77.85 84.55 77.55 82.8 77.2 80.45 77.8 77.5 78.6 73.55 80.9 71.5 86.05 66.95 97.05 67.6 102.6 67.95 107.05 69.2" fill="#000000" fill-rule="evenodd" stroke="none"/>
    <path d="M62.15 105.75 Q74.35 110.65 69.35 113.1 66.25 114.6 56.8 123.05 L47.95 131.15 27.3 131.05 Q45.0 116.65 62.15 105.75" fill="#000000" fill-rule="evenodd" stroke="none"/>
    <path d="M123.55 84.85 Q122.95 81.8 124.7 79.3 126.7 76.4 131.15 75.4 136.8 74.1 140.8 75.8 145.25 77.65 145.75 82.5 148.3 86.35 149.3 91.45 150.7 98.75 147.0 103.7 141.3 111.35 129.4 102.65 125.0 99.45 121.6 95.3 118.35 91.3 118.45 89.6 118.7 84.1 123.55 84.85" fill="#1d3f60" fill-rule="evenodd" stroke="none"/>
    <path d="M132.1 80.75 Q131.3 80.6 130.8 81.1 130.45 81.45 130.65 81.7 L130.95 81.85 127.6 85.15 Q126.9 85.6 124.7 84.8 124.3 78.25 131.7 76.45 137.05 75.15 140.95 77.2 144.85 79.25 144.75 83.45 144.65 85.45 145.6 84.95 151.4 95.25 146.2 102.35 140.95 109.5 130.0 101.65 125.95 98.75 122.8 94.95 119.85 91.35 119.95 89.75 120.25 84.1 124.9 86.3 127.25 87.25 128.4 86.35 130.65 84.75 132.5 81.75 133.0 80.95 132.1 80.75" fill="#ffffff" fill-rule="evenodd" stroke="none"/>
    <path d="M132.5 81.75 Q133.0 80.95 132.1 80.75 131.3 80.6 130.8 81.1 130.45 81.45 130.65 81.7 L130.95 81.85 127.6 85.15 Q126.9 85.6 124.7 84.8 L124.8 82.5 Q127.3 82.7 131.35 79.9 132.05 78.7 133.0 78.7 133.95 78.75 133.6 80.05 132.9 82.65 131.35 84.6 129.7 86.65 128.4 86.35 130.65 84.75 132.5 81.75" fill="#a5c6be" fill-rule="evenodd" stroke="none"/>
    <path d="M147.3 88.55 Q148.25 90.2 147.0 92.2 146.7 92.8 146.8 91.6 147.45 90.0 147.3 88.55" fill="#235277" fill-rule="evenodd" stroke="none"/>
    <path d="M148.1 91.15 Q148.75 92.6 147.55 94.5 147.25 95.05 147.45 93.95 148.1 92.4 148.1 91.15" fill="#235277" fill-rule="evenodd" stroke="none"/>
    <path d="M138.6 92.35 Q143.3 96.2 141.3 102.25 139.25 108.3 133.6 107.75 128.55 107.25 126.05 102.25 123.95 98.0 124.9 94.4 125.9 90.5 130.4 89.85 134.85 89.25 138.6 92.35" fill="#1d3f60" fill-rule="evenodd" stroke="none"/>
    <path d="M137.95 93.1 Q142.15 96.55 140.4 101.9 138.65 107.25 133.6 106.7 129.05 106.25 126.8 101.8 124.9 98.0 125.7 94.8 126.6 91.35 130.6 90.85 134.6 90.35 137.95 93.1" fill="#a5c6be" fill-rule="evenodd" stroke="none"/>
    <path d="M136.25 95.25 Q134.4 92.55 131.5 92.3 128.0 92.05 125.7 94.85 L125.7 94.8 Q126.6 91.35 130.6 90.85 134.6 90.35 137.95 93.1 140.95 95.6 140.8 99.65 L138.4 99.7 136.25 95.25" fill="#ffffff" fill-rule="evenodd" stroke="none"/>
    <path d="M141.6 45.6 Q142.95 53.25 139.75 58.35 L140.75 59.05 Q143.55 55.75 144.1 55.35 147.05 53.25 150.3 55.7 154.55 59.15 151.6 64.05 148.95 68.45 145.1 69.0 143.1 74.35 134.55 76.55 125.75 78.8 117.05 75.6 104.5 75.05 98.6 67.2 90.6 56.5 93.25 44.65 90.1 46.85 86.1 46.7 82.5 46.55 79.35 44.6 72.1 39.6 72.7 30.3 73.25 21.4 79.7 17.95 86.95 14.4 93.25 19.3 99.5 24.2 99.1 33.1 L102.4 30.2 Q107.0 27.05 113.5 25.9 108.25 22.65 106.3 17.9 104.45 13.6 105.85 9.3 107.25 5.0 111.15 2.45 115.35 -0.25 121.1 0.0 126.45 0.25 130.35 3.7 134.0 6.85 135.15 11.5 136.3 16.15 134.4 20.1 132.3 24.45 127.1 26.25 131.55 26.2 133.3 31.75 140.05 37.05 141.6 45.6" fill="#000000" fill-rule="evenodd" stroke="none"/>
    <path d="M149.6 56.65 Q153.75 60.55 149.3 65.25 151.0 62.05 148.8 59.1 146.65 56.15 143.65 57.5 144.5 55.9 146.3 55.6 148.15 55.3 149.6 56.65" fill="#2d2652" fill-rule="evenodd" stroke="none"/>
    <path d="M128.55 3.45 Q133.0 6.5 133.95 12.95 135.05 20.0 129.8 23.15 128.4 23.95 127.75 23.15 127.0 22.25 129.2 19.8 134.7 13.8 128.55 3.45" fill="#2d2652" fill-rule="evenodd" stroke="none"/>
    <path d="M90.3 18.55 Q95.15 20.85 97.15 27.05 99.35 33.85 94.7 37.8 93.45 38.8 92.7 38.15 91.85 37.35 93.6 34.6 98.0 27.65 90.3 18.55" fill="#2d2652" fill-rule="evenodd" stroke="none"/>
    <path d="M141.05 49.15 Q141.15 54.55 139.15 58.05 L138.15 57.7 Q140.1 55.45 140.3 52.0 140.45 48.6 138.7 48.25 137.4 48.0 134.95 54.55 134.25 55.95 133.85 57.4 132.0 57.65 131.05 58.6 136.85 56.75 140.2 59.75 137.2 63.15 138.6 66.5 140.0 69.7 143.8 69.4 141.7 74.45 131.9 75.9 121.8 77.4 114.7 73.0 112.5 71.8 111.4 63.05 110.5 56.05 107.35 55.65 L110.3 55.55 Q101.8 53.25 97.9 57.4 96.85 58.55 98.5 60.15 99.95 61.5 102.55 62.55 109.8 65.5 111.3 68.75 111.9 71.15 113.9 73.45 L107.75 72.35 Q104.25 71.55 102.05 69.75 96.15 64.25 94.2 56.0 93.6 53.2 95.4 50.15 97.1 47.3 99.45 46.55 L108.9 46.8 Q114.0 48.75 116.75 53.35 116.3 43.8 120.2 36.25 122.95 31.4 126.35 30.5 128.7 29.9 130.75 31.15 136.25 35.05 137.0 41.7 137.95 40.05 138.8 39.9 140.95 43.65 141.05 49.15" fill="#f5cb99" fill-rule="evenodd" stroke="none"/>
    <path d="M139.6 52.4 Q139.15 55.65 137.5 57.6 L134.65 57.3 Q138.05 48.7 138.8 48.85 140.0 49.15 139.6 52.4" fill="#ffffff" fill-rule="evenodd" stroke="none"/>
    <path d="M138.95 51.95 Q138.45 53.7 137.6 54.4 136.75 55.05 136.3 54.55 135.85 53.95 136.35 52.4 137.75 48.3 138.85 49.1 139.5 50.1 138.95 51.95" fill="#000000" fill-rule="evenodd" stroke="none"/>
    <path d="M109.7 59.85 L110.75 66.0 Q109.35 64.4 104.45 62.25 108.2 61.15 107.1 61.05 105.55 60.9 103.15 61.7 L100.55 60.4 Q104.35 59.3 103.35 59.2 L99.65 59.75 Q98.55 58.85 98.95 57.95 100.05 55.7 106.35 56.05 108.65 56.2 109.7 59.85" fill="#ffffff" fill-rule="evenodd" stroke="none"/>
    <path d="M100.0 46.35 Q97.15 47.95 96.0 50.85 94.9 53.6 96.25 54.45 L102.3 54.75 110.5 55.15 Q111.0 55.25 110.5 55.55 109.8 55.9 109.95 56.25 L111.25 58.7 Q112.4 61.15 113.0 64.0 114.1 69.1 118.7 72.25 125.3 76.75 136.85 74.65 L136.95 74.65 Q131.8 76.5 125.8 76.2 119.25 75.85 114.7 73.0 112.5 71.8 111.4 63.05 110.5 56.05 107.35 55.65 L110.3 55.55 Q101.8 53.25 97.9 57.4 96.85 58.55 98.5 60.15 99.95 61.5 102.55 62.55 109.8 65.5 111.3 68.75 111.9 71.15 113.9 73.45 L107.75 72.35 Q104.25 71.55 102.05 69.75 96.15 64.25 94.2 56.0 93.6 53.2 95.4 50.15 97.1 47.3 99.45 46.55 L100.0 46.35" fill="#c86739" fill-rule="evenodd" stroke="none"/>
    <path d="M136.0 44.6 Q134.5 47.8 131.15 44.35 L129.6 37.15 Q128.3 32.15 126.25 30.5 128.7 29.85 130.75 31.15 136.25 35.05 137.0 41.7 L138.1 40.25 136.0 44.6" fill="#c86739" fill-rule="evenodd" stroke="none"/>
    <path d="M129.8 44.3 Q131.5 40.55 133.05 41.3 136.2 43.1 134.4 50.5 132.6 57.95 128.8 57.35 126.85 57.0 127.75 51.95 128.3 47.7 129.8 44.3" fill="#000000" fill-rule="evenodd" stroke="none"/>
    <path d="M132.85 41.8 Q134.75 42.55 134.05 48.7 133.25 55.2 129.5 56.9 127.0 58.25 128.5 51.55 130.3 41.05 132.85 41.8" fill="#ffffff" fill-rule="evenodd" stroke="none"/>
    <path d="M133.65 43.1 Q134.7 44.45 134.5 47.6 134.3 50.6 133.4 51.95 132.45 53.3 131.8 52.6 131.1 51.85 131.35 49.2 131.6 46.45 132.35 44.6 133.05 42.8 133.65 43.1" fill="#000000" fill-rule="evenodd" stroke="none"/>
    <path d="M138.45 37.9 Q139.25 36.55 140.6 37.4 141.95 38.3 142.4 40.55 143.5 46.8 135.8 52.95 134.1 54.3 133.45 48.9 132.5 40.45 130.25 35.1 127.95 29.7 125.6 30.6 L124.5 30.55 Q124.6 30.05 125.75 29.75 129.2 28.9 133.95 33.0 137.9 37.65 138.45 37.9" fill="#000000" fill-rule="evenodd" stroke="none"/>
    <path d="M141.0 38.9 Q141.85 40.2 141.6 42.4 141.25 45.85 137.95 49.3 137.3 49.85 136.9 49.65 136.5 49.45 137.1 48.75 142.1 43.0 141.0 38.9" fill="#2d2652" fill-rule="evenodd" stroke="none"/>
    <path d="M131.7 29.8 Q132.55 31.2 134.2 35.6 136.0 40.3 136.3 42.4 136.6 44.7 135.95 45.2 135.3 45.7 135.2 43.2 135.1 40.9 133.75 36.05 132.55 31.5 131.7 29.8" fill="#2d2652" fill-rule="evenodd" stroke="none"/>
    <path d="M104.65 70.1 Q107.85 67.15 111.55 69.0 115.55 71.0 116.55 77.65 117.8 85.7 121.25 91.05 125.25 97.2 130.4 96.15 132.3 96.15 133.65 98.05 135.2 100.25 134.0 103.2 133.3 104.85 130.95 105.5 128.5 106.15 125.4 105.45 117.65 103.65 112.35 95.65 110.8 97.8 108.1 103.95 L113.2 106.2 Q118.7 108.85 120.55 111.0 121.3 111.8 120.65 112.55 L124.05 115.0 Q127.55 117.8 128.35 119.75 129.65 122.8 126.85 127.6 123.25 133.8 114.0 139.4 L93.6 138.5 Q100.2 134.9 106.1 130.9 117.95 122.95 114.75 121.05 105.3 125.15 102.2 127.2 99.5 124.3 94.0 119.55 L89.1 115.4 78.1 114.6 Q73.05 115.45 70.4 118.2 L65.6 118.05 Q62.85 117.0 60.9 114.5 55.9 108.2 60.65 100.25 L67.3 97.35 Q69.1 91.75 75.75 87.15 82.85 82.2 90.35 82.4 92.9 80.7 104.65 70.1" fill="#000000" fill-rule="evenodd" stroke="none"/>
    <path d="M114.15 73.8 L115.9 80.25 Q117.2 85.1 118.55 88.2 122.7 97.8 129.55 97.05 130.65 96.95 131.45 98.1 132.2 99.25 131.3 99.5 126.2 100.6 121.3 97.15 117.4 94.45 110.05 72.4 109.15 69.85 111.25 70.65 113.35 71.45 114.15 73.8" fill="#2d2652" fill-rule="evenodd" stroke="none"/>
    <path d="M107.45 82.4 Q106.9 80.55 107.3 79.15 107.75 77.7 107.95 79.2 109.65 90.2 117.1 98.95 110.65 92.85 107.45 82.4" fill="#2d2652" fill-rule="evenodd" stroke="none"/>
    <path d="M104.45 90.05 Q109.1 96.5 106.8 102.95 102.25 102.55 106.7 104.1 107.85 104.5 111.85 106.6 116.9 109.35 119.15 111.3 117.4 111.1 110.3 117.2 103.5 122.95 102.95 124.25 102.45 125.5 104.65 124.5 102.45 126.3 101.95 125.8 92.5 116.1 89.65 114.85 83.65 113.3 80.05 113.4 74.2 113.55 69.85 117.3 63.75 118.5 60.75 112.1 57.9 105.85 61.15 101.15 L67.05 98.2 Q67.3 100.65 68.1 98.85 74.4 83.8 91.3 83.45 99.5 83.25 104.45 90.05" fill="#850000" fill-rule="evenodd" stroke="none"/>
    <path d="M62.65 91.4 Q67.7 88.45 74.1 89.75 75.0 90.15 73.95 91.3 67.85 89.9 62.7 93.1 57.0 96.65 48.1 108.25 40.4 118.3 24.0 111.1 9.15 104.55 0.0 90.95 9.4 104.25 24.35 110.2 40.7 116.7 48.2 106.45 56.6 94.9 62.65 91.4" fill="#111111" fill-rule="evenodd" stroke="none"/>
    <path d="M104.85 90.6 Q109.0 96.85 106.8 102.95 102.25 102.55 106.7 104.1 107.85 104.5 111.85 106.6 116.9 109.35 119.15 111.3 117.75 111.1 112.0 115.75 112.55 113.6 111.95 112.55 110.95 110.85 104.0 108.55 95.9 105.9 91.4 108.2 86.1 109.3 82.65 108.9 76.25 108.2 74.5 100.75 72.8 93.65 79.45 88.6 85.0 84.45 92.95 83.5 100.55 84.1 104.85 90.6" fill="#ff0000" fill-rule="evenodd" stroke="none"/>
    <path d="M63.35 115.6 L67.3 111.3 Q69.35 109.25 75.95 110.25 82.1 111.2 87.3 113.85 88.0 114.15 88.6 114.6 76.65 111.5 69.85 117.3 66.15 118.0 63.35 115.6" fill="#ff0000" fill-rule="evenodd" stroke="none"/>
    <path d="M122.85 122.4 Q121.3 117.75 115.8 115.9 116.1 114.8 117.9 113.95 L119.65 113.35 123.3 116.1 Q126.95 119.15 127.1 120.75 127.3 123.05 126.65 125.0 125.9 127.3 124.5 126.95 123.9 126.8 123.6 125.45 L122.85 122.4" fill="#2d2652" fill-rule="evenodd" stroke="none"/>
    <path d="M61.65 116.9 L46.25 130.0 41.65 130.0 Q45.1 125.9 53.4 121.05 60.5 116.9 61.65 116.9" fill="#2d2652" fill-rule="evenodd" stroke="none"/>
  </g>
</svg>
