<?xml version="1.0" encoding="UTF-8" standalone="no"?>
<svg xmlns:xlink="http://www.w3.org/1999/xlink" height="348.15px" width="417.8px" xmlns="http://www.w3.org/2000/svg">
  <g transform="matrix(1.0, 0.0, 0.0, 1.0, 208.9, 174.05)">
    <path d="M-194.75 58.6 L-201.8 66.1 -203.85 66.65 -194.75 58.6 -33.0 -114.0 -13.35 -102.25 -194.75 58.6" fill="#e6d76f" fill-rule="evenodd" stroke="none"/>
    <path d="M79.65 -111.4 L102.55 -97.65 -168.65 88.75 -171.7 81.7 79.65 -111.4" fill="#e6d76f" fill-rule="evenodd" stroke="none"/>
    <path d="M138.7 -81.3 L160.45 -58.9 -148.2 119.15 -150.85 111.95 138.7 -81.3" fill="#f8ff6a" fill-rule="evenodd" stroke="none"/>
    <path d="M162.1 -19.5 L181.75 4.7 -141.5 154.65 -143.5 147.25 162.1 -19.5" fill="#e6d76f" fill-rule="evenodd" stroke="none"/>
    <path d="M-23.75 -167.45 L-208.9 56.7 -34.25 -174.05 -23.75 -167.45" fill="#f8ff6a" fill-rule="evenodd" stroke="none"/>
    <path d="M26.9 -133.9 L36.15 -125.55 -183.5 64.9 26.9 -133.9" fill="#f8ff6a" fill-rule="evenodd" stroke="none"/>
    <path d="M-16.8 -151.1 L-6.85 -143.65 -208.35 65.95 -16.8 -151.1" fill="#ffffff" fill-rule="evenodd" stroke="none"/>
    <path d="M38.75 -112.45 L47.5 -103.6 -182.8 73.85 38.75 -112.45" fill="#ffffff" fill-rule="evenodd" stroke="none"/>
    <path d="M192.45 63.65 L198.15 74.7 -75.1 174.1 192.45 63.65" fill="#e6d76f" fill-rule="evenodd" stroke="none"/>
    <path d="M106.25 -83.1 L114.25 -73.6 -166.9 106.2 -172.9 106.2 106.25 -83.1" fill="#f8ff6a" fill-rule="evenodd" stroke="none"/>
    <path d="M151.05 -34.15 L158.25 -24.05 -136.7 132.15 -142.7 131.65 151.05 -34.15" fill="#ffffff" fill-rule="evenodd" stroke="none"/>
    <path d="M178.5 23.1 L184.85 33.75 -122.15 164.7 -128.1 163.7 178.5 23.1" fill="#f8ff6a" fill-rule="evenodd" stroke="none"/>
    <path d="M202.85 37.65 L208.9 48.5 -101.5 171.1 -107.4 169.95 202.85 37.65" fill="#f8ff6a" fill-rule="evenodd" stroke="none"/>
  </g>
</svg>
