<?xml version="1.0" encoding="UTF-8" standalone="no"?>
<svg xmlns:xlink="http://www.w3.org/1999/xlink" height="79.8px" width="85.5px" xmlns="http://www.w3.org/2000/svg">
  <g transform="matrix(1.0, 0.0, 0.0, 1.0, 42.75, 39.9)">
    <path d="M-28.1 -18.45 Q-27.7 -14.1 -28.6 -14.4 -29.65 -14.8 -33.05 -12.9 -36.9 -10.7 -37.3 -8.05 -38.05 -3.55 -36.35 4.45 -34.1 15.1 -28.5 22.75 -25.45 26.85 -24.45 30.95 -23.55 34.65 -24.5 36.95 -25.45 39.25 -27.65 38.75 -30.05 38.25 -32.8 34.4 -38.95 26.15 -41.45 13.85 -44.1 1.1 -41.35 -9.4 -40.3 -13.55 -35.7 -16.1 -32.2 -18.05 -28.1 -18.45" fill="#000000" fill-rule="evenodd" stroke="none"/>
    <path d="M26.15 -16.5 Q28.4 -6.85 18.55 8.2 13.7 14.45 -9.15 3.65 -16.3 0.25 -24.4 -4.45 L-31.0 -8.45 Q-29.45 -16.0 -28.4 -19.4 -26.7 -25.05 -24.1 -28.6 -17.8 -37.35 -3.1 -37.3 -1.55 -39.0 1.5 -39.6 L7.65 -39.45 Q15.45 -37.45 16.55 -29.25 L22.35 -23.7 Q25.25 -20.25 26.15 -16.5" fill="#000000" fill-rule="evenodd" stroke="none"/>
    <path d="M24.35 -16.85 Q26.9 -7.85 17.45 6.55 12.9 12.35 -8.65 2.25 -15.35 -0.9 -23.0 -5.3 L-29.3 -9.05 Q-26.7 -22.8 -21.75 -28.55 -14.2 -37.2 2.35 -35.65 2.55 -35.85 0.4 -36.35 -1.75 -36.9 -1.4 -37.1 2.55 -39.2 7.6 -37.7 13.35 -36.0 15.05 -30.45 15.15 -30.15 13.7 -30.8 12.2 -31.5 12.25 -31.05 17.35 -27.15 19.85 -24.45 23.25 -20.75 24.35 -16.85" fill="#48a1c5" fill-rule="evenodd" stroke="none"/>
    <path d="M14.0 -11.05 Q11.95 -5.9 7.6 -2.3 5.4 -0.5 3.65 0.25 L-3.15 -4.85 Q-2.85 -9.9 -0.85 -14.45 1.5 -19.75 5.15 -21.9 10.1 -24.8 13.25 -21.0 16.4 -17.15 14.0 -11.05" fill="#000000" fill-rule="evenodd" stroke="none"/>
    <path d="M-17.55 -25.1 Q-11.3 -24.9 -11.9 -14.7 -12.15 -9.65 -13.7 -4.6 -21.85 -4.9 -23.0 -8.75 -24.5 -13.75 -22.7 -19.4 -20.9 -25.2 -17.55 -25.1" fill="#000000" fill-rule="evenodd" stroke="none"/>
    <path d="M17.0 -18.75 Q13.55 -20.15 7.6 -17.6 1.5 -14.45 -0.05 -13.85 -3.95 -12.4 -3.95 -16.75 -2.95 -13.25 -0.7 -14.65 13.5 -23.5 17.0 -18.75" fill="#000000" fill-rule="evenodd" stroke="none"/>
    <path d="M5.6 -16.7 Q10.1 -18.9 13.15 -19.2 14.7 -16.3 12.8 -11.4 10.75 -6.25 6.65 -2.6 4.65 -0.8 3.05 0.0 L-3.15 -4.85 Q-2.85 -9.25 -0.3 -13.8 L-0.05 -13.85 Q1.2 -14.35 5.6 -16.7" fill="#ffffff" fill-rule="evenodd" stroke="none"/>
    <path d="M4.8 -19.75 Q9.55 -22.75 12.3 -20.25 8.0 -19.85 0.8 -15.55 2.8 -18.55 4.8 -19.75" fill="#0082b3" fill-rule="evenodd" stroke="none"/>
    <path d="M-18.0 -29.65 Q-18.0 -26.85 -15.7 -22.65 -13.3 -18.25 -11.7 -18.2 -11.85 -20.1 -10.35 -17.0 -9.75 -15.75 -10.6 -15.7 -11.4 -15.7 -11.9 -16.35 -18.2 -21.35 -18.0 -29.65" fill="#000000" fill-rule="evenodd" stroke="none"/>
    <path d="M-12.55 -18.55 Q-14.2 -19.7 -16.0 -23.2 -13.1 -22.4 -12.55 -18.55" fill="#0082b3" fill-rule="evenodd" stroke="none"/>
    <path d="M-17.15 -23.4 Q-15.9 -19.75 -12.45 -16.8 -12.4 -11.9 -14.65 -6.1 -21.85 -5.7 -22.65 -9.3 -23.4 -12.65 -22.0 -17.8 -20.35 -23.5 -17.5 -23.4 L-17.15 -23.4" fill="#ffffff" fill-rule="evenodd" stroke="none"/>
    <path d="M5.25 -12.0 Q6.45 -14.55 8.05 -15.95 9.75 -17.4 11.4 -16.7 13.05 -16.0 12.8 -13.95 L12.2 -11.35 8.3 -12.3 11.5 -9.55 Q9.8 -5.85 7.35 -5.15 4.9 -4.45 4.3 -7.45 3.95 -9.25 5.25 -12.0" fill="#000000" fill-rule="evenodd" stroke="none"/>
    <path d="M-15.6 -15.7 L-12.6 -14.2 Q-13.15 -11.05 -14.9 -10.0 -16.7 -8.95 -17.7 -11.15 -18.35 -12.5 -17.9 -14.85 -17.5 -17.1 -16.55 -18.45 -15.5 -19.9 -14.1 -19.7 -12.7 -19.5 -12.5 -17.85 L-12.45 -15.75 -15.6 -15.7" fill="#000000" fill-rule="evenodd" stroke="none"/>
    <path d="M5.55 -38.15 Q2.0 -37.45 5.2 -34.65 L1.0 -35.75 2.35 -35.65 Q2.55 -35.85 0.4 -36.35 -1.75 -36.9 -1.4 -37.1 1.55 -38.65 5.55 -38.15" fill="#00658d" fill-rule="evenodd" stroke="none"/>
    <path d="M-24.65 -6.25 L-29.3 -9.05 Q-27.75 -17.2 -25.85 -21.7 -23.1 -28.3 -18.25 -31.7 -23.9 -26.05 -24.65 -6.25" fill="#00658d" fill-rule="evenodd" stroke="none"/>
    <path d="M9.4 3.0 Q19.1 3.6 22.05 8.95 24.75 13.85 20.8 19.5 16.65 25.35 8.25 27.45 -1.45 29.95 -12.75 25.85 -24.75 21.55 -31.4 14.7 -37.2 8.75 -37.8 2.2 -38.35 -3.85 -34.4 -7.85 -30.35 -11.9 -23.65 -11.65 -14.4 -11.25 -4.0 -5.95 3.75 -2.0 9.4 3.0" fill="#000000" fill-rule="evenodd" stroke="none"/>
    <path d="M8.35 3.25 Q17.5 3.85 20.25 8.9 22.8 13.5 19.05 18.9 15.2 24.45 7.25 26.5 -1.85 28.85 -12.5 25.0 -23.8 20.95 -30.0 14.45 -35.45 8.8 -36.05 2.6 -36.55 -3.15 -32.8 -6.95 -29.0 -10.85 -22.7 -10.6 -13.95 -10.2 -4.15 -5.2 3.05 -1.45 8.35 3.25" fill="#fadf82" fill-rule="evenodd" stroke="none"/>
    <path d="M23.3 18.4 Q24.05 15.5 26.25 9.6 28.45 3.65 29.25 0.65 30.25 -3.2 28.55 -4.0 27.75 -4.35 23.35 -4.1 20.15 -3.85 20.9 -6.85 21.7 -9.75 24.15 -10.25 29.75 -11.4 32.45 -9.9 34.95 -8.6 35.5 -4.85 35.95 -1.95 35.35 3.95 L34.1 15.65 Q33.6 21.0 34.35 23.2 35.45 26.8 40.7 31.3 43.4 33.65 42.55 36.05 41.8 38.25 38.7 39.3 35.45 40.4 31.95 39.45 27.9 38.3 25.3 34.8 20.7 28.4 23.3 18.4" fill="#000000" fill-rule="evenodd" stroke="none"/>
    <path d="M29.15 24.65 Q30.35 25.75 32.05 25.4 33.65 25.05 34.15 25.7 37.2 29.8 40.5 32.3 41.7 33.2 41.45 34.2 41.2 35.35 39.05 35.7 33.15 36.6 28.65 32.4 23.95 27.95 25.65 21.7 L29.75 8.1 Q30.25 6.3 30.6 6.25 31.0 6.15 30.55 8.25 L28.5 16.5 Q27.3 22.95 29.15 24.65" fill="#513256" fill-rule="evenodd" stroke="none"/>
    <path d="M30.35 -6.4 Q28.5 -7.45 25.75 -7.2 23.4 -7.0 23.45 -8.25 23.5 -9.5 25.75 -9.75 31.95 -10.35 33.6 -7.0 34.65 -4.9 33.75 -1.7 33.25 0.3 32.65 0.1 32.1 0.0 32.3 -2.65 32.45 -5.2 30.35 -6.4" fill="#513256" fill-rule="evenodd" stroke="none"/>
    <path d="M-19.95 -10.5 Q-19.65 -12.7 -17.4 -13.65 -14.95 -14.7 -11.1 -13.6 -7.75 -12.6 -6.0 -10.3 -4.3 -8.2 -4.6 -6.0 -4.85 -3.75 -6.95 -2.75 -9.25 -1.7 -12.9 -2.75 -16.55 -3.8 -18.5 -6.15 -20.3 -8.25 -19.95 -10.5" fill="#000000" fill-rule="evenodd" stroke="none"/>
    <path d="M-15.6 -11.5 Q-15.5 -12.6 -14.4 -13.05 L-11.3 -13.0 Q-7.85 -12.0 -8.15 -9.35 -8.5 -6.7 -12.2 -7.75 -16.0 -8.85 -15.6 -11.5" fill="#513256" fill-rule="evenodd" stroke="none"/>
    <path d="M3.2 18.05 Q11.05 23.95 16.65 21.6 12.0 25.85 4.9 27.0 -3.35 28.3 -12.5 25.0 -30.65 18.4 -35.05 6.75 -32.95 9.2 -29.7 9.55 -26.35 9.9 -22.65 7.95 -19.0 6.0 -11.1 9.4 -4.3 12.35 3.2 18.05" fill="#e8b049" fill-rule="evenodd" stroke="none"/>
    <path d="M-38.75 18.45 Q-39.55 15.65 -39.2 14.1 -38.85 12.5 -37.85 15.9 -36.8 19.25 -33.3 25.75 -29.95 31.95 -27.9 34.45 -26.05 36.8 -27.25 37.3 -28.5 37.85 -30.5 35.6 -35.4 30.1 -38.75 18.45" fill="#513256" fill-rule="evenodd" stroke="none"/>
  </g>
</svg>
