<?xml version="1.0" encoding="UTF-8" standalone="no"?>
<svg xmlns:xlink="http://www.w3.org/1999/xlink" height="165.0px" width="179.5px" xmlns="http://www.w3.org/2000/svg">
  <g transform="matrix(1.0, 0.0, 0.0, 1.0, 89.75, 82.5)">
    <path d="M35.75 4.75 Q33.95 8.15 29.75 9.5 25.15 11.0 20.35 8.85 14.05 10.2 6.15 15.05 -1.2 19.6 -5.3 24.15 -1.6 31.05 -1.45 36.65 -1.3 45.3 -10.35 47.85 L-15.05 54.55 Q-16.75 65.3 -18.4 82.5 L-89.75 80.8 Q-70.65 57.5 -51.8 43.5 -36.3 31.95 -25.65 29.75 -18.35 20.25 -18.1 19.1 -17.95 18.35 -17.15 18.2 L-16.4 18.2 Q6.35 -5.0 8.15 -9.65 6.8 -16.45 10.0 -21.15 13.0 -25.55 18.25 -26.3 22.65 -27.4 27.05 -24.3 31.05 -21.5 33.9 -16.2 36.75 -10.9 37.35 -5.35 38.0 0.65 35.75 4.75" fill="#000000" fill-rule="evenodd" stroke="none"/>
    <path d="M34.75 -6.2 Q36.1 -1.35 35.15 2.2 34.3 5.3 31.85 7.05 29.45 8.75 26.2 8.7 18.8 8.6 12.9 0.65 7.15 -7.15 9.55 -15.4 10.55 -18.9 12.85 -21.25 15.15 -23.55 17.95 -24.0 20.9 -24.4 24.55 -21.75 27.85 -19.35 30.65 -15.0 33.55 -10.7 34.75 -6.2" fill="#c2d8d3" fill-rule="evenodd" stroke="none"/>
    <path d="M0.1 3.05 L7.45 -5.5 9.55 -1.3 Q12.65 3.65 17.55 7.35 1.8 12.6 -15.9 33.3 -18.05 31.8 -17.8 26.6 -17.55 21.85 -16.25 20.55 -8.7 13.1 0.1 3.05" fill="#48a1c5" fill-rule="evenodd" stroke="none"/>
    <path d="M-3.9 35.3 Q-3.25 36.9 -3.65 39.1 -4.0 41.35 -5.4 43.1 -8.8 47.55 -15.05 45.8 -17.0 45.3 -17.25 46.45 -17.45 47.6 -16.05 47.7 -14.4 47.7 -13.45 48.2 L-15.4 51.85 Q-17.85 55.95 -20.6 58.4 L-16.75 57.3 -20.25 81.95 -87.4 80.85 Q-64.65 57.0 -54.6 48.55 -41.45 37.45 -28.1 32.5 -30.85 36.4 -32.65 42.75 L-18.7 22.65 Q-20.3 27.95 -18.8 34.45 -17.3 41.25 -13.75 41.85 -9.65 42.55 -6.6 40.9 -3.2 39.05 -3.9 35.3" fill="#df9138" fill-rule="evenodd" stroke="none"/>
    <path d="M20.65 -82.4 Q36.35 -80.6 36.25 -56.4 36.2 -49.3 38.85 -47.7 L39.3 -47.4 40.65 -47.25 Q42.95 -47.75 45.45 -52.7 L48.95 -60.35 Q51.5 -65.9 53.95 -69.55 61.25 -80.7 71.35 -81.8 78.0 -82.55 82.8 -80.1 87.1 -77.9 88.8 -73.85 90.5 -69.95 89.1 -66.05 87.65 -61.95 83.3 -59.65 75.7 -55.65 68.7 -49.05 64.15 -44.65 62.25 -41.85 65.7 -40.25 67.4 -37.05 68.95 -34.05 68.6 -30.5 68.25 -26.95 66.2 -24.0 63.9 -20.85 60.25 -19.3 65.7 -5.85 56.05 0.65 46.9 6.8 30.7 3.0 20.75 0.65 17.2 -6.4 14.3 -12.0 16.45 -16.25 11.55 -24.45 13.95 -33.3 14.65 -36.05 16.35 -39.8 L18.5 -44.75 Q19.7 -48.65 16.85 -55.15 14.4 -60.75 10.7 -64.95 8.15 -67.8 7.8 -71.2 7.45 -74.35 9.05 -77.1 10.65 -79.9 13.6 -81.3 16.8 -82.9 20.65 -82.4" fill="#000000" fill-rule="evenodd" stroke="none"/>
    <path d="M53.4 -42.95 Q58.1 -42.45 61.4 -40.3 67.75 -36.3 66.8 -29.95 65.9 -23.95 59.6 -20.35 56.2 -25.55 48.95 -27.55 42.3 -29.4 35.95 -27.8 35.15 -33.4 37.75 -37.2 40.05 -40.55 44.55 -42.05 48.65 -43.4 53.4 -42.95" fill="#ffffff" fill-rule="evenodd" stroke="none"/>
    <path d="M19.9 -43.95 Q21.1 -47.75 19.05 -54.1 17.05 -60.25 13.8 -63.75 8.65 -69.35 11.15 -74.75 13.7 -80.15 21.4 -79.3 28.75 -78.45 31.65 -72.8 34.15 -67.7 33.6 -57.4 33.2 -49.45 33.85 -50.65 L34.75 -52.95 Q35.75 -48.1 38.15 -45.5 L38.9 -45.2 40.9 -45.15 Q44.05 -45.7 46.45 -50.3 50.6 -60.7 54.25 -66.65 60.9 -77.7 70.6 -78.7 77.05 -79.35 81.5 -77.35 85.55 -75.6 86.95 -72.25 88.35 -69.0 86.8 -65.7 85.2 -62.2 81.0 -60.05 71.35 -55.2 61.0 -42.8 47.15 -47.4 39.3 -41.1 36.05 -38.5 34.65 -34.6 33.35 -30.9 34.05 -27.25 32.1 -26.5 30.3 -24.1 28.5 -21.6 27.75 -18.65 25.9 -11.15 32.1 -7.65 38.05 -4.3 43.4 -4.2 47.2 -4.15 48.05 -5.15 48.75 -6.0 47.4 -6.45 46.15 -6.95 45.85 -5.7 32.6 -5.0 30.05 -13.3 29.1 -16.5 30.25 -19.95 31.35 -23.25 33.7 -24.85 38.5 -28.25 46.2 -26.85 54.35 -25.35 57.9 -19.5 60.45 -15.25 60.2 -10.7 60.0 -6.05 56.8 -2.7 49.2 5.4 31.1 1.15 21.5 -1.15 18.35 -7.85 15.9 -13.1 18.05 -17.15 19.85 -19.8 18.65 -19.8 L16.7 -19.7 Q13.45 -26.55 15.75 -34.1 16.45 -36.4 18.05 -39.65 L19.9 -43.95" fill="#ffffff" fill-rule="evenodd" stroke="none"/>
    <path d="M-18.8 34.45 Q-17.3 41.25 -13.75 41.85 -11.15 42.3 -8.95 41.75 -12.4 45.1 -15.9 44.65 -19.15 44.2 -20.0 41.1 -25.0 42.6 -27.0 45.8 -28.0 47.45 -29.5 53.55 -27.45 76.0 -27.7 81.85 L-85.35 80.9 Q-77.55 70.8 -63.8 57.7 -50.95 45.35 -43.1 39.9 L-40.85 38.55 -39.7 38.1 Q-32.05 35.85 -31.3 38.85 L-32.65 42.75 -18.7 22.65 Q-20.3 27.95 -18.8 34.45" fill="#ffda4b" fill-rule="evenodd" stroke="none"/>
    <path d="M35.95 -27.8 Q34.8 -35.9 40.55 -40.05 45.55 -43.65 53.05 -42.95 48.85 -42.25 46.2 -39.5 43.55 -36.8 43.9 -33.55 44.2 -30.65 47.9 -27.8 41.75 -29.25 35.95 -27.8" fill="#c2d8d3" fill-rule="evenodd" stroke="none"/>
    <path d="M33.7 -24.85 L33.75 -24.95 Q31.4 -21.85 33.2 -16.35 35.0 -11.05 38.6 -8.95 41.65 -7.1 46.0 -6.1 L45.85 -5.7 Q32.6 -5.0 30.05 -13.3 29.1 -16.5 30.25 -19.95 31.35 -23.25 33.7 -24.85" fill="#c2d8d3" fill-rule="evenodd" stroke="none"/>
    <path d="M13.8 -63.75 Q11.05 -66.75 10.55 -70.1 10.1 -73.25 11.75 -75.75 11.3 -72.4 12.65 -68.3 13.7 -65.2 16.75 -60.6 20.7 -54.6 25.25 -51.0 29.35 -47.75 31.4 -54.55 33.0 -59.8 33.0 -68.7 34.0 -64.1 33.6 -57.4 33.2 -49.45 33.85 -50.65 L34.75 -52.95 Q35.75 -48.1 38.15 -45.5 L38.9 -45.2 40.9 -45.15 Q44.05 -45.7 46.45 -50.3 L46.6 -50.65 Q47.95 -49.05 50.4 -49.65 52.75 -50.2 54.65 -52.3 56.4 -54.3 67.05 -56.65 79.05 -59.3 84.25 -62.45 L83.9 -61.95 Q82.6 -60.85 81.0 -60.05 71.35 -55.2 61.0 -42.8 47.15 -47.4 39.3 -41.1 36.05 -38.5 34.65 -34.6 33.35 -30.9 34.05 -27.25 32.1 -26.5 30.3 -24.1 28.5 -21.6 27.75 -18.65 25.9 -11.15 32.1 -7.65 38.05 -4.3 43.4 -4.2 47.2 -4.15 48.05 -5.15 L48.25 -5.6 Q56.95 -4.3 59.1 -8.0 59.8 -9.25 60.25 -11.05 60.0 -3.5 53.0 0.15 44.95 4.4 31.1 1.15 21.5 -1.15 18.35 -7.85 15.9 -13.1 18.05 -17.15 19.85 -19.8 18.65 -19.8 L16.7 -19.7 Q13.45 -26.55 15.75 -34.1 16.45 -36.4 18.05 -39.65 L19.9 -43.95 Q21.1 -47.75 19.05 -54.1 17.05 -60.25 13.8 -63.75" fill="#c2d8d3" fill-rule="evenodd" stroke="none"/>
    <path d="M31.05 -36.9 Q31.25 -33.25 30.3 -28.95 L30.0 -26.1 Q29.1 -23.2 26.0 -22.85 25.75 -19.8 26.0 -14.35 26.15 -8.85 26.6 -8.2 26.8 -7.8 26.4 -7.25 26.0 -6.7 25.15 -6.55 22.95 -6.1 20.95 -8.7 18.95 -11.3 20.15 -16.65 21.1 -20.8 22.75 -23.15 17.2 -24.45 19.7 -32.05 20.6 -34.9 22.4 -37.55 24.05 -40.1 25.35 -40.75 30.75 -44.15 31.05 -36.9" fill="#ffffff" fill-rule="evenodd" stroke="none"/>
    <path d="M6.8 5.4 Q6.0 3.5 6.0 -3.8 L7.45 -5.5 9.55 -1.3 Q12.65 3.65 17.55 7.35 1.8 12.6 -15.9 33.3 -17.35 32.35 -17.7 29.5 -15.3 24.8 -6.45 16.9 3.55 8.45 6.8 5.4" fill="#00658d" fill-rule="evenodd" stroke="none"/>
    <path d="M-19.55 76.85 L-20.25 81.95 -30.05 81.8 Q-35.9 73.2 -45.35 69.3 -61.95 62.5 -82.1 75.8 L-81.85 75.05 -65.85 58.8 Q-52.45 56.0 -39.4 60.35 -24.85 65.2 -19.55 76.85" fill="#b43528" fill-rule="evenodd" stroke="none"/>
    <path d="M-28.4 66.0 Q-27.45 77.1 -27.7 81.85 L-30.05 81.8 Q-35.75 73.45 -44.8 69.55 -60.75 62.65 -80.05 74.55 -73.45 67.0 -64.8 58.6 -55.5 56.9 -45.9 58.7 -35.55 60.6 -28.4 66.0" fill="#fb613c" fill-rule="evenodd" stroke="none"/>
    <path d="M-17.85 64.95 L-18.7 71.05 Q-24.55 59.9 -36.6 55.75 -48.35 51.75 -62.3 55.4 L-59.05 52.4 Q-43.85 49.35 -32.85 52.95 -22.4 56.35 -17.85 64.95" fill="#b43528" fill-rule="evenodd" stroke="none"/>
    <path d="M-29.45 54.3 L-28.95 59.55 Q-35.4 55.25 -43.75 54.1 -52.05 52.95 -61.05 55.1 L-57.9 52.2 Q-40.85 49.05 -29.45 54.3" fill="#fb613c" fill-rule="evenodd" stroke="none"/>
    <path d="M-13.9 48.05 L-13.45 48.2 -15.2 51.45 Q-20.7 51.6 -23.5 48.2 -27.5 43.35 -25.1 31.9 L-22.15 27.65 Q-24.7 36.4 -22.45 42.45 -20.1 48.75 -13.9 48.05" fill="#b43528" fill-rule="evenodd" stroke="none"/>
    <path d="M-22.15 27.65 Q-24.55 36.05 -22.55 42.05 -24.35 42.9 -25.5 44.0 -26.6 39.35 -25.1 31.9 L-22.15 27.65" fill="#fb613c" fill-rule="evenodd" stroke="none"/>
  </g>
</svg>
