<?xml version="1.0" encoding="UTF-8" standalone="no"?>
<svg xmlns:xlink="http://www.w3.org/1999/xlink" height="12.4px" width="22.55px" xmlns="http://www.w3.org/2000/svg">
  <g transform="matrix(1.0, 0.0, 0.0, 1.0, 11.25, 6.2)">
    <path d="M-2.1 -3.1 L4.85 -1.15 Q8.6 0.3 10.65 3.4 11.85 5.2 10.85 5.8 L7.15 6.2 Q5.25 6.2 2.4 5.05 -1.2 3.65 -2.3 3.4 -6.5 2.4 -8.1 0.75 -9.3 -0.4 -10.9 -4.2 -12.05 -6.95 -9.25 -5.95 L-2.1 -3.1" fill="#000000" fill-rule="evenodd" stroke="none"/>
    <path d="M3.65 1.6 Q10.95 4.05 7.9 4.55 6.0 4.85 0.75 3.2 -4.45 1.6 -4.4 0.8 -4.4 0.15 -1.35 0.55 1.4 0.9 3.65 1.6" fill="#f99c89" fill-rule="evenodd" stroke="none"/>
  </g>
</svg>
