<?xml version="1.0" encoding="UTF-8" standalone="no"?>
<svg xmlns:xlink="http://www.w3.org/1999/xlink" height="26.1px" width="24.85px" xmlns="http://www.w3.org/2000/svg">
  <g transform="matrix(1.0, 0.0, 0.0, 1.0, 12.4, 12.65)">
    <path d="M11.65 7.55 Q11.05 11.05 8.55 12.2 L4.65 12.45 -4.4 10.3 Q-10.2 9.5 -11.6 0.8 L11.65 7.55" fill="#e8b049" fill-rule="evenodd" stroke="none"/>
    <path d="M-11.6 0.8 Q-10.2 9.5 -4.4 10.3 L4.65 12.45 8.55 12.2 Q11.05 11.05 11.65 7.55" fill="none" stroke="#000000" stroke-linecap="round" stroke-linejoin="round" stroke-width="1.6500000000000001"/>
    <path d="M-2.2 -11.85 Q4.9 -9.15 9.2 2.2 10.45 5.6 9.65 7.95 8.85 10.25 6.35 10.65 4.55 11.0 2.05 10.15 L-2.25 8.9 Q-7.35 8.05 -8.6 5.1 L-9.55 1.35 -10.65 -3.95 Q-11.95 -9.75 -9.05 -11.75 -6.55 -13.5 -2.2 -11.85" fill="#000000" fill-rule="evenodd" stroke="none"/>
    <path d="M-4.95 4.95 Q-4.95 2.95 -2.1 2.1 L2.6 1.9 Q9.45 3.9 6.6 7.35 4.85 9.5 -0.05 8.35 -4.95 7.15 -4.95 4.95" fill="#f99c89" fill-rule="evenodd" stroke="none"/>
  </g>
</svg>
