<?xml version="1.0" encoding="UTF-8" standalone="no"?>
<svg xmlns:xlink="http://www.w3.org/1999/xlink" height="249.95px" width="125.25px" xmlns="http://www.w3.org/2000/svg">
  <g transform="matrix(1.0, 0.0, 0.0, 1.0, -118.9, -34.3)">
    <path d="M217.6 131.05 Q218.5 130.05 219.8 130.7 221.1 131.4 220.65 132.8 217.55 143.6 217.15 148.95 216.6 156.5 220.0 161.85 220.9 163.35 219.5 164.35 218.1 165.3 217.0 163.95 209.35 154.0 207.8 154.1 207.15 154.1 205.55 156.6 L204.85 157.25 Q199.3 160.15 194.95 166.8 190.5 173.5 190.5 179.1 190.5 180.25 189.45 180.75 187.55 182.05 184.1 194.15 180.5 206.6 180.5 213.1 L180.55 215.5 Q180.55 217.55 185.45 221.0 192.2 225.75 192.35 230.2 202.7 231.95 213.9 236.65 228.15 242.6 231.35 249.1 L231.55 249.7 Q232.4 257.1 235.25 264.85 238.8 274.4 243.5 278.45 244.15 279.05 244.15 279.85 L244.15 280.05 Q243.95 281.1 243.05 281.45 240.85 282.45 233.6 282.7 226.75 282.85 226.15 283.6 225.2 284.7 223.9 284.0 222.6 283.3 223.05 281.85 224.95 275.95 221.2 265.65 217.45 255.45 211.35 250.25 206.9 246.5 203.5 248.25 202.05 249.0 201.15 247.65 199.95 245.7 197.85 245.9 195.0 246.25 191.6 249.65 188.15 253.05 186.85 257.0 186.3 258.6 184.7 258.15 183.05 257.85 183.3 256.25 184.35 247.3 181.1 236.3 177.65 224.65 171.85 219.9 167.35 216.2 162.2 217.85 161.0 218.3 160.25 217.25 159.45 216.25 160.15 215.15 163.6 209.6 170.85 201.8 177.65 194.45 177.9 190.65 178.15 185.9 177.65 179.95 L177.0 174.8 Q176.8 173.4 178.1 172.9 179.25 172.3 180.2 173.4 182.35 175.95 183.9 175.7 184.85 175.5 185.7 173.25 186.65 170.35 190.55 163.1 195.9 153.5 195.9 149.85 195.9 147.0 191.2 141.4 186.35 135.7 181.5 133.15 177.85 131.3 176.25 132.45 L174.6 132.7 Q173.75 132.4 173.45 131.55 173.25 130.8 172.5 130.75 169.6 130.4 164.4 134.4 158.55 138.9 154.65 145.55 153.8 146.85 152.35 146.25 150.95 145.65 151.4 144.05 153.75 136.9 148.45 123.4 143.55 111.0 138.5 107.1 137.45 106.25 137.95 104.9 140.05 100.05 138.4 97.2 135.65 92.25 120.5 90.55 119.0 90.35 118.9 88.9 118.8 87.4 120.1 87.0 131.55 83.2 146.9 62.35 160.55 43.65 161.7 35.8 161.9 34.4 163.4 34.3 164.15 34.3 164.75 34.9 166.9 36.0 180.0 34.95 181.2 34.85 181.65 35.8 182.3 36.8 181.65 37.7 157.3 75.55 151.5 85.15 148.9 89.45 148.4 95.5 147.9 101.5 149.8 106.35 152.4 113.1 158.55 114.95 159.65 115.25 159.85 116.35 160.45 119.95 163.6 120.95 L170.85 120.7 Q175.05 119.45 178.0 116.65 178.85 115.8 179.9 116.35 180.95 116.7 181.05 117.9 181.35 123.75 190.55 130.4 197.9 135.55 201.75 134.45 203.2 134.05 203.8 135.4 205.65 138.8 207.2 138.95 209.85 139.4 217.6 131.05" fill="#ffb1ff" fill-rule="evenodd" stroke="none"/>
    <path d="M180.15 36.75 Q155.8 74.45 150.0 84.15 145.1 92.25 146.95 102.65 148.9 113.95 158.05 116.7 159.35 123.45 166.95 123.2 173.9 122.9 179.25 118.0 179.6 124.2 188.35 131.0 197.05 137.7 202.2 136.15 205.15 141.75 208.85 140.6 212.0 139.55 218.9 132.3 215.65 143.35 215.3 149.0 214.75 157.1 218.45 162.8 211.6 153.95 209.2 152.7 206.75 151.35 204.05 155.7 198.2 158.65 193.55 165.65 188.7 172.9 188.7 179.1 186.05 180.1 182.1 194.5 178.15 208.9 178.8 214.8 178.4 218.2 184.85 222.8 191.2 227.35 190.5 231.7 200.05 233.0 212.15 237.9 226.65 243.8 229.7 249.9 230.55 257.45 233.5 265.35 237.2 275.45 242.35 279.85 240.3 280.7 232.7 280.85 226.0 281.05 224.8 282.45 226.25 277.95 224.6 270.85 223.1 264.05 219.5 257.75 215.75 251.2 211.45 248.1 206.75 244.6 202.7 246.7 199.55 241.7 193.2 245.95 187.4 249.9 185.15 256.4 186.7 242.6 180.15 228.5 172.8 212.55 161.65 216.15 164.95 210.85 173.6 201.5 179.5 195.1 179.7 190.8 179.95 185.9 179.4 179.8 L178.8 174.55 182.1 177.15 Q185.7 178.75 187.4 173.9 188.3 171.3 193.6 161.4 197.7 153.55 197.7 149.85 197.7 144.5 188.85 136.3 179.65 127.75 175.2 131.0 173.8 126.5 166.15 131.0 158.35 135.55 153.1 144.6 155.65 136.9 150.2 122.95 145.25 110.0 139.6 105.65 142.85 98.05 138.05 94.0 133.55 90.25 120.65 88.75 132.5 84.75 148.15 63.6 162.2 44.55 163.5 36.1 163.7 37.35 172.0 37.15 L180.15 36.75" fill="#ffffff" fill-rule="evenodd" stroke="none"/>
  </g>
</svg>
