<?xml version="1.0" encoding="UTF-8" standalone="no"?>
<svg xmlns:xlink="http://www.w3.org/1999/xlink" height="214.55px" width="303.1px" xmlns="http://www.w3.org/2000/svg">
  <g transform="matrix(1.0, 0.0, 0.0, 1.0, -119.45, -26.5)">
    <path d="M315.55 155.85 Q315.25 157.2 313.85 157.25 312.35 157.25 312.05 155.85 309.35 145.0 307.05 140.1 303.75 133.3 298.1 130.4 296.55 129.5 297.3 128.0 298.05 126.45 299.65 127.05 311.3 131.85 312.5 130.95 313.05 130.65 313.2 127.7 L313.5 126.75 Q316.85 121.5 317.3 113.5 317.8 105.5 315.0 100.7 314.45 99.7 315.1 98.75 316.1 96.7 313.05 84.45 309.95 71.85 306.65 66.25 L305.45 64.25 Q304.4 62.45 298.45 61.85 290.25 61.15 287.85 57.4 278.0 61.0 266.0 62.55 250.65 64.5 244.6 60.5 L244.15 60.0 Q239.75 54.1 233.4 48.8 225.55 42.3 219.4 41.15 218.6 40.95 218.2 40.25 L218.1 40.05 Q217.7 39.05 218.35 38.3 219.75 36.35 225.9 32.5 231.75 28.9 231.95 28.0 232.2 26.6 233.65 26.5 235.15 26.5 235.45 27.95 236.75 34.05 245.15 41.05 253.5 48.0 261.4 49.45 267.15 50.5 269.2 47.3 270.1 45.9 271.55 46.6 L275.3 46.5 Q277.55 44.8 278.8 40.15 280.05 35.5 279.2 31.35 278.95 29.75 280.5 29.3 282.1 28.75 282.65 30.3 286.25 38.55 294.55 46.45 303.35 54.8 310.7 56.05 316.45 57.0 320.15 52.95 321.0 52.0 322.15 52.55 323.3 53.0 323.3 54.25 323.1 60.85 320.7 71.2 318.45 81.0 320.15 84.35 322.3 88.6 325.7 93.55 L328.9 97.65 Q329.75 98.8 328.85 99.85 328.2 100.95 326.8 100.5 L322.45 100.35 Q321.7 100.95 322.1 103.35 322.7 106.35 322.95 114.55 323.1 125.55 324.95 128.7 326.4 131.2 333.25 133.7 340.35 136.25 345.8 136.0 349.85 135.75 350.7 134.0 351.1 133.05 351.95 132.9 352.9 132.8 353.55 133.35 354.05 133.9 354.8 133.55 357.45 132.4 359.95 126.35 362.75 119.55 362.85 111.85 362.9 110.25 364.5 110.05 366.0 109.9 366.4 111.45 367.95 118.9 379.3 127.9 389.75 136.15 396.1 137.05 397.4 137.3 397.6 138.65 398.2 143.95 401.1 145.6 405.95 148.45 419.95 142.35 421.3 141.8 422.1 143.0 423.0 144.25 422.0 145.2 414.05 154.3 411.15 180.0 408.65 203.05 411.55 210.35 412.1 211.7 410.9 212.55 L409.4 212.7 Q407.05 212.8 396.15 220.25 L394.3 220.35 Q393.3 219.85 393.4 218.75 395.55 173.8 395.75 162.55 395.9 157.5 393.3 152.05 390.75 146.6 386.65 143.3 381.0 138.8 374.75 140.3 373.65 140.6 372.95 139.7 370.6 136.9 367.4 137.6 364.3 138.2 361.2 141.4 358.25 144.6 357.05 148.5 356.75 149.7 355.55 149.75 354.45 149.9 353.75 148.95 350.6 144.05 339.35 142.85 330.4 142.1 327.6 144.95 326.55 146.05 325.35 145.2 322.1 143.15 320.6 143.8 318.15 144.7 315.55 155.85" fill="#ffb1ff" fill-rule="evenodd" stroke="none"/>
    <path d="M395.15 218.8 Q397.4 174.0 397.6 162.65 397.75 153.2 390.95 145.1 383.65 136.3 374.3 138.5 369.8 133.25 363.35 137.3 357.5 141.05 355.35 147.95 351.95 142.8 340.95 141.3 330.05 139.85 326.35 143.7 321.0 140.3 318.35 143.2 316.15 145.65 313.85 155.45 311.1 144.25 308.6 139.15 305.05 131.9 298.9 128.8 309.35 133.05 312.0 132.9 314.85 132.8 315.0 127.75 318.55 122.2 319.1 113.8 319.65 105.15 316.55 99.8 318.4 97.6 314.6 83.15 310.8 68.65 307.25 63.9 305.95 60.75 298.1 60.0 290.25 59.25 288.7 55.1 279.85 58.75 266.85 60.55 251.3 62.75 245.65 58.95 241.15 52.9 234.65 47.5 226.4 40.6 219.7 39.4 221.1 37.6 227.6 33.65 233.3 30.15 233.65 28.35 234.65 33.0 239.6 38.3 244.3 43.4 250.6 47.05 257.15 50.85 262.4 51.45 268.2 52.05 270.65 48.25 275.9 51.0 279.25 44.15 282.3 37.8 281.0 31.05 286.5 43.8 299.3 52.7 313.65 62.85 321.45 54.2 321.3 60.4 318.5 72.85 316.55 81.3 318.55 85.15 320.7 89.55 324.3 94.55 L327.4 98.8 323.25 98.15 Q319.35 98.6 320.35 103.65 320.8 106.3 321.15 117.55 321.55 126.4 323.4 129.6 326.1 134.25 337.9 136.9 350.1 139.75 352.35 134.7 355.8 137.9 360.15 130.2 364.6 122.35 364.65 111.85 366.35 119.8 377.95 129.15 388.75 137.85 395.85 138.85 396.8 147.1 402.95 148.15 408.75 149.2 420.65 144.05 412.4 153.35 409.4 179.55 406.8 203.05 409.9 211.0 409.1 210.05 402.0 214.35 L395.15 218.8" fill="#ffffff" fill-rule="evenodd" stroke="none"/>
    <path d="M132.95 29.9 Q134.5 30.3 134.7 32.1 136.85 36.9 147.7 46.85 162.05 60.0 175.75 63.55 177.4 64.0 177.55 65.7 178.6 76.4 193.15 80.8 200.45 82.95 207.65 83.0 209.25 83.05 209.95 84.4 210.6 85.85 209.7 87.1 204.95 93.1 201.65 99.95 197.5 108.75 199.75 112.2 203.25 117.6 225.6 123.6 248.8 129.85 271.15 130.65 273.1 130.75 273.5 132.7 273.95 134.75 272.0 135.45 271.35 135.65 271.35 136.1 270.5 140.8 296.95 166.85 L303.65 173.45 Q305.05 174.85 303.95 176.55 303.0 178.25 301.05 177.6 292.75 174.75 285.8 176.25 279.9 177.6 276.45 181.5 271.25 187.4 274.4 193.7 275.4 195.8 273.55 196.9 269.5 199.5 277.75 229.4 L280.05 237.8 Q280.6 239.9 278.6 240.8 276.55 241.6 275.5 239.75 268.95 229.15 250.85 221.1 245.15 218.6 238.9 216.6 L233.7 215.15 Q231.55 214.6 231.8 212.5 231.95 210.25 234.1 210.15 L257.5 208.8 Q263.0 169.3 265.7 158.85 265.8 156.45 256.2 150.9 249.4 147.0 238.45 142.25 214.7 131.95 191.55 125.35 181.45 122.5 165.1 136.7 153.15 147.0 141.05 163.15 L136.6 169.35 Q135.25 170.9 133.45 169.85 L133.2 169.7 Q131.35 168.3 132.65 166.3 L136.55 160.9 Q151.3 138.0 138.5 126.45 137.15 125.1 138.05 123.35 139.0 121.65 140.9 122.15 155.55 125.9 165.75 119.4 174.9 113.55 177.3 99.85 179.5 87.3 156.7 70.8 140.6 59.2 120.9 50.8 119.8 50.4 119.55 49.3 119.25 48.3 119.8 47.35 127.3 34.3 129.5 31.45 131.25 29.3 132.95 29.9" fill="#ffb1ff" fill-rule="evenodd" stroke="none"/>
    <path d="M121.9 48.55 Q132.4 30.3 132.2 32.4 152.0 60.0 175.1 66.0 176.3 78.2 192.15 83.05 200.05 85.55 207.7 85.5 203.85 90.5 200.6 96.5 194.2 108.4 197.6 113.55 201.7 119.75 225.15 126.05 248.55 132.3 271.0 133.2 264.85 135.8 276.3 149.15 279.45 152.8 301.9 175.2 286.4 169.85 276.6 177.9 272.55 181.25 271.25 185.9 270.0 190.6 272.15 194.85 267.95 197.6 270.6 211.45 L277.6 238.45 Q270.7 227.1 251.85 218.75 245.9 216.15 239.5 214.15 L234.3 212.65 259.65 211.2 Q265.6 169.0 268.1 159.45 269.8 153.0 239.65 140.0 215.7 129.65 192.2 122.9 178.0 118.9 154.95 142.85 146.65 151.45 139.85 160.5 142.2 156.55 143.95 152.1 151.05 134.5 140.2 124.6 153.2 128.0 163.65 123.35 176.75 117.5 179.8 100.3 182.55 84.4 152.45 64.9 137.45 55.15 121.9 48.55" fill="#ffffff" fill-rule="evenodd" stroke="none"/>
  </g>
</svg>
