<?xml version="1.0" encoding="UTF-8" standalone="no"?>
<svg xmlns:xlink="http://www.w3.org/1999/xlink" height="211.6px" width="166.65px" xmlns="http://www.w3.org/2000/svg">
  <g transform="matrix(1.0, 0.0, 0.0, 1.0, -208.4, -16.4)">
    <path d="M375.05 24.65 Q375.0 26.3 373.35 26.95 369.25 30.3 362.45 43.35 353.45 60.55 353.6 74.7 353.55 76.45 351.95 77.05 341.95 80.85 341.45 96.05 341.25 103.65 343.0 110.6 343.4 112.1 342.25 113.2 341.05 114.15 339.65 113.6 332.55 110.6 325.1 109.2 315.5 107.5 312.8 110.5 308.55 115.3 308.5 138.45 308.5 162.5 313.5 184.25 313.85 186.2 312.05 187.05 310.3 187.95 309.05 186.35 308.6 185.75 308.2 185.85 303.45 186.25 285.2 218.55 L280.55 226.7 Q279.5 228.5 277.65 227.8 275.75 227.3 275.85 225.3 276.5 216.5 273.2 210.25 270.4 204.85 265.75 202.55 258.7 199.0 253.4 203.7 251.6 205.2 250.05 203.7 246.55 200.5 219.75 216.15 L212.2 220.6 Q210.35 221.65 209.0 220.0 207.7 218.2 209.2 216.65 217.75 207.65 220.8 188.05 221.75 181.9 222.05 175.35 L222.15 169.95 Q222.15 167.75 224.2 167.4 226.4 167.05 227.05 169.1 L234.45 191.25 Q274.05 186.4 284.85 186.3 287.2 185.75 290.05 175.1 292.1 167.5 293.8 155.65 297.55 130.1 297.95 106.0 298.15 95.5 280.15 83.35 267.1 74.5 248.45 67.0 244.2 65.7 241.25 64.3 239.45 63.4 239.95 61.4 L240.05 61.1 Q240.95 58.95 243.2 59.7 L249.45 62.05 Q275.35 70.4 283.2 55.05 284.1 53.4 286.05 53.8 287.95 54.3 287.9 56.25 288.1 71.35 297.0 79.5 305.05 86.85 318.9 85.65 331.6 84.5 341.6 58.2 348.7 39.65 351.7 18.5 351.8 17.3 352.8 16.75 353.7 16.2 354.8 16.5 369.35 20.4 372.6 21.75 375.15 22.85 375.05 24.65" fill="#ffb1ff" fill-rule="evenodd" stroke="none"/>
    <path d="M354.15 18.85 Q374.45 24.3 372.45 24.6 350.8 50.85 351.05 74.7 339.55 79.1 339.0 95.6 338.65 103.9 340.65 111.3 334.85 108.85 328.2 107.3 315.1 104.2 310.95 108.8 306.0 114.35 306.0 138.6 306.05 162.85 311.0 184.75 306.85 179.5 296.9 194.0 294.2 197.95 278.35 225.45 279.55 209.1 269.25 201.7 264.95 198.7 260.1 198.65 255.25 198.65 251.7 201.8 247.95 198.5 235.3 204.65 233.5 205.5 211.0 218.35 220.2 208.8 223.35 188.4 224.3 182.0 224.6 175.3 L224.65 169.9 232.7 194.0 Q274.95 188.85 284.85 188.8 291.5 188.7 296.25 156.3 300.0 130.45 300.45 106.0 300.75 91.25 271.6 75.2 261.15 69.35 250.6 65.1 255.05 66.4 259.8 67.0 278.65 69.25 285.4 56.2 285.5 69.65 292.65 78.5 301.75 89.7 319.15 88.15 335.15 86.7 346.3 52.6 351.8 35.6 354.15 18.85" fill="#ffffff" fill-rule="evenodd" stroke="none"/>
  </g>
</svg>
