<?xml version="1.0" encoding="UTF-8" standalone="no"?>
<svg xmlns:xlink="http://www.w3.org/1999/xlink" height="161.7px" width="195.05px" xmlns="http://www.w3.org/2000/svg">
  <g transform="matrix(1.0, 0.0, 0.0, 1.0, 0.0, -0.05)">
    <path d="M149.8 6.2 L146.15 6.8 Q144.25 7.2 142.6 7.75 L136.6 11.95 138.05 13.35 Q139.75 15.15 139.3 17.75 L138.95 19.15 Q138.45 20.45 137.75 20.95 136.45 21.8 134.5 20.25 L130.85 17.6 Q128.35 22.6 126.8 29.75 125.95 33.45 124.75 42.4 L127.25 41.35 Q129.55 40.55 132.05 40.5 L132.7 40.5 133.9 40.5 134.8 40.6 Q142.0 41.45 148.25 48.3 L150.75 47.6 Q149.05 40.6 151.3 33.15 153.5 25.45 158.55 21.85 158.35 20.7 154.7 18.95 157.9 18.95 160.4 21.0 L162.35 19.9 Q164.65 19.25 166.2 21.45 167.75 23.55 168.25 28.05 L168.75 36.0 Q169.35 42.7 172.35 39.4 171.7 40.5 170.85 41.2 169.05 42.65 167.7 40.5 L164.55 47.1 Q170.1 47.5 173.85 48.65 L174.75 46.3 Q176.1 43.25 177.7 40.5 179.9 36.8 183.25 33.8 186.05 31.3 186.65 32.3 L186.5 29.55 187.05 27.4 Q187.1 24.9 186.45 24.25 185.45 23.2 182.65 25.85 185.7 21.3 187.05 22.8 L187.6 23.95 Q187.65 21.95 187.05 20.9 185.8 18.95 183.1 21.0 183.55 20.1 183.1 19.4 180.8 14.5 175.35 11.55 L170.35 9.55 177.6 11.5 Q174.6 2.8 167.95 1.15 162.6 -0.2 157.35 3.05 156.35 3.85 160.05 5.9 L163.45 7.55 Q159.55 6.0 154.15 5.85 L149.8 6.2 M1.25 161.55 L0.0 161.75 Q37.25 116.95 73.25 94.9 69.7 95.15 64.95 93.65 L56.3 90.75 Q53.7 92.45 51.05 91.75 48.4 91.05 47.85 88.55 42.7 90.3 38.95 89.3 35.5 88.4 33.9 85.5 29.75 87.3 25.45 82.75 23.0 80.2 22.35 76.4 21.55 71.95 24.4 69.7 24.0 67.05 24.4 65.8 25.25 62.95 29.05 61.1 28.95 55.6 33.0 53.05 37.2 50.4 44.4 52.1 51.25 53.7 55.6 59.4 59.85 64.9 59.85 71.7 62.75 72.55 63.85 74.5 65.15 76.9 64.15 81.6 65.15 82.45 70.05 84.15 75.1 85.8 76.75 85.8 78.8 85.75 88.2 81.85 88.65 78.15 89.05 76.55 89.75 73.7 91.65 72.8 99.25 70.45 109.95 71.35 115.3 71.8 119.15 72.7 L121.05 71.15 Q123.45 70.6 129.2 72.0 L131.9 70.0 Q123.35 65.4 120.05 58.0 118.1 53.7 118.75 49.7 119.35 45.75 122.15 43.55 123.15 35.95 124.3 30.7 126.05 22.5 129.05 16.65 126.85 16.35 125.2 20.9 123.9 24.5 121.95 32.1 120.0 39.65 118.75 43.15 114.35 55.2 105.15 58.4 100.05 60.2 95.15 58.5 90.9 57.0 88.4 53.65 85.95 50.4 86.7 47.6 87.5 44.55 91.95 44.05 100.4 43.15 104.15 40.3 106.4 38.55 109.7 32.8 L116.65 20.05 Q120.2 13.6 122.7 10.9 125.9 7.5 129.35 7.9 131.6 8.15 134.25 10.0 137.05 7.75 141.15 6.3 146.2 4.45 151.6 4.25 153.15 2.65 156.4 1.4 160.25 -0.1 164.15 0.05 174.65 0.35 179.1 12.1 180.3 12.95 184.2 18.7 186.85 18.05 187.85 19.45 189.35 21.65 188.05 28.9 189.15 36.55 184.6 45.8 L184.45 46.2 Q190.3 47.1 193.45 51.05 196.95 55.45 192.7 60.0 193.95 62.5 192.6 66.6 190.9 71.55 185.95 74.7 179.4 78.8 169.0 78.85 L171.3 80.85 Q176.0 85.3 178.95 90.55 187.05 91.0 186.4 101.8 192.9 113.45 189.4 117.6 186.5 121.05 179.4 117.9 174.45 115.7 168.6 112.3 L163.75 109.25 Q159.7 112.05 155.5 114.45 147.15 119.15 146.5 116.8 145.25 111.85 142.3 107.7 L139.6 104.5 138.2 109.0 Q136.35 114.55 133.9 119.85 126.05 136.65 115.2 144.2 L113.0 144.55 117.65 138.75 Q117.3 136.0 116.55 133.4 L116.45 133.0 116.3 132.55 111.55 122.85 Q109.7 120.2 107.4 117.9 L104.0 114.85 102.55 113.75 101.45 112.95 94.85 109.25 Q91.1 107.5 87.0 106.55 L81.5 105.5 79.2 105.3 Q75.35 105.0 71.45 105.35 60.0 106.3 50.6 112.5 41.65 119.95 1.25 161.55 M177.75 41.2 L177.1 43.05 178.4 43.65 177.75 41.2 M166.95 32.0 Q166.3 25.25 165.25 23.2 164.0 20.7 161.1 22.0 162.4 22.75 164.1 25.35 166.1 28.5 166.95 32.0 M159.75 22.85 Q155.2 26.65 153.0 32.8 150.7 39.4 151.75 47.3 158.2 46.05 164.05 47.1 L166.3 42.5 164.5 43.9 160.8 43.75 Q159.05 42.85 158.2 40.45 157.4 38.1 157.8 35.65 L163.95 36.4 159.05 32.35 Q159.5 30.85 162.65 26.5 162.05 24.95 159.75 22.85 M190.65 61.25 Q188.1 62.1 184.1 59.95 178.9 57.15 177.45 51.4 171.5 47.9 161.05 47.95 153.25 48.0 148.6 49.45 146.7 49.8 147.75 48.8 142.85 43.2 135.6 42.05 L130.3 41.9 130.5 41.8 Q126.6 42.2 123.75 44.05 121.25 45.65 120.7 49.25 120.15 52.9 121.95 57.05 126.45 67.35 140.55 71.9 L144.0 72.95 Q151.2 69.25 161.1 73.8 163.65 75.0 166.15 76.7 L170.25 77.1 Q177.75 76.8 183.05 74.05 187.95 71.45 190.1 67.25 191.85 63.75 191.2 61.0 L190.85 61.2 190.8 60.95 190.7 60.95 190.65 61.25 M159.9 67.7 L160.55 67.75 Q162.0 67.9 161.55 68.2 L161.35 68.3 159.85 68.3 Q153.85 67.55 151.55 66.05 149.6 64.7 148.25 61.15 146.65 56.95 137.55 58.05 L132.15 58.95 130.8 58.85 Q133.1 55.25 137.8 54.95 L136.5 55.7 Q135.15 56.6 134.8 57.2 147.45 54.9 149.55 60.55 150.85 64.3 152.9 65.7 154.95 67.05 159.9 67.7 M175.85 45.1 L174.15 48.85 177.0 49.95 178.05 48.0 Q179.65 46.0 182.55 45.7 185.0 41.3 185.4 38.4 185.45 36.05 184.15 35.75 182.9 35.4 181.2 37.15 183.2 36.9 182.6 40.35 181.9 43.9 178.75 47.25 176.6 49.5 175.85 47.8 175.35 46.55 175.85 45.1 M184.2 33.85 Q186.1 34.05 186.35 35.85 L186.5 35.55 Q187.55 32.65 184.2 33.85 M191.4 49.95 Q188.2 47.45 186.8 48.9 185.35 50.3 188.6 53.2 191.85 56.1 193.3 54.35 194.8 52.55 191.4 49.95 M177.95 109.7 L181.15 108.25 Q186.05 105.5 184.6 98.45 184.05 95.75 182.75 94.0 181.4 92.25 180.3 92.8 182.2 99.5 178.15 103.35 176.75 104.65 174.9 105.55 L174.9 105.5 173.1 106.2 171.1 106.7 168.6 107.05 168.6 107.15 168.65 107.6 Q168.95 109.6 172.15 110.25 L172.65 110.3 176.9 110.0 178.05 109.7 177.95 109.7 M182.4 108.75 Q179.7 110.85 176.65 111.1 L180.05 113.05 174.85 111.65 Q168.75 112.3 167.4 107.35 165.15 107.1 163.75 107.35 L171.95 112.65 Q177.65 116.1 181.45 116.95 185.7 117.85 187.5 116.85 L187.5 116.9 187.95 116.5 188.25 116.15 188.6 115.4 185.55 104.65 182.85 108.4 182.4 108.75 M166.8 100.05 Q170.6 98.65 170.65 95.35 170.7 93.7 169.65 92.9 L167.1 92.8 Q166.0 94.75 164.45 95.1 L166.45 91.6 168.15 87.9 Q168.45 89.75 168.05 90.9 169.85 90.9 171.15 92.2 172.4 93.45 172.55 95.2 172.8 98.5 169.6 100.35 L169.6 100.25 167.85 101.15 167.2 101.35 166.95 101.45 Q159.85 103.5 156.3 100.5 L156.4 100.8 156.4 100.9 158.2 103.55 Q159.7 104.85 162.25 105.5 L164.55 105.9 165.95 106.0 168.05 105.9 Q170.0 105.75 171.9 105.05 175.5 103.9 177.45 101.45 180.15 98.05 178.35 93.4 176.45 88.5 172.15 83.8 167.75 79.0 162.45 76.05 156.7 72.9 151.5 72.8 145.65 72.65 141.45 76.55 137.25 80.35 135.95 84.75 135.25 86.95 135.4 89.05 135.5 92.25 137.35 94.6 L138.2 95.55 138.5 95.85 139.05 96.3 Q140.85 97.7 143.0 97.9 L146.1 97.65 146.35 97.55 145.8 96.65 145.0 95.05 Q144.05 92.7 143.75 90.05 L143.7 90.1 Q143.5 88.25 143.75 86.35 144.55 80.1 149.8 77.7 147.65 78.8 146.35 81.65 145.05 84.35 145.0 87.7 144.8 93.85 147.95 97.25 L149.5 98.65 149.95 98.95 Q151.4 99.9 153.3 99.35 154.8 98.9 154.95 98.35 L154.8 98.05 154.45 97.2 Q154.0 95.9 153.9 94.25 L153.8 94.3 Q153.55 91.95 154.0 89.1 154.95 82.8 158.8 80.6 157.4 81.85 156.4 85.35 155.35 89.05 155.6 92.65 L155.7 93.8 Q156.65 102.0 164.4 100.7 L166.8 100.05 M156.05 103.4 Q155.55 101.65 154.05 100.55 L151.0 100.35 Q148.45 100.1 146.55 98.9 L143.9 99.25 Q142.15 99.3 140.5 98.5 139.4 101.15 141.2 103.4 142.75 105.4 145.9 106.3 L151.8 106.55 Q154.85 105.75 156.05 103.4 M147.95 108.15 Q145.65 107.95 143.5 106.95 144.65 107.95 145.5 109.45 L145.6 109.65 145.85 110.2 147.7 115.0 Q148.15 116.25 150.5 115.35 L158.5 110.95 Q160.85 109.45 159.95 109.65 159.0 109.8 156.15 111.7 151.5 114.75 149.7 114.8 148.05 114.8 149.2 112.45 149.8 111.0 153.3 108.25 L156.25 106.05 Q154.85 106.95 152.75 107.6 L147.95 108.15 M124.4 15.4 Q126.0 12.75 129.0 13.0 131.55 13.25 134.2 15.4 136.5 17.25 137.35 15.95 138.15 14.6 136.05 12.8 130.1 7.8 126.1 10.1 123.6 11.5 122.2 15.35 121.3 17.75 122.05 18.0 122.75 18.2 124.4 15.4 M90.55 49.75 Q95.95 54.8 103.45 53.65 111.35 52.45 114.05 44.9 117.4 35.25 119.4 28.15 120.15 26.0 119.85 25.6 119.55 25.2 118.55 27.7 L114.75 37.6 Q111.45 44.95 108.35 45.4 106.4 45.7 104.95 44.1 103.55 42.6 102.55 43.0 96.5 45.0 91.45 45.25 89.6 45.3 89.15 46.5 88.55 47.8 90.55 49.75 M51.55 84.65 Q58.35 78.9 58.2 69.6 58.15 66.7 56.4 63.45 54.65 60.05 51.7 57.55 44.5 51.35 35.6 53.75 L35.3 53.85 34.45 54.15 33.65 54.6 32.45 55.6 31.55 56.85 Q30.5 59.0 31.15 61.7 L31.4 62.55 33.8 66.45 33.85 66.55 Q36.0 68.65 38.9 69.25 L42.8 67.1 Q45.55 65.5 45.35 64.5 45.05 63.2 43.0 61.1 40.85 58.9 39.8 59.05 38.95 60.1 38.65 58.95 38.3 57.75 39.75 57.65 41.05 57.55 43.5 59.9 45.35 61.65 46.55 63.35 46.75 62.05 47.55 63.05 48.3 63.95 47.6 65.0 46.5 66.65 40.55 69.75 L40.3 69.9 40.35 69.85 39.05 70.6 33.85 74.85 Q32.3 78.2 33.6 80.35 34.95 82.75 39.25 81.9 L39.45 81.85 40.05 81.7 40.5 81.6 41.05 81.45 Q47.2 79.7 51.2 74.85 52.05 73.8 52.4 74.1 52.65 74.4 51.85 75.6 48.35 80.55 41.7 82.9 L35.5 84.3 Q36.25 88.4 41.7 88.4 46.85 88.35 51.15 84.95 L51.55 84.65 M55.25 83.2 Q52.7 86.2 48.95 87.7 53.65 93.6 60.35 85.3 63.1 81.75 63.15 78.3 63.25 74.4 59.6 73.5 58.35 79.5 55.25 83.2 M24.7 71.0 Q23.35 73.3 23.9 76.3 24.35 79.0 26.25 81.3 28.05 83.55 30.35 84.35 32.85 85.15 34.9 83.75 31.1 82.2 31.1 77.6 25.7 75.35 24.7 71.0 M31.35 76.05 Q31.5 75.05 33.15 73.25 34.9 71.35 36.65 70.4 31.75 69.0 29.4 62.7 24.65 64.8 26.0 69.85 27.2 74.55 31.35 76.05 M138.6 74.9 Q139.6 75.3 140.1 75.7 L142.2 74.05 140.45 73.5 138.6 74.9 M134.25 74.5 L132.65 74.05 131.15 73.65 126.8 72.7 123.8 72.3 121.75 72.15 121.15 72.45 Q120.55 72.85 120.8 73.25 120.85 73.6 121.75 74.1 123.65 75.05 129.35 76.4 L132.5 77.1 137.6 78.05 139.4 76.45 Q137.35 75.4 134.25 74.5 M137.5 74.1 Q138.95 71.4 135.85 70.85 132.9 70.3 129.8 72.1 L137.5 74.1 M131.1 77.9 L128.8 77.4 128.05 77.25 127.2 77.05 120.1 74.65 Q119.3 74.2 118.95 73.75 107.65 71.2 92.65 74.3 89.15 77.45 89.4 86.05 89.75 85.75 90.65 85.35 L94.15 83.7 94.15 83.65 Q97.1 82.2 101.85 80.1 113.65 74.75 115.75 74.65 102.7 80.25 90.5 86.85 L89.05 87.6 85.75 89.45 85.35 89.7 85.2 89.75 84.85 89.95 84.9 89.95 Q82.5 91.3 80.2 92.7 L71.6 98.0 67.15 100.85 66.7 101.15 66.25 101.5 Q61.85 104.4 57.6 107.5 68.15 104.0 78.7 104.65 L78.85 104.65 80.4 104.75 84.95 105.4 96.15 108.9 97.45 109.5 98.65 110.1 102.7 112.55 103.65 113.25 105.75 114.8 111.15 120.1 111.3 120.25 111.4 120.4 111.55 120.55 111.65 120.7 111.8 120.85 115.35 126.05 Q117.25 129.45 118.45 133.2 L119.55 137.35 Q122.1 134.8 124.45 131.7 127.5 127.6 130.25 122.5 L131.3 120.5 132.75 117.55 135.8 110.55 139.0 102.4 Q138.7 101.25 139.1 98.3 134.8 95.8 133.9 90.75 132.9 84.9 137.3 79.05 L131.1 77.9 M61.1 86.75 Q59.65 88.5 57.8 89.6 L64.7 91.95 Q69.3 93.55 71.55 93.6 L76.4 93.6 87.85 87.1 88.15 83.35 Q79.25 87.2 75.85 87.15 L74.45 87.0 74.4 86.95 72.75 86.55 70.4 85.75 68.4 84.95 63.5 82.75 63.4 82.95 63.15 83.5 61.05 86.7 61.1 86.75" fill="#000000" fill-rule="evenodd" stroke="none"/>
    <path d="M149.8 6.2 L154.15 5.85 Q159.55 6.0 163.45 7.55 L160.05 5.9 Q156.35 3.85 157.35 3.05 162.6 -0.2 167.95 1.15 174.6 2.8 177.6 11.5 L170.35 9.55 175.35 11.55 Q180.8 14.5 183.1 19.4 183.55 20.1 183.1 21.0 185.8 18.95 187.05 20.9 187.65 21.95 187.6 23.95 L187.05 22.8 Q185.7 21.3 182.65 25.85 185.45 23.2 186.45 24.25 187.1 24.9 187.05 27.4 L186.5 29.55 186.65 32.3 Q186.05 31.3 183.25 33.8 179.9 36.8 177.7 40.5 176.1 43.25 174.75 46.3 L173.85 48.65 Q170.1 47.5 164.55 47.1 L167.7 40.5 Q169.05 42.65 170.85 41.2 171.7 40.5 172.35 39.4 169.35 42.7 168.75 36.0 L168.25 28.05 Q167.75 23.55 166.2 21.45 164.65 19.25 162.35 19.9 L160.4 21.0 Q157.9 18.95 154.7 18.95 158.35 20.7 158.55 21.85 153.5 25.45 151.3 33.15 149.05 40.6 150.75 47.6 L148.25 48.3 Q142.0 41.45 134.8 40.6 133.9 29.7 137.75 20.95 138.45 20.45 138.95 19.15 L139.3 17.75 Q144.25 9.0 152.05 6.0 L149.8 6.2 M132.05 40.5 Q129.55 40.55 127.25 41.35 L127.55 41.2 Q129.75 40.5 132.05 40.5 M187.5 116.85 Q187.45 115.55 186.45 113.65 185.3 111.4 182.4 108.75 L182.85 108.4 185.55 104.65 188.6 115.4 187.95 116.5 187.5 116.9 187.5 116.85 M74.45 87.0 L74.85 87.2 Q76.75 88.4 76.05 89.05 75.35 89.65 72.4 89.55 69.0 89.4 61.1 86.75 L61.05 86.7 63.15 83.5 63.4 82.95 64.9 83.45 70.4 85.75 72.75 86.55 74.4 86.95 74.45 87.0" fill="#488fc1" fill-rule="evenodd" stroke="none"/>
    <path d="M139.3 17.75 Q139.75 15.15 138.05 13.35 L136.6 11.95 142.6 7.75 Q144.25 7.2 146.15 6.8 L149.8 6.2 152.05 6.0 Q144.25 9.0 139.3 17.75 M134.8 40.6 L133.9 40.5 132.7 40.5 132.05 40.5 Q129.75 40.5 127.55 41.2 L127.25 41.35 124.75 42.4 Q125.95 33.45 126.8 29.75 128.35 22.6 130.85 17.6 L134.5 20.25 Q136.45 21.8 137.75 20.95 133.9 29.7 134.8 40.6 M182.4 108.75 Q185.3 111.4 186.45 113.65 187.45 115.55 187.5 116.85 185.7 117.85 181.45 116.95 177.65 116.1 171.95 112.65 L163.75 107.35 Q165.15 107.1 167.4 107.35 168.75 112.3 174.85 111.65 L180.05 113.05 176.65 111.1 Q179.7 110.85 182.4 108.75 M187.95 116.5 L188.6 115.4 188.25 116.15 187.95 116.5 M137.5 74.1 L129.8 72.1 Q132.9 70.3 135.85 70.85 138.95 71.4 137.5 74.1 M74.45 87.0 L75.85 87.15 Q79.25 87.2 88.15 83.35 L87.85 87.1 76.4 93.6 71.55 93.6 Q69.3 93.55 64.7 91.95 L57.8 89.6 Q59.65 88.5 61.1 86.75 69.0 89.4 72.4 89.55 75.35 89.65 76.05 89.05 76.75 88.4 74.85 87.2 L74.45 87.0 M63.4 82.95 L63.5 82.75 68.4 84.95 70.4 85.75 64.9 83.45 63.4 82.95" fill="#0c4f7d" fill-rule="evenodd" stroke="none"/>
    <path d="M177.75 41.2 L178.4 43.65 177.1 43.05 177.75 41.2 M159.75 22.85 Q162.05 24.95 162.65 26.5 159.5 30.85 159.05 32.35 L163.95 36.4 157.8 35.65 Q157.4 38.1 158.2 40.45 159.05 42.85 160.8 43.75 L164.5 43.9 166.3 42.5 164.05 47.1 Q158.2 46.05 151.75 47.3 150.7 39.4 153.0 32.8 155.2 26.65 159.75 22.85 M175.85 45.1 Q175.35 46.55 175.85 47.8 176.6 49.5 178.75 47.25 181.9 43.9 182.6 40.35 183.2 36.9 181.2 37.15 182.9 35.4 184.15 35.75 185.45 36.05 185.4 38.4 185.0 41.3 182.55 45.7 179.65 46.0 178.05 48.0 L177.0 49.95 174.15 48.85 175.85 45.1 M174.9 105.55 Q176.75 104.65 178.15 103.35 182.2 99.5 180.3 92.8 181.4 92.25 182.75 94.0 184.05 95.75 184.6 98.45 186.05 105.5 181.15 108.25 L177.95 109.7 Q174.75 109.75 174.9 105.55 M172.65 110.3 L172.15 110.25 Q168.95 109.6 168.65 107.6 168.95 109.15 171.2 109.95 L172.65 110.3 M169.6 100.35 Q172.8 98.5 172.55 95.2 172.4 93.45 171.15 92.2 169.85 90.9 168.05 90.9 168.45 89.75 168.15 87.9 L166.45 91.6 164.45 95.1 Q166.0 94.75 167.1 92.8 L169.65 92.9 Q170.7 93.7 170.65 95.35 170.6 98.65 166.8 100.05 170.0 98.8 170.6 96.05 169.1 97.8 163.3 96.95 L159.3 97.05 155.7 93.8 155.6 92.65 Q155.35 89.05 156.4 85.35 157.4 81.85 158.8 80.6 154.95 82.8 154.0 89.1 153.55 91.95 153.8 94.3 152.2 95.25 149.7 94.35 147.15 93.45 145.25 91.2 145.9 94.95 147.95 97.25 144.8 93.85 145.0 87.7 145.05 84.35 146.35 81.65 147.65 78.8 149.8 77.7 144.55 80.1 143.75 86.35 143.5 88.25 143.7 90.1 141.75 92.85 139.25 91.85 136.7 90.8 135.5 86.85 L135.4 89.05 Q135.25 86.95 135.95 84.75 137.25 80.35 141.45 76.55 145.65 72.65 151.5 72.8 156.7 72.9 162.45 76.05 167.75 79.0 172.15 83.8 176.45 88.5 178.35 93.4 180.15 98.05 177.45 101.45 175.5 103.9 171.9 105.05 L173.45 104.45 Q171.8 104.15 170.7 103.0 169.6 101.85 169.6 100.35 M162.25 105.5 L163.1 105.7 164.55 105.9 162.25 105.5 M35.3 53.85 L35.6 53.75 Q44.5 51.35 51.7 57.55 54.65 60.05 56.4 63.45 58.15 66.7 58.2 69.6 58.35 78.9 51.55 84.65 49.4 84.85 48.0 83.7 46.6 82.5 46.7 80.55 44.5 81.95 41.7 82.9 48.35 80.55 51.85 75.6 52.65 74.4 52.4 74.1 52.05 73.8 51.2 74.85 47.2 79.7 41.05 81.45 L42.2 81.05 Q38.3 80.45 37.25 74.75 36.8 72.7 40.3 69.9 L40.55 69.75 Q46.5 66.65 47.6 65.0 48.3 63.95 47.55 63.05 46.75 62.05 46.55 63.35 45.35 61.65 43.5 59.9 41.05 57.55 39.75 57.65 38.3 57.75 38.65 58.95 38.95 60.1 39.8 59.05 40.85 58.9 43.0 61.1 45.05 63.2 45.35 64.5 45.55 65.5 42.8 67.1 L38.9 69.25 44.3 66.1 Q39.65 68.65 36.6 63.1 35.35 60.8 35.0 58.15 34.65 55.5 35.3 53.85 M31.4 62.55 L31.15 61.7 Q30.5 59.0 31.55 56.85 L32.45 55.6 Q31.85 56.2 31.5 57.05 30.5 59.2 31.2 61.9 L31.4 62.55 M60.35 85.3 Q59.2 86.1 57.95 86.25 55.55 86.5 55.25 83.2 58.35 79.5 59.6 73.5 63.25 74.4 63.15 78.3 63.1 81.75 60.35 85.3" fill="#ffffff" fill-rule="evenodd" stroke="none"/>
    <path d="M166.95 32.0 Q166.1 28.5 164.1 25.35 162.4 22.75 161.1 22.0 164.0 20.7 165.25 23.2 166.3 25.25 166.95 32.0 M184.2 33.85 Q187.55 32.65 186.5 35.55 L186.35 35.85 Q186.1 34.05 184.2 33.85" fill="#1c6daf" fill-rule="evenodd" stroke="none"/>
    <path d="M130.3 41.9 L135.6 42.05 Q142.85 43.2 147.75 48.8 146.7 49.8 148.6 49.45 153.25 48.0 161.05 47.95 171.5 47.9 177.45 51.4 178.9 57.15 184.1 59.95 188.1 62.1 190.65 61.25 189.55 68.4 181.05 70.75 173.5 72.8 166.4 70.2 L161.35 68.3 161.55 68.2 Q162.0 67.9 160.55 67.75 L159.9 67.7 Q153.45 64.95 152.0 63.3 150.9 62.05 150.25 60.25 L149.2 57.6 Q147.9 54.85 143.0 54.45 L145.65 52.55 Q146.15 51.45 141.7 51.9 133.15 52.7 129.3 48.45 127.7 46.65 128.0 44.85 128.25 43.0 130.3 41.9 M190.85 61.2 L191.2 61.0 Q191.85 63.75 190.1 67.25 187.95 71.45 183.05 74.05 177.75 76.8 170.25 77.1 177.45 76.65 182.6 74.0 187.5 71.4 189.65 67.15 191.35 63.85 190.85 61.2" fill="#f9de65" fill-rule="evenodd" stroke="none"/>
    <path d="M130.3 41.9 Q128.25 43.0 128.0 44.85 127.7 46.65 129.3 48.45 133.15 52.7 141.7 51.9 146.15 51.45 145.65 52.55 L143.0 54.45 Q147.9 54.85 149.2 57.6 L150.25 60.25 Q150.9 62.05 152.0 63.3 153.45 64.95 159.9 67.7 154.95 67.05 152.9 65.7 150.85 64.3 149.55 60.55 147.45 54.9 134.8 57.2 135.15 56.6 136.5 55.7 L137.8 54.95 Q133.1 55.25 130.8 58.85 L132.15 58.95 137.55 58.05 Q146.65 56.95 148.25 61.15 149.6 64.7 151.55 66.05 153.85 67.55 159.85 68.3 L161.35 68.3 166.4 70.2 Q173.5 72.8 181.05 70.75 189.55 68.4 190.65 61.25 L190.7 60.95 190.8 60.95 190.85 61.2 Q191.35 63.85 189.65 67.15 187.5 71.4 182.6 74.0 177.45 76.65 170.25 77.1 L166.15 76.7 Q163.65 75.0 161.1 73.8 151.2 69.25 144.0 72.95 L140.55 71.9 Q126.45 67.35 121.95 57.05 120.15 52.9 120.7 49.25 121.25 45.65 123.75 44.05 126.6 42.2 130.5 41.8 L130.3 41.9" fill="#dea623" fill-rule="evenodd" stroke="none"/>
    <path d="M191.4 49.95 Q194.8 52.55 193.3 54.35 191.85 56.1 188.6 53.2 185.35 50.3 186.8 48.9 188.2 47.45 191.4 49.95 M124.4 15.4 Q122.75 18.2 122.05 18.0 121.3 17.75 122.2 15.35 123.6 11.5 126.1 10.1 130.1 7.8 136.05 12.8 138.15 14.6 137.35 15.95 136.5 17.25 134.2 15.4 131.55 13.25 129.0 13.0 126.0 12.75 124.4 15.4 M90.55 49.75 Q88.55 47.8 89.15 46.5 89.6 45.3 91.45 45.25 96.5 45.0 102.55 43.0 103.55 42.6 104.95 44.1 106.4 45.7 108.35 45.4 111.45 44.95 114.75 37.6 L118.55 27.7 Q119.55 25.2 119.85 25.6 120.15 26.0 119.4 28.15 117.4 35.25 114.05 44.9 111.35 52.45 103.45 53.65 95.95 54.8 90.55 49.75" fill="#451d43" fill-rule="evenodd" stroke="none"/>
    <path d="M177.95 109.7 L178.05 109.7 176.9 110.0 172.65 110.3 171.2 109.95 Q168.95 109.15 168.65 107.6 L168.6 107.15 168.6 107.05 171.1 106.7 173.1 106.2 174.9 105.5 174.9 105.55 Q174.75 109.75 177.95 109.7 M169.6 100.35 Q169.6 101.85 170.7 103.0 171.8 104.15 173.45 104.45 L171.9 105.05 Q170.0 105.75 168.05 105.9 L165.95 106.0 164.55 105.9 163.1 105.7 162.25 105.5 Q159.7 104.85 158.2 103.55 L156.4 100.9 156.4 100.8 156.3 100.5 Q159.85 103.5 166.95 101.45 L167.2 101.35 167.85 101.15 169.6 100.25 169.6 100.35 M135.4 89.05 L135.5 86.85 Q136.7 90.8 139.25 91.85 141.75 92.85 143.7 90.1 L143.75 90.05 Q144.05 92.7 145.0 95.05 L145.8 96.65 146.35 97.55 146.1 97.65 143.0 97.9 Q140.85 97.7 139.05 96.3 L138.5 95.85 138.2 95.55 137.35 94.6 Q135.5 92.25 135.4 89.05 M147.95 97.25 Q145.9 94.95 145.25 91.2 147.15 93.45 149.7 94.35 152.2 95.25 153.8 94.3 L153.9 94.25 Q154.0 95.9 154.45 97.2 L154.8 98.05 154.95 98.35 Q154.8 98.9 153.3 99.35 151.4 99.9 149.95 98.95 L149.5 98.65 147.95 97.25 M155.7 93.8 L159.3 97.05 163.3 96.95 Q169.1 97.8 170.6 96.05 170.0 98.8 166.8 100.05 L164.4 100.7 Q156.65 102.0 155.7 93.8 M156.05 103.4 Q154.85 105.75 151.8 106.55 L145.9 106.3 Q142.75 105.4 141.2 103.4 139.4 101.15 140.5 98.5 142.15 99.3 143.9 99.25 L146.55 98.9 Q148.45 100.1 151.0 100.35 L154.05 100.55 Q155.55 101.65 156.05 103.4 M51.55 84.65 L51.15 84.95 Q46.85 88.35 41.7 88.4 36.25 88.4 35.5 84.3 L41.7 82.9 Q44.5 81.95 46.7 80.55 46.6 82.5 48.0 83.7 49.4 84.85 51.55 84.65 M41.05 81.45 L40.5 81.6 40.05 81.7 39.45 81.85 39.25 81.9 Q34.95 82.75 33.6 80.35 32.3 78.2 33.85 74.85 L39.05 70.6 40.35 69.85 40.3 69.9 Q36.8 72.7 37.25 74.75 38.3 80.45 42.2 81.05 L41.05 81.45 M38.9 69.25 Q36.0 68.65 33.85 66.55 L33.8 66.45 31.4 62.55 31.2 61.9 Q30.5 59.2 31.5 57.05 31.85 56.2 32.45 55.6 L33.65 54.6 34.45 54.15 35.3 53.85 Q34.65 55.5 35.0 58.15 35.35 60.8 36.6 63.1 39.65 68.65 44.3 66.1 L38.9 69.25 M55.25 83.2 Q55.55 86.5 57.95 86.25 59.2 86.1 60.35 85.3 53.65 93.6 48.95 87.7 52.7 86.2 55.25 83.2 M31.35 76.05 Q27.2 74.55 26.0 69.85 24.65 64.8 29.4 62.7 31.75 69.0 36.65 70.4 34.9 71.35 33.15 73.25 31.5 75.05 31.35 76.05 M24.7 71.0 Q25.7 75.35 31.1 77.6 31.1 82.2 34.9 83.75 32.85 85.15 30.35 84.35 28.05 83.55 26.25 81.3 24.35 79.0 23.9 76.3 23.35 73.3 24.7 71.0" fill="#b8d2ca" fill-rule="evenodd" stroke="none"/>
    <path d="M145.6 109.65 L145.5 109.45 Q144.65 107.95 143.5 106.95 145.65 107.95 147.95 108.15 147.05 109.35 146.35 111.15 L145.6 109.65 M97.35 85.65 Q106.95 84.95 116.8 89.7 L114.3 88.65 Q105.7 85.2 97.25 85.75 L93.0 88.65 Q88.8 88.8 84.9 89.95 L84.85 89.95 85.2 89.75 85.35 89.7 85.75 89.45 89.05 87.6 90.5 86.85 Q93.9 85.9 97.35 85.65 M135.8 110.55 L132.75 117.55 Q132.2 113.05 130.0 108.85 128.8 106.5 127.05 104.25 L123.4 100.15 Q127.55 104.05 130.05 108.95 L131.5 104.6 Q129.55 101.6 128.35 97.7 L130.05 99.55 Q134.6 104.85 135.8 110.55 M131.3 120.5 L130.25 122.5 Q127.5 127.6 124.45 131.7 124.2 128.55 123.45 125.6 121.75 118.95 117.65 113.35 L115.5 110.65 Q121.25 117.0 123.45 125.55 126.3 120.2 128.65 113.2 L128.2 112.3 128.6 113.1 Q130.35 116.6 131.3 120.5 M66.25 101.5 L66.7 101.15 67.15 100.85 71.6 98.0 80.2 92.7 Q84.95 91.15 90.05 90.95 L91.65 90.9 90.1 90.95 Q86.55 93.85 84.0 97.0 L83.95 97.0 Q74.35 97.1 66.25 101.5 M94.15 83.65 L94.15 83.7 90.65 85.35 Q89.5 80.4 93.35 74.15 L96.65 73.6 Q93.7 78.4 94.15 83.65 M114.3 97.55 L112.65 96.6 111.3 95.8 111.65 96.0 114.3 97.55 M98.8 99.45 Q102.1 100.6 105.25 102.4 L103.2 101.35 98.8 99.45 M101.2 89.2 L100.4 89.1 99.05 88.9 101.2 89.2" fill="#a51800" fill-rule="evenodd" stroke="none"/>
    <path d="M145.6 109.65 L146.35 111.15 Q147.05 109.35 147.95 108.15 L152.75 107.6 Q154.85 106.95 156.25 106.05 L153.3 108.25 Q149.8 111.0 149.2 112.45 148.05 114.8 149.7 114.8 151.5 114.75 156.15 111.7 159.0 109.8 159.95 109.65 160.85 109.45 158.5 110.95 L150.5 115.35 Q148.15 116.25 147.7 115.0 L145.85 110.2 145.6 109.65 M134.25 74.5 Q137.35 75.4 139.4 76.45 L137.6 78.05 132.5 77.1 134.25 74.5 M121.75 74.1 Q120.85 73.6 120.8 73.25 120.55 72.85 121.15 72.45 L121.75 72.15 123.8 72.3 Q122.2 73.15 121.75 74.1 M128.8 77.4 L127.2 77.05 128.05 77.25 128.8 77.4 M120.1 74.65 Q110.35 77.8 100.15 83.9 L97.35 85.65 Q93.9 85.9 90.5 86.85 102.7 80.25 115.75 74.65 113.65 74.75 101.85 80.1 97.1 82.2 94.15 83.65 93.7 78.4 96.65 73.6 L93.35 74.15 Q89.5 80.4 90.65 85.35 89.75 85.75 89.4 86.05 89.15 77.45 92.65 74.3 107.65 71.2 118.95 73.75 119.3 74.2 120.1 74.65 M128.2 97.6 Q127.0 93.6 126.85 89.0 126.6 79.85 131.1 77.9 L137.3 79.05 Q132.9 84.9 133.9 90.75 134.8 95.8 139.1 98.3 138.7 101.25 139.0 102.4 L135.8 110.55 Q134.6 104.85 130.05 99.55 L128.35 97.7 128.2 97.6 M132.75 117.55 L131.3 120.5 Q130.35 116.6 128.6 113.1 L130.0 108.85 Q132.2 113.05 132.75 117.55 M124.45 131.7 Q122.1 134.8 119.55 137.35 L118.45 133.2 Q121.1 129.95 123.45 125.6 124.2 128.55 124.45 131.7 M98.65 110.1 L97.45 109.5 96.15 108.9 Q97.4 109.45 98.65 110.1 M78.85 104.65 L78.7 104.65 Q68.15 104.0 57.6 107.5 61.85 104.4 66.25 101.5 74.35 97.1 83.95 97.0 82.6 98.6 81.6 100.25 L78.85 104.65 M80.2 92.7 Q82.5 91.3 84.9 89.95 88.8 88.8 93.0 88.65 L90.05 90.95 Q84.95 91.15 80.2 92.7" fill="#d48104" fill-rule="evenodd" stroke="none"/>
    <path d="M113.0 144.55 L112.85 144.7 106.1 145.7 Q109.75 143.15 112.6 139.4 L116.55 133.4 Q117.3 136.0 117.65 138.75 L113.0 144.55 M76.35 150.2 L1.25 161.55 Q41.65 119.95 50.6 112.5 60.0 106.3 71.45 105.35 75.35 105.0 79.2 105.3 L78.7 106.1 Q74.5 114.35 73.45 128.9 72.35 144.2 76.35 150.2" fill="#2c0f30" fill-rule="evenodd" stroke="none"/>
    <path d="M123.8 72.3 L126.8 72.7 131.15 73.65 132.65 74.05 134.25 74.5 132.5 77.1 129.35 76.4 Q123.65 75.05 121.75 74.1 122.2 73.15 123.8 72.3 M128.8 77.4 L131.1 77.9 Q126.6 79.85 126.85 89.0 127.0 93.6 128.2 97.6 124.35 93.75 119.15 90.9 L116.8 89.7 Q106.95 84.95 97.35 85.65 L100.15 83.9 Q110.35 77.8 120.1 74.65 L127.2 77.05 128.8 77.4 M118.45 133.2 Q117.25 129.45 115.35 126.05 L111.8 120.85 111.65 120.7 111.55 120.55 111.4 120.4 111.3 120.25 111.15 120.1 105.75 114.8 103.65 113.25 102.7 112.55 98.65 110.1 Q97.4 109.45 96.15 108.9 L84.95 105.4 80.4 104.75 78.85 104.65 81.6 100.25 Q82.6 98.6 83.95 97.0 L84.0 97.0 84.8 97.0 98.8 99.45 103.2 101.35 105.25 102.4 106.9 103.4 108.55 104.5 110.95 106.3 115.5 110.65 117.65 113.35 Q121.75 118.95 123.45 125.6 121.1 129.95 118.45 133.2 M111.3 95.8 L108.6 94.55 Q102.7 91.9 96.3 91.15 L91.65 90.9 90.05 90.95 93.0 88.65 95.35 88.65 99.05 88.9 100.4 89.1 101.2 89.2 109.65 91.6 113.5 93.3 114.75 94.0 116.35 94.9 119.0 96.6 123.4 100.15 127.05 104.25 Q128.8 106.5 130.0 108.85 L128.6 113.1 128.2 112.3 124.85 107.05 122.9 104.7 118.85 100.85 114.3 97.55 111.65 96.0 111.3 95.8" fill="#ffd920" fill-rule="evenodd" stroke="none"/>
    <path d="M116.8 89.7 L119.15 90.9 Q124.35 93.75 128.2 97.6 L128.35 97.7 Q129.55 101.6 131.5 104.6 L130.05 108.95 Q127.55 104.05 123.4 100.15 L119.0 96.6 116.35 94.9 114.75 94.0 113.5 93.3 109.65 91.6 101.2 89.2 99.05 88.9 95.35 88.65 93.0 88.65 97.25 85.75 Q105.7 85.2 114.3 88.65 L116.8 89.7 M111.3 95.8 L112.65 96.6 114.3 97.55 118.85 100.85 122.9 104.7 124.85 107.05 128.2 112.3 128.65 113.2 Q126.3 120.2 123.45 125.55 121.25 117.0 115.5 110.65 L110.95 106.3 108.55 104.5 106.9 103.4 105.25 102.4 Q102.1 100.6 98.8 99.45 L84.8 97.0 84.0 97.0 Q86.55 93.85 90.1 90.95 L91.65 90.9 96.3 91.15 Q102.7 91.9 108.6 94.55 L111.3 95.8" fill="#fe4114" fill-rule="evenodd" stroke="none"/>
    <path d="M106.1 145.7 L76.35 150.2 Q72.35 144.2 73.45 128.9 74.5 114.35 78.7 106.1 L79.2 105.3 81.5 105.5 87.0 106.55 Q91.1 107.5 94.85 109.25 L101.45 112.95 102.55 113.75 104.0 114.85 107.4 117.9 Q109.7 120.2 111.55 122.85 L116.3 132.55 116.45 133.0 116.55 133.4 112.6 139.4 Q109.75 143.15 106.1 145.7" fill="#582554" fill-rule="evenodd" stroke="none"/>
  </g>
</svg>
