<?xml version="1.0" encoding="UTF-8" standalone="no"?>
<svg xmlns:xlink="http://www.w3.org/1999/xlink" height="150.2px" width="125.1px" xmlns="http://www.w3.org/2000/svg">
  <g transform="matrix(1.0, 0.0, 0.0, 1.0, 0.0, 0.0)">
    <use height="150.2" transform="matrix(1.0, 0.0, 0.0, 1.0, 0.0, 0.0)" width="125.1" xlink:href="#shape0"/>
  </g>
  <defs>
    <g id="shape0" transform="matrix(1.0, 0.0, 0.0, 1.0, 0.0, 0.0)">
      <path d="M83.45 74.1 Q87.1 73.8 89.0 75.7 90.6 77.4 90.45 80.2 90.35 83.5 87.05 92.2 L87.6 92.65 Q88.0 93.25 87.7 94.15 L85.9 98.65 Q85.75 100.4 83.2 99.75 L80.6 106.35 Q77.8 114.3 76.65 120.6 L82.7 120.0 85.25 118.75 Q87.95 118.3 88.45 122.05 89.65 131.25 86.15 133.45 87.45 134.55 86.7 137.6 85.85 141.05 82.15 141.55 73.65 142.8 67.25 139.65 60.1 136.1 59.95 125.25 59.8 116.05 64.5 103.35 68.6 92.2 74.5 83.2 80.25 74.35 83.45 74.1" fill="#000000" fill-rule="evenodd" stroke="none"/>
      <path d="M74.2 123.35 L63.0 123.5 Q64.95 116.15 71.4 106.55 L77.4 98.4 79.9 98.55 Q82.0 98.95 82.15 99.45 78.25 107.45 74.2 123.35" fill="#f73e6f" fill-rule="evenodd" stroke="none"/>
      <path d="M63.0 123.5 L74.2 123.35 73.3 127.55 Q73.15 129.55 74.2 127.25 75.2 125.0 76.0 121.9 L81.15 121.4 Q79.95 123.2 82.3 121.65 84.45 120.2 85.25 120.1 86.55 120.05 86.9 122.25 87.6 126.5 87.5 128.05 87.25 131.5 84.6 132.95 83.6 133.5 82.55 133.3 81.4 133.05 81.65 131.8 81.9 130.65 82.95 129.35 L83.95 128.2 Q86.65 127.15 85.0 127.05 L82.6 127.3 Q81.4 127.65 81.75 127.95 80.9 130.3 79.85 131.55 L78.45 131.95 Q77.4 132.45 78.7 133.35 82.7 136.05 84.85 134.75 86.35 137.7 84.1 139.4 80.75 141.9 69.4 139.5 59.9 135.6 63.0 123.5" fill="#ffffff" fill-rule="evenodd" stroke="none"/>
      <path d="M63.6 121.55 Q65.9 114.5 71.85 105.75 L77.4 98.4 78.2 98.3 Q72.3 111.6 69.95 125.25 L63.6 121.55" fill="#730911" fill-rule="evenodd" stroke="none"/>
      <path d="M69.95 125.25 L69.65 127.6 69.25 131.8 Q69.15 134.1 69.85 135.55 71.75 139.2 80.95 140.5 77.0 141.1 69.4 139.5 59.1 135.25 63.6 121.55 L69.95 125.25" fill="#b8d2ca" fill-rule="evenodd" stroke="none"/>
      <path d="M88.4 77.55 Q90.1 81.0 86.05 91.7 L81.4 89.4 82.7 75.65 Q87.3 75.3 88.4 77.55" fill="#3c84bb" fill-rule="evenodd" stroke="none"/>
      <path d="M81.0 90.8 Q83.0 91.3 84.65 92.25 86.35 93.2 86.25 93.75 86.15 94.55 85.15 95.6 85.4 97.75 84.6 98.25 84.25 98.55 82.5 97.9 80.05 97.0 78.05 96.75 75.65 96.45 78.1 93.6 L81.0 90.8" fill="#bae5f0" fill-rule="evenodd" stroke="none"/>
      <path d="M67.55 126.9 L65.9 123.1 Q64.4 119.35 65.55 120.0 67.2 120.9 71.0 121.25 75.25 121.7 76.7 120.4 80.25 124.4 75.7 126.35 71.7 128.1 67.55 126.9" fill="#000000" fill-rule="evenodd" stroke="none"/>
      <path d="M67.9 125.9 L66.4 123.25 Q65.05 120.75 66.05 121.1 67.7 121.8 71.05 122.2 74.95 122.6 76.3 121.75 78.25 124.1 74.6 125.4 71.3 126.65 67.9 125.9" fill="#ffffff" fill-rule="evenodd" stroke="none"/>
      <path d="M120.4 27.45 Q123.8 37.5 117.9 51.7 122.2 52.05 124.0 55.7 126.05 59.85 119.35 63.3 116.35 73.0 101.7 73.85 95.75 74.2 89.75 72.85 83.95 71.6 80.5 69.3 L81.95 71.05 Q83.5 73.35 84.45 76.0 87.5 84.65 82.7 93.95 81.1 97.05 78.45 100.0 L74.55 104.5 Q71.55 108.7 70.45 114.05 69.2 120.3 71.4 124.8 73.85 129.7 73.25 132.1 72.65 134.5 68.7 134.95 65.4 135.3 63.75 135.05 L62.7 134.75 57.65 150.0 42.6 148.7 51.5 129.9 40.6 123.35 26.45 150.2 0.0 148.95 28.45 116.45 Q26.1 115.25 25.2 110.65 23.0 110.65 21.0 107.05 19.15 103.75 18.65 99.8 18.15 96.0 21.15 93.8 23.15 92.3 25.55 92.1 25.55 89.35 29.95 88.75 34.25 88.2 36.9 90.3 37.9 89.4 39.3 89.6 L40.4 90.0 Q41.15 86.9 50.6 84.9 L56.95 71.45 Q54.9 70.35 56.0 68.25 56.7 66.8 57.1 63.15 57.25 62.05 59.05 61.65 60.55 61.3 61.5 61.65 63.1 59.7 63.3 57.85 55.65 51.85 52.15 41.2 48.7 30.85 50.75 21.05 51.65 16.7 52.75 19.2 L54.1 14.1 Q55.55 9.4 56.2 11.45 57.8 16.25 61.55 17.25 66.6 18.5 74.7 12.5 83.25 6.15 90.7 3.4 98.8 0.4 109.85 0.0 109.4 1.45 109.4 7.0 L109.5 13.95 Q117.9 19.9 120.4 27.45" fill="#000000" fill-rule="evenodd" stroke="none"/>
      <path d="M107.5 12.7 Q103.0 10.0 99.35 10.0 110.95 15.65 115.25 21.55 123.55 32.95 116.05 51.5 L114.6 52.05 Q113.4 50.15 110.35 47.95 104.2 43.55 94.65 42.45 91.95 36.1 85.95 32.75 80.3 29.65 74.6 30.55 68.6 31.55 65.9 36.5 62.85 42.2 65.25 51.3 L63.65 55.9 Q59.75 52.7 56.3 46.85 49.45 35.15 51.65 21.95 51.9 20.6 52.3 21.6 L52.75 23.2 52.8 24.5 52.95 23.8 Q53.8 18.25 55.3 13.6 58.65 18.8 61.35 19.4 65.9 20.5 74.9 14.15 91.65 2.35 107.5 2.0 107.7 3.8 107.5 12.7" fill="#f73e6f" fill-rule="evenodd" stroke="none"/>
      <path d="M119.1 25.55 L125.1 25.75 121.1 33.55 119.1 25.55" fill="#000000" fill-rule="evenodd" stroke="none"/>
      <path d="M119.85 26.85 L123.25 26.95 121.0 30.15 119.85 26.85" fill="#f73e6f" fill-rule="evenodd" stroke="none"/>
      <path d="M115.95 41.75 Q119.5 33.6 120.1 35.1 120.95 40.55 119.35 45.65 L117.15 51.0 Q116.6 52.95 116.0 53.2 L112.5 50.25 115.95 41.75" fill="#000000" fill-rule="evenodd" stroke="none"/>
      <path d="M84.35 33.1 Q90.15 36.05 93.6 43.55 106.3 44.85 113.7 52.25 110.55 59.3 116.8 63.15 116.0 69.45 106.3 71.5 95.1 73.9 79.45 68.0 L75.4 63.05 Q76.9 56.05 74.7 52.6 72.45 49.05 66.75 50.25 64.2 43.75 66.6 38.55 68.75 33.75 73.85 32.15 79.15 30.45 84.35 33.1" fill="#f9de65" fill-rule="evenodd" stroke="none"/>
      <path d="M109.35 23.95 Q112.15 26.1 111.35 32.65 110.55 39.7 105.9 45.55 103.5 43.7 97.75 43.2 98.4 31.45 102.1 26.0 105.55 21.0 109.35 23.95" fill="#000000" fill-rule="evenodd" stroke="none"/>
      <path d="M112.05 36.65 Q113.3 36.7 113.5 35.05 113.5 37.9 111.5 38.1 110.25 38.25 108.75 29.1 L107.25 19.2 Q108.05 20.25 109.35 28.85 110.55 36.6 112.05 36.65" fill="#000000" fill-rule="evenodd" stroke="none"/>
      <path d="M109.05 25.1 Q111.8 27.45 110.6 33.95 L109.05 25.1" fill="#bb0025" fill-rule="evenodd" stroke="none"/>
      <path d="M110.0 36.35 Q108.6 41.1 105.25 45.3 101.9 43.8 98.45 43.2 99.7 32.8 102.65 27.8 105.2 23.45 108.0 24.5 108.5 33.0 110.0 36.35" fill="#ffffff" fill-rule="evenodd" stroke="none"/>
      <path d="M108.05 41.0 Q106.55 42.25 104.45 41.8 101.85 41.25 103.4 35.5 L107.15 36.2 104.35 32.9 104.6 32.4 Q105.6 30.55 107.3 30.05 L108.8 29.85 Q109.3 29.05 109.9 31.1 110.6 33.3 110.25 36.4 109.85 39.6 108.05 41.0" fill="#000000" fill-rule="evenodd" stroke="none"/>
      <path d="M119.7 41.0 Q119.5 45.2 115.85 51.7 L114.6 52.05 112.8 50.25 Q112.95 49.1 116.2 43.0 L117.95 42.85 Q119.0 42.1 119.7 40.8 L119.7 41.0" fill="#ffffff" fill-rule="evenodd" stroke="none"/>
      <path d="M114.3 53.0 Q117.6 52.05 120.4 53.1 123.6 54.35 123.1 57.5 122.75 59.65 122.05 60.35 121.55 60.8 119.6 61.45 122.65 58.25 120.65 55.45 118.65 52.8 114.3 53.0" fill="#451d43" fill-rule="evenodd" stroke="none"/>
      <path d="M119.35 40.45 Q118.8 46.75 115.15 48.7 113.65 49.55 115.4 45.15 L116.8 44.6 116.05 43.95 116.8 42.65 Q118.0 40.3 118.8 40.1 L119.35 40.45" fill="#000000" fill-rule="evenodd" stroke="none"/>
      <path d="M116.6 42.2 Q117.65 39.45 118.4 38.2 119.95 35.45 119.8 39.1 118.4 42.65 116.6 42.2" fill="#bb0025" fill-rule="evenodd" stroke="none"/>
      <path d="M72.1 69.6 Q71.55 66.35 67.55 63.8 64.55 61.85 62.7 61.65 L65.65 54.05 Q66.65 51.5 70.3 52.05 74.1 52.7 74.45 56.9 74.8 60.75 73.75 64.75 L72.1 69.6" fill="#3c84bb" fill-rule="evenodd" stroke="none"/>
      <path d="M61.15 63.2 Q63.8 63.2 67.5 65.45 71.8 68.1 71.4 71.1 L70.7 74.9 Q70.65 76.65 69.95 77.15 L68.8 77.05 Q68.0 73.05 63.6 70.5 59.6 68.2 58.5 69.1 57.3 69.45 57.45 68.5 57.55 67.6 58.35 66.85 59.05 66.2 58.45 64.45 57.95 63.2 61.15 63.2" fill="#bae5f0" fill-rule="evenodd" stroke="none"/>
      <path d="M63.25 82.6 Q60.1 89.8 58.2 97.3 L47.55 92.45 Q55.3 78.9 58.55 70.95 L59.95 70.8 Q61.3 71.05 62.7 71.75 66.6 73.8 66.0 76.9 L63.25 82.6" fill="#f73e6f" fill-rule="evenodd" stroke="none"/>
      <path d="M56.95 103.2 Q56.8 111.25 55.5 114.7 53.85 118.8 49.8 118.8 46.8 118.8 38.75 116.9 L30.15 114.95 Q28.3 114.95 27.4 108.5 27.35 107.7 28.65 106.85 30.15 105.85 32.5 105.55 38.9 104.75 46.7 109.5 47.8 110.2 48.15 109.85 48.4 109.5 47.85 109.05 L45.65 106.85 Q44.4 100.95 43.1 100.55 43.5 102.1 43.1 105.4 38.7 104.0 36.8 103.75 35.9 95.7 37.1 92.95 38.65 89.4 44.15 93.2 46.75 95.05 50.3 102.1 50.3 97.2 46.8 93.7 L47.55 92.45 58.2 97.3 Q57.4 100.35 56.95 103.2" fill="#ffffff" fill-rule="evenodd" stroke="none"/>
      <path d="M45.6 87.65 L49.4 86.55 45.5 92.2 Q43.95 91.15 41.8 90.45 42.5 88.75 45.6 87.65" fill="#142a5b" fill-rule="evenodd" stroke="none"/>
      <path d="M28.15 105.1 Q22.8 86.25 35.6 91.5 L34.85 95.0 Q34.3 99.3 35.1 103.55 29.65 103.85 28.15 105.1" fill="#ffffff" fill-rule="evenodd" stroke="none"/>
      <path d="M24.7 94.4 L25.15 98.7 Q25.7 103.45 26.6 105.85 26.15 106.4 25.55 109.2 21.75 107.05 20.65 101.0 19.45 94.6 24.7 94.4" fill="#ffffff" fill-rule="evenodd" stroke="none"/>
      <path d="M27.25 121.55 Q29.45 119.7 35.2 119.1 L40.5 118.85 24.55 150.1 2.6 149.2 27.25 121.55" fill="#f73e6f" fill-rule="evenodd" stroke="none"/>
      <path d="M63.0 126.7 Q61.5 132.35 55.8 149.85 L44.35 149.2 59.05 117.7 60.1 117.75 Q61.0 118.3 61.85 119.6 64.0 122.95 63.0 126.7" fill="#f73e6f" fill-rule="evenodd" stroke="none"/>
      <path d="M84.0 86.3 Q83.55 90.15 81.55 93.25 L77.4 98.4 Q77.4 94.3 74.4 89.35 71.35 84.2 66.35 80.2 L67.1 78.55 Q71.0 79.2 71.9 77.05 L72.25 73.45 72.9 70.65 74.9 65.0 Q81.5 71.6 83.35 77.0 84.6 80.65 84.0 86.3" fill="#3c84bb" fill-rule="evenodd" stroke="none"/>
      <path d="M65.45 81.1 Q74.7 88.7 76.7 99.25 L75.55 100.7 Q72.9 89.75 64.35 83.9 L65.45 81.1" fill="#e8c934" fill-rule="evenodd" stroke="none"/>
      <path d="M60.8 93.4 L63.8 85.25 Q71.75 90.8 75.05 101.35 67.3 112.75 68.65 123.25 67.55 120.3 63.65 116.0 59.95 111.95 57.65 110.85 58.0 102.45 60.8 93.4" fill="#3c84bb" fill-rule="evenodd" stroke="none"/>
      <path d="M20.75 97.1 Q22.5 95.65 24.95 97.4 25.7 103.4 26.6 105.85 26.15 106.4 25.55 109.2 23.15 107.85 21.55 103.9 19.85 99.85 20.75 97.1" fill="#b8d2ca" fill-rule="evenodd" stroke="none"/>
      <path d="M28.15 105.1 L27.1 100.95 Q27.7 93.3 29.75 93.6 31.65 93.9 34.7 97.0 34.5 100.5 35.1 103.55 29.65 103.85 28.15 105.1" fill="#b8d2ca" fill-rule="evenodd" stroke="none"/>
      <path d="M38.75 116.9 L30.15 114.95 Q28.3 114.95 27.4 108.5 L27.4 108.45 Q28.25 110.65 33.9 111.2 44.3 112.15 52.2 114.45 54.85 115.2 56.65 108.45 55.8 118.8 49.8 118.8 46.8 118.8 38.75 116.9" fill="#b8d2ca" fill-rule="evenodd" stroke="none"/>
      <path d="M47.85 109.05 L45.65 106.85 Q44.4 100.95 43.1 100.55 43.5 102.1 43.1 105.4 38.7 104.0 36.8 103.75 36.25 99.05 36.45 96.3 38.85 91.65 43.1 97.85 46.9 103.25 47.85 109.05" fill="#b8d2ca" fill-rule="evenodd" stroke="none"/>
      <path d="M60.45 70.95 L50.85 92.65 47.7 92.2 Q55.1 79.4 58.55 70.95 58.65 70.5 60.45 70.95" fill="#730911" fill-rule="evenodd" stroke="none"/>
      <path d="M50.85 92.65 L49.15 97.15 Q48.05 94.95 46.8 93.7 L47.7 92.2 50.85 92.65" fill="#b8d2ca" fill-rule="evenodd" stroke="none"/>
      <path d="M77.15 30.4 Q70.15 30.3 66.6 35.45 62.6 41.15 65.25 51.3 L63.65 55.9 Q59.75 52.7 56.3 46.85 49.45 35.15 51.65 21.95 51.9 20.6 52.3 21.6 L52.75 23.2 52.8 24.5 52.95 23.8 Q53.8 18.25 55.3 13.6 58.65 18.8 61.35 19.4 65.9 20.5 74.9 14.15 91.0 2.85 106.3 2.05 94.0 5.35 85.5 12.75 75.8 21.15 77.15 30.4" fill="#730911" fill-rule="evenodd" stroke="none"/>
      <path d="M66.05 64.65 L64.0 66.65 Q62.65 67.85 63.2 70.3 59.5 68.25 58.5 69.1 57.3 69.45 57.45 68.5 57.55 67.6 58.35 66.85 59.05 66.2 58.45 64.45 57.95 63.2 61.15 63.2 63.0 63.2 66.05 64.65" fill="#6e7c85" fill-rule="evenodd" stroke="none"/>
      <path d="M65.65 54.05 Q66.5 51.9 69.6 52.0 67.35 52.8 67.1 56.3 L66.45 63.15 Q64.2 61.9 62.7 61.65 L65.65 54.05" fill="#142a5b" fill-rule="evenodd" stroke="none"/>
      <path d="M62.25 89.15 L63.8 85.25 Q65.75 86.55 67.35 88.3 64.75 88.3 62.25 89.15" fill="#142a5b" fill-rule="evenodd" stroke="none"/>
      <path d="M65.45 81.1 L69.3 84.8 Q69.25 87.15 69.65 88.4 L69.3 88.35 Q67.0 85.7 64.35 83.9 L65.45 81.1" fill="#944e12" fill-rule="evenodd" stroke="none"/>
      <path d="M67.1 78.55 Q68.8 78.85 70.0 78.55 L69.45 83.0 Q67.9 81.4 66.35 80.2 L67.1 78.55" fill="#142a5b" fill-rule="evenodd" stroke="none"/>
      <path d="M40.4 119.0 Q34.4 119.8 27.2 127.05 23.1 131.1 7.95 149.4 L2.6 149.2 27.25 121.55 Q29.45 119.7 35.2 119.1 L40.5 118.85 40.4 119.0" fill="#730911" fill-rule="evenodd" stroke="none"/>
      <path d="M59.15 124.6 Q55.8 129.8 48.1 149.4 L44.35 149.2 59.05 117.7 Q59.45 116.85 61.05 118.6 62.75 120.45 63.2 123.1 61.55 120.8 59.15 124.6" fill="#730911" fill-rule="evenodd" stroke="none"/>
      <path d="M74.7 52.6 Q72.45 49.05 66.75 50.25 64.3 43.9 66.45 38.8 68.5 34.1 73.4 32.3 65.2 38.6 71.75 43.8 74.15 45.7 78.0 47.0 81.45 48.1 84.1 48.1 90.6 48.1 84.45 51.05 L90.75 54.35 Q97.65 58.45 100.9 62.85 104.1 67.2 113.15 65.55 113.9 63.5 113.85 60.25 114.85 61.95 116.8 63.15 116.0 69.45 106.3 71.5 95.1 73.9 79.45 68.0 L75.4 63.05 Q76.9 56.05 74.7 52.6" fill="#dea623" fill-rule="evenodd" stroke="none"/>
      <path d="M92.45 57.65 Q85.3 51.35 76.65 52.0 77.7 50.1 81.05 49.4 L84.25 49.15 82.45 49.55 Q80.65 50.2 80.55 50.95 82.3 50.6 86.9 52.75 91.95 55.15 92.45 57.65" fill="#000000" fill-rule="evenodd" stroke="none"/>
      <path d="M45.4 92.7 Q44.8 89.7 48.85 89.4 53.1 89.1 57.2 92.6 61.85 96.55 62.25 100.5 62.75 104.9 57.55 107.0 58.65 102.75 53.85 98.7 49.7 95.25 47.1 95.4 L45.4 92.7" fill="#000000" fill-rule="evenodd" stroke="none"/>
      <path d="M46.7 93.5 Q46.1 90.9 49.6 90.7 53.2 90.45 56.7 93.4 60.45 96.65 60.9 100.1 61.35 103.7 57.85 105.4 59.5 101.95 54.6 98.1 50.25 94.7 47.95 94.85 L47.2 93.8 46.7 93.5" fill="#ffffff" fill-rule="evenodd" stroke="none"/>
    </g>
  </defs>
</svg>
