<?xml version="1.0" encoding="UTF-8" standalone="no"?>
<svg xmlns:xlink="http://www.w3.org/1999/xlink" height="217.8px" width="522.5px" xmlns="http://www.w3.org/2000/svg">
  <g transform="matrix(1.0, 0.0, 0.0, 1.0, 167.6, 79.5)">
    <use height="151.0" transform="matrix(1.0, 0.0, 0.0, 1.0, -167.6, -79.5)" width="323.0" xlink:href="#shape0"/>
  </g>
  <defs>
    <g id="shape0" transform="matrix(1.0, 0.0, 0.0, 1.0, 167.6, 79.5)">
      <path d="M155.4 71.5 L-167.6 71.5 -167.6 -79.5 155.4 -79.5 155.4 71.5" fill="url(#gradient0)" fill-rule="evenodd" stroke="none"/>
      <path d="M155.4 -42.5 L-157.6 -42.5 -157.6 -60.95 155.4 -60.95 155.4 -42.5" fill="#8d4ec2" fill-rule="evenodd" stroke="none"/>
      <path d="M155.4 43.95 L-157.6 43.95 -157.6 35.75 155.4 35.75 155.4 43.95" fill="#8d4ec2" fill-rule="evenodd" stroke="none"/>
      <path d="M155.4 31.0 L-157.6 31.0 -157.6 22.75 155.4 22.75 155.4 31.0" fill="#ffd7f0" fill-rule="evenodd" stroke="none"/>
      <path d="M155.4 -5.85 L-157.6 -5.85 -157.6 -7.55 155.4 -7.55 155.4 -5.85" fill="#ffd7f0" fill-rule="evenodd" stroke="none"/>
      <path d="M155.4 -13.35 L-157.6 -13.35 -157.6 -26.0 155.4 -26.0 155.4 -13.35" fill="#8d4ec2" fill-rule="evenodd" stroke="none"/>
      <path d="M155.4 60.45 L-157.6 60.45 -157.6 59.0 155.4 59.0 155.4 60.45" fill="#8d4ec2" fill-rule="evenodd" stroke="none"/>
      <path d="M155.4 -32.9 L-157.6 -32.9 -157.6 -37.0 155.4 -37.0 155.4 -32.9" fill="#8d4ec2" fill-rule="evenodd" stroke="none"/>
      <path d="M155.4 16.45 L-157.6 16.45 -157.6 14.4 155.4 14.4 155.4 16.45" fill="#ffd7f0" fill-rule="evenodd" stroke="none"/>
      <path d="M155.4 -55.5 L-157.6 -55.5 -157.6 -57.6 155.4 -57.6 155.4 -55.5" fill="#ff9dc2" fill-rule="evenodd" stroke="none"/>
      <path d="M155.4 48.5 L-157.6 48.5 -157.6 46.45 155.4 46.45 155.4 48.5" fill="#ffd7f0" fill-rule="evenodd" stroke="none"/>
      <path d="M155.4 40.6 L-157.6 40.6 -157.6 39.15 155.4 39.15 155.4 40.6" fill="#ffd7f0" fill-rule="evenodd" stroke="none"/>
      <path d="M155.4 -32.2 L-157.6 -32.2 -157.6 -33.7 155.4 -33.7 155.4 -32.2" fill="#ff9dc2" fill-rule="evenodd" stroke="none"/>
      <path d="M155.4 9.35 L-157.6 9.35 -157.6 6.25 155.4 6.25 155.4 9.35" fill="#8d4ec2" fill-rule="evenodd" stroke="none"/>
      <path d="M155.4 -61.8 L-157.6 -61.8 -157.6 -64.9 155.4 -64.9 155.4 -61.8" fill="#8d4ec2" fill-rule="evenodd" stroke="none"/>
    </g>
    <radialGradient cx="0" cy="0" gradientTransform="matrix(0.2176, 0.0, 0.0, 0.218, -6.1, -4.0)" gradientUnits="userSpaceOnUse" id="gradient0" r="819.2" spreadMethod="pad">
      <stop offset="0.0" stop-color="#ffffff"/>
      <stop offset="0.4" stop-color="#ffcae6"/>
      <stop offset="1.0" stop-color="#ac56b6"/>
    </radialGradient>
  </defs>
</svg>
