<?xml version="1.0" encoding="UTF-8" standalone="no"?>
<svg xmlns:xlink="http://www.w3.org/1999/xlink" height="142.25px" width="446.15px" xmlns="http://www.w3.org/2000/svg">
  <g transform="matrix(1.0, 0.0, 0.0, 1.0, 296.15, 72.25)">
    <use height="140.0" transform="matrix(1.0, 0.0, 0.0, 1.0, -150.0, -70.0)" width="300.0" xlink:href="#shape0"/>
    <use height="47.0" transform="matrix(1.0, 0.0, 0.0, 1.0, -150.0, -63.35)" width="300.0" xlink:href="#shape1"/>
    <use height="139.4" transform="matrix(0.5917, 0.0, 0.0, 0.5917, -85.85, -72.25)" width="152.8" xlink:href="#sprite0"/>
    <use height="150.2" transform="matrix(0.5917, 0.0, 0.0, 0.5917, -104.15, -61.0)" width="125.1" xlink:href="#sprite1"/>
    <use height="161.7" transform="matrix(0.6575, 0.0, 0.0, 0.6575, -195.0, -68.9671)" width="195.05" xlink:href="#sprite2"/>
  </g>
  <defs>
    <g id="shape0" transform="matrix(1.0, 0.0, 0.0, 1.0, 150.0, 70.0)">
      <path d="M150.0 -70.0 L150.0 70.0 -150.0 70.0 -150.0 -70.0 150.0 -70.0" fill="url(#gradient0)" fill-rule="evenodd" stroke="none"/>
      <path d="M150.0 -70.0 L150.0 -50.1 -150.0 -50.1 -150.0 -70.0 150.0 -70.0" fill="#ffd400" fill-rule="evenodd" stroke="none"/>
      <path d="M150.0 43.6 L-150.0 43.6 -150.0 34.65 150.0 34.65 150.0 43.6" fill="#ffd400" fill-rule="evenodd" stroke="none"/>
      <path d="M150.0 29.5 L-150.0 29.5 -150.0 20.6 150.0 20.6 150.0 29.5" fill="#ffffff" fill-rule="evenodd" stroke="none"/>
      <path d="M150.0 -10.35 L-150.0 -10.35 -150.0 -12.25 150.0 -12.25 150.0 -10.35" fill="#ffffff" fill-rule="evenodd" stroke="none"/>
      <path d="M150.0 -18.5 L-150.0 -18.5 -150.0 -32.2 150.0 -32.2 150.0 -18.5" fill="#ffd400" fill-rule="evenodd" stroke="none"/>
      <path d="M150.0 61.4 L-150.0 61.4 -150.0 59.85 150.0 59.85 150.0 61.4" fill="#ffd400" fill-rule="evenodd" stroke="none"/>
      <path d="M150.0 -39.65 L-150.0 -39.65 -150.0 -44.1 150.0 -44.1 150.0 -39.65" fill="#ffffff" fill-rule="evenodd" stroke="none"/>
      <path d="M150.0 13.8 L-150.0 13.8 -150.0 11.55 150.0 11.55 150.0 13.8" fill="#ffffff" fill-rule="evenodd" stroke="none"/>
      <path d="M150.0 48.5 L-150.0 48.5 -150.0 46.25 150.0 46.25 150.0 48.5" fill="#ffffff" fill-rule="evenodd" stroke="none"/>
      <path d="M150.0 39.9 L-150.0 39.9 -150.0 38.35 150.0 38.35 150.0 39.9" fill="#ffffff" fill-rule="evenodd" stroke="none"/>
      <path d="M150.0 -55.95 L-150.0 -55.95 -150.0 -57.55 150.0 -57.55 150.0 -55.95" fill="#ffffff" fill-rule="evenodd" stroke="none"/>
      <path d="M150.0 6.1 L-150.0 6.1 -150.0 2.75 150.0 2.75 150.0 6.1" fill="#ffd400" fill-rule="evenodd" stroke="none"/>
    </g>
    <linearGradient gradientTransform="matrix(0.0, -0.0854, 0.0854, 0.0, 0.0, 0.0)" gradientUnits="userSpaceOnUse" id="gradient0" spreadMethod="pad" x1="-819.2" x2="819.2">
      <stop offset="0.0" stop-color="#ffffff"/>
      <stop offset="0.6823529411764706" stop-color="#fff7ae"/>
      <stop offset="1.0" stop-color="#ffe605"/>
    </linearGradient>
    <g id="shape1" transform="matrix(1.0, 0.0, 0.0, 1.0, 150.0, 63.35)">
      <path d="M150.0 -63.35 L150.0 -48.1 -150.0 -48.1 -150.0 -63.35 150.0 -63.35" fill="#ffd400" fill-rule="evenodd" stroke="none"/>
      <path d="M150.0 -38.35 L-150.0 -38.35 -150.0 -43.3 150.0 -43.3 150.0 -38.35" fill="#ffffa4" fill-rule="evenodd" stroke="none"/>
      <path d="M150.0 -16.35 L-150.0 -16.35 -150.0 -21.3 150.0 -21.3 150.0 -16.35" fill="#ffffff" fill-rule="evenodd" stroke="none"/>
    </g>
    <g id="sprite0" transform="matrix(1.0, 0.0, 0.0, 1.0, 0.0, 0.0)">
      <use height="139.4" transform="matrix(1.0, 0.0, 0.0, 1.0, 0.0, 0.0)" width="152.8" xlink:href="#shape2"/>
    </g>
    <g id="shape2" transform="matrix(1.0, 0.0, 0.0, 1.0, 0.0, 0.0)">
      <path d="M89.35 88.4 Q85.9 92.1 80.45 91.1 75.8 90.2 73.45 87.3 70.95 84.1 73.15 80.15 75.35 76.25 80.05 75.1 86.0 73.7 89.6 78.95 93.25 84.2 89.35 88.4" fill="#1d3f60" fill-rule="evenodd" stroke="none"/>
      <path d="M88.55 87.75 Q85.45 91.05 80.55 90.2 76.35 89.45 74.3 86.9 72.05 84.1 74.05 80.6 76.0 77.15 80.25 76.1 85.55 74.8 88.8 79.45 92.0 84.05 88.55 87.75" fill="#a5c6be" fill-rule="evenodd" stroke="none"/>
      <path d="M87.25 77.75 Q88.05 80.1 85.85 79.65 L81.0 78.75 Q77.7 78.6 75.75 80.75 73.45 83.4 74.3 86.9 72.05 84.1 74.05 80.6 76.0 77.15 80.25 76.1 84.1 75.2 87.25 77.75" fill="#ffffff" fill-rule="evenodd" stroke="none"/>
      <path d="M107.05 69.2 L107.75 70.35 Q108.45 71.7 108.3 72.8 107.75 76.2 99.0 75.5 89.9 74.75 87.5 76.55 86.6 77.25 86.2 78.55 L85.5 81.0 Q84.6 83.4 81.2 84.0 77.85 84.55 77.55 82.8 77.2 80.45 77.8 77.5 78.6 73.55 80.9 71.5 86.05 66.95 97.05 67.6 102.6 67.95 107.05 69.2" fill="#000000" fill-rule="evenodd" stroke="none"/>
      <path d="M62.15 105.75 Q74.35 110.65 69.35 113.1 66.25 114.6 56.8 123.05 L47.95 131.15 27.3 131.05 Q45.0 116.65 62.15 105.75" fill="#000000" fill-rule="evenodd" stroke="none"/>
      <path d="M123.55 84.85 Q122.95 81.8 124.7 79.3 126.7 76.4 131.15 75.4 136.8 74.1 140.8 75.8 145.25 77.65 145.75 82.5 148.3 86.35 149.3 91.45 150.7 98.75 147.0 103.7 141.3 111.35 129.4 102.65 125.0 99.45 121.6 95.3 118.35 91.3 118.45 89.6 118.7 84.1 123.55 84.85" fill="#1d3f60" fill-rule="evenodd" stroke="none"/>
      <path d="M132.1 80.75 Q131.3 80.6 130.8 81.1 130.45 81.45 130.65 81.7 L130.95 81.85 127.6 85.15 Q126.9 85.6 124.7 84.8 124.3 78.25 131.7 76.45 137.05 75.15 140.95 77.2 144.85 79.25 144.75 83.45 144.65 85.45 145.6 84.95 151.4 95.25 146.2 102.35 140.95 109.5 130.0 101.65 125.95 98.75 122.8 94.95 119.85 91.35 119.95 89.75 120.25 84.1 124.9 86.3 127.25 87.25 128.4 86.35 130.65 84.75 132.5 81.75 133.0 80.95 132.1 80.75" fill="#ffffff" fill-rule="evenodd" stroke="none"/>
      <path d="M132.5 81.75 Q133.0 80.95 132.1 80.75 131.3 80.6 130.8 81.1 130.45 81.45 130.65 81.7 L130.95 81.85 127.6 85.15 Q126.9 85.6 124.7 84.8 L124.8 82.5 Q127.3 82.7 131.35 79.9 132.05 78.7 133.0 78.7 133.95 78.75 133.6 80.05 132.9 82.65 131.35 84.6 129.7 86.65 128.4 86.35 130.65 84.75 132.5 81.75" fill="#a5c6be" fill-rule="evenodd" stroke="none"/>
      <path d="M147.3 88.55 Q148.25 90.2 147.0 92.2 146.7 92.8 146.8 91.6 147.45 90.0 147.3 88.55" fill="#235277" fill-rule="evenodd" stroke="none"/>
      <path d="M148.1 91.15 Q148.75 92.6 147.55 94.5 147.25 95.05 147.45 93.95 148.1 92.4 148.1 91.15" fill="#235277" fill-rule="evenodd" stroke="none"/>
      <path d="M138.6 92.35 Q143.3 96.2 141.3 102.25 139.25 108.3 133.6 107.75 128.55 107.25 126.05 102.25 123.95 98.0 124.9 94.4 125.9 90.5 130.4 89.85 134.85 89.25 138.6 92.35" fill="#1d3f60" fill-rule="evenodd" stroke="none"/>
      <path d="M137.95 93.1 Q142.15 96.55 140.4 101.9 138.65 107.25 133.6 106.7 129.05 106.25 126.8 101.8 124.9 98.0 125.7 94.8 126.6 91.35 130.6 90.85 134.6 90.35 137.95 93.1" fill="#a5c6be" fill-rule="evenodd" stroke="none"/>
      <path d="M136.25 95.25 Q134.4 92.55 131.5 92.3 128.0 92.05 125.7 94.85 L125.7 94.8 Q126.6 91.35 130.6 90.85 134.6 90.35 137.95 93.1 140.95 95.6 140.8 99.65 L138.4 99.7 136.25 95.25" fill="#ffffff" fill-rule="evenodd" stroke="none"/>
      <path d="M141.6 45.6 Q142.95 53.25 139.75 58.35 L140.75 59.05 Q143.55 55.75 144.1 55.35 147.05 53.25 150.3 55.7 154.55 59.15 151.6 64.05 148.95 68.45 145.1 69.0 143.1 74.35 134.55 76.55 125.75 78.8 117.05 75.6 104.5 75.05 98.6 67.2 90.6 56.5 93.25 44.65 90.1 46.85 86.1 46.7 82.5 46.55 79.35 44.6 72.1 39.6 72.7 30.3 73.25 21.4 79.7 17.95 86.95 14.4 93.25 19.3 99.5 24.2 99.1 33.1 L102.4 30.2 Q107.0 27.05 113.5 25.9 108.25 22.65 106.3 17.9 104.45 13.6 105.85 9.3 107.25 5.0 111.15 2.45 115.35 -0.25 121.1 0.0 126.45 0.25 130.35 3.7 134.0 6.85 135.15 11.5 136.3 16.15 134.4 20.1 132.3 24.45 127.1 26.25 131.55 26.2 133.3 31.75 140.05 37.05 141.6 45.6" fill="#000000" fill-rule="evenodd" stroke="none"/>
      <path d="M149.6 56.65 Q153.75 60.55 149.3 65.25 151.0 62.05 148.8 59.1 146.65 56.15 143.65 57.5 144.5 55.9 146.3 55.6 148.15 55.3 149.6 56.65" fill="#2d2652" fill-rule="evenodd" stroke="none"/>
      <path d="M128.55 3.45 Q133.0 6.5 133.95 12.95 135.05 20.0 129.8 23.15 128.4 23.95 127.75 23.15 127.0 22.25 129.2 19.8 134.7 13.8 128.55 3.45" fill="#2d2652" fill-rule="evenodd" stroke="none"/>
      <path d="M90.3 18.55 Q95.15 20.85 97.15 27.05 99.35 33.85 94.7 37.8 93.45 38.8 92.7 38.15 91.85 37.35 93.6 34.6 98.0 27.65 90.3 18.55" fill="#2d2652" fill-rule="evenodd" stroke="none"/>
      <path d="M141.05 49.15 Q141.15 54.55 139.15 58.05 L138.15 57.7 Q140.1 55.45 140.3 52.0 140.45 48.6 138.7 48.25 137.4 48.0 134.95 54.55 134.25 55.95 133.85 57.4 132.0 57.65 131.05 58.6 136.85 56.75 140.2 59.75 137.2 63.15 138.6 66.5 140.0 69.7 143.8 69.4 141.7 74.45 131.9 75.9 121.8 77.4 114.7 73.0 112.5 71.8 111.4 63.05 110.5 56.05 107.35 55.65 L110.3 55.55 Q101.8 53.25 97.9 57.4 96.85 58.55 98.5 60.15 99.95 61.5 102.55 62.55 109.8 65.5 111.3 68.75 111.9 71.15 113.9 73.45 L107.75 72.35 Q104.25 71.55 102.05 69.75 96.15 64.25 94.2 56.0 93.6 53.2 95.4 50.15 97.1 47.3 99.45 46.55 L108.9 46.8 Q114.0 48.75 116.75 53.35 116.3 43.8 120.2 36.25 122.95 31.4 126.35 30.5 128.7 29.9 130.75 31.15 136.25 35.05 137.0 41.7 137.95 40.05 138.8 39.9 140.95 43.65 141.05 49.15" fill="#f5cb99" fill-rule="evenodd" stroke="none"/>
      <path d="M139.6 52.4 Q139.15 55.65 137.5 57.6 L134.65 57.3 Q138.05 48.7 138.8 48.85 140.0 49.15 139.6 52.4" fill="#ffffff" fill-rule="evenodd" stroke="none"/>
      <path d="M138.95 51.95 Q138.45 53.7 137.6 54.4 136.75 55.05 136.3 54.55 135.85 53.95 136.35 52.4 137.75 48.3 138.85 49.1 139.5 50.1 138.95 51.95" fill="#000000" fill-rule="evenodd" stroke="none"/>
      <path d="M109.7 59.85 L110.75 66.0 Q109.35 64.4 104.45 62.25 108.2 61.15 107.1 61.05 105.55 60.9 103.15 61.7 L100.55 60.4 Q104.35 59.3 103.35 59.2 L99.65 59.75 Q98.55 58.85 98.95 57.95 100.05 55.7 106.35 56.05 108.65 56.2 109.7 59.85" fill="#ffffff" fill-rule="evenodd" stroke="none"/>
      <path d="M100.0 46.35 Q97.15 47.95 96.0 50.85 94.9 53.6 96.25 54.45 L102.3 54.75 110.5 55.15 Q111.0 55.25 110.5 55.55 109.8 55.9 109.95 56.25 L111.25 58.7 Q112.4 61.15 113.0 64.0 114.1 69.1 118.7 72.25 125.3 76.75 136.85 74.65 L136.95 74.65 Q131.8 76.5 125.8 76.2 119.25 75.85 114.7 73.0 112.5 71.8 111.4 63.05 110.5 56.05 107.35 55.65 L110.3 55.55 Q101.8 53.25 97.9 57.4 96.85 58.55 98.5 60.15 99.95 61.5 102.55 62.55 109.8 65.5 111.3 68.75 111.9 71.15 113.9 73.45 L107.75 72.35 Q104.25 71.55 102.05 69.75 96.15 64.25 94.2 56.0 93.6 53.2 95.4 50.15 97.1 47.3 99.45 46.55 L100.0 46.35" fill="#c86739" fill-rule="evenodd" stroke="none"/>
      <path d="M136.0 44.6 Q134.5 47.8 131.15 44.35 L129.6 37.15 Q128.3 32.15 126.25 30.5 128.7 29.85 130.75 31.15 136.25 35.05 137.0 41.7 L138.1 40.25 136.0 44.6" fill="#c86739" fill-rule="evenodd" stroke="none"/>
      <path d="M129.8 44.3 Q131.5 40.55 133.05 41.3 136.2 43.1 134.4 50.5 132.6 57.95 128.8 57.35 126.85 57.0 127.75 51.95 128.3 47.7 129.8 44.3" fill="#000000" fill-rule="evenodd" stroke="none"/>
      <path d="M132.85 41.8 Q134.75 42.55 134.05 48.7 133.25 55.2 129.5 56.9 127.0 58.25 128.5 51.55 130.3 41.05 132.85 41.8" fill="#ffffff" fill-rule="evenodd" stroke="none"/>
      <path d="M133.65 43.1 Q134.7 44.45 134.5 47.6 134.3 50.6 133.4 51.95 132.45 53.3 131.8 52.6 131.1 51.85 131.35 49.2 131.6 46.45 132.35 44.6 133.05 42.8 133.65 43.1" fill="#000000" fill-rule="evenodd" stroke="none"/>
      <path d="M138.45 37.9 Q139.25 36.55 140.6 37.4 141.95 38.3 142.4 40.55 143.5 46.8 135.8 52.95 134.1 54.3 133.45 48.9 132.5 40.45 130.25 35.1 127.95 29.7 125.6 30.6 L124.5 30.55 Q124.6 30.05 125.75 29.75 129.2 28.9 133.95 33.0 137.9 37.65 138.45 37.9" fill="#000000" fill-rule="evenodd" stroke="none"/>
      <path d="M141.0 38.9 Q141.85 40.2 141.6 42.4 141.25 45.85 137.95 49.3 137.3 49.85 136.9 49.65 136.5 49.45 137.1 48.75 142.1 43.0 141.0 38.9" fill="#2d2652" fill-rule="evenodd" stroke="none"/>
      <path d="M131.7 29.8 Q132.55 31.2 134.2 35.6 136.0 40.3 136.3 42.4 136.6 44.7 135.95 45.2 135.3 45.7 135.2 43.2 135.1 40.9 133.75 36.05 132.55 31.5 131.7 29.8" fill="#2d2652" fill-rule="evenodd" stroke="none"/>
      <path d="M104.65 70.1 Q107.85 67.15 111.55 69.0 115.55 71.0 116.55 77.65 117.8 85.7 121.25 91.05 125.25 97.2 130.4 96.15 132.3 96.15 133.65 98.05 135.2 100.25 134.0 103.2 133.3 104.85 130.95 105.5 128.5 106.15 125.4 105.45 117.65 103.65 112.35 95.65 110.8 97.8 108.1 103.95 L113.2 106.2 Q118.7 108.85 120.55 111.0 121.3 111.8 120.65 112.55 L124.05 115.0 Q127.55 117.8 128.35 119.75 129.65 122.8 126.85 127.6 123.25 133.8 114.0 139.4 L93.6 138.5 Q100.2 134.9 106.1 130.9 117.95 122.95 114.75 121.05 105.3 125.15 102.2 127.2 99.5 124.3 94.0 119.55 L89.1 115.4 78.1 114.6 Q73.05 115.45 70.4 118.2 L65.6 118.05 Q62.85 117.0 60.9 114.5 55.9 108.2 60.65 100.25 L67.3 97.35 Q69.1 91.75 75.75 87.15 82.85 82.2 90.35 82.4 92.9 80.7 104.65 70.1" fill="#000000" fill-rule="evenodd" stroke="none"/>
      <path d="M114.15 73.8 L115.9 80.25 Q117.2 85.1 118.55 88.2 122.7 97.8 129.55 97.05 130.65 96.95 131.45 98.1 132.2 99.25 131.3 99.5 126.2 100.6 121.3 97.15 117.4 94.45 110.05 72.4 109.15 69.85 111.25 70.65 113.35 71.45 114.15 73.8" fill="#2d2652" fill-rule="evenodd" stroke="none"/>
      <path d="M107.45 82.4 Q106.9 80.55 107.3 79.15 107.75 77.7 107.95 79.2 109.65 90.2 117.1 98.95 110.65 92.85 107.45 82.4" fill="#2d2652" fill-rule="evenodd" stroke="none"/>
      <path d="M104.45 90.05 Q109.1 96.5 106.8 102.95 102.25 102.55 106.7 104.1 107.85 104.5 111.85 106.6 116.9 109.35 119.15 111.3 117.4 111.1 110.3 117.2 103.5 122.95 102.95 124.25 102.45 125.5 104.65 124.5 102.45 126.3 101.95 125.8 92.5 116.1 89.65 114.85 83.65 113.3 80.05 113.4 74.2 113.55 69.85 117.3 63.75 118.5 60.75 112.1 57.9 105.85 61.15 101.15 L67.05 98.2 Q67.3 100.65 68.1 98.85 74.4 83.8 91.3 83.45 99.5 83.25 104.45 90.05" fill="#850000" fill-rule="evenodd" stroke="none"/>
      <path d="M62.65 91.4 Q67.7 88.45 74.1 89.75 75.0 90.15 73.95 91.3 67.85 89.9 62.7 93.1 57.0 96.65 48.1 108.25 40.4 118.3 24.0 111.1 9.15 104.55 0.0 90.95 9.4 104.25 24.35 110.2 40.7 116.7 48.2 106.45 56.6 94.9 62.65 91.4" fill="#111111" fill-rule="evenodd" stroke="none"/>
      <path d="M104.85 90.6 Q109.0 96.85 106.8 102.95 102.25 102.55 106.7 104.1 107.85 104.5 111.85 106.6 116.9 109.35 119.15 111.3 117.75 111.1 112.0 115.75 112.55 113.6 111.95 112.55 110.95 110.85 104.0 108.55 95.9 105.9 91.4 108.2 86.1 109.3 82.65 108.9 76.25 108.2 74.5 100.75 72.8 93.65 79.45 88.6 85.0 84.45 92.95 83.5 100.55 84.1 104.85 90.6" fill="#ff0000" fill-rule="evenodd" stroke="none"/>
      <path d="M63.35 115.6 L67.3 111.3 Q69.35 109.25 75.95 110.25 82.1 111.2 87.3 113.85 88.0 114.15 88.6 114.6 76.65 111.5 69.85 117.3 66.15 118.0 63.35 115.6" fill="#ff0000" fill-rule="evenodd" stroke="none"/>
      <path d="M122.85 122.4 Q121.3 117.75 115.8 115.9 116.1 114.8 117.9 113.95 L119.65 113.35 123.3 116.1 Q126.95 119.15 127.1 120.75 127.3 123.05 126.65 125.0 125.9 127.3 124.5 126.95 123.9 126.8 123.6 125.45 L122.85 122.4" fill="#2d2652" fill-rule="evenodd" stroke="none"/>
      <path d="M61.65 116.9 L46.25 130.0 41.65 130.0 Q45.1 125.9 53.4 121.05 60.5 116.9 61.65 116.9" fill="#2d2652" fill-rule="evenodd" stroke="none"/>
    </g>
    <g id="sprite1" transform="matrix(1.0, 0.0, 0.0, 1.0, 0.0, 0.0)">
      <use height="150.2" transform="matrix(1.0, 0.0, 0.0, 1.0, 0.0, 0.0)" width="125.1" xlink:href="#shape3"/>
    </g>
    <g id="shape3" transform="matrix(1.0, 0.0, 0.0, 1.0, 0.0, 0.0)">
      <path d="M83.45 74.1 Q87.1 73.8 89.0 75.7 90.6 77.4 90.45 80.2 90.35 83.5 87.05 92.2 L87.6 92.65 Q88.0 93.25 87.7 94.15 L85.9 98.65 Q85.75 100.4 83.2 99.75 L80.6 106.35 Q77.8 114.3 76.65 120.6 L82.7 120.0 85.25 118.75 Q87.95 118.3 88.45 122.05 89.65 131.25 86.15 133.45 87.45 134.55 86.7 137.6 85.85 141.05 82.15 141.55 73.65 142.8 67.25 139.65 60.1 136.1 59.95 125.25 59.8 116.05 64.5 103.35 68.6 92.2 74.5 83.2 80.25 74.35 83.45 74.1" fill="#000000" fill-rule="evenodd" stroke="none"/>
      <path d="M74.2 123.35 L63.0 123.5 Q64.95 116.15 71.4 106.55 L77.4 98.4 79.9 98.55 Q82.0 98.95 82.15 99.45 78.25 107.45 74.2 123.35" fill="#f73e6f" fill-rule="evenodd" stroke="none"/>
      <path d="M63.0 123.5 L74.2 123.35 73.3 127.55 Q73.15 129.55 74.2 127.25 75.2 125.0 76.0 121.9 L81.15 121.4 Q79.95 123.2 82.3 121.65 84.45 120.2 85.25 120.1 86.55 120.05 86.9 122.25 87.6 126.5 87.5 128.05 87.25 131.5 84.6 132.95 83.6 133.5 82.55 133.3 81.4 133.05 81.65 131.8 81.9 130.65 82.95 129.35 L83.95 128.2 Q86.65 127.15 85.0 127.05 L82.6 127.3 Q81.4 127.65 81.75 127.95 80.9 130.3 79.85 131.55 L78.45 131.95 Q77.4 132.45 78.7 133.35 82.7 136.05 84.85 134.75 86.35 137.7 84.1 139.4 80.75 141.9 69.4 139.5 59.9 135.6 63.0 123.5" fill="#ffffff" fill-rule="evenodd" stroke="none"/>
      <path d="M63.6 121.55 Q65.9 114.5 71.85 105.75 L77.4 98.4 78.2 98.3 Q72.3 111.6 69.95 125.25 L63.6 121.55" fill="#730911" fill-rule="evenodd" stroke="none"/>
      <path d="M69.95 125.25 L69.65 127.6 69.25 131.8 Q69.15 134.1 69.85 135.55 71.75 139.2 80.95 140.5 77.0 141.1 69.4 139.5 59.1 135.25 63.6 121.55 L69.95 125.25" fill="#b8d2ca" fill-rule="evenodd" stroke="none"/>
      <path d="M88.4 77.55 Q90.1 81.0 86.05 91.7 L81.4 89.4 82.7 75.65 Q87.3 75.3 88.4 77.55" fill="#3c84bb" fill-rule="evenodd" stroke="none"/>
      <path d="M81.0 90.8 Q83.0 91.3 84.65 92.25 86.35 93.2 86.25 93.75 86.15 94.55 85.15 95.6 85.4 97.75 84.6 98.25 84.25 98.55 82.5 97.9 80.05 97.0 78.05 96.75 75.65 96.45 78.1 93.6 L81.0 90.8" fill="#bae5f0" fill-rule="evenodd" stroke="none"/>
      <path d="M67.55 126.9 L65.9 123.1 Q64.4 119.35 65.55 120.0 67.2 120.9 71.0 121.25 75.25 121.7 76.7 120.4 80.25 124.4 75.7 126.35 71.7 128.1 67.55 126.9" fill="#000000" fill-rule="evenodd" stroke="none"/>
      <path d="M67.9 125.9 L66.4 123.25 Q65.05 120.75 66.05 121.1 67.7 121.8 71.05 122.2 74.95 122.6 76.3 121.75 78.25 124.1 74.6 125.4 71.3 126.65 67.9 125.9" fill="#ffffff" fill-rule="evenodd" stroke="none"/>
      <path d="M120.4 27.45 Q123.8 37.5 117.9 51.7 122.2 52.05 124.0 55.7 126.05 59.85 119.35 63.3 116.35 73.0 101.7 73.85 95.75 74.2 89.75 72.85 83.95 71.6 80.5 69.3 L81.95 71.05 Q83.5 73.35 84.45 76.0 87.5 84.65 82.7 93.95 81.1 97.05 78.45 100.0 L74.55 104.5 Q71.55 108.7 70.45 114.05 69.2 120.3 71.4 124.8 73.85 129.7 73.25 132.1 72.65 134.5 68.7 134.95 65.4 135.3 63.75 135.05 L62.7 134.75 57.65 150.0 42.6 148.7 51.5 129.9 40.6 123.35 26.45 150.2 0.0 148.95 28.45 116.45 Q26.1 115.25 25.2 110.65 23.0 110.65 21.0 107.05 19.15 103.75 18.65 99.8 18.15 96.0 21.15 93.8 23.15 92.3 25.55 92.1 25.55 89.35 29.95 88.75 34.25 88.2 36.9 90.3 37.9 89.4 39.3 89.6 L40.4 90.0 Q41.15 86.9 50.6 84.9 L56.95 71.45 Q54.9 70.35 56.0 68.25 56.7 66.8 57.1 63.15 57.25 62.05 59.05 61.65 60.55 61.3 61.5 61.65 63.1 59.7 63.3 57.85 55.65 51.85 52.15 41.2 48.7 30.85 50.75 21.05 51.65 16.7 52.75 19.2 L54.1 14.1 Q55.55 9.4 56.2 11.45 57.8 16.25 61.55 17.25 66.6 18.5 74.7 12.5 83.25 6.15 90.7 3.4 98.8 0.4 109.85 0.0 109.4 1.45 109.4 7.0 L109.5 13.95 Q117.9 19.9 120.4 27.45" fill="#000000" fill-rule="evenodd" stroke="none"/>
      <path d="M107.5 12.7 Q103.0 10.0 99.35 10.0 110.95 15.65 115.25 21.55 123.55 32.95 116.05 51.5 L114.6 52.05 Q113.4 50.15 110.35 47.95 104.2 43.55 94.65 42.45 91.95 36.1 85.95 32.75 80.3 29.65 74.6 30.55 68.6 31.55 65.9 36.5 62.85 42.2 65.25 51.3 L63.65 55.9 Q59.75 52.7 56.3 46.85 49.45 35.15 51.65 21.95 51.9 20.6 52.3 21.6 L52.75 23.2 52.8 24.5 52.95 23.8 Q53.8 18.25 55.3 13.6 58.65 18.8 61.35 19.4 65.9 20.5 74.9 14.15 91.65 2.35 107.5 2.0 107.7 3.8 107.5 12.7" fill="#f73e6f" fill-rule="evenodd" stroke="none"/>
      <path d="M119.1 25.55 L125.1 25.75 121.1 33.55 119.1 25.55" fill="#000000" fill-rule="evenodd" stroke="none"/>
      <path d="M119.85 26.85 L123.25 26.95 121.0 30.15 119.85 26.85" fill="#f73e6f" fill-rule="evenodd" stroke="none"/>
      <path d="M115.95 41.75 Q119.5 33.6 120.1 35.1 120.95 40.55 119.35 45.65 L117.15 51.0 Q116.6 52.95 116.0 53.2 L112.5 50.25 115.95 41.75" fill="#000000" fill-rule="evenodd" stroke="none"/>
      <path d="M84.35 33.1 Q90.15 36.05 93.6 43.55 106.3 44.85 113.7 52.25 110.55 59.3 116.8 63.15 116.0 69.45 106.3 71.5 95.1 73.9 79.45 68.0 L75.4 63.05 Q76.9 56.05 74.7 52.6 72.45 49.05 66.75 50.25 64.2 43.75 66.6 38.55 68.75 33.75 73.85 32.15 79.15 30.45 84.35 33.1" fill="#f9de65" fill-rule="evenodd" stroke="none"/>
      <path d="M109.35 23.95 Q112.15 26.1 111.35 32.65 110.55 39.7 105.9 45.55 103.5 43.7 97.75 43.2 98.4 31.45 102.1 26.0 105.55 21.0 109.35 23.95" fill="#000000" fill-rule="evenodd" stroke="none"/>
      <path d="M112.05 36.65 Q113.3 36.7 113.5 35.05 113.5 37.9 111.5 38.1 110.25 38.25 108.75 29.1 L107.25 19.2 Q108.05 20.25 109.35 28.85 110.55 36.6 112.05 36.65" fill="#000000" fill-rule="evenodd" stroke="none"/>
      <path d="M109.05 25.1 Q111.8 27.45 110.6 33.95 L109.05 25.1" fill="#bb0025" fill-rule="evenodd" stroke="none"/>
      <path d="M110.0 36.35 Q108.6 41.1 105.25 45.3 101.9 43.8 98.45 43.2 99.7 32.8 102.65 27.8 105.2 23.45 108.0 24.5 108.5 33.0 110.0 36.35" fill="#ffffff" fill-rule="evenodd" stroke="none"/>
      <path d="M108.05 41.0 Q106.55 42.25 104.45 41.8 101.85 41.25 103.4 35.5 L107.15 36.2 104.35 32.9 104.6 32.4 Q105.6 30.55 107.3 30.05 L108.8 29.85 Q109.3 29.05 109.9 31.1 110.6 33.3 110.25 36.4 109.85 39.6 108.05 41.0" fill="#000000" fill-rule="evenodd" stroke="none"/>
      <path d="M119.7 41.0 Q119.5 45.2 115.85 51.7 L114.6 52.05 112.8 50.25 Q112.95 49.1 116.2 43.0 L117.95 42.85 Q119.0 42.1 119.7 40.8 L119.7 41.0" fill="#ffffff" fill-rule="evenodd" stroke="none"/>
      <path d="M114.3 53.0 Q117.6 52.05 120.4 53.1 123.6 54.35 123.1 57.5 122.75 59.65 122.05 60.35 121.55 60.8 119.6 61.45 122.65 58.25 120.65 55.45 118.65 52.8 114.3 53.0" fill="#451d43" fill-rule="evenodd" stroke="none"/>
      <path d="M119.35 40.45 Q118.8 46.75 115.15 48.7 113.65 49.55 115.4 45.15 L116.8 44.6 116.05 43.95 116.8 42.65 Q118.0 40.3 118.8 40.1 L119.35 40.45" fill="#000000" fill-rule="evenodd" stroke="none"/>
      <path d="M116.6 42.2 Q117.65 39.45 118.4 38.2 119.95 35.45 119.8 39.1 118.4 42.65 116.6 42.2" fill="#bb0025" fill-rule="evenodd" stroke="none"/>
      <path d="M72.1 69.6 Q71.55 66.35 67.55 63.8 64.55 61.85 62.7 61.65 L65.65 54.05 Q66.65 51.5 70.3 52.05 74.1 52.7 74.45 56.9 74.8 60.75 73.75 64.75 L72.1 69.6" fill="#3c84bb" fill-rule="evenodd" stroke="none"/>
      <path d="M61.15 63.2 Q63.8 63.2 67.5 65.45 71.8 68.1 71.4 71.1 L70.7 74.9 Q70.65 76.65 69.95 77.15 L68.8 77.05 Q68.0 73.05 63.6 70.5 59.6 68.2 58.5 69.1 57.3 69.45 57.45 68.5 57.55 67.6 58.35 66.85 59.05 66.2 58.45 64.45 57.95 63.2 61.15 63.2" fill="#bae5f0" fill-rule="evenodd" stroke="none"/>
      <path d="M63.25 82.6 Q60.1 89.8 58.2 97.3 L47.55 92.45 Q55.3 78.9 58.55 70.95 L59.95 70.8 Q61.3 71.05 62.7 71.75 66.6 73.8 66.0 76.9 L63.25 82.6" fill="#f73e6f" fill-rule="evenodd" stroke="none"/>
      <path d="M56.95 103.2 Q56.8 111.25 55.5 114.7 53.85 118.8 49.8 118.8 46.8 118.8 38.75 116.9 L30.15 114.95 Q28.3 114.95 27.4 108.5 27.35 107.7 28.65 106.85 30.15 105.85 32.5 105.55 38.9 104.75 46.7 109.5 47.8 110.2 48.15 109.85 48.4 109.5 47.85 109.05 L45.65 106.85 Q44.4 100.95 43.1 100.55 43.5 102.1 43.1 105.4 38.7 104.0 36.8 103.75 35.9 95.7 37.1 92.95 38.65 89.4 44.15 93.2 46.75 95.05 50.3 102.1 50.3 97.2 46.8 93.7 L47.55 92.45 58.2 97.3 Q57.4 100.35 56.95 103.2" fill="#ffffff" fill-rule="evenodd" stroke="none"/>
      <path d="M45.6 87.65 L49.4 86.55 45.5 92.2 Q43.95 91.15 41.8 90.45 42.5 88.75 45.6 87.65" fill="#142a5b" fill-rule="evenodd" stroke="none"/>
      <path d="M28.15 105.1 Q22.8 86.25 35.6 91.5 L34.85 95.0 Q34.3 99.3 35.1 103.55 29.65 103.85 28.15 105.1" fill="#ffffff" fill-rule="evenodd" stroke="none"/>
      <path d="M24.7 94.4 L25.15 98.7 Q25.7 103.45 26.6 105.85 26.15 106.4 25.55 109.2 21.75 107.05 20.65 101.0 19.45 94.6 24.7 94.4" fill="#ffffff" fill-rule="evenodd" stroke="none"/>
      <path d="M27.25 121.55 Q29.45 119.7 35.2 119.1 L40.5 118.85 24.55 150.1 2.6 149.2 27.25 121.55" fill="#f73e6f" fill-rule="evenodd" stroke="none"/>
      <path d="M63.0 126.7 Q61.5 132.35 55.8 149.85 L44.35 149.2 59.05 117.7 60.1 117.75 Q61.0 118.3 61.85 119.6 64.0 122.95 63.0 126.7" fill="#f73e6f" fill-rule="evenodd" stroke="none"/>
      <path d="M84.0 86.3 Q83.55 90.15 81.55 93.25 L77.4 98.4 Q77.4 94.3 74.4 89.35 71.35 84.2 66.35 80.2 L67.1 78.55 Q71.0 79.2 71.9 77.05 L72.25 73.45 72.9 70.65 74.9 65.0 Q81.5 71.6 83.35 77.0 84.6 80.65 84.0 86.3" fill="#3c84bb" fill-rule="evenodd" stroke="none"/>
      <path d="M65.45 81.1 Q74.7 88.7 76.7 99.25 L75.55 100.7 Q72.9 89.75 64.35 83.9 L65.45 81.1" fill="#e8c934" fill-rule="evenodd" stroke="none"/>
      <path d="M60.8 93.4 L63.8 85.25 Q71.75 90.8 75.05 101.35 67.3 112.75 68.65 123.25 67.55 120.3 63.65 116.0 59.95 111.95 57.65 110.85 58.0 102.45 60.8 93.4" fill="#3c84bb" fill-rule="evenodd" stroke="none"/>
      <path d="M20.75 97.1 Q22.5 95.65 24.95 97.4 25.7 103.4 26.6 105.85 26.15 106.4 25.55 109.2 23.15 107.85 21.55 103.9 19.85 99.85 20.75 97.1" fill="#b8d2ca" fill-rule="evenodd" stroke="none"/>
      <path d="M28.15 105.1 L27.1 100.95 Q27.7 93.3 29.75 93.6 31.65 93.9 34.7 97.0 34.5 100.5 35.1 103.55 29.65 103.85 28.15 105.1" fill="#b8d2ca" fill-rule="evenodd" stroke="none"/>
      <path d="M38.75 116.9 L30.15 114.95 Q28.3 114.95 27.4 108.5 L27.4 108.45 Q28.25 110.65 33.9 111.2 44.3 112.15 52.2 114.45 54.85 115.2 56.65 108.45 55.8 118.8 49.8 118.8 46.8 118.8 38.75 116.9" fill="#b8d2ca" fill-rule="evenodd" stroke="none"/>
      <path d="M47.85 109.05 L45.65 106.85 Q44.4 100.95 43.1 100.55 43.5 102.1 43.1 105.4 38.7 104.0 36.8 103.75 36.25 99.05 36.45 96.3 38.85 91.65 43.1 97.85 46.9 103.25 47.85 109.05" fill="#b8d2ca" fill-rule="evenodd" stroke="none"/>
      <path d="M60.45 70.95 L50.85 92.65 47.7 92.2 Q55.1 79.4 58.55 70.95 58.65 70.5 60.45 70.95" fill="#730911" fill-rule="evenodd" stroke="none"/>
      <path d="M50.85 92.65 L49.15 97.15 Q48.05 94.95 46.8 93.7 L47.7 92.2 50.85 92.65" fill="#b8d2ca" fill-rule="evenodd" stroke="none"/>
      <path d="M77.15 30.4 Q70.15 30.3 66.6 35.45 62.6 41.15 65.25 51.3 L63.65 55.9 Q59.75 52.7 56.3 46.85 49.45 35.15 51.65 21.95 51.9 20.6 52.3 21.6 L52.75 23.2 52.8 24.5 52.95 23.8 Q53.8 18.25 55.3 13.6 58.65 18.8 61.35 19.4 65.9 20.5 74.9 14.15 91.0 2.85 106.3 2.05 94.0 5.35 85.5 12.75 75.8 21.15 77.15 30.4" fill="#730911" fill-rule="evenodd" stroke="none"/>
      <path d="M66.05 64.65 L64.0 66.65 Q62.65 67.85 63.2 70.3 59.5 68.25 58.5 69.1 57.3 69.45 57.45 68.5 57.55 67.6 58.35 66.85 59.05 66.2 58.45 64.45 57.95 63.2 61.15 63.2 63.0 63.2 66.05 64.65" fill="#6e7c85" fill-rule="evenodd" stroke="none"/>
      <path d="M65.65 54.05 Q66.5 51.9 69.6 52.0 67.35 52.8 67.1 56.3 L66.45 63.15 Q64.2 61.9 62.7 61.65 L65.65 54.05" fill="#142a5b" fill-rule="evenodd" stroke="none"/>
      <path d="M62.25 89.15 L63.8 85.25 Q65.75 86.55 67.35 88.3 64.75 88.3 62.25 89.15" fill="#142a5b" fill-rule="evenodd" stroke="none"/>
      <path d="M65.45 81.1 L69.3 84.8 Q69.25 87.15 69.65 88.4 L69.3 88.35 Q67.0 85.7 64.35 83.9 L65.45 81.1" fill="#944e12" fill-rule="evenodd" stroke="none"/>
      <path d="M67.1 78.55 Q68.8 78.85 70.0 78.55 L69.45 83.0 Q67.9 81.4 66.35 80.2 L67.1 78.55" fill="#142a5b" fill-rule="evenodd" stroke="none"/>
      <path d="M40.4 119.0 Q34.4 119.8 27.2 127.05 23.1 131.1 7.95 149.4 L2.6 149.2 27.25 121.55 Q29.45 119.7 35.2 119.1 L40.5 118.85 40.4 119.0" fill="#730911" fill-rule="evenodd" stroke="none"/>
      <path d="M59.15 124.6 Q55.8 129.8 48.1 149.4 L44.35 149.2 59.05 117.7 Q59.45 116.85 61.05 118.6 62.75 120.45 63.2 123.1 61.55 120.8 59.15 124.6" fill="#730911" fill-rule="evenodd" stroke="none"/>
      <path d="M74.7 52.6 Q72.45 49.05 66.75 50.25 64.3 43.9 66.45 38.8 68.5 34.1 73.4 32.3 65.2 38.6 71.75 43.8 74.15 45.7 78.0 47.0 81.45 48.1 84.1 48.1 90.6 48.1 84.45 51.05 L90.75 54.35 Q97.65 58.45 100.9 62.85 104.1 67.2 113.15 65.55 113.9 63.5 113.85 60.25 114.85 61.95 116.8 63.15 116.0 69.45 106.3 71.5 95.1 73.9 79.45 68.0 L75.4 63.05 Q76.9 56.05 74.7 52.6" fill="#dea623" fill-rule="evenodd" stroke="none"/>
      <path d="M92.45 57.65 Q85.3 51.35 76.65 52.0 77.7 50.1 81.05 49.4 L84.25 49.15 82.45 49.55 Q80.65 50.2 80.55 50.95 82.3 50.6 86.9 52.75 91.95 55.15 92.45 57.65" fill="#000000" fill-rule="evenodd" stroke="none"/>
      <path d="M45.4 92.7 Q44.8 89.7 48.85 89.4 53.1 89.1 57.2 92.6 61.85 96.55 62.25 100.5 62.75 104.9 57.55 107.0 58.65 102.75 53.85 98.7 49.7 95.25 47.1 95.4 L45.4 92.7" fill="#000000" fill-rule="evenodd" stroke="none"/>
      <path d="M46.7 93.5 Q46.1 90.9 49.6 90.7 53.2 90.45 56.7 93.4 60.45 96.65 60.9 100.1 61.35 103.7 57.85 105.4 59.5 101.95 54.6 98.1 50.25 94.7 47.95 94.85 L47.2 93.8 46.7 93.5" fill="#ffffff" fill-rule="evenodd" stroke="none"/>
    </g>
    <g id="sprite2" transform="matrix(1.0, 0.0, 0.0, 1.0, 0.0, -0.05)">
      <use height="161.7" transform="matrix(1.0, 0.0, 0.0, 1.0, 0.0, 0.05)" width="195.05" xlink:href="#shape4"/>
    </g>
    <g id="shape4" transform="matrix(1.0, 0.0, 0.0, 1.0, 0.0, -0.05)">
      <path d="M149.8 6.2 L146.15 6.8 Q144.25 7.2 142.6 7.75 L136.6 11.95 138.05 13.35 Q139.75 15.15 139.3 17.75 L138.95 19.15 Q138.45 20.45 137.75 20.95 136.45 21.8 134.5 20.25 L130.85 17.6 Q128.35 22.6 126.8 29.75 125.95 33.45 124.75 42.4 L127.25 41.35 Q129.55 40.55 132.05 40.5 L132.7 40.5 133.9 40.5 134.8 40.6 Q142.0 41.45 148.25 48.3 L150.75 47.6 Q149.05 40.6 151.3 33.15 153.5 25.45 158.55 21.85 158.35 20.7 154.7 18.95 157.9 18.95 160.4 21.0 L162.35 19.9 Q164.65 19.25 166.2 21.45 167.75 23.55 168.25 28.05 L168.75 36.0 Q169.35 42.7 172.35 39.4 171.7 40.5 170.85 41.2 169.05 42.65 167.7 40.5 L164.55 47.1 Q170.1 47.5 173.85 48.65 L174.75 46.3 Q176.1 43.25 177.7 40.5 179.9 36.8 183.25 33.8 186.05 31.3 186.65 32.3 L186.5 29.55 187.05 27.4 Q187.1 24.9 186.45 24.25 185.45 23.2 182.65 25.85 185.7 21.3 187.05 22.8 L187.6 23.95 Q187.65 21.95 187.05 20.9 185.8 18.95 183.1 21.0 183.55 20.1 183.1 19.4 180.8 14.5 175.35 11.55 L170.35 9.55 177.6 11.5 Q174.6 2.8 167.95 1.15 162.6 -0.2 157.35 3.05 156.35 3.85 160.05 5.9 L163.45 7.55 Q159.55 6.0 154.15 5.85 L149.8 6.2 M1.25 161.55 L0.0 161.75 Q37.25 116.95 73.25 94.9 69.7 95.15 64.95 93.65 L56.3 90.75 Q53.7 92.45 51.05 91.75 48.4 91.05 47.85 88.55 42.7 90.3 38.95 89.3 35.5 88.4 33.9 85.5 29.75 87.3 25.45 82.75 23.0 80.2 22.35 76.4 21.55 71.95 24.4 69.7 24.0 67.05 24.4 65.8 25.25 62.95 29.05 61.1 28.95 55.6 33.0 53.05 37.2 50.4 44.4 52.1 51.25 53.7 55.6 59.4 59.85 64.9 59.85 71.7 62.75 72.55 63.85 74.5 65.15 76.9 64.15 81.6 65.15 82.45 70.05 84.15 75.1 85.8 76.75 85.8 78.8 85.75 88.2 81.85 88.65 78.15 89.05 76.55 89.75 73.7 91.65 72.8 99.25 70.45 109.95 71.35 115.3 71.8 119.15 72.7 L121.05 71.15 Q123.45 70.6 129.2 72.0 L131.9 70.0 Q123.35 65.4 120.05 58.0 118.1 53.7 118.75 49.7 119.35 45.75 122.15 43.55 123.15 35.95 124.3 30.7 126.05 22.5 129.05 16.65 126.85 16.35 125.2 20.9 123.9 24.5 121.95 32.1 120.0 39.65 118.75 43.15 114.35 55.2 105.15 58.4 100.05 60.2 95.15 58.5 90.9 57.0 88.4 53.65 85.95 50.4 86.7 47.6 87.5 44.55 91.95 44.05 100.4 43.15 104.15 40.3 106.4 38.55 109.7 32.8 L116.65 20.05 Q120.2 13.6 122.7 10.9 125.9 7.5 129.35 7.9 131.6 8.15 134.25 10.0 137.05 7.75 141.15 6.3 146.2 4.45 151.6 4.25 153.15 2.65 156.4 1.4 160.25 -0.1 164.15 0.05 174.65 0.35 179.1 12.1 180.3 12.95 184.2 18.7 186.85 18.05 187.85 19.45 189.35 21.65 188.05 28.9 189.15 36.55 184.6 45.8 L184.45 46.2 Q190.3 47.1 193.45 51.05 196.95 55.45 192.7 60.0 193.95 62.5 192.6 66.6 190.9 71.55 185.95 74.7 179.4 78.8 169.0 78.85 L171.3 80.85 Q176.0 85.3 178.95 90.55 187.05 91.0 186.4 101.8 192.9 113.45 189.4 117.6 186.5 121.05 179.4 117.9 174.45 115.7 168.6 112.3 L163.75 109.25 Q159.7 112.05 155.5 114.45 147.15 119.15 146.5 116.8 145.25 111.85 142.3 107.7 L139.6 104.5 138.2 109.0 Q136.35 114.55 133.9 119.85 126.05 136.65 115.2 144.2 L113.0 144.55 117.65 138.75 Q117.3 136.0 116.55 133.4 L116.45 133.0 116.3 132.55 111.55 122.85 Q109.7 120.2 107.4 117.9 L104.0 114.85 102.55 113.75 101.45 112.95 94.85 109.25 Q91.1 107.5 87.0 106.55 L81.5 105.5 79.2 105.3 Q75.35 105.0 71.45 105.35 60.0 106.3 50.6 112.5 41.65 119.95 1.25 161.55 M177.75 41.2 L177.1 43.05 178.4 43.65 177.75 41.2 M166.95 32.0 Q166.3 25.25 165.25 23.2 164.0 20.7 161.1 22.0 162.4 22.75 164.1 25.35 166.1 28.5 166.95 32.0 M159.75 22.85 Q155.2 26.65 153.0 32.8 150.7 39.4 151.75 47.3 158.2 46.05 164.05 47.1 L166.3 42.5 164.5 43.9 160.8 43.75 Q159.05 42.85 158.2 40.45 157.4 38.1 157.8 35.65 L163.95 36.4 159.05 32.35 Q159.5 30.85 162.65 26.5 162.05 24.95 159.75 22.85 M190.65 61.25 Q188.1 62.1 184.1 59.95 178.9 57.15 177.45 51.4 171.5 47.9 161.05 47.95 153.25 48.0 148.6 49.45 146.7 49.8 147.75 48.8 142.85 43.2 135.6 42.05 L130.3 41.9 130.5 41.8 Q126.6 42.2 123.75 44.05 121.25 45.65 120.7 49.25 120.15 52.9 121.95 57.05 126.45 67.35 140.55 71.9 L144.0 72.95 Q151.2 69.25 161.1 73.8 163.65 75.0 166.15 76.7 L170.25 77.1 Q177.75 76.8 183.05 74.05 187.95 71.45 190.1 67.25 191.85 63.75 191.2 61.0 L190.85 61.2 190.8 60.95 190.7 60.95 190.65 61.25 M159.9 67.7 L160.55 67.75 Q162.0 67.9 161.55 68.2 L161.35 68.3 159.85 68.3 Q153.85 67.55 151.55 66.05 149.6 64.7 148.25 61.15 146.65 56.95 137.55 58.05 L132.15 58.95 130.8 58.85 Q133.1 55.25 137.8 54.95 L136.5 55.7 Q135.15 56.6 134.8 57.2 147.45 54.9 149.55 60.55 150.85 64.3 152.9 65.7 154.95 67.05 159.9 67.7 M175.85 45.1 L174.15 48.85 177.0 49.95 178.05 48.0 Q179.65 46.0 182.55 45.7 185.0 41.3 185.4 38.4 185.45 36.05 184.15 35.75 182.9 35.4 181.2 37.15 183.2 36.9 182.6 40.35 181.9 43.9 178.75 47.25 176.6 49.5 175.85 47.8 175.35 46.55 175.85 45.1 M184.2 33.85 Q186.1 34.05 186.35 35.85 L186.5 35.55 Q187.55 32.65 184.2 33.85 M191.4 49.95 Q188.2 47.45 186.8 48.9 185.35 50.3 188.6 53.2 191.85 56.1 193.3 54.35 194.8 52.55 191.4 49.95 M177.95 109.7 L181.15 108.25 Q186.05 105.5 184.6 98.45 184.05 95.75 182.75 94.0 181.4 92.25 180.3 92.8 182.2 99.5 178.15 103.35 176.75 104.65 174.9 105.55 L174.9 105.5 173.1 106.2 171.1 106.7 168.6 107.05 168.6 107.15 168.65 107.6 Q168.95 109.6 172.15 110.25 L172.65 110.3 176.9 110.0 178.05 109.7 177.95 109.7 M182.4 108.75 Q179.7 110.85 176.65 111.1 L180.05 113.05 174.85 111.65 Q168.75 112.3 167.4 107.35 165.15 107.1 163.75 107.35 L171.95 112.65 Q177.65 116.1 181.45 116.95 185.7 117.85 187.5 116.85 L187.5 116.9 187.95 116.5 188.25 116.15 188.6 115.4 185.55 104.65 182.85 108.4 182.4 108.75 M166.8 100.05 Q170.6 98.65 170.65 95.35 170.7 93.7 169.65 92.9 L167.1 92.8 Q166.0 94.75 164.45 95.1 L166.45 91.6 168.15 87.9 Q168.45 89.75 168.05 90.9 169.85 90.9 171.15 92.2 172.4 93.45 172.55 95.2 172.8 98.5 169.6 100.35 L169.6 100.25 167.85 101.15 167.2 101.35 166.95 101.45 Q159.85 103.5 156.3 100.5 L156.4 100.8 156.4 100.9 158.2 103.55 Q159.7 104.85 162.25 105.5 L164.55 105.9 165.95 106.0 168.05 105.9 Q170.0 105.75 171.9 105.05 175.5 103.9 177.45 101.45 180.15 98.05 178.35 93.4 176.45 88.5 172.15 83.8 167.75 79.0 162.45 76.05 156.7 72.9 151.5 72.8 145.65 72.65 141.45 76.55 137.25 80.35 135.95 84.75 135.25 86.95 135.4 89.05 135.5 92.25 137.35 94.6 L138.2 95.55 138.5 95.85 139.05 96.3 Q140.85 97.7 143.0 97.9 L146.1 97.65 146.35 97.55 145.8 96.65 145.0 95.05 Q144.05 92.7 143.75 90.05 L143.7 90.1 Q143.5 88.25 143.75 86.35 144.55 80.1 149.8 77.7 147.65 78.8 146.35 81.65 145.05 84.35 145.0 87.7 144.8 93.85 147.95 97.25 L149.5 98.65 149.95 98.95 Q151.4 99.9 153.3 99.35 154.8 98.9 154.95 98.35 L154.8 98.05 154.45 97.2 Q154.0 95.9 153.9 94.25 L153.8 94.3 Q153.55 91.95 154.0 89.1 154.95 82.8 158.8 80.6 157.4 81.85 156.4 85.35 155.35 89.05 155.6 92.65 L155.7 93.8 Q156.65 102.0 164.4 100.7 L166.8 100.05 M156.05 103.4 Q155.55 101.65 154.05 100.55 L151.0 100.35 Q148.45 100.1 146.55 98.9 L143.9 99.25 Q142.15 99.3 140.5 98.5 139.4 101.15 141.2 103.4 142.75 105.4 145.9 106.3 L151.8 106.55 Q154.85 105.75 156.05 103.4 M147.95 108.15 Q145.65 107.95 143.5 106.95 144.65 107.95 145.5 109.45 L145.6 109.65 145.85 110.2 147.7 115.0 Q148.15 116.25 150.5 115.35 L158.5 110.95 Q160.85 109.45 159.95 109.65 159.0 109.8 156.15 111.7 151.5 114.75 149.7 114.8 148.05 114.8 149.2 112.45 149.8 111.0 153.3 108.25 L156.25 106.05 Q154.85 106.95 152.75 107.6 L147.95 108.15 M124.4 15.4 Q126.0 12.75 129.0 13.0 131.55 13.25 134.2 15.4 136.5 17.25 137.35 15.95 138.15 14.6 136.05 12.8 130.1 7.8 126.1 10.1 123.6 11.5 122.2 15.35 121.3 17.75 122.05 18.0 122.75 18.2 124.4 15.4 M90.55 49.75 Q95.95 54.8 103.45 53.65 111.35 52.45 114.05 44.9 117.4 35.25 119.4 28.15 120.15 26.0 119.85 25.6 119.55 25.2 118.55 27.7 L114.75 37.6 Q111.45 44.95 108.35 45.4 106.4 45.7 104.95 44.1 103.55 42.6 102.55 43.0 96.5 45.0 91.45 45.25 89.6 45.3 89.15 46.5 88.55 47.8 90.55 49.75 M51.55 84.65 Q58.35 78.9 58.2 69.6 58.15 66.7 56.4 63.45 54.65 60.05 51.7 57.55 44.5 51.35 35.6 53.75 L35.3 53.85 34.45 54.15 33.65 54.6 32.45 55.6 31.55 56.85 Q30.5 59.0 31.15 61.7 L31.4 62.55 33.8 66.45 33.85 66.55 Q36.0 68.65 38.9 69.25 L42.8 67.1 Q45.55 65.5 45.35 64.5 45.05 63.2 43.0 61.1 40.85 58.9 39.8 59.05 38.95 60.1 38.65 58.95 38.3 57.75 39.75 57.65 41.05 57.55 43.5 59.9 45.35 61.65 46.55 63.35 46.75 62.05 47.55 63.05 48.3 63.95 47.6 65.0 46.5 66.65 40.55 69.75 L40.3 69.9 40.35 69.85 39.05 70.6 33.85 74.85 Q32.3 78.2 33.6 80.35 34.95 82.75 39.25 81.9 L39.45 81.85 40.05 81.7 40.5 81.6 41.05 81.45 Q47.2 79.7 51.2 74.85 52.05 73.8 52.4 74.1 52.65 74.4 51.85 75.6 48.35 80.55 41.7 82.9 L35.5 84.3 Q36.25 88.4 41.7 88.4 46.85 88.35 51.15 84.95 L51.55 84.65 M55.25 83.2 Q52.7 86.2 48.95 87.7 53.65 93.6 60.35 85.3 63.1 81.75 63.15 78.3 63.25 74.4 59.6 73.5 58.35 79.5 55.25 83.2 M24.7 71.0 Q23.35 73.3 23.9 76.3 24.35 79.0 26.25 81.3 28.05 83.55 30.35 84.35 32.85 85.15 34.9 83.75 31.1 82.2 31.1 77.6 25.7 75.35 24.7 71.0 M31.35 76.05 Q31.5 75.05 33.15 73.25 34.9 71.35 36.65 70.4 31.75 69.0 29.4 62.7 24.65 64.8 26.0 69.85 27.2 74.55 31.35 76.05 M138.6 74.9 Q139.6 75.3 140.1 75.7 L142.2 74.05 140.45 73.5 138.6 74.9 M134.25 74.5 L132.65 74.05 131.15 73.65 126.8 72.7 123.8 72.3 121.75 72.15 121.15 72.45 Q120.55 72.85 120.8 73.25 120.85 73.6 121.75 74.1 123.65 75.05 129.35 76.4 L132.5 77.1 137.6 78.05 139.4 76.45 Q137.35 75.4 134.25 74.5 M137.5 74.1 Q138.95 71.4 135.85 70.85 132.9 70.3 129.8 72.1 L137.5 74.1 M131.1 77.9 L128.8 77.4 128.05 77.25 127.2 77.05 120.1 74.65 Q119.3 74.2 118.95 73.75 107.65 71.2 92.65 74.3 89.15 77.45 89.4 86.05 89.75 85.75 90.65 85.35 L94.15 83.7 94.15 83.65 Q97.1 82.2 101.85 80.1 113.65 74.75 115.75 74.65 102.7 80.25 90.5 86.85 L89.05 87.6 85.75 89.45 85.35 89.7 85.2 89.75 84.85 89.95 84.9 89.95 Q82.5 91.3 80.2 92.7 L71.6 98.0 67.15 100.85 66.7 101.15 66.25 101.5 Q61.85 104.4 57.6 107.5 68.15 104.0 78.7 104.65 L78.85 104.65 80.4 104.75 84.95 105.4 96.15 108.9 97.45 109.5 98.65 110.1 102.7 112.55 103.65 113.25 105.75 114.8 111.15 120.1 111.3 120.25 111.4 120.4 111.55 120.55 111.65 120.7 111.8 120.85 115.35 126.05 Q117.25 129.45 118.45 133.2 L119.55 137.35 Q122.1 134.8 124.45 131.7 127.5 127.6 130.25 122.5 L131.3 120.5 132.75 117.55 135.8 110.55 139.0 102.4 Q138.7 101.25 139.1 98.3 134.8 95.8 133.9 90.75 132.9 84.9 137.3 79.05 L131.1 77.9 M61.1 86.75 Q59.65 88.5 57.8 89.6 L64.7 91.95 Q69.3 93.55 71.55 93.6 L76.4 93.6 87.85 87.1 88.15 83.35 Q79.25 87.2 75.85 87.15 L74.45 87.0 74.4 86.95 72.75 86.55 70.4 85.75 68.4 84.95 63.5 82.75 63.4 82.95 63.15 83.5 61.05 86.7 61.1 86.75" fill="#000000" fill-rule="evenodd" stroke="none"/>
      <path d="M149.8 6.2 L154.15 5.85 Q159.55 6.0 163.45 7.55 L160.05 5.9 Q156.35 3.85 157.35 3.05 162.6 -0.2 167.95 1.15 174.6 2.8 177.6 11.5 L170.35 9.55 175.35 11.55 Q180.8 14.5 183.1 19.4 183.55 20.1 183.1 21.0 185.8 18.95 187.05 20.9 187.65 21.95 187.6 23.95 L187.05 22.8 Q185.7 21.3 182.65 25.85 185.45 23.2 186.45 24.25 187.1 24.9 187.05 27.4 L186.5 29.55 186.65 32.3 Q186.05 31.3 183.25 33.8 179.9 36.8 177.7 40.5 176.1 43.25 174.75 46.3 L173.85 48.65 Q170.1 47.5 164.55 47.1 L167.7 40.5 Q169.05 42.65 170.85 41.2 171.7 40.5 172.35 39.4 169.35 42.7 168.75 36.0 L168.25 28.05 Q167.75 23.55 166.2 21.45 164.65 19.25 162.35 19.9 L160.4 21.0 Q157.9 18.95 154.7 18.95 158.35 20.7 158.55 21.85 153.5 25.45 151.3 33.15 149.05 40.6 150.75 47.6 L148.25 48.3 Q142.0 41.45 134.8 40.6 133.9 29.7 137.75 20.95 138.45 20.45 138.95 19.15 L139.3 17.75 Q144.25 9.0 152.05 6.0 L149.8 6.2 M132.05 40.5 Q129.55 40.55 127.25 41.35 L127.55 41.2 Q129.75 40.5 132.05 40.5 M187.5 116.85 Q187.45 115.55 186.45 113.65 185.3 111.4 182.4 108.75 L182.85 108.4 185.55 104.65 188.6 115.4 187.95 116.5 187.5 116.9 187.5 116.85 M74.45 87.0 L74.85 87.2 Q76.75 88.4 76.05 89.05 75.35 89.65 72.4 89.55 69.0 89.4 61.1 86.75 L61.05 86.7 63.15 83.5 63.4 82.95 64.9 83.45 70.4 85.75 72.75 86.55 74.4 86.95 74.45 87.0" fill="#488fc1" fill-rule="evenodd" stroke="none"/>
      <path d="M139.3 17.75 Q139.75 15.15 138.05 13.35 L136.6 11.95 142.6 7.75 Q144.25 7.2 146.15 6.8 L149.8 6.2 152.05 6.0 Q144.25 9.0 139.3 17.75 M134.8 40.6 L133.9 40.5 132.7 40.5 132.05 40.5 Q129.75 40.5 127.55 41.2 L127.25 41.35 124.75 42.4 Q125.95 33.45 126.8 29.75 128.35 22.6 130.85 17.6 L134.5 20.25 Q136.45 21.8 137.75 20.95 133.9 29.7 134.8 40.6 M182.4 108.75 Q185.3 111.4 186.45 113.65 187.45 115.55 187.5 116.85 185.7 117.85 181.45 116.95 177.65 116.1 171.95 112.65 L163.75 107.35 Q165.15 107.1 167.4 107.35 168.75 112.3 174.85 111.65 L180.05 113.05 176.65 111.1 Q179.7 110.85 182.4 108.75 M187.95 116.5 L188.6 115.4 188.25 116.15 187.95 116.5 M137.5 74.1 L129.8 72.1 Q132.9 70.3 135.85 70.85 138.95 71.4 137.5 74.1 M74.45 87.0 L75.85 87.15 Q79.25 87.2 88.15 83.35 L87.85 87.1 76.4 93.6 71.55 93.6 Q69.3 93.55 64.7 91.95 L57.8 89.6 Q59.65 88.5 61.1 86.75 69.0 89.4 72.4 89.55 75.35 89.65 76.05 89.05 76.75 88.4 74.85 87.2 L74.45 87.0 M63.4 82.95 L63.5 82.75 68.4 84.95 70.4 85.75 64.9 83.45 63.4 82.95" fill="#0c4f7d" fill-rule="evenodd" stroke="none"/>
      <path d="M177.75 41.2 L178.4 43.65 177.1 43.05 177.75 41.2 M159.75 22.85 Q162.05 24.95 162.65 26.5 159.5 30.85 159.05 32.35 L163.95 36.4 157.8 35.65 Q157.4 38.1 158.2 40.45 159.05 42.85 160.8 43.75 L164.5 43.9 166.3 42.5 164.05 47.1 Q158.2 46.05 151.75 47.3 150.7 39.4 153.0 32.8 155.2 26.65 159.75 22.85 M175.85 45.1 Q175.35 46.55 175.85 47.8 176.6 49.5 178.75 47.25 181.9 43.9 182.6 40.35 183.2 36.9 181.2 37.15 182.9 35.4 184.15 35.75 185.45 36.05 185.4 38.4 185.0 41.3 182.55 45.7 179.65 46.0 178.05 48.0 L177.0 49.95 174.15 48.85 175.85 45.1 M174.9 105.55 Q176.75 104.65 178.15 103.35 182.2 99.5 180.3 92.8 181.4 92.25 182.75 94.0 184.05 95.75 184.6 98.45 186.05 105.5 181.15 108.25 L177.95 109.7 Q174.75 109.75 174.9 105.55 M172.65 110.3 L172.15 110.25 Q168.95 109.6 168.65 107.6 168.95 109.15 171.2 109.95 L172.65 110.3 M169.6 100.35 Q172.8 98.5 172.55 95.2 172.4 93.45 171.15 92.2 169.85 90.9 168.05 90.9 168.45 89.75 168.15 87.9 L166.45 91.6 164.45 95.1 Q166.0 94.75 167.1 92.8 L169.65 92.9 Q170.7 93.7 170.65 95.35 170.6 98.65 166.8 100.05 170.0 98.8 170.6 96.05 169.1 97.8 163.3 96.95 L159.3 97.05 155.7 93.8 155.6 92.65 Q155.35 89.05 156.4 85.35 157.4 81.85 158.8 80.6 154.95 82.8 154.0 89.1 153.55 91.95 153.8 94.3 152.2 95.25 149.7 94.35 147.15 93.45 145.25 91.2 145.9 94.95 147.95 97.25 144.8 93.85 145.0 87.7 145.05 84.35 146.35 81.65 147.65 78.8 149.8 77.7 144.55 80.1 143.75 86.35 143.5 88.25 143.7 90.1 141.75 92.85 139.25 91.85 136.7 90.8 135.5 86.85 L135.4 89.05 Q135.25 86.95 135.95 84.75 137.25 80.35 141.45 76.55 145.65 72.65 151.5 72.8 156.7 72.9 162.45 76.05 167.75 79.0 172.15 83.8 176.45 88.5 178.35 93.4 180.15 98.05 177.45 101.45 175.5 103.9 171.9 105.05 L173.45 104.45 Q171.8 104.15 170.7 103.0 169.6 101.85 169.6 100.35 M162.25 105.5 L163.1 105.7 164.55 105.9 162.25 105.5 M35.3 53.85 L35.6 53.75 Q44.5 51.35 51.7 57.55 54.65 60.05 56.4 63.45 58.15 66.7 58.2 69.6 58.35 78.9 51.55 84.65 49.4 84.85 48.0 83.7 46.6 82.5 46.7 80.55 44.5 81.95 41.7 82.9 48.35 80.55 51.85 75.6 52.65 74.4 52.4 74.1 52.05 73.8 51.2 74.85 47.2 79.7 41.05 81.45 L42.2 81.05 Q38.3 80.45 37.25 74.75 36.8 72.7 40.3 69.9 L40.55 69.75 Q46.5 66.65 47.6 65.0 48.3 63.95 47.55 63.05 46.75 62.05 46.55 63.35 45.35 61.65 43.5 59.9 41.05 57.55 39.75 57.65 38.3 57.75 38.65 58.95 38.95 60.1 39.8 59.05 40.85 58.9 43.0 61.1 45.05 63.2 45.35 64.5 45.55 65.5 42.8 67.1 L38.9 69.25 44.3 66.1 Q39.65 68.65 36.6 63.1 35.35 60.8 35.0 58.15 34.65 55.5 35.3 53.85 M31.4 62.55 L31.15 61.7 Q30.5 59.0 31.55 56.85 L32.45 55.6 Q31.85 56.2 31.5 57.05 30.5 59.2 31.2 61.9 L31.4 62.55 M60.35 85.3 Q59.2 86.1 57.95 86.25 55.55 86.5 55.25 83.2 58.35 79.5 59.6 73.5 63.25 74.4 63.15 78.3 63.1 81.75 60.35 85.3" fill="#ffffff" fill-rule="evenodd" stroke="none"/>
      <path d="M166.95 32.0 Q166.1 28.5 164.1 25.35 162.4 22.75 161.1 22.0 164.0 20.7 165.25 23.2 166.3 25.25 166.95 32.0 M184.2 33.85 Q187.55 32.65 186.5 35.55 L186.35 35.85 Q186.1 34.05 184.2 33.85" fill="#1c6daf" fill-rule="evenodd" stroke="none"/>
      <path d="M130.3 41.9 L135.6 42.05 Q142.85 43.2 147.75 48.8 146.7 49.8 148.6 49.45 153.25 48.0 161.05 47.95 171.5 47.9 177.45 51.4 178.9 57.15 184.1 59.95 188.1 62.1 190.65 61.25 189.55 68.4 181.05 70.75 173.5 72.8 166.4 70.2 L161.35 68.3 161.55 68.2 Q162.0 67.9 160.55 67.75 L159.9 67.7 Q153.45 64.95 152.0 63.3 150.9 62.05 150.25 60.25 L149.2 57.6 Q147.9 54.85 143.0 54.45 L145.65 52.55 Q146.15 51.45 141.7 51.9 133.15 52.7 129.3 48.45 127.7 46.65 128.0 44.85 128.25 43.0 130.3 41.9 M190.85 61.2 L191.2 61.0 Q191.85 63.75 190.1 67.25 187.95 71.45 183.05 74.05 177.75 76.8 170.25 77.1 177.45 76.65 182.6 74.0 187.5 71.4 189.65 67.15 191.35 63.85 190.85 61.2" fill="#f9de65" fill-rule="evenodd" stroke="none"/>
      <path d="M130.3 41.9 Q128.25 43.0 128.0 44.85 127.7 46.65 129.3 48.45 133.15 52.7 141.7 51.9 146.15 51.45 145.65 52.55 L143.0 54.45 Q147.9 54.85 149.2 57.6 L150.25 60.25 Q150.9 62.05 152.0 63.3 153.45 64.95 159.9 67.7 154.95 67.05 152.9 65.7 150.85 64.3 149.55 60.55 147.45 54.9 134.8 57.2 135.15 56.6 136.5 55.7 L137.8 54.95 Q133.1 55.25 130.8 58.85 L132.15 58.95 137.55 58.05 Q146.65 56.95 148.25 61.15 149.6 64.7 151.55 66.05 153.85 67.55 159.85 68.3 L161.35 68.3 166.4 70.2 Q173.5 72.8 181.05 70.75 189.55 68.4 190.65 61.25 L190.7 60.95 190.8 60.95 190.85 61.2 Q191.35 63.85 189.65 67.15 187.5 71.4 182.6 74.0 177.45 76.65 170.25 77.1 L166.15 76.7 Q163.65 75.0 161.1 73.8 151.2 69.25 144.0 72.95 L140.55 71.9 Q126.45 67.35 121.95 57.05 120.15 52.9 120.7 49.25 121.25 45.65 123.75 44.05 126.6 42.2 130.5 41.8 L130.3 41.9" fill="#dea623" fill-rule="evenodd" stroke="none"/>
      <path d="M191.4 49.95 Q194.8 52.55 193.3 54.35 191.85 56.1 188.6 53.2 185.35 50.3 186.8 48.9 188.2 47.45 191.4 49.95 M124.4 15.4 Q122.75 18.2 122.05 18.0 121.3 17.75 122.2 15.35 123.6 11.5 126.1 10.1 130.1 7.8 136.05 12.8 138.15 14.6 137.35 15.95 136.5 17.25 134.2 15.4 131.55 13.25 129.0 13.0 126.0 12.75 124.4 15.4 M90.55 49.75 Q88.55 47.8 89.15 46.5 89.6 45.3 91.45 45.25 96.5 45.0 102.55 43.0 103.55 42.6 104.95 44.1 106.4 45.7 108.35 45.4 111.45 44.95 114.75 37.6 L118.55 27.7 Q119.55 25.2 119.85 25.6 120.15 26.0 119.4 28.15 117.4 35.25 114.05 44.9 111.35 52.45 103.45 53.65 95.95 54.8 90.55 49.75" fill="#451d43" fill-rule="evenodd" stroke="none"/>
      <path d="M177.95 109.7 L178.05 109.7 176.9 110.0 172.65 110.3 171.2 109.95 Q168.95 109.15 168.65 107.6 L168.6 107.15 168.6 107.05 171.1 106.7 173.1 106.2 174.9 105.5 174.9 105.55 Q174.75 109.75 177.95 109.7 M169.6 100.35 Q169.6 101.85 170.7 103.0 171.8 104.15 173.45 104.45 L171.9 105.05 Q170.0 105.75 168.05 105.9 L165.95 106.0 164.55 105.9 163.1 105.7 162.25 105.5 Q159.7 104.85 158.2 103.55 L156.4 100.9 156.4 100.8 156.3 100.5 Q159.85 103.5 166.95 101.45 L167.2 101.35 167.85 101.15 169.6 100.25 169.6 100.35 M135.4 89.05 L135.5 86.85 Q136.7 90.8 139.25 91.85 141.75 92.85 143.7 90.1 L143.75 90.05 Q144.05 92.7 145.0 95.05 L145.8 96.65 146.35 97.55 146.1 97.65 143.0 97.9 Q140.85 97.7 139.05 96.3 L138.5 95.85 138.2 95.55 137.35 94.6 Q135.5 92.25 135.4 89.05 M147.95 97.25 Q145.9 94.95 145.25 91.2 147.15 93.45 149.7 94.35 152.2 95.25 153.8 94.3 L153.9 94.25 Q154.0 95.9 154.45 97.2 L154.8 98.05 154.95 98.35 Q154.8 98.9 153.3 99.35 151.4 99.9 149.95 98.95 L149.5 98.65 147.95 97.25 M155.7 93.8 L159.3 97.05 163.3 96.95 Q169.1 97.8 170.6 96.05 170.0 98.8 166.8 100.05 L164.4 100.7 Q156.65 102.0 155.7 93.8 M156.05 103.4 Q154.85 105.75 151.8 106.55 L145.9 106.3 Q142.75 105.4 141.2 103.4 139.4 101.15 140.5 98.5 142.15 99.3 143.9 99.25 L146.55 98.9 Q148.45 100.1 151.0 100.35 L154.05 100.55 Q155.55 101.65 156.05 103.4 M51.55 84.65 L51.15 84.95 Q46.85 88.35 41.7 88.4 36.25 88.4 35.5 84.3 L41.7 82.9 Q44.5 81.95 46.7 80.55 46.6 82.5 48.0 83.7 49.4 84.85 51.55 84.65 M41.05 81.45 L40.5 81.6 40.05 81.7 39.45 81.85 39.25 81.9 Q34.95 82.75 33.6 80.35 32.3 78.2 33.85 74.85 L39.05 70.6 40.35 69.85 40.3 69.9 Q36.8 72.7 37.25 74.75 38.3 80.45 42.2 81.05 L41.05 81.45 M38.9 69.25 Q36.0 68.65 33.85 66.55 L33.8 66.45 31.4 62.55 31.2 61.9 Q30.5 59.2 31.5 57.05 31.85 56.2 32.45 55.6 L33.65 54.6 34.45 54.15 35.3 53.85 Q34.65 55.5 35.0 58.15 35.35 60.8 36.6 63.1 39.65 68.65 44.3 66.1 L38.9 69.25 M55.25 83.2 Q55.55 86.5 57.95 86.25 59.2 86.1 60.35 85.3 53.65 93.6 48.95 87.7 52.7 86.2 55.25 83.2 M31.35 76.05 Q27.2 74.55 26.0 69.85 24.65 64.8 29.4 62.7 31.75 69.0 36.65 70.4 34.9 71.35 33.15 73.25 31.5 75.05 31.35 76.05 M24.7 71.0 Q25.7 75.35 31.1 77.6 31.1 82.2 34.9 83.75 32.85 85.15 30.35 84.35 28.05 83.55 26.25 81.3 24.35 79.0 23.9 76.3 23.35 73.3 24.7 71.0" fill="#b8d2ca" fill-rule="evenodd" stroke="none"/>
      <path d="M145.6 109.65 L145.5 109.45 Q144.65 107.95 143.5 106.95 145.65 107.95 147.95 108.15 147.05 109.35 146.35 111.15 L145.6 109.65 M97.35 85.65 Q106.95 84.95 116.8 89.7 L114.3 88.65 Q105.7 85.2 97.25 85.75 L93.0 88.65 Q88.8 88.8 84.9 89.95 L84.85 89.95 85.2 89.75 85.35 89.7 85.75 89.45 89.05 87.6 90.5 86.85 Q93.9 85.9 97.35 85.65 M135.8 110.55 L132.75 117.55 Q132.2 113.05 130.0 108.85 128.8 106.5 127.05 104.25 L123.4 100.15 Q127.55 104.05 130.05 108.95 L131.5 104.6 Q129.55 101.6 128.35 97.7 L130.05 99.55 Q134.6 104.85 135.8 110.55 M131.3 120.5 L130.25 122.5 Q127.5 127.6 124.45 131.7 124.2 128.55 123.45 125.6 121.75 118.95 117.65 113.35 L115.5 110.65 Q121.25 117.0 123.45 125.55 126.3 120.2 128.65 113.2 L128.2 112.3 128.6 113.1 Q130.35 116.6 131.3 120.5 M66.25 101.5 L66.7 101.15 67.15 100.85 71.6 98.0 80.2 92.7 Q84.95 91.15 90.05 90.95 L91.65 90.9 90.1 90.95 Q86.55 93.85 84.0 97.0 L83.95 97.0 Q74.35 97.1 66.25 101.5 M94.15 83.65 L94.15 83.7 90.65 85.35 Q89.5 80.4 93.35 74.15 L96.65 73.6 Q93.7 78.4 94.15 83.65 M114.3 97.55 L112.65 96.6 111.3 95.8 111.65 96.0 114.3 97.55 M98.8 99.45 Q102.1 100.6 105.25 102.4 L103.2 101.35 98.8 99.45 M101.2 89.2 L100.4 89.1 99.05 88.9 101.2 89.2" fill="#a51800" fill-rule="evenodd" stroke="none"/>
      <path d="M145.6 109.65 L146.35 111.15 Q147.05 109.35 147.95 108.15 L152.75 107.6 Q154.85 106.95 156.25 106.05 L153.3 108.25 Q149.8 111.0 149.2 112.45 148.05 114.8 149.7 114.8 151.5 114.75 156.15 111.7 159.0 109.8 159.95 109.65 160.85 109.45 158.5 110.95 L150.5 115.35 Q148.15 116.25 147.7 115.0 L145.85 110.2 145.6 109.65 M134.25 74.5 Q137.35 75.4 139.4 76.45 L137.6 78.05 132.5 77.1 134.25 74.5 M121.75 74.1 Q120.85 73.6 120.8 73.25 120.55 72.85 121.15 72.45 L121.75 72.15 123.8 72.3 Q122.2 73.15 121.75 74.1 M128.8 77.4 L127.2 77.05 128.05 77.25 128.8 77.4 M120.1 74.65 Q110.35 77.8 100.15 83.9 L97.35 85.65 Q93.9 85.9 90.5 86.85 102.7 80.25 115.75 74.65 113.65 74.75 101.85 80.1 97.1 82.2 94.15 83.65 93.7 78.4 96.65 73.6 L93.35 74.15 Q89.5 80.4 90.65 85.35 89.75 85.75 89.4 86.05 89.15 77.45 92.65 74.3 107.65 71.2 118.95 73.75 119.3 74.2 120.1 74.65 M128.2 97.6 Q127.0 93.6 126.85 89.0 126.6 79.85 131.1 77.9 L137.3 79.05 Q132.9 84.9 133.9 90.75 134.8 95.8 139.1 98.3 138.7 101.25 139.0 102.4 L135.8 110.55 Q134.6 104.85 130.05 99.55 L128.35 97.7 128.2 97.6 M132.75 117.55 L131.3 120.5 Q130.35 116.6 128.6 113.1 L130.0 108.85 Q132.2 113.05 132.75 117.55 M124.45 131.7 Q122.1 134.8 119.55 137.35 L118.45 133.2 Q121.1 129.95 123.45 125.6 124.2 128.55 124.45 131.7 M98.65 110.1 L97.45 109.5 96.15 108.9 Q97.4 109.45 98.65 110.1 M78.85 104.65 L78.7 104.65 Q68.15 104.0 57.6 107.5 61.85 104.4 66.25 101.5 74.35 97.1 83.95 97.0 82.6 98.6 81.6 100.25 L78.85 104.65 M80.2 92.7 Q82.5 91.3 84.9 89.95 88.8 88.8 93.0 88.65 L90.05 90.95 Q84.95 91.15 80.2 92.7" fill="#d48104" fill-rule="evenodd" stroke="none"/>
      <path d="M113.0 144.55 L112.85 144.7 106.1 145.7 Q109.75 143.15 112.6 139.4 L116.55 133.4 Q117.3 136.0 117.65 138.75 L113.0 144.55 M76.35 150.2 L1.25 161.55 Q41.65 119.95 50.6 112.5 60.0 106.3 71.45 105.35 75.35 105.0 79.2 105.3 L78.7 106.1 Q74.5 114.35 73.45 128.9 72.35 144.2 76.35 150.2" fill="#2c0f30" fill-rule="evenodd" stroke="none"/>
      <path d="M123.8 72.3 L126.8 72.7 131.15 73.65 132.65 74.05 134.25 74.5 132.5 77.1 129.35 76.4 Q123.65 75.05 121.75 74.1 122.2 73.15 123.8 72.3 M128.8 77.4 L131.1 77.9 Q126.6 79.85 126.85 89.0 127.0 93.6 128.2 97.6 124.35 93.75 119.15 90.9 L116.8 89.7 Q106.95 84.95 97.35 85.65 L100.15 83.9 Q110.35 77.8 120.1 74.65 L127.2 77.05 128.8 77.4 M118.45 133.2 Q117.25 129.45 115.35 126.05 L111.8 120.85 111.65 120.7 111.55 120.55 111.4 120.4 111.3 120.25 111.15 120.1 105.75 114.8 103.65 113.25 102.7 112.55 98.65 110.1 Q97.4 109.45 96.15 108.9 L84.95 105.4 80.4 104.75 78.85 104.65 81.6 100.25 Q82.6 98.6 83.95 97.0 L84.0 97.0 84.8 97.0 98.8 99.45 103.2 101.35 105.25 102.4 106.9 103.4 108.55 104.5 110.95 106.3 115.5 110.65 117.65 113.35 Q121.75 118.95 123.45 125.6 121.1 129.95 118.45 133.2 M111.3 95.8 L108.6 94.55 Q102.7 91.9 96.3 91.15 L91.65 90.9 90.05 90.95 93.0 88.65 95.35 88.65 99.05 88.9 100.4 89.1 101.2 89.2 109.65 91.6 113.5 93.3 114.75 94.0 116.35 94.9 119.0 96.6 123.4 100.15 127.05 104.25 Q128.8 106.5 130.0 108.85 L128.6 113.1 128.2 112.3 124.85 107.05 122.9 104.7 118.85 100.85 114.3 97.55 111.65 96.0 111.3 95.8" fill="#ffd920" fill-rule="evenodd" stroke="none"/>
      <path d="M116.8 89.7 L119.15 90.9 Q124.35 93.75 128.2 97.6 L128.35 97.7 Q129.55 101.6 131.5 104.6 L130.05 108.95 Q127.55 104.05 123.4 100.15 L119.0 96.6 116.35 94.9 114.75 94.0 113.5 93.3 109.65 91.6 101.2 89.2 99.05 88.9 95.35 88.65 93.0 88.65 97.25 85.75 Q105.7 85.2 114.3 88.65 L116.8 89.7 M111.3 95.8 L112.65 96.6 114.3 97.55 118.85 100.85 122.9 104.7 124.85 107.05 128.2 112.3 128.65 113.2 Q126.3 120.2 123.45 125.55 121.25 117.0 115.5 110.65 L110.95 106.3 108.55 104.5 106.9 103.4 105.25 102.4 Q102.1 100.6 98.8 99.45 L84.8 97.0 84.0 97.0 Q86.55 93.85 90.1 90.95 L91.65 90.9 96.3 91.15 Q102.7 91.9 108.6 94.55 L111.3 95.8" fill="#fe4114" fill-rule="evenodd" stroke="none"/>
      <path d="M106.1 145.7 L76.35 150.2 Q72.35 144.2 73.45 128.9 74.5 114.35 78.7 106.1 L79.2 105.3 81.5 105.5 87.0 106.55 Q91.1 107.5 94.85 109.25 L101.45 112.95 102.55 113.75 104.0 114.85 107.4 117.9 Q109.7 120.2 111.55 122.85 L116.3 132.55 116.45 133.0 116.55 133.4 112.6 139.4 Q109.75 143.15 106.1 145.7" fill="#582554" fill-rule="evenodd" stroke="none"/>
    </g>
  </defs>
</svg>
