<?xml version="1.0" encoding="UTF-8" standalone="no"?>
<svg xmlns:xlink="http://www.w3.org/1999/xlink" height="73.0px" width="1398.55px" xmlns="http://www.w3.org/2000/svg">
  <g transform="matrix(1.0, 0.0, 0.0, 1.0, 478.0, 0.0)">
    <use height="68.0" transform="matrix(1.0, 0.0, 0.0, 1.0, -478.0, 0.0)" width="478.1" xlink:href="#shape0"/>
  </g>
  <defs>
    <g id="shape0" transform="matrix(1.0, 0.0, 0.0, 1.0, 239.05, 34.0)">
      <path d="M187.4 -33.7 L239.05 -33.55 213.8 24.0 206.15 23.95 Q208.3 27.0 202.45 34.0 L172.65 33.55 171.25 28.2 136.65 28.8 116.1 31.1 96.6 31.05 97.3 33.7 22.1 33.55 Q25.65 25.55 20.75 25.5 L-30.8 25.4 Q-24.5 24.75 -28.9 23.75 -33.35 22.7 -120.95 24.85 -118.45 28.2 -121.4 30.2 -124.4 32.2 -153.45 30.1 L-171.2 31.4 Q-175.25 31.75 -189.7 29.95 L-209.2 27.95 -229.4 26.9 Q-230.9 26.9 -228.3 25.9 L-222.15 23.7 Q-213.7 20.45 -222.0 20.45 L-239.05 20.4 -216.0 -32.15 -71.9 -31.8 Q-74.9 -29.9 -67.2 -31.65 L-58.95 -33.75 -27.85 -33.7 Q-28.3 -32.7 -28.1 -31.7 -27.8 -29.7 -24.75 -29.7 L26.85 -29.55 Q26.5 -30.3 26.75 -31.15 27.35 -32.9 30.65 -33.55 36.0 -34.5 59.2 -33.5 L59.5 -31.9 Q59.9 -30.05 60.65 -28.8 61.4 -27.55 72.7 -29.0 L83.8 -30.75 104.7 -30.7 Q113.2 -30.65 127.5 -28.65 141.9 -26.6 146.1 -26.6 153.75 -26.6 189.1 -27.15 190.6 -27.15 188.9 -28.15 186.15 -29.6 184.75 -30.4 179.1 -33.7 187.4 -33.7" fill="#000000" fill-rule="evenodd" stroke="none"/>
    </g>
  </defs>
</svg>
